mtllib p121a.mtl
s 1
o Pipe1
g 
usemtl Color_M00
v 12.44 -18.2267 -20.01
v 12.44 -18.2267 -20.21
v 12.34 -18.2267 -20.11
vn 0 1 0
f 1//1 2//1 3//1 
v 12.54 -18.2267 -20.11
f 2//1 1//1 4//1 
v 12.44 -23.56 -20.21
v 12.44 -23.56 -20.01
v 12.34 -23.56 -20.11
vn 0 -1 0
f 5//2 6//2 7//2 
v 12.54 -23.56 -20.11
f 6//2 5//2 8//2 
vn 0 0 1
vn 1 0 0
f 1//3 8//4 4//4 
f 8//4 1//3 6//3 
vn -1 0 0
f 7//5 1//3 3//5 
f 1//3 7//5 6//3 
vn 0 0 -1
f 7//5 2//6 5//6 
f 2//6 7//5 3//5 
f 8//4 2//6 4//4 
f 2//6 8//4 5//6 
o Pipe10
g 
usemtl Color_M00
v -7.56 -23.6432 -10.0545
v -7.56 -23.4768 -10.1655
v -7.46 -23.56 -10.11
vn 0 -0.5547 -0.83205
f 9//7 10//7 11//7 
v -7.66 -23.56 -10.11
f 10//7 9//7 12//7 
v -7.56 -13.4768 4.83453
v -7.56 -13.6432 4.94547
v -7.46 -13.56 4.89
vn 0 0.5547 0.83205
f 13//8 14//8 15//8 
v -7.66 -13.56 4.89
f 14//8 13//8 16//8 
vn 0 -0.83205 0.5547
vn -1 0 0
f 9//9 16//10 12//10 
f 16//10 9//9 14//9 
vn 1 0 0
f 15//11 9//9 11//11 
f 9//9 15//11 14//9 
vn 0 0.832069 -0.554672
f 15//11 10//12 13//12 
f 10//12 15//11 11//11 
f 16//10 10//12 12//10 
f 10//12 16//10 13//12 
o Pipe11
g 
usemtl Color_M00
v 22.44 -18.2267 -20.01
v 22.44 -18.2267 -20.21
v 22.44 -18.1267 -20.11
vn 1 0 0
f 17//13 18//13 19//13 
v 22.44 -18.3267 -20.11
f 18//13 17//13 20//13 
v 12.44 -18.2267 -20.21
v 12.44 -18.2267 -20.01
v 12.44 -18.1267 -20.11
vn -1 0 0
f 21//14 22//14 23//14 
v 12.44 -18.3267 -20.11
f 22//14 21//14 24//14 
vn 0 0 1
vn 0 -1 0
f 17//15 24//16 20//16 
f 24//16 17//15 22//15 
vn 0 1 0
f 23//17 17//15 19//17 
f 17//15 23//17 22//15 
vn 0 0 -1
f 23//17 18//18 21//18 
f 18//18 23//17 19//17 
f 24//16 18//18 20//16 
f 18//18 24//16 21//18 
o Pipe12
g 
usemtl Color_M00
v -23.1 21.49 -1.7
v -23.1 21.49 -1.9
v -23.2 21.49 -1.8
vn 0 1 0
f 25//19 26//19 27//19 
v -23 21.49 -1.8
f 26//19 25//19 28//19 
v -23.1 11.24 -1.9
v -23.1 11.24 -1.7
v -23.2 11.24 -1.8
vn 0 -1 0
f 29//20 30//20 31//20 
v -23 11.24 -1.8
f 30//20 29//20 32//20 
vn 0 0 1
vn 1 0 0
f 25//21 32//22 28//22 
f 32//22 25//21 30//21 
vn -1 0 0
f 31//23 25//21 27//23 
f 25//21 31//23 30//21 
vn 0 0 -1
f 31//23 26//24 29//24 
f 26//24 31//23 27//23 
f 32//22 26//24 28//22 
f 26//24 32//22 29//24 
o Pipe13
g 
usemtl Color_M00
v -23.1 -13.6432 4.94547
v -23.1 -13.4768 4.83453
v -23 -13.56 4.89
vn 0 -0.5547 -0.83205
f 33//25 34//25 35//25 
v -23.2 -13.56 4.89
f 34//25 33//25 36//25 
v -23.1 -3.47679 19.8345
v -23.1 -3.64321 19.9455
v -23 -3.56 19.89
vn 0 0.5547 0.83205
f 37//26 38//26 39//26 
v -23.2 -3.56 19.89
f 38//26 37//26 40//26 
vn 0 -0.832043 0.554711
vn -1 0 0
f 33//27 40//28 36//28 
f 40//28 33//27 38//27 
vn 1 0 0
f 39//29 33//27 35//29 
f 33//27 39//29 38//27 
vn 0 0.832043 -0.554711
f 39//29 34//30 37//30 
f 34//30 39//29 35//29 
f 40//28 34//30 36//28 
f 34//30 40//28 37//30 
o Pipe14
g 
usemtl Color_M00
v -7.56 -23.56 -20.01
v -7.56 -23.56 -20.21
v -7.56 -23.66 -20.11
vn -1 0 0
f 41//31 42//31 43//31 
v -7.56 -23.46 -20.11
f 42//31 41//31 44//31 
v 12.44 -23.56 -20.21
v 12.44 -23.56 -20.01
v 12.44 -23.66 -20.11
vn 1 0 0
f 45//32 46//32 47//32 
v 12.44 -23.46 -20.11
f 46//32 45//32 48//32 
vn 0 0 1
vn 0 1 0
f 41//33 48//34 44//34 
f 48//34 41//33 46//33 
vn 0 -1 0
f 47//35 41//33 43//35 
f 41//33 47//35 46//33 
vn 0 0 -1
f 47//35 42//36 45//36 
f 42//36 47//35 43//35 
f 48//34 42//36 44//34 
f 42//36 48//34 45//36 
o Pipe15
g 
usemtl Color_M00
v -23.1 11.24 -20.01
v -23.1 11.24 -20.21
v -23.2 11.24 -20.11
vn 0 1 0
f 49//37 50//37 51//37 
v -23 11.24 -20.11
f 50//37 49//37 52//37 
v -23.1 -13.56 -20.21
v -23.1 -13.56 -20.01
v -23.2 -13.56 -20.11
vn 0 -1 0
f 53//38 54//38 55//38 
v -23 -13.56 -20.11
f 54//38 53//38 56//38 
vn 0 0 1
vn 1 0 0
f 49//39 56//40 52//40 
f 56//40 49//39 54//39 
vn -1 0 0
f 55//41 49//39 51//41 
f 49//39 55//41 54//39 
vn 0 0 -1
f 55//41 50//42 53//42 
f 50//42 55//41 51//41 
f 56//40 50//42 52//40 
f 50//42 56//40 53//42 
o Pipe16
g 
usemtl Color_M00
v -23.1 -13.56 4.99
v -23.1 -13.56 4.79
v -23.1 -13.66 4.89
vn -1 0 0
f 57//43 58//43 59//43 
v -23.1 -13.46 4.89
f 58//43 57//43 60//43 
v -7.56 -13.56 4.79
v -7.56 -13.56 4.99
v -7.56 -13.66 4.89
vn 1 0 0
f 61//44 62//44 63//44 
v -7.56 -13.46 4.89
f 62//44 61//44 64//44 
vn 0 0 1
vn 0 1 0
f 57//45 64//46 60//46 
f 64//46 57//45 62//45 
vn 0 -1 0
f 63//47 57//45 59//47 
f 57//45 63//47 62//45 
vn 0 0 -1
f 63//47 58//48 61//48 
f 58//48 63//47 59//47 
f 64//46 58//48 60//46 
f 58//48 64//46 61//48 
o Pipe17
g 
usemtl Color_M00
v -7.56 -23.46 -20.11
v -7.56 -23.66 -20.11
v -7.66 -23.56 -20.11
vn 0 0 -1
f 65//49 66//49 67//49 
v -7.46 -23.56 -20.11
f 66//49 65//49 68//49 
v -7.56 -23.66 -10.11
v -7.56 -23.46 -10.11
v -7.66 -23.56 -10.11
vn 0 0 1
f 69//50 70//50 71//50 
v -7.46 -23.56 -10.11
f 70//50 69//50 72//50 
vn 0 1 0
vn 1 0 0
f 65//51 72//52 68//52 
f 72//52 65//51 70//51 
vn -1 0 0
f 71//53 65//51 67//53 
f 65//51 71//53 70//51 
vn 0 -1 0
f 71//53 66//54 69//54 
f 66//54 71//53 67//53 
f 72//52 66//54 68//52 
f 66//54 72//52 69//54 
o Pipe18
g 
usemtl Color_M00
v -23.1 11.24 -20.01
v -23.1 11.24 -20.21
v -23.1 11.14 -20.11
vn -1 0 0
f 73//55 74//55 75//55 
v -23.1 11.34 -20.11
f 74//55 73//55 76//55 
v 22.44 11.24 -20.21
v 22.44 11.24 -20.01
v 22.44 11.14 -20.11
vn 1 0 0
f 77//56 78//56 79//56 
v 22.44 11.34 -20.11
f 78//56 77//56 80//56 
vn 0 0 1
vn 0 1 0
f 73//57 80//58 76//58 
f 80//58 73//57 78//57 
vn 0 -1 0
f 79//59 73//57 75//59 
f 73//57 79//59 78//57 
vn 0 0 -1
f 79//59 74//60 77//60 
f 74//60 79//59 75//59 
f 80//58 74//60 76//58 
f 74//60 80//58 77//60 
o Pipe19
g 
usemtl Color_M00
v 22.44 -18.2267 -20.01
v 22.44 -18.2267 -20.21
v 22.54 -18.2267 -20.11
vn 0 -1 0
f 81//61 82//61 83//61 
v 22.34 -18.2267 -20.11
f 82//61 81//61 84//61 
v 22.44 11.24 -20.21
v 22.44 11.24 -20.01
v 22.54 11.24 -20.11
vn 0 1 0
f 85//62 86//62 87//62 
v 22.34 11.24 -20.11
f 86//62 85//62 88//62 
vn 0 0 1
vn -1 0 0
f 81//63 88//64 84//64 
f 88//64 81//63 86//63 
vn 1 0 0
f 87//65 81//63 83//65 
f 81//63 87//65 86//63 
vn 0 0 -1
f 87//65 82//66 85//66 
f 82//66 87//65 83//65 
f 88//64 82//66 84//64 
f 82//66 88//64 85//66 
o Pipe2
g 
usemtl Color_M00
v -7.56 -13.56 -20.01
v -7.56 -13.56 -20.21
v -7.56 -13.46 -20.11
vn 1 0 0
f 89//67 90//67 91//67 
v -7.56 -13.66 -20.11
f 90//67 89//67 92//67 
v -23.1 -13.56 -20.21
v -23.1 -13.56 -20.01
v -23.1 -13.46 -20.11
vn -1 0 0
f 93//68 94//68 95//68 
v -23.1 -13.66 -20.11
f 94//68 93//68 96//68 
vn 0 0 1
vn 0 -1 0
f 89//69 96//70 92//70 
f 96//70 89//69 94//69 
vn 0 1 0
f 95//71 89//69 91//71 
f 89//69 95//71 94//69 
vn 0 0 -1
f 95//71 90//72 93//72 
f 90//72 95//71 91//71 
f 96//70 90//72 92//70 
f 90//72 96//70 93//72 
o Pipe20
g 
usemtl Color_M00
v 12.44 -18.2267 -2.01
v 12.44 -18.2267 -2.21
v 12.44 -18.3267 -2.11
vn -1 0 0
f 97//73 98//73 99//73 
v 12.44 -18.1267 -2.11
f 98//73 97//73 100//73 
v 22.44 -18.2267 -2.21
v 22.44 -18.2267 -2.01
v 22.44 -18.3267 -2.11
vn 1 0 0
f 101//74 102//74 103//74 
v 22.44 -18.1267 -2.11
f 102//74 101//74 104//74 
vn 0 0 1
vn 0 1 0
f 97//75 104//76 100//76 
f 104//76 97//75 102//75 
vn 0 -1 0
f 103//77 97//75 99//77 
f 97//75 103//77 102//75 
vn 0 0 -1
f 103//77 98//78 101//78 
f 98//78 103//77 99//77 
f 104//76 98//78 100//76 
f 98//78 104//76 101//78 
o Pipe21
g 
usemtl Color_M00
v -23.1 -3.56 19.99
v -23.1 -3.56 19.79
v -23.1 -3.66 19.89
vn -1 0 0
f 105//79 106//79 107//79 
v -23.1 -3.46 19.89
f 106//79 105//79 108//79 
v 22.44 -3.56 19.79
v 22.44 -3.56 19.99
v 22.44 -3.66 19.89
vn 1 0 0
f 109//80 110//80 111//80 
v 22.44 -3.46 19.89
f 110//80 109//80 112//80 
vn 0 0 1
vn 0 1 0
f 105//81 112//82 108//82 
f 112//82 105//81 110//81 
vn 0 -1 0
f 111//83 105//81 107//83 
f 105//81 111//83 110//81 
vn 0 0 -1
f 111//83 106//84 109//84 
f 106//84 111//83 107//83 
f 112//82 106//84 108//82 
f 106//84 112//82 109//84 
o Pipe22
g 
usemtl Color_M00
v 22.44 21.49 -1.7
v 22.44 21.49 -1.9
v 22.34 21.49 -1.8
vn 0 1 0
f 113//85 114//85 115//85 
v 22.54 21.49 -1.8
f 114//85 113//85 116//85 
v 22.44 11.24 -1.9
v 22.44 11.24 -1.7
v 22.34 11.24 -1.8
vn 0 -1 0
f 117//86 118//86 119//86 
v 22.54 11.24 -1.8
f 118//86 117//86 120//86 
vn 0 0 1
vn 1 0 0
f 113//87 120//88 116//88 
f 120//88 113//87 118//87 
vn -1 0 0
f 119//89 113//87 115//89 
f 113//87 119//89 118//87 
vn 0 0 -1
f 119//89 114//90 117//90 
f 114//90 119//89 115//89 
f 120//88 114//90 116//88 
f 114//90 120//88 117//90 
o Pipe23
g 
usemtl Color_M00
v 22.44 21.59 -1.8
v 22.44 21.39 -1.8
v 22.34 21.49 -1.8
vn 0 0 -1
f 121//91 122//91 123//91 
v 22.54 21.49 -1.8
f 122//91 121//91 124//91 
v 22.44 21.39 19.89
v 22.44 21.59 19.89
v 22.34 21.49 19.89
vn 0 0 1
f 125//92 126//92 127//92 
v 22.54 21.49 19.89
f 126//92 125//92 128//92 
vn 0 1 0
vn 1 0 0
f 121//93 128//94 124//94 
f 128//94 121//93 126//93 
vn -1 0 0
f 127//95 121//93 123//95 
f 121//93 127//95 126//93 
vn 0 -1 0
f 127//95 122//96 125//96 
f 122//96 127//95 123//95 
f 128//94 122//96 124//94 
f 122//96 128//94 125//96 
o Pipe24
g 
usemtl Color_M00
v -7.56 -23.56 -20.01
v -7.56 -23.56 -20.21
v -7.46 -23.56 -20.11
vn 0 -1 0
f 129//97 130//97 131//97 
v -7.66 -23.56 -20.11
f 130//97 129//97 132//97 
v -7.56 -13.56 -20.21
v -7.56 -13.56 -20.01
v -7.46 -13.56 -20.11
vn 0 1 0
f 133//98 134//98 135//98 
v -7.66 -13.56 -20.11
f 134//98 133//98 136//98 
vn 0 0 1
vn -1 0 0
f 129//99 136//100 132//100 
f 136//100 129//99 134//99 
vn 1 0 0
f 135//101 129//99 131//101 
f 129//99 135//101 134//99 
vn 0 0 -1
f 135//101 130//102 133//102 
f 130//102 135//101 131//101 
f 136//100 130//102 132//100 
f 130//102 136//100 133//102 
o Pipe25
g 
usemtl Color_M00
v -7.56 -13.46 -20.11
v -7.56 -13.66 -20.11
v -7.66 -13.56 -20.11
vn 0 0 -1
f 137//103 138//103 139//103 
v -7.46 -13.56 -20.11
f 138//103 137//103 140//103 
v -7.56 -13.66 4.89
v -7.56 -13.46 4.89
v -7.66 -13.56 4.89
vn 0 0 1
f 141//104 142//104 143//104 
v -7.46 -13.56 4.89
f 142//104 141//104 144//104 
vn 0 1 0
vn 1 0 0
f 137//105 144//106 140//106 
f 144//106 137//105 142//105 
vn -1 0 0
f 143//107 137//105 139//107 
f 137//105 143//107 142//105 
vn 0 -1 0
f 143//107 138//108 141//108 
f 138//108 143//107 139//107 
f 144//106 138//108 140//106 
f 138//108 144//106 141//108 
o Pipe26
g 
usemtl Color_M00
v 22.44 11.34 -1.8
v 22.44 11.14 -1.8
v 22.54 11.24 -1.8
vn 0 0 1
f 145//109 146//109 147//109 
v 22.34 11.24 -1.8
f 146//109 145//109 148//109 
v 22.44 11.14 -20.11
v 22.44 11.34 -20.11
v 22.54 11.24 -20.11
vn 0 0 -1
f 149//110 150//110 151//110 
v 22.34 11.24 -20.11
f 150//110 149//110 152//110 
vn 0 1 0
vn -1 0 0
f 145//111 152//112 148//112 
f 152//112 145//111 150//111 
vn 1 0 0
f 151//113 145//111 147//113 
f 145//111 151//113 150//111 
vn 0 -1 0
f 151//113 146//114 149//114 
f 146//114 151//113 147//113 
f 152//112 146//114 148//112 
f 146//114 152//112 149//114 
o Pipe27
g 
usemtl Color_M00
v -23.1 21.49 19.99
v -23.1 21.49 19.79
v -23.1 21.39 19.89
vn -1 0 0
f 153//115 154//115 155//115 
v -23.1 21.59 19.89
f 154//115 153//115 156//115 
v 22.44 21.49 19.79
v 22.44 21.49 19.99
v 22.44 21.39 19.89
vn 1 0 0
f 157//116 158//116 159//116 
v 22.44 21.59 19.89
f 158//116 157//116 160//116 
vn 0 0 1
vn 0 1 0
f 153//117 160//118 156//118 
f 160//118 153//117 158//117 
vn 0 -1 0
f 159//119 153//117 155//119 
f 153//117 159//119 158//117 
vn 0 0 -1
f 159//119 154//120 157//120 
f 154//120 159//119 155//119 
f 160//118 154//120 156//118 
f 154//120 160//118 157//120 
o Pipe28
g 
usemtl Color_M00
v -23.1 21.49 19.99
v -23.1 21.49 19.79
v -23.2 21.49 19.89
vn 0 1 0
f 161//121 162//121 163//121 
v -23 21.49 19.89
f 162//121 161//121 164//121 
v -23.1 -3.56 19.79
v -23.1 -3.56 19.99
v -23.2 -3.56 19.89
vn 0 -1 0
f 165//122 166//122 167//122 
v -23 -3.56 19.89
f 166//122 165//122 168//122 
vn 0 0 1
vn 1 0 0
f 161//123 168//124 164//124 
f 168//124 161//123 166//123 
vn -1 0 0
f 167//125 161//123 163//125 
f 161//123 167//125 166//123 
vn 0 0 -1
f 167//125 162//126 165//126 
f 162//126 167//125 163//125 
f 168//124 162//126 164//124 
f 162//126 168//124 165//126 
o Pipe29
g 
usemtl Color_M00
v 12.44 -23.46 -20.11
v 12.44 -23.66 -20.11
v 12.34 -23.56 -20.11
vn 0 0 -1
f 169//127 170//127 171//127 
v 12.54 -23.56 -20.11
f 170//127 169//127 172//127 
v 12.44 -23.66 -10.11
v 12.44 -23.46 -10.11
v 12.34 -23.56 -10.11
vn 0 0 1
f 173//128 174//128 175//128 
v 12.54 -23.56 -10.11
f 174//128 173//128 176//128 
vn 0 1 0
vn 1 0 0
f 169//129 176//130 172//130 
f 176//130 169//129 174//129 
vn -1 0 0
f 175//131 169//129 171//131 
f 169//129 175//131 174//129 
vn 0 -1 0
f 175//131 170//132 173//132 
f 170//132 175//131 171//131 
f 176//130 170//132 172//130 
f 170//132 176//130 173//132 
o Pipe3
g 
usemtl Color_M00
v 22.44 -18.1267 -2.11
v 22.44 -18.3267 -2.11
v 22.54 -18.2267 -2.11
vn 0 0 1
f 177//133 178//133 179//133 
v 22.34 -18.2267 -2.11
f 178//133 177//133 180//133 
v 22.44 -18.3267 -20.11
v 22.44 -18.1267 -20.11
v 22.54 -18.2267 -20.11
vn 0 0 -1
f 181//134 182//134 183//134 
v 22.34 -18.2267 -20.11
f 182//134 181//134 184//134 
vn 0 1 0
vn -1 0 0
f 177//135 184//136 180//136 
f 184//136 177//135 182//135 
vn 1 0 0
f 183//137 177//135 179//137 
f 177//135 183//137 182//135 
vn 0 -1 0
f 183//137 178//138 181//138 
f 178//138 183//137 179//137 
f 184//136 178//138 180//136 
f 178//138 184//136 181//138 
o Pipe30
g 
usemtl Color_M00
v -23.1 11.34 -1.8
v -23.1 11.14 -1.8
v -23 11.24 -1.8
vn 0 0 1
f 185//139 186//139 187//139 
v -23.2 11.24 -1.8
f 186//139 185//139 188//139 
v -23.1 11.14 -20.11
v -23.1 11.34 -20.11
v -23 11.24 -20.11
vn 0 0 -1
f 189//140 190//140 191//140 
v -23.2 11.24 -20.11
f 190//140 189//140 192//140 
vn 0 1 0
vn -1 0 0
f 185//141 192//142 188//142 
f 192//142 185//141 190//141 
vn 1 0 0
f 191//143 185//141 187//143 
f 185//141 191//143 190//141 
vn 0 -1 0
f 191//143 186//144 189//144 
f 186//144 191//143 187//143 
f 192//142 186//144 188//142 
f 186//144 192//142 189//144 
o Pipe31
g 
usemtl Color_M00
v 22.44 -3.56 19.99
v 22.44 -3.56 19.79
v 22.54 -3.56 19.89
vn 0 -1 0
f 193//145 194//145 195//145 
v 22.34 -3.56 19.89
f 194//145 193//145 196//145 
v 22.44 21.49 19.79
v 22.44 21.49 19.99
v 22.54 21.49 19.89
vn 0 1 0
f 197//146 198//146 199//146 
v 22.34 21.49 19.89
f 198//146 197//146 200//146 
vn 0 0 1
vn -1 0 0
f 193//147 200//148 196//148 
f 200//148 193//147 198//147 
vn 1 0 0
f 199//149 193//147 195//149 
f 193//147 199//149 198//147 
vn 0 0 -1
f 199//149 194//150 197//150 
f 194//150 199//149 195//149 
f 200//148 194//150 196//148 
f 194//150 200//148 197//150 
o Pipe32
g 
usemtl Color_M00
v -23.1 11.24 -1.7
v -23.1 11.24 -1.9
v -23.1 11.14 -1.8
vn -1 0 0
f 201//151 202//151 203//151 
v -23.1 11.34 -1.8
f 202//151 201//151 204//151 
v 22.44 11.24 -1.9
v 22.44 11.24 -1.7
v 22.44 11.14 -1.8
vn 1 0 0
f 205//152 206//152 207//152 
v 22.44 11.34 -1.8
f 206//152 205//152 208//152 
vn 0 0 1
vn 0 1 0
f 201//153 208//154 204//154 
f 208//154 201//153 206//153 
vn 0 -1 0
f 207//155 201//153 203//155 
f 201//153 207//155 206//153 
vn 0 0 -1
f 207//155 202//156 205//156 
f 202//156 207//155 203//155 
f 208//154 202//156 204//154 
f 202//156 208//154 205//156 
o Pipe33
g 
usemtl Color_A06
v 22.44 21.49 -1.8
v -23.1 11.24 -1.8
v -23.1 21.49 -1.8
vn 0 0 -1
f 209//157 210//157 211//157 
v 22.44 11.24 -1.8
f 210//157 209//157 212//157 
v 12.44 -23.56 -10.11
v -7.56 -23.56 -20.11
v 12.44 -23.56 -20.11
vn 0 -1 0
f 213//158 214//158 215//158 
v -7.56 -23.56 -10.11
f 214//158 213//158 216//158 
v -23.1 21.49 19.89
v -23.1 -3.56 19.89
vn -1 0 0
f 217//159 210//159 218//159 
f 210//159 217//159 211//159 
v -23.1 -13.56 4.89
v -23.1 11.24 -20.11
v -23.1 -13.56 -20.11
f 219//159 220//159 221//159 
f 220//159 219//159 218//159 
f 220//159 218//159 210//159 
v 22.44 11.24 -20.11
vn 0 1 0
f 210//160 222//160 220//160 
f 222//160 210//160 212//160 
v 22.44 -18.2267 -2.11
v 12.44 -18.2267 -20.11
v 22.44 -18.2267 -20.11
f 223//158 224//158 225//158 
v 12.44 -18.2267 -2.11
f 224//158 223//158 226//158 
f 217//160 209//160 211//160 
v 22.44 21.49 19.89
f 209//160 217//160 227//160 
v 22.44 -3.56 19.89
vn 0 0 1
f 228//161 217//161 218//161 
f 217//161 228//161 227//161 
v -7.56 -13.56 4.89
f 229//159 214//159 216//159 
v -7.56 -13.56 -20.11
f 214//159 229//159 230//159 
vn -3.7164e-16 -1 2.31012e-16
f 229//162 221//162 230//162 
f 221//162 229//162 219//162 
vn 1 0 0
f 222//163 223//163 225//163 
f 223//163 222//163 228//163 
f 228//163 222//163 212//163 
f 228//163 212//163 227//163 
f 227//163 212//163 209//163 
f 222//157 221//157 220//157 
f 221//157 222//157 230//157 
f 230//157 222//157 214//157 
f 214//157 222//157 224//157 
f 224//157 222//157 225//157 
f 215//157 214//157 224//157 
vn -9.08919e-18 -0.83205 0.5547
f 228//164 226//164 223//164 
f 226//164 228//164 229//164 
f 229//164 218//164 219//164 
f 218//164 229//164 228//164 
f 226//164 216//164 213//164 
f 216//164 226//164 229//164 
f 224//163 213//163 215//163 
f 213//163 224//163 226//163 
usemtl Color_M00
v 12.44 -23.6432 -10.0545
v 12.44 -23.4768 -10.1655
v 12.54 -23.56 -10.11
vn 0 -0.554699 -0.832051
f 231//165 232//165 233//165 
v 12.34 -23.56 -10.11
f 232//165 231//165 234//165 
v 12.44 -18.1435 -2.16547
v 12.44 -18.3099 -2.05453
v 12.54 -18.2267 -2.11
vn 0 0.554703 0.832048
f 235//166 236//166 237//166 
v 12.34 -18.2267 -2.11
f 236//166 235//166 238//166 
vn 0 -0.83205 0.5547
f 231//167 238//159 234//159 
f 238//159 231//167 236//167 
f 237//163 231//167 233//163 
f 231//167 237//163 236//167 
vn 0 0.832069 -0.554672
f 237//163 232//168 235//168 
f 232//168 237//163 233//163 
f 238//159 232//168 234//159 
f 232//168 238//159 235//168 
usemtl Layer_flecha
v 26.0902 -44.6486 -1.44382e-15
v 16.0262 -27.8284 1.44382e-15
v 16.0262 -44.6486 1.44382e-15
vn 2.01832e-16 3.16584e-17 1
f 239//169 240//169 241//169 
v 21.0582 -19.57 -1.44382e-15
f 240//169 239//169 242//169 
v 26.0902 -27.8284 -1.44382e-15
f 242//169 239//169 243//169 
v 30.4784 -27.8284 -1.44382e-15
f 242//169 243//169 244//169 
v 11.638 -27.8284 1.44382e-15
f 242//169 245//169 240//169 
o Pipe4
g 
usemtl Color_M00
v -23.1 -13.46 -20.11
v -23.1 -13.66 -20.11
v -23.2 -13.56 -20.11
vn 0 0 -1
f 246//170 247//170 248//170 
v -23 -13.56 -20.11
f 247//170 246//170 249//170 
v -23.1 -13.66 4.89
v -23.1 -13.46 4.89
v -23.2 -13.56 4.89
vn 0 0 1
f 250//171 251//171 252//171 
v -23 -13.56 4.89
f 251//171 250//171 253//171 
vn 0 1 0
vn 1 0 0
f 246//172 253//173 249//173 
f 253//173 246//172 251//172 
vn -1 0 0
f 252//174 246//172 248//174 
f 246//172 252//174 251//172 
vn 0 -1 0
f 252//174 247//175 250//175 
f 247//175 252//174 248//174 
f 253//173 247//175 249//173 
f 247//175 253//173 250//175 
o Pipe5
g 
usemtl Color_M00
v -23.1 21.59 -1.8
v -23.1 21.39 -1.8
v -23.2 21.49 -1.8
vn 0 0 -1
f 254//176 255//176 256//176 
v -23 21.49 -1.8
f 255//176 254//176 257//176 
v -23.1 21.39 19.89
v -23.1 21.59 19.89
v -23.2 21.49 19.89
vn 0 0 1
f 258//177 259//177 260//177 
v -23 21.49 19.89
f 259//177 258//177 261//177 
vn 0 1 0
vn 1 0 0
f 254//178 261//179 257//179 
f 261//179 254//178 259//178 
vn -1 0 0
f 260//180 254//178 256//180 
f 254//178 260//180 259//178 
vn 0 -1 0
f 260//180 255//181 258//181 
f 255//181 260//180 256//180 
f 261//179 255//181 257//179 
f 255//181 261//179 258//181 
o Pipe6
g 
usemtl Color_M00
v 12.44 -18.1267 -20.11
v 12.44 -18.3267 -20.11
v 12.34 -18.2267 -20.11
vn 0 0 -1
f 262//182 263//182 264//182 
v 12.54 -18.2267 -20.11
f 263//182 262//182 265//182 
v 12.44 -18.3267 -2.11
v 12.44 -18.1267 -2.11
v 12.34 -18.2267 -2.11
vn 0 0 1
f 266//183 267//183 268//183 
v 12.54 -18.2267 -2.11
f 267//183 266//183 269//183 
vn 0 1 0
vn 1 0 0
f 262//184 269//185 265//185 
f 269//185 262//184 267//184 
vn -1 0 0
f 268//186 262//184 264//186 
f 262//184 268//186 267//184 
vn 0 -1 0
f 268//186 263//187 266//187 
f 263//187 268//186 264//186 
f 269//185 263//187 265//185 
f 263//187 269//185 266//187 
o Pipe7
g 
usemtl Color_M00
v 12.44 -23.56 -10.01
v 12.44 -23.56 -10.21
v 12.44 -23.46 -10.11
vn 1 0 0
f 270//188 271//188 272//188 
v 12.44 -23.66 -10.11
f 271//188 270//188 273//188 
v -7.56 -23.56 -10.21
v -7.56 -23.56 -10.01
v -7.56 -23.46 -10.11
vn -1 0 0
f 274//189 275//189 276//189 
v -7.56 -23.66 -10.11
f 275//189 274//189 277//189 
vn 0 0 1
vn 0 -1 0
f 270//190 277//191 273//191 
f 277//191 270//190 275//190 
vn 0 1 0
f 276//192 270//190 272//192 
f 270//190 276//192 275//190 
vn 0 0 -1
f 276//192 271//193 274//193 
f 271//193 276//192 272//192 
f 277//191 271//193 273//191 
f 271//193 277//191 274//193 
o Pipe8
g 
usemtl Color_M00
v 22.44 -3.64321 19.9455
v 22.44 -3.4768 19.8345
v 22.34 -3.56 19.89
vn 0 0.5547 0.83205
f 278//194 279//194 280//194 
v 22.54 -3.56 19.89
f 279//194 278//194 281//194 
v 22.44 -18.1435 -2.16547
v 22.44 -18.3099 -2.05453
v 22.34 -18.2267 -2.11
vn 0 -0.5547 -0.83205
f 282//195 283//195 284//195 
v 22.54 -18.2267 -2.11
f 283//195 282//195 285//195 
vn 0 -0.832055 0.554693
vn 1 0 0
f 278//196 285//197 281//197 
f 285//197 278//196 283//196 
vn -1 0 0
f 284//198 278//196 280//198 
f 278//196 284//198 283//196 
vn 0 0.83206 -0.554686
f 284//198 279//199 282//199 
f 279//199 284//198 280//198 
f 285//197 279//199 281//197 
f 279//199 285//197 282//199 
o Pipe9
g 
usemtl Color_M00
v -23.1 21.49 -1.7
v -23.1 21.49 -1.9
v -23.1 21.39 -1.8
vn -1 0 0
f 286//200 287//200 288//200 
v -23.1 21.59 -1.8
f 287//200 286//200 289//200 
v 22.44 21.49 -1.9
v 22.44 21.49 -1.7
v 22.44 21.39 -1.8
vn 1 0 0
f 290//201 291//201 292//201 
v 22.44 21.59 -1.8
f 291//201 290//201 293//201 
vn 0 0 1
vn 0 1 0
f 286//202 293//203 289//203 
f 293//203 286//202 291//202 
vn 0 -1 0
f 292//204 286//202 288//204 
f 286//202 292//204 291//202 
vn 0 0 -1
f 292//204 287//205 290//205 
f 287//205 292//204 288//204 
f 293//203 287//205 289//203 
f 287//205 293//203 290//205 
