s 1
o 
g Group1 
usemtl Color_M00
v -0.07 -0.53 0.07
v -0.07 -0.55 0.07
v -0.08 -0.54 0.07
vn 0 0 -1
f 1//1 2//1 3//1 
v -0.06 -0.54 0.07
f 2//1 1//1 4//1 
v -0.07 -0.55 1.07
v -0.07 -0.53 1.07
v -0.08 -0.54 1.07
vn 0 0 1
f 5//2 6//2 7//2 
v -0.06 -0.54 1.07
f 6//2 5//2 8//2 
vn 0 1 0
vn 1 0 0
f 1//3 8//4 4//4 
f 8//4 1//3 6//3 
vn -1 0 0
f 7//5 1//3 3//5 
f 1//3 7//5 6//3 
vn 0 -1 0
f 7//5 2//6 5//6 
f 2//6 7//5 3//5 
f 8//4 2//6 4//4 
f 2//6 8//4 5//6 
g Group10 
usemtl Color_M00
v 0.93 -0.53 -0.93
v 0.93 -0.55 -0.93
v 0.92 -0.54 -0.93
vn 0 0 -1
f 9//7 10//7 11//7 
v 0.94 -0.54 -0.93
f 10//7 9//7 12//7 
v 0.93 -0.55 0.07
v 0.93 -0.53 0.07
v 0.92 -0.54 0.07
vn 0 0 1
f 13//8 14//8 15//8 
v 0.94 -0.54 0.07
f 14//8 13//8 16//8 
vn 0 1 0
vn 1 0 0
f 9//9 16//10 12//10 
f 16//10 9//9 14//9 
vn -1 0 0
f 15//11 9//9 11//11 
f 9//9 15//11 14//9 
vn 0 -1 0
f 15//11 10//12 13//12 
f 10//12 15//11 11//11 
f 16//10 10//12 12//10 
f 10//12 16//10 13//12 
g Group11 
usemtl Color_M00
v -1.07 -0.54 -0.92
v -1.07 -0.54 -0.94
v -1.07 -0.55 -0.93
vn -1 0 0
f 17//13 18//13 19//13 
v -1.07 -0.53 -0.93
f 18//13 17//13 20//13 
v 0.93 -0.54 -0.94
v 0.93 -0.54 -0.92
v 0.93 -0.55 -0.93
vn 1 0 0
f 21//14 22//14 23//14 
v 0.93 -0.53 -0.93
f 22//14 21//14 24//14 
vn 0 0 1
vn 0 1 0
f 17//15 24//16 20//16 
f 24//16 17//15 22//15 
vn 0 -1 0
f 23//17 17//15 19//17 
f 17//15 23//17 22//15 
vn 0 0 -1
f 23//17 18//18 21//18 
f 18//18 23//17 19//17 
f 24//16 18//18 20//16 
f 18//18 24//16 21//18 
g Group12 
usemtl Color_M00
v 0.93 0.46 -0.92
v 0.93 0.46 -0.94
v 0.93 0.47 -0.93
vn 1 0 0
f 25//19 26//19 27//19 
v 0.93 0.45 -0.93
f 26//19 25//19 28//19 
v -1.07 0.46 -0.94
v -1.07 0.46 -0.92
v -1.07 0.47 -0.93
vn -1 0 0
f 29//20 30//20 31//20 
v -1.07 0.45 -0.93
f 30//20 29//20 32//20 
vn 0 0 1
vn 0 -1 0
f 25//21 32//22 28//22 
f 32//22 25//21 30//21 
vn 0 1 0
f 31//23 25//21 27//23 
f 25//21 31//23 30//21 
vn 0 0 -1
f 31//23 26//24 29//24 
f 26//24 31//23 27//23 
f 32//22 26//24 28//22 
f 26//24 32//22 29//24 
g Group13 
usemtl Color_M00
v -1.07 0.46 -0.92
v -1.07 0.46 -0.94
v -1.08 0.46 -0.93
vn 0 1 0
f 33//25 34//25 35//25 
v -1.06 0.46 -0.93
f 34//25 33//25 36//25 
v -1.07 -0.54 -0.94
v -1.07 -0.54 -0.92
v -1.08 -0.54 -0.93
vn 0 -1 0
f 37//26 38//26 39//26 
v -1.06 -0.54 -0.93
f 38//26 37//26 40//26 
vn 0 0 1
vn 1 0 0
f 33//27 40//28 36//28 
f 40//28 33//27 38//27 
vn -1 0 0
f 39//29 33//27 35//29 
f 33//27 39//29 38//27 
vn 0 0 -1
f 39//29 34//30 37//30 
f 34//30 39//29 35//29 
f 40//28 34//30 36//28 
f 34//30 40//28 37//30 
g Group14 
usemtl Color_M00
v -0.07 -0.54 0.08
v -0.07 -0.54 0.06
v -0.07 -0.55 0.07
vn -1 0 0
f 41//31 42//31 43//31 
v -0.07 -0.53 0.07
f 42//31 41//31 44//31 
v 0.93 -0.54 0.06
v 0.93 -0.54 0.08
v 0.93 -0.55 0.07
vn 1 0 0
f 45//32 46//32 47//32 
v 0.93 -0.53 0.07
f 46//32 45//32 48//32 
vn 0 0 1
vn 0 1 0
f 41//33 48//34 44//34 
f 48//34 41//33 46//33 
vn 0 -1 0
f 47//35 41//33 43//35 
f 41//33 47//35 46//33 
vn 0 0 -1
f 47//35 42//36 45//36 
f 42//36 47//35 43//35 
f 48//34 42//36 44//34 
f 42//36 48//34 45//36 
g Group15 
usemtl Color_M00
v -0.07 -0.54 0.08
v -0.07 -0.54 0.06
v -0.06 -0.54 0.07
vn 0 -1 0
f 49//37 50//37 51//37 
v -0.08 -0.54 0.07
f 50//37 49//37 52//37 
v -0.07 0.46 0.06
v -0.07 0.46 0.08
v -0.06 0.46 0.07
vn 0 1 0
f 53//38 54//38 55//38 
v -0.08 0.46 0.07
f 54//38 53//38 56//38 
vn 0 0 1
vn -1 0 0
f 49//39 56//40 52//40 
f 56//40 49//39 54//39 
vn 1 0 0
f 55//41 49//39 51//41 
f 49//39 55//41 54//39 
vn 0 0 -1
f 55//41 50//42 53//42 
f 50//42 55//41 51//41 
f 56//40 50//42 52//40 
f 50//42 56//40 53//42 
g Group16 
usemtl Color_M00
v 0.93 0.46 0.08
v 0.93 0.46 0.06
v 0.93 0.47 0.07
vn 1 0 0
f 57//43 58//43 59//43 
v 0.93 0.45 0.07
f 58//43 57//43 60//43 
v -0.07 0.46 0.06
v -0.07 0.46 0.08
v -0.07 0.47 0.07
vn -1 0 0
f 61//44 62//44 63//44 
v -0.07 0.45 0.07
f 62//44 61//44 64//44 
vn 0 0 1
vn 0 -1 0
f 57//45 64//46 60//46 
f 64//46 57//45 62//45 
vn 0 1 0
f 63//47 57//45 59//47 
f 57//45 63//47 62//45 
vn 0 0 -1
f 63//47 58//48 61//48 
f 58//48 63//47 59//47 
f 64//46 58//48 60//46 
f 58//48 64//46 61//48 
g Group17 
usemtl Color_M00
v 0.93 -0.54 0.08
v 0.93 -0.54 0.06
v 0.94 -0.54 0.07
vn 0 -1 0
f 65//49 66//49 67//49 
v 0.92 -0.54 0.07
f 66//49 65//49 68//49 
v 0.93 0.46 0.06
v 0.93 0.46 0.08
v 0.94 0.46 0.07
vn 0 1 0
f 69//50 70//50 71//50 
v 0.92 0.46 0.07
f 70//50 69//50 72//50 
vn 0 0 1
vn -1 0 0
f 65//51 72//52 68//52 
f 72//52 65//51 70//51 
vn 1 0 0
f 71//53 65//51 67//53 
f 65//51 71//53 70//51 
vn 0 0 -1
f 71//53 66//54 69//54 
f 66//54 71//53 67//53 
f 72//52 66//54 68//52 
f 66//54 72//52 69//54 
g Group18 
usemtl Color_I04
v 0.93 0.46 0.07
v -0.07 -0.54 0.07
v -0.07 0.46 0.07
vn 0 0 -1
f 73//55 74//55 75//55 
v 0.93 -0.54 0.07
f 74//55 73//55 76//55 
v -1.07 -0.54 1.07
v 0.93 -0.54 -0.93
v -1.07 -0.54 -0.93
vn 0 1 0
f 77//56 78//56 79//56 
f 78//56 77//56 74//56 
v -0.07 -0.54 1.07
f 74//56 77//56 80//56 
f 76//56 78//56 74//56 
vn -1 0 0
f 73//57 78//57 76//57 
v 0.93 0.46 -0.93
f 78//57 73//57 81//57 
v -1.07 0.46 -0.93
vn 0 -1 0
f 73//58 82//58 81//58 
f 82//58 73//58 75//58 
v -1.07 0.46 1.07
f 82//58 75//58 83//58 
v -0.07 0.46 1.07
f 83//58 75//58 84//58 
vn 1 0 0
f 82//59 77//59 79//59 
f 77//59 82//59 83//59 
f 84//55 77//55 83//55 
f 77//55 84//55 80//55 
f 84//57 74//57 80//57 
f 74//57 84//57 75//57 
vn 0 0 1
f 78//60 82//60 79//60 
f 82//60 78//60 81//60 
usemtl Color_M00
v 0.93 -0.54 -0.92
v 0.93 -0.54 -0.94
v 0.94 -0.54 -0.93
f 85//58 86//58 87//58 
v 0.92 -0.54 -0.93
f 86//58 85//58 88//58 
v 0.93 0.46 -0.94
v 0.93 0.46 -0.92
v 0.94 0.46 -0.93
f 89//56 90//56 91//56 
v 0.92 0.46 -0.93
f 90//56 89//56 92//56 
f 85//60 92//57 88//57 
f 92//57 85//60 90//60 
f 91//59 85//60 87//59 
f 85//60 91//59 90//60 
f 91//59 86//55 89//55 
f 86//55 91//59 87//59 
f 92//57 86//55 88//57 
f 86//55 92//57 89//55 
g Group2 
usemtl Color_M00
v -1.07 0.47 -0.93
v -1.07 0.45 -0.93
v -1.08 0.46 -0.93
vn 0 0 -1
f 93//61 94//61 95//61 
v -1.06 0.46 -0.93
f 94//61 93//61 96//61 
v -1.07 0.45 1.07
v -1.07 0.47 1.07
v -1.08 0.46 1.07
vn 0 0 1
f 97//62 98//62 99//62 
v -1.06 0.46 1.07
f 98//62 97//62 100//62 
vn 0 1 0
vn 1 0 0
f 93//63 100//64 96//64 
f 100//64 93//63 98//63 
vn -1 0 0
f 99//65 93//63 95//65 
f 93//63 99//65 98//63 
vn 0 -1 0
f 99//65 94//66 97//66 
f 94//66 99//65 95//65 
f 100//64 94//66 96//64 
f 94//66 100//64 97//66 
g Group3 
usemtl Color_M00
v -1.07 0.46 1.08
v -1.07 0.46 1.06
v -1.08 0.46 1.07
vn 0 1 0
f 101//67 102//67 103//67 
v -1.06 0.46 1.07
f 102//67 101//67 104//67 
v -1.07 -0.54 1.06
v -1.07 -0.54 1.08
v -1.08 -0.54 1.07
vn 0 -1 0
f 105//68 106//68 107//68 
v -1.06 -0.54 1.07
f 106//68 105//68 108//68 
vn 0 0 1
vn 1 0 0
f 101//69 108//70 104//70 
f 108//70 101//69 106//69 
vn -1 0 0
f 107//71 101//69 103//71 
f 101//69 107//71 106//69 
vn 0 0 -1
f 107//71 102//72 105//72 
f 102//72 107//71 103//71 
f 108//70 102//72 104//70 
f 102//72 108//70 105//72 
g Group4 
usemtl Color_M00
v -0.07 0.46 1.08
v -0.07 0.46 1.06
v -0.07 0.47 1.07
vn 1 0 0
f 109//73 110//73 111//73 
v -0.07 0.45 1.07
f 110//73 109//73 112//73 
v -1.07 0.46 1.06
v -1.07 0.46 1.08
v -1.07 0.47 1.07
vn -1 0 0
f 113//74 114//74 115//74 
v -1.07 0.45 1.07
f 114//74 113//74 116//74 
vn 0 0 1
vn 0 -1 0
f 109//75 116//76 112//76 
f 116//76 109//75 114//75 
vn 0 1 0
f 115//77 109//75 111//77 
f 109//75 115//77 114//75 
vn 0 0 -1
f 115//77 110//78 113//78 
f 110//78 115//77 111//77 
f 116//76 110//78 112//76 
f 110//78 116//76 113//78 
g Group5 
usemtl Color_M00
v -0.07 0.47 0.07
v -0.07 0.45 0.07
v -0.08 0.46 0.07
vn 0 0 -1
f 117//79 118//79 119//79 
v -0.06 0.46 0.07
f 118//79 117//79 120//79 
v -0.07 0.45 1.07
v -0.07 0.47 1.07
v -0.08 0.46 1.07
vn 0 0 1
f 121//80 122//80 123//80 
v -0.06 0.46 1.07
f 122//80 121//80 124//80 
vn 0 1 0
vn 1 0 0
f 117//81 124//82 120//82 
f 124//82 117//81 122//81 
vn -1 0 0
f 123//83 117//81 119//83 
f 117//81 123//83 122//81 
vn 0 -1 0
f 123//83 118//84 121//84 
f 118//84 123//83 119//83 
f 124//82 118//84 120//82 
f 118//84 124//82 121//84 
g Group6 
usemtl Color_M00
v 0.93 0.47 -0.93
v 0.93 0.45 -0.93
v 0.92 0.46 -0.93
vn 0 0 -1
f 125//85 126//85 127//85 
v 0.94 0.46 -0.93
f 126//85 125//85 128//85 
v 0.93 0.45 0.07
v 0.93 0.47 0.07
v 0.92 0.46 0.07
vn 0 0 1
f 129//86 130//86 131//86 
v 0.94 0.46 0.07
f 130//86 129//86 132//86 
vn 0 1 0
vn 1 0 0
f 125//87 132//88 128//88 
f 132//88 125//87 130//87 
vn -1 0 0
f 131//89 125//87 127//89 
f 125//87 131//89 130//87 
vn 0 -1 0
f 131//89 126//90 129//90 
f 126//90 131//89 127//89 
f 132//88 126//90 128//88 
f 126//90 132//88 129//90 
g Group7 
usemtl Color_M00
v -1.07 -0.53 -0.93
v -1.07 -0.55 -0.93
v -1.08 -0.54 -0.93
vn 0 0 -1
f 133//91 134//91 135//91 
v -1.06 -0.54 -0.93
f 134//91 133//91 136//91 
v -1.07 -0.55 1.07
v -1.07 -0.53 1.07
v -1.08 -0.54 1.07
vn 0 0 1
f 137//92 138//92 139//92 
v -1.06 -0.54 1.07
f 138//92 137//92 140//92 
vn 0 1 0
vn 1 0 0
f 133//93 140//94 136//94 
f 140//94 133//93 138//93 
vn -1 0 0
f 139//95 133//93 135//95 
f 133//93 139//95 138//93 
vn 0 -1 0
f 139//95 134//96 137//96 
f 134//96 139//95 135//95 
f 140//94 134//96 136//94 
f 134//96 140//94 137//96 
g Group8 
usemtl Color_M00
v -1.07 -0.54 1.08
v -1.07 -0.54 1.06
v -1.07 -0.55 1.07
vn -1 0 0
f 141//97 142//97 143//97 
v -1.07 -0.53 1.07
f 142//97 141//97 144//97 
v -0.07 -0.54 1.06
v -0.07 -0.54 1.08
v -0.07 -0.55 1.07
vn 1 0 0
f 145//98 146//98 147//98 
v -0.07 -0.53 1.07
f 146//98 145//98 148//98 
vn 0 0 1
vn 0 1 0
f 141//99 148//100 144//100 
f 148//100 141//99 146//99 
vn 0 -1 0
f 147//101 141//99 143//101 
f 141//99 147//101 146//99 
vn 0 0 -1
f 147//101 142//102 145//102 
f 142//102 147//101 143//101 
f 148//100 142//102 144//100 
f 142//102 148//100 145//102 
g Group9 
usemtl Color_M00
v -0.07 -0.54 1.08
v -0.07 -0.54 1.06
v -0.06 -0.54 1.07
vn 0 -1 0
f 149//103 150//103 151//103 
v -0.08 -0.54 1.07
f 150//103 149//103 152//103 
v -0.07 0.46 1.06
v -0.07 0.46 1.08
v -0.06 0.46 1.07
vn 0 1 0
f 153//104 154//104 155//104 
v -0.08 0.46 1.07
f 154//104 153//104 156//104 
vn 0 0 1
vn -1 0 0
f 149//105 156//106 152//106 
f 156//106 149//105 154//105 
vn 1 0 0
f 155//107 149//105 151//107 
f 149//105 155//107 154//105 
vn 0 0 -1
f 155//107 150//108 153//108 
f 150//108 155//107 151//107 
f 156//106 150//108 152//106 
f 150//108 156//106 153//108 
