mtllib p129a.mtl
s 1
o 
g Group1 
usemtl Color_M00
v -5.52 10.17 16.11
v -5.52 10.17 15.89
v -5.52 10.28 16
vn 1 0 0
f 1//1 2//1 3//1 
v -5.52 10.06 16
f 2//1 1//1 4//1 
v -15.52 10.17 15.89
v -15.52 10.17 16.11
v -15.52 10.28 16
vn -1 0 0
f 5//2 6//2 7//2 
v -15.52 10.06 16
f 6//2 5//2 8//2 
vn 0 0 1
vn 0 -1 0
f 1//3 8//4 4//4 
f 8//4 1//3 6//3 
vn 0 1 0
f 7//5 1//3 3//5 
f 1//3 7//5 6//3 
vn 0 0 -1
f 7//5 2//6 5//6 
f 2//6 7//5 3//5 
f 8//4 2//6 4//4 
f 2//6 8//4 5//6 
g Group10 
usemtl Color_M00
v 14.48 10.28 -14
v 14.48 10.06 -14
v 14.37 10.17 -14
vn 0 0 -1
f 9//7 10//7 11//7 
v 14.59 10.17 -14
f 10//7 9//7 12//7 
v 14.48 10.06 16
v 14.48 10.28 16
v 14.37 10.17 16
vn 0 0 1
f 13//8 14//8 15//8 
v 14.59 10.17 16
f 14//8 13//8 16//8 
vn 0 1 0
vn 1 0 0
f 9//9 16//10 12//10 
f 16//10 9//9 14//9 
vn -1 0 0
f 15//11 9//9 11//11 
f 9//9 15//11 14//9 
vn 0 -1 0
f 15//11 10//12 13//12 
f 10//12 15//11 11//11 
f 16//10 10//12 12//10 
f 10//12 16//10 13//12 
g Group11 
usemtl Color_M00
v 4.48 10.17 16.11
v 4.48 10.17 15.89
v 4.37 10.17 16
vn 0 1 0
f 17//13 18//13 19//13 
v 4.59 10.17 16
f 18//13 17//13 20//13 
v 4.48 2.17 15.89
v 4.48 2.17 16.11
v 4.37 2.17 16
vn 0 -1 0
f 21//14 22//14 23//14 
v 4.59 2.17 16
f 22//14 21//14 24//14 
vn 0 0 1
vn 1 0 0
f 17//15 24//16 20//16 
f 24//16 17//15 22//15 
vn -1 0 0
f 23//17 17//15 19//17 
f 17//15 23//17 22//15 
vn 0 0 -1
f 23//17 18//18 21//18 
f 18//18 23//17 19//17 
f 24//16 18//18 20//16 
f 18//18 24//16 21//18 
g Group12 
usemtl Color_M00
v 14.48 10.17 -13.89
v 14.48 10.17 -14.11
v 14.48 10.28 -14
vn 1 0 0
f 25//19 26//19 27//19 
v 14.48 10.06 -14
f 26//19 25//19 28//19 
v -15.52 10.17 -14.11
v -15.52 10.17 -13.89
v -15.52 10.28 -14
vn -1 0 0
f 29//20 30//20 31//20 
v -15.52 10.06 -14
f 30//20 29//20 32//20 
vn 0 0 1
vn 0 -1 0
f 25//21 32//22 28//22 
f 32//22 25//21 30//21 
vn 0 1 0
f 31//23 25//21 27//23 
f 25//21 31//23 30//21 
vn 0 0 -1
f 31//23 26//24 29//24 
f 26//24 31//23 27//23 
f 32//22 26//24 28//22 
f 26//24 32//22 29//24 
g Group13 
usemtl Color_M00
v 14.48 10.17 16.11
v 14.48 10.17 15.89
v 14.48 10.28 16
vn 1 0 0
f 33//25 34//25 35//25 
v 14.48 10.06 16
f 34//25 33//25 36//25 
v 4.48 10.17 15.89
v 4.48 10.17 16.11
v 4.48 10.28 16
vn -1 0 0
f 37//26 38//26 39//26 
v 4.48 10.06 16
f 38//26 37//26 40//26 
vn 0 0 1
vn 0 -1 0
f 33//27 40//28 36//28 
f 40//28 33//27 38//27 
vn 0 1 0
f 39//29 33//27 35//29 
f 33//27 39//29 38//27 
vn 0 0 -1
f 39//29 34//30 37//30 
f 34//30 39//29 35//29 
f 40//28 34//30 36//28 
f 34//30 40//28 37//30 
g Group14 
usemtl Color_M00
v 4.48 2.17 16.11
v 4.48 2.17 15.89
v 4.48 2.06 16
vn -1 0 0
f 41//31 42//31 43//31 
v 4.48 2.28 16
f 42//31 41//31 44//31 
v 14.48 2.17 15.89
v 14.48 2.17 16.11
v 14.48 2.06 16
vn 1 0 0
f 45//32 46//32 47//32 
v 14.48 2.28 16
f 46//32 45//32 48//32 
vn 0 0 1
vn 0 1 0
f 41//33 48//34 44//34 
f 48//34 41//33 46//33 
vn 0 -1 0
f 47//35 41//33 43//35 
f 41//33 47//35 46//33 
vn 0 0 -1
f 47//35 42//36 45//36 
f 42//36 47//35 43//35 
f 48//34 42//36 44//34 
f 42//36 48//34 45//36 
g Group15 
usemtl Color_M00
v -5.52 -0.08 13.11
v -5.52 -0.08 12.89
v -5.52 -0.19 13
vn -1 0 0
f 49//37 50//37 51//37 
v -5.52 0.03 13
f 50//37 49//37 52//37 
v 4.48 -0.08 12.89
v 4.48 -0.08 13.11
v 4.48 -0.19 13
vn 1 0 0
f 53//38 54//38 55//38 
v 4.48 0.03 13
f 54//38 53//38 56//38 
vn 0 0 1
vn 0 1 0
f 49//39 56//40 52//40 
f 56//40 49//39 54//39 
vn 0 -1 0
f 55//41 49//39 51//41 
f 49//39 55//41 54//39 
vn 0 0 -1
f 55//41 50//42 53//42 
f 50//42 55//41 51//41 
f 56//40 50//42 52//40 
f 50//42 56//40 53//42 
g Group16 
usemtl Color_M00
v -15.52 -1.72 -14
v -15.52 -1.94 -14
v -15.63 -1.83 -14
vn 0 0 -1
f 57//43 58//43 59//43 
v -15.41 -1.83 -14
f 58//43 57//43 60//43 
v -15.52 -1.94 10.6667
v -15.52 -1.72 10.6667
v -15.63 -1.83 10.6667
vn 0 0 1
f 61//44 62//44 63//44 
v -15.41 -1.83 10.6667
f 62//44 61//44 64//44 
vn 0 1 0
vn 1 0 0
f 57//45 64//46 60//46 
f 64//46 57//45 62//45 
vn -1 0 0
f 63//47 57//45 59//47 
f 57//45 63//47 62//45 
vn 0 -1 0
f 63//47 58//48 61//48 
f 58//48 63//47 59//47 
f 64//46 58//48 60//46 
f 58//48 64//46 61//48 
g Group17 
usemtl Color_M00
v -15.52 -1.83 -13.89
v -15.52 -1.83 -14.11
v -15.5746 -1.92551 -14
vn -0.868243 0.496139 0
f 65//49 66//49 67//49 
v -15.4654 -1.73449 -14
f 66//49 65//49 68//49 
v -1.52 -9.83 -14.11
v -1.52 -9.83 -13.89
v -1.57458 -9.92551 -14
vn 0.868243 -0.496139 0
f 69//50 70//50 71//50 
v -1.46542 -9.73449 -14
f 70//50 69//50 72//50 
vn 0 0 1
vn 0.496152 0.868236 0
f 65//51 72//52 68//52 
f 72//52 65//51 70//51 
vn -0.496149 -0.868237 0
f 71//53 65//51 67//53 
f 65//51 71//53 70//51 
vn 0 0 -1
f 71//53 66//54 69//54 
f 66//54 71//53 67//53 
f 72//52 66//54 68//52 
f 66//54 72//52 69//54 
g Group18 
usemtl Color_M00
v -1.52 -9.83 0.11
v -1.52 -9.83 -0.11
v -1.52 -9.94 1.45729e-15
vn -1 0 0
f 73//55 74//55 75//55 
v -1.52 -9.72 1.44382e-15
f 74//55 73//55 76//55 
v 14.48 -9.83 -0.11
v 14.48 -9.83 0.11
v 14.48 -9.94 1.45729e-15
vn 1 0 0
f 77//56 78//56 79//56 
v 14.48 -9.72 1.44382e-15
f 78//56 77//56 80//56 
vn 0 0 1
vn 0 1 -9.99567e-17
f 73//57 80//58 76//58 
f 80//58 73//57 78//57 
vn 0 -1 1.99913e-16
f 79//59 73//57 75//59 
f 73//57 79//59 78//57 
vn 0 0 -1
f 79//59 74//60 77//60 
f 74//60 79//59 75//59 
f 80//58 74//60 76//58 
f 74//60 80//58 77//60 
g Group19 
usemtl Color_M00
v -15.4673 -1.86011 10.7584
v -15.5727 -1.79989 10.5749
v -15.5746 -1.92551 10.6667
vn -0.724138 0.413793 0.551724
f 81//61 82//61 83//61 
v -15.4654 -1.73449 10.6667
f 82//61 81//61 84//61 
v -1.57269 -9.79989 -0.091743
v -1.46731 -9.86011 0.0917429
v -1.57458 -9.92551 -8.13802e-08
vn 0.724138 -0.413793 -0.551724
f 85//62 86//62 87//62 
v -1.46542 -9.73449 -8.13802e-08
f 86//62 85//62 88//62 
vn 0.479014 -0.273741 0.834033
vn 0.496152 0.868236 0
f 81//63 88//64 84//64 
f 88//64 81//63 86//63 
vn -0.496149 -0.868237 0
f 87//65 81//63 83//65 
f 81//63 87//65 86//63 
vn -0.479015 0.273734 -0.834035
f 87//65 82//66 85//66 
f 82//66 87//65 83//65 
f 88//64 82//66 84//64 
f 82//66 88//64 85//66 
g Group2 
usemtl Color_M00
v -15.52 10.17 16.11
v -15.52 10.17 15.89
v -15.63 10.17 16
vn 0 1 0
f 89//67 90//67 91//67 
v -15.41 10.17 16
f 90//67 89//67 92//67 
v -15.52 2.17 15.89
v -15.52 2.17 16.11
v -15.63 2.17 16
vn 0 -1 0
f 93//68 94//68 95//68 
v -15.41 2.17 16
f 94//68 93//68 96//68 
vn 0 0 1
vn 1 0 0
f 89//69 96//70 92//70 
f 96//70 89//69 94//69 
vn -1 0 0
f 95//71 89//69 91//71 
f 89//69 95//71 94//69 
vn 0 0 -1
f 95//71 90//72 93//72 
f 90//72 95//71 91//71 
f 96//70 90//72 92//70 
f 90//72 96//70 93//72 
g Group20 
usemtl Color_M00
v 14.48 -9.83 -13.89
v 14.48 -9.83 -14.11
v 14.59 -9.83 -14
vn 0 -1 0
f 97//73 98//73 99//73 
v 14.37 -9.83 -14
f 98//73 97//73 100//73 
v 14.48 10.17 -14.11
v 14.48 10.17 -13.89
v 14.59 10.17 -14
vn 0 1 0
f 101//74 102//74 103//74 
v 14.37 10.17 -14
f 102//74 101//74 104//74 
vn 0 0 1
vn -1 0 0
f 97//75 104//76 100//76 
f 104//76 97//75 102//75 
vn 1 0 0
f 103//77 97//75 99//77 
f 97//75 103//77 102//75 
vn 0 0 -1
f 103//77 98//78 101//78 
f 98//78 103//77 99//77 
f 104//76 98//78 100//76 
f 98//78 104//76 101//78 
g Group21 
usemtl Color_M00
v -1.52 -9.72 -14
v -1.52 -9.94 -14
v -1.63 -9.83 -14
vn 0 0 -1
f 105//79 106//79 107//79 
v -1.41 -9.83 -14
f 106//79 105//79 108//79 
v -1.52 -9.94 1.06812e-07
v -1.52 -9.72 1.06812e-07
v -1.63 -9.83 1.06812e-07
vn 0 0 1
f 109//80 110//80 111//80 
v -1.41 -9.83 1.06812e-07
f 110//80 109//80 112//80 
vn 0 1 0
vn 1 0 0
f 105//81 112//82 108//82 
f 112//82 105//81 110//81 
vn -1 0 0
f 111//83 105//81 107//83 
f 105//81 111//83 110//81 
vn 0 -1 0
f 111//83 106//84 109//84 
f 106//84 111//83 107//83 
f 112//82 106//84 108//82 
f 106//84 112//82 109//84 
g Group22 
usemtl Color_M00
v 4.48 10.17 13.11
v 4.48 10.17 12.89
v 4.37 10.17 13
vn 0 1 0
f 113//85 114//85 115//85 
v 4.59 10.17 13
f 114//85 113//85 116//85 
v 4.48 -0.0800001 12.89
v 4.48 -0.0800001 13.11
v 4.37 -0.0800001 13
vn 0 -1 0
f 117//86 118//86 119//86 
v 4.59 -0.0800001 13
f 118//86 117//86 120//86 
vn 0 0 1
vn 1 0 0
f 113//87 120//88 116//88 
f 120//88 113//87 118//87 
vn -1 0 0
f 119//89 113//87 115//89 
f 113//87 119//89 118//87 
vn 0 0 -1
f 119//89 114//90 117//90 
f 114//90 119//89 115//89 
f 120//88 114//90 116//88 
f 114//90 120//88 117//90 
g Group23 
usemtl Color_M00
v 14.48 -9.72 -14
v 14.48 -9.94 -14
v 14.37 -9.83 -14
vn 0 0 -1
f 121//91 122//91 123//91 
v 14.59 -9.83 -14
f 122//91 121//91 124//91 
v 14.48 -9.94 1.06812e-07
v 14.48 -9.72 1.06812e-07
v 14.37 -9.83 1.06812e-07
vn 0 0 1
f 125//92 126//92 127//92 
v 14.59 -9.83 1.06812e-07
f 126//92 125//92 128//92 
vn 0 1 0
vn 1 0 0
f 121//93 128//94 124//94 
f 128//94 121//93 126//93 
vn -1 0 0
f 127//95 121//93 123//95 
f 121//93 127//95 126//93 
vn 0 -1 0
f 127//95 122//96 125//96 
f 122//96 127//95 123//95 
f 128//94 122//96 124//94 
f 122//96 128//94 125//96 
g Group24 
usemtl Color_M00
v -1.52 -9.83 -13.89
v -1.52 -9.83 -14.11
v -1.52 -9.94 -14
vn -1 0 0
f 129//97 130//97 131//97 
v -1.52 -9.72 -14
f 130//97 129//97 132//97 
v 14.48 -9.83 -14.11
v 14.48 -9.83 -13.89
v 14.48 -9.94 -14
vn 1 0 0
f 133//98 134//98 135//98 
v 14.48 -9.72 -14
f 134//98 133//98 136//98 
vn 0 0 1
vn 0 1 0
f 129//99 136//100 132//100 
f 136//100 129//99 134//99 
vn 0 -1 0
f 135//101 129//99 131//101 
f 129//99 135//101 134//99 
vn 0 0 -1
f 135//101 130//102 133//102 
f 130//102 135//101 131//101 
f 136//100 130//102 132//100 
f 130//102 136//100 133//102 
g Group25 
usemtl Color_M00
v 4.48 10.28 13
v 4.48 10.06 13
v 4.37 10.17 13
vn 0 0 -1
f 137//103 138//103 139//103 
v 4.59 10.17 13
f 138//103 137//103 140//103 
v 4.48 10.06 16
v 4.48 10.28 16
v 4.37 10.17 16
vn 0 0 1
f 141//104 142//104 143//104 
v 4.59 10.17 16
f 142//104 141//104 144//104 
vn 0 1 0
vn 1 0 0
f 137//105 144//106 140//106 
f 144//106 137//105 142//105 
vn -1 0 0
f 143//107 137//105 139//107 
f 137//105 143//107 142//105 
vn 0 -1 0
f 143//107 138//108 141//108 
f 138//108 143//107 139//107 
f 144//106 138//108 140//106 
f 138//108 144//106 141//108 
g Group26 
usemtl Color_M00
v -5.52 10.28 16
v -5.52 10.06 16
v -5.41 10.17 16
vn 0 0 1
f 145//109 146//109 147//109 
v -5.63 10.17 16
f 146//109 145//109 148//109 
v -5.52 10.06 13
v -5.52 10.28 13
v -5.41 10.17 13
vn 0 0 -1
f 149//110 150//110 151//110 
v -5.63 10.17 13
f 150//110 149//110 152//110 
vn 0 1 0
vn -1 0 0
f 145//111 152//112 148//112 
f 152//112 145//111 150//111 
vn 1 0 0
f 151//113 145//111 147//113 
f 145//111 151//113 150//111 
vn 0 -1 0
f 151//113 146//114 149//114 
f 146//114 151//113 147//113 
f 152//112 146//114 148//112 
f 146//114 152//112 149//114 
g Group27 
usemtl Color_M00
v -15.52 10.28 -14
v -15.52 10.06 -14
v -15.63 10.17 -14
vn 0 0 -1
f 153//115 154//115 155//115 
v -15.41 10.17 -14
f 154//115 153//115 156//115 
v -15.52 10.06 16
v -15.52 10.28 16
v -15.63 10.17 16
vn 0 0 1
f 157//116 158//116 159//116 
v -15.41 10.17 16
f 158//116 157//116 160//116 
vn 0 1 0
vn 1 0 0
f 153//117 160//118 156//118 
f 160//118 153//117 158//117 
vn -1 0 0
f 159//119 153//117 155//119 
f 153//117 159//119 158//117 
vn 0 -1 0
f 159//119 154//120 157//120 
f 154//120 159//119 155//119 
f 160//118 154//120 156//118 
f 154//120 160//118 157//120 
g Group28 
usemtl Color_M00
v 14.48 -9.918 0.066
v 14.48 -9.742 -0.066
v 14.59 -9.83 1.45191e-15
vn 0 -0.6 -0.8
f 161//121 162//121 163//121 
v 14.37 -9.83 1.44382e-15
f 162//121 161//121 164//121 
v 14.48 2.258 15.934
v 14.48 2.082 16.066
v 14.59 2.17 16
vn 0 0.6 0.8
f 165//122 166//122 167//122 
v 14.37 2.17 16
f 166//122 165//122 168//122 
vn 0 -0.799996 0.600006
vn -1 0 -5.99733e-17
f 161//123 168//124 164//124 
f 168//124 161//123 166//123 
vn 1 0 1.19947e-16
f 167//125 161//123 163//125 
f 161//123 167//125 166//123 
vn 0 0.799996 -0.600006
f 167//125 162//126 165//126 
f 162//126 167//125 163//125 
f 168//124 162//126 164//124 
f 162//126 168//124 165//126 
g Group29 
usemtl Color_M00
v 14.48 2.17 16.11
v 14.48 2.17 15.89
v 14.59 2.17 16
vn 0 -1 0
f 169//127 170//127 171//127 
v 14.37 2.17 16
f 170//127 169//127 172//127 
v 14.48 10.17 15.89
v 14.48 10.17 16.11
v 14.59 10.17 16
vn 0 1 0
f 173//128 174//128 175//128 
v 14.37 10.17 16
f 174//128 173//128 176//128 
vn 0 0 1
vn -1 0 0
f 169//129 176//130 172//130 
f 176//130 169//129 174//129 
vn 1 0 0
f 175//131 169//129 171//131 
f 169//129 175//131 174//129 
vn 0 0 -1
f 175//131 170//132 173//132 
f 170//132 175//131 171//131 
f 176//130 170//132 172//130 
f 170//132 176//130 173//132 
g Group3 
usemtl Color_M00
v -5.52 10.17 16.11
v -5.52 10.17 15.89
v -5.63 10.17 16
vn 0 1 0
f 177//133 178//133 179//133 
v -5.41 10.17 16
f 178//133 177//133 180//133 
v -5.52 2.17 15.89
v -5.52 2.17 16.11
v -5.63 2.17 16
vn 0 -1 0
f 181//134 182//134 183//134 
v -5.41 2.17 16
f 182//134 181//134 184//134 
vn 0 0 1
vn 1 0 0
f 177//135 184//136 180//136 
f 184//136 177//135 182//135 
vn -1 0 0
f 183//137 177//135 179//137 
f 177//135 183//137 182//135 
vn 0 0 -1
f 183//137 178//138 181//138 
f 178//138 183//137 179//137 
f 184//136 178//138 180//136 
f 178//138 184//136 181//138 
g Group30 
usemtl Color_F08
v -5.52 2.17 16
v -15.52 10.17 16
v -15.52 2.17 16
vn 0 0 1
f 185//139 186//139 187//139 
v -5.52 10.17 16
f 186//139 185//139 188//139 
v 14.48 10.17 -14
v -15.52 10.17 -14
vn 0 1 0
f 186//140 189//140 190//140 
v -5.52 10.17 13
f 189//140 186//140 191//140 
f 191//140 186//140 188//140 
v 4.48 10.17 13
v 14.48 10.17 16
f 189//140 192//140 193//140 
f 192//140 189//140 191//140 
v 4.48 10.17 16
f 193//140 192//140 194//140 
v -15.52 -1.83 -14
v -15.52 -1.83 10.6667
vn -1 0 0
f 187//141 195//141 196//141 
f 195//141 187//141 190//141 
f 190//141 187//141 186//141 
v -5.52 -0.08 13
vn 1 0 0
f 191//142 185//142 197//142 
f 185//142 191//142 188//142 
v 4.48 2.17 16
v 4.48 -0.08 13
f 198//141 192//141 199//141 
f 192//141 198//141 194//141 
v 14.48 2.17 16
v -1.52 -9.83 1.44382e-15
v 14.48 -9.83 1.44382e-15
vn -1.54922e-16 -0.8 0.6
f 200//143 201//143 202//143 
f 201//143 200//143 199//143 
f 201//143 199//143 196//143 
f 199//143 200//143 198//143 
f 196//143 197//143 187//143 
f 197//143 196//143 199//143 
f 187//143 197//143 185//143 
f 199//139 191//139 197//139 
f 191//139 199//139 192//139 
vn 0 0 -1
f 189//144 195//144 190//144 
v -1.52 -9.83 -14
f 195//144 189//144 203//144 
v 14.48 -9.83 -14
f 203//144 189//144 204//144 
f 189//142 202//142 204//142 
f 202//142 189//142 200//142 
f 200//142 189//142 193//142 
f 200//139 194//139 198//139 
f 194//139 200//139 193//139 
vn -0.496139 -0.868243 -3.49739e-17
f 201//145 195//145 203//145 
f 195//145 201//145 196//145 
vn 0 -1 0
f 202//146 203//146 204//146 
f 203//146 202//146 201//146 
usemtl Color_M00
v -15.52 -1.918 10.7327
v -15.52 -1.742 10.6007
v -15.41 -1.83 10.6667
vn 0 -0.599999 -0.800001
f 205//147 206//147 207//147 
v -15.63 -1.83 10.6667
f 206//147 205//147 208//147 
v -15.52 2.258 15.934
v -15.52 2.082 16.066
v -15.41 2.17 16
vn 0 0.599999 0.800001
f 209//148 210//148 211//148 
v -15.63 2.17 16
f 210//148 209//148 212//148 
vn 0 -0.799998 0.600002
f 205//149 212//141 208//141 
f 212//141 205//149 210//149 
f 211//142 205//149 207//142 
f 205//149 211//142 210//149 
vn 0 0.799995 -0.600006
f 211//142 206//150 209//150 
f 206//150 211//142 207//142 
f 212//141 206//150 208//141 
f 206//150 212//141 209//150 
g Group4 
usemtl Color_M00
v 4.48 -0.168 13.066
v 4.48 0.008 12.934
v 4.59 -0.08 13
vn 0 -0.6 -0.8
f 213//151 214//151 215//151 
v 4.37 -0.08 13
f 214//151 213//151 216//151 
v 4.48 2.258 15.934
v 4.48 2.082 16.066
v 4.59 2.17 16
vn 0 0.6 0.8
f 217//152 218//152 219//152 
v 4.37 2.17 16
f 218//152 217//152 220//152 
vn 0 -0.800012 0.599984
vn -1 0 0
f 213//153 220//154 216//154 
f 220//154 213//153 218//153 
vn 1 0 0
f 219//155 213//153 215//155 
f 213//153 219//155 218//153 
vn 0 0.799997 -0.600004
f 219//155 214//156 217//156 
f 214//156 219//155 215//155 
f 220//154 214//156 216//154 
f 214//156 220//154 217//156 
g Group5 
usemtl Color_M00
v -5.52 2.082 16.066
v -5.52 2.258 15.934
v -5.63 2.17 16
vn 0 0.6 0.8
f 221//157 222//157 223//157 
v -5.41 2.17 16
f 222//157 221//157 224//157 
v -5.52 0.00799998 12.934
v -5.52 -0.168 13.066
v -5.63 -0.08 13
vn 0 -0.6 -0.8
f 225//158 226//158 227//158 
v -5.41 -0.08 13
f 226//158 225//158 228//158 
vn 0 -0.80001 0.599987
vn 1 0 0
f 221//159 228//160 224//160 
f 228//160 221//159 226//159 
vn -1 0 0
f 227//161 221//159 223//161 
f 221//159 227//161 226//159 
vn 0 0.800013 -0.599983
f 227//161 222//162 225//162 
f 222//162 227//161 223//161 
f 228//160 222//162 224//160 
f 222//162 228//160 225//162 
g Group6 
usemtl Color_M00
v -15.52 2.17 16.11
v -15.52 2.17 15.89
v -15.52 2.06 16
vn -1 0 0
f 229//163 230//163 231//163 
v -15.52 2.28 16
f 230//163 229//163 232//163 
v -5.52 2.17 15.89
v -5.52 2.17 16.11
v -5.52 2.06 16
vn 1 0 0
f 233//164 234//164 235//164 
v -5.52 2.28 16
f 234//164 233//164 236//164 
vn 0 0 1
vn 0 1 0
f 229//165 236//166 232//166 
f 236//166 229//165 234//165 
vn 0 -1 0
f 235//167 229//165 231//167 
f 229//165 235//167 234//165 
vn 0 0 -1
f 235//167 230//168 233//168 
f 230//168 235//167 231//167 
f 236//166 230//168 232//166 
f 230//168 236//166 233//168 
g Group7 
usemtl Color_M00
v -5.52 10.17 13.11
v -5.52 10.17 12.89
v -5.63 10.17 13
vn 0 1 0
f 237//169 238//169 239//169 
v -5.41 10.17 13
f 238//169 237//169 240//169 
v -5.52 -0.0800001 12.89
v -5.52 -0.0800001 13.11
v -5.63 -0.0800001 13
vn 0 -1 0
f 241//170 242//170 243//170 
v -5.41 -0.0800001 13
f 242//170 241//170 244//170 
vn 0 0 1
vn 1 0 0
f 237//171 244//172 240//172 
f 244//172 237//171 242//171 
vn -1 0 0
f 243//173 237//171 239//173 
f 237//171 243//173 242//171 
vn 0 0 -1
f 243//173 238//174 241//174 
f 238//174 243//173 239//173 
f 244//172 238//174 240//172 
f 238//174 244//172 241//174 
g Group8 
usemtl Color_M00
v -5.52 10.17 13.11
v -5.52 10.17 12.89
v -5.52 10.06 13
vn -1 0 0
f 245//175 246//175 247//175 
v -5.52 10.28 13
f 246//175 245//175 248//175 
v 4.48 10.17 12.89
v 4.48 10.17 13.11
v 4.48 10.06 13
vn 1 0 0
f 249//176 250//176 251//176 
v 4.48 10.28 13
f 250//176 249//176 252//176 
vn 0 0 1
vn 0 1 0
f 245//177 252//178 248//178 
f 252//178 245//177 250//177 
vn 0 -1 0
f 251//179 245//177 247//179 
f 245//177 251//179 250//177 
vn 0 0 -1
f 251//179 246//180 249//180 
f 246//180 251//179 247//179 
f 252//178 246//180 248//178 
f 246//180 252//178 249//180 
g Group9 
usemtl Color_M00
v -15.52 10.17 -13.89
v -15.52 10.17 -14.11
v -15.63 10.17 -14
vn 0 1 0
f 253//181 254//181 255//181 
v -15.41 10.17 -14
f 254//181 253//181 256//181 
v -15.52 -1.83 -14.11
v -15.52 -1.83 -13.89
v -15.63 -1.83 -14
vn 0 -1 0
f 257//182 258//182 259//182 
v -15.41 -1.83 -14
f 258//182 257//182 260//182 
vn 0 0 1
vn 1 0 0
f 253//183 260//184 256//184 
f 260//184 253//183 258//183 
vn -1 0 0
f 259//185 253//183 255//185 
f 253//183 259//185 258//183 
vn 0 0 -1
f 259//185 254//186 257//186 
f 254//186 259//185 255//185 
f 260//184 254//186 256//184 
f 254//186 260//184 257//186 
