mtllib p130a.mtl
s 1
o 
g Group1 
usemtl Layer_Layer0
v 0.354899 -1.55002 2.04126
v 0.354899 -1.55002 2.00126
v 0.374899 -1.55002 2.02126
vn 0 -1 0
f 1//1 2//1 3//1 
v 0.334899 -1.55002 2.02126
f 2//1 1//1 4//1 
v 0.354899 1.44998 2.00126
v 0.354899 1.44998 2.04126
v 0.374899 1.44998 2.02126
vn 0 1 0
f 5//2 6//2 7//2 
v 0.334899 1.44998 2.02126
f 6//2 5//2 8//2 
vn 0 0 1
vn -1 0 0
f 1//3 8//4 4//4 
f 8//4 1//3 6//3 
vn 1 0 0
f 7//5 1//3 3//5 
f 1//3 7//5 6//3 
vn 0 0 -1
f 7//5 2//6 5//6 
f 2//6 7//5 3//5 
f 8//4 2//6 4//4 
f 2//6 8//4 5//6 
g Group10 
usemtl Layer_Layer0
v 1.3549 3.46997 -1.97874
v 1.3549 3.42998 -1.97874
v 1.3349 3.44998 -1.97874
vn 0 0 -1
f 9//7 10//7 11//7 
v 1.3749 3.44998 -1.97874
f 10//7 9//7 12//7 
v 1.3549 3.42998 0.0212594
v 1.3549 3.46997 0.0212594
v 1.3349 3.44998 0.0212594
vn 0 0 1
f 13//8 14//8 15//8 
v 1.3749 3.44998 0.0212594
f 14//8 13//8 16//8 
vn 0 1 0
vn 1 0 0
f 9//9 16//10 12//10 
f 16//10 9//9 14//9 
vn -1 0 0
f 15//11 9//9 11//11 
f 9//9 15//11 14//9 
vn 0 -1 0
f 15//11 10//12 13//12 
f 10//12 15//11 11//11 
f 16//10 10//12 12//10 
f 10//12 16//10 13//12 
g Group11 
usemtl Layer_Layer0
v 1.3549 -1.55002 0.0412594
v 1.3549 -1.55002 0.0012594
v 1.3549 -1.53002 0.0212594
vn 1 0 0
f 17//13 18//13 19//13 
v 1.3549 -1.57002 0.0212594
f 18//13 17//13 20//13 
v 0.354899 -1.55002 0.0012594
v 0.354899 -1.55002 0.0412594
v 0.354899 -1.53002 0.0212594
vn -1 0 0
f 21//14 22//14 23//14 
v 0.354899 -1.57002 0.0212594
f 22//14 21//14 24//14 
vn 0 0 1
vn 0 -1 0
f 17//15 24//16 20//16 
f 24//16 17//15 22//15 
vn 0 1 0
f 23//17 17//15 19//17 
f 17//15 23//17 22//15 
vn 0 0 -1
f 23//17 18//18 21//18 
f 18//18 23//17 19//17 
f 24//16 18//18 20//16 
f 18//18 24//16 21//18 
g Group12 
usemtl Layer_Layer0
v 1.3549 -3.53002 -1.97874
v 1.3549 -3.57002 -1.97874
v 1.3349 -3.55002 -1.97874
vn 0 0 -1
f 25//19 26//19 27//19 
v 1.3749 -3.55002 -1.97874
f 26//19 25//19 28//19 
v 1.3549 -3.57002 2.02126
v 1.3549 -3.53002 2.02126
v 1.3349 -3.55002 2.02126
vn 0 0 1
f 29//20 30//20 31//20 
v 1.3749 -3.55002 2.02126
f 30//20 29//20 32//20 
vn 0 1 0
vn 1 0 0
f 25//21 32//22 28//22 
f 32//22 25//21 30//21 
vn -1 0 0
f 31//23 25//21 27//23 
f 25//21 31//23 30//21 
vn 0 -1 0
f 31//23 26//24 29//24 
f 26//24 31//23 27//23 
f 32//22 26//24 28//22 
f 26//24 32//22 29//24 
g Group13 
usemtl Layer_Layer0
v 0.354899 3.44998 2.04126
v 0.354899 3.44998 2.00126
v 0.354899 3.46997 2.02126
vn 1 0 0
f 33//25 34//25 35//25 
v 0.354899 3.42998 2.02126
f 34//25 33//25 36//25 
v -1.6451 3.44998 2.00126
v -1.6451 3.44998 2.04126
v -1.6451 3.46997 2.02126
vn -1 0 0
f 37//26 38//26 39//26 
v -1.6451 3.42998 2.02126
f 38//26 37//26 40//26 
vn 0 0 1
vn 0 -1 0
f 33//27 40//28 36//28 
f 40//28 33//27 38//27 
vn 0 1 0
f 39//29 33//27 35//29 
f 33//27 39//29 38//27 
vn 0 0 -1
f 39//29 34//30 37//30 
f 34//30 39//29 35//29 
f 40//28 34//30 36//28 
f 34//30 40//28 37//30 
g Group14 
usemtl Layer_Layer0
v 1.3549 1.44998 2.04126
v 1.3549 1.44998 2.00126
v 1.3749 1.44998 2.02126
vn 0 -1 0
f 41//31 42//31 43//31 
v 1.3349 1.44998 2.02126
f 42//31 41//31 44//31 
v 1.3549 3.44998 2.00126
v 1.3549 3.44998 2.04126
v 1.3749 3.44998 2.02126
vn 0 1 0
f 45//32 46//32 47//32 
v 1.3349 3.44998 2.02126
f 46//32 45//32 48//32 
vn 0 0 1
vn -1 0 0
f 41//33 48//34 44//34 
f 48//34 41//33 46//33 
vn 1 0 0
f 47//35 41//33 43//35 
f 41//33 47//35 46//33 
vn 0 0 -1
f 47//35 42//36 45//36 
f 42//36 47//35 43//35 
f 48//34 42//36 44//34 
f 42//36 48//34 45//36 
g Group15 
usemtl Layer_Layer0
v -1.6451 -3.55002 2.04126
v -1.6451 -3.55002 2.00126
v -1.6451 -3.57002 2.02126
vn -1 0 0
f 49//37 50//37 51//37 
v -1.6451 -3.53002 2.02126
f 50//37 49//37 52//37 
v 1.3549 -3.55002 2.00126
v 1.3549 -3.55002 2.04126
v 1.3549 -3.57002 2.02126
vn 1 0 0
f 53//38 54//38 55//38 
v 1.3549 -3.53002 2.02126
f 54//38 53//38 56//38 
vn 0 0 1
vn 0 1 0
f 49//39 56//40 52//40 
f 56//40 49//39 54//39 
vn 0 -1 0
f 55//41 49//39 51//41 
f 49//39 55//41 54//39 
vn 0 0 -1
f 55//41 50//42 53//42 
f 50//42 55//41 51//41 
f 56//40 50//42 52//40 
f 50//42 56//40 53//42 
g Group16 
usemtl Layer_Layer0
v 0.354899 1.44998 0.0412594
v 0.354899 1.44998 0.0012594
v 0.354899 1.42998 0.0212594
vn -1 0 0
f 57//43 58//43 59//43 
v 0.354899 1.46998 0.0212594
f 58//43 57//43 60//43 
v 1.3549 1.44998 0.0012594
v 1.3549 1.44998 0.0412594
v 1.3549 1.42998 0.0212594
vn 1 0 0
f 61//44 62//44 63//44 
v 1.3549 1.46998 0.0212594
f 62//44 61//44 64//44 
vn 0 0 1
vn 0 1 0
f 57//45 64//46 60//46 
f 64//46 57//45 62//45 
vn 0 -1 0
f 63//47 57//45 59//47 
f 57//45 63//47 62//45 
vn 0 0 -1
f 63//47 58//48 61//48 
f 58//48 63//47 59//47 
f 64//46 58//48 60//46 
f 58//48 64//46 61//48 
g Group17 
usemtl Layer_Layer0
v -1.6451 -3.53002 -1.97874
v -1.6451 -3.57002 -1.97874
v -1.6651 -3.55002 -1.97874
vn 0 0 -1
f 65//49 66//49 67//49 
v -1.6251 -3.55002 -1.97874
f 66//49 65//49 68//49 
v -1.6451 -3.57002 2.02126
v -1.6451 -3.53002 2.02126
v -1.6651 -3.55002 2.02126
vn 0 0 1
f 69//50 70//50 71//50 
v -1.6251 -3.55002 2.02126
f 70//50 69//50 72//50 
vn 0 1 0
vn 1 0 0
f 65//51 72//52 68//52 
f 72//52 65//51 70//51 
vn -1 0 0
f 71//53 65//51 67//53 
f 65//51 71//53 70//51 
vn 0 -1 0
f 71//53 66//54 69//54 
f 66//54 71//53 67//53 
f 72//52 66//54 68//52 
f 66//54 72//52 69//54 
g Group18 
usemtl Layer_Layer0
v 1.3549 -1.55002 0.0412594
v 1.3549 -1.55002 0.0012594
v 1.3749 -1.55002 0.0212594
vn 0 -1 0
f 73//55 74//55 75//55 
v 1.3349 -1.55002 0.0212594
f 74//55 73//55 76//55 
v 1.3549 1.44998 0.0012594
v 1.3549 1.44998 0.0412594
v 1.3749 1.44998 0.0212594
vn 0 1 0
f 77//56 78//56 79//56 
v 1.3349 1.44998 0.0212594
f 78//56 77//56 80//56 
vn 0 0 1
vn -1 0 0
f 73//57 80//58 76//58 
f 80//58 73//57 78//57 
vn 1 0 0
f 79//59 73//57 75//59 
f 73//57 79//59 78//57 
vn 0 0 -1
f 79//59 74//60 77//60 
f 74//60 79//59 75//59 
f 80//58 74//60 76//58 
f 74//60 80//58 77//60 
g Group19 
usemtl Layer_Layer0
v 1.3549 1.46998 2.02126
v 1.3549 1.42998 2.02126
v 1.3749 1.44998 2.02126
vn 0 0 1
f 81//61 82//61 83//61 
v 1.3349 1.44998 2.02126
f 82//61 81//61 84//61 
v 1.3549 1.42998 0.0212594
v 1.3549 1.46998 0.0212594
v 1.3749 1.44998 0.0212594
vn 0 0 -1
f 85//62 86//62 87//62 
v 1.3349 1.44998 0.0212594
f 86//62 85//62 88//62 
vn 0 1 0
vn -1 0 0
f 81//63 88//64 84//64 
f 88//64 81//63 86//63 
vn 1 0 0
f 87//65 81//63 83//65 
f 81//63 87//65 86//63 
vn 0 -1 0
f 87//65 82//66 85//66 
f 82//66 87//65 83//65 
f 88//64 82//66 84//64 
f 82//66 88//64 85//66 
g Group2 
usemtl Layer_Layer0
v 0.354899 1.46998 2.02126
v 0.354899 1.42998 2.02126
v 0.374899 1.44998 2.02126
vn 0 0 1
f 89//67 90//67 91//67 
v 0.334899 1.44998 2.02126
f 90//67 89//67 92//67 
v 0.354899 1.42998 0.0212594
v 0.354899 1.46998 0.0212594
v 0.374899 1.44998 0.0212594
vn 0 0 -1
f 93//68 94//68 95//68 
v 0.334899 1.44998 0.0212594
f 94//68 93//68 96//68 
vn 0 1 0
vn -1 0 0
f 89//69 96//70 92//70 
f 96//70 89//69 94//69 
vn 1 0 0
f 95//71 89//69 91//71 
f 89//69 95//71 94//69 
vn 0 -1 0
f 95//71 90//72 93//72 
f 90//72 95//71 91//71 
f 96//70 90//72 92//70 
f 90//72 96//70 93//72 
g Group20 
usemtl Layer_Layer0
v 1.3549 -3.55002 2.04126
v 1.3549 -3.55002 2.00126
v 1.3749 -3.55002 2.02126
vn 0 -1 0
f 97//73 98//73 99//73 
v 1.3349 -3.55002 2.02126
f 98//73 97//73 100//73 
v 1.3549 -1.55002 2.00126
v 1.3549 -1.55002 2.04126
v 1.3749 -1.55002 2.02126
vn 0 1 0
f 101//74 102//74 103//74 
v 1.3349 -1.55002 2.02126
f 102//74 101//74 104//74 
vn 0 0 1
vn -1 0 0
f 97//75 104//76 100//76 
f 104//76 97//75 102//75 
vn 1 0 0
f 103//77 97//75 99//77 
f 97//75 103//77 102//75 
vn 0 0 -1
f 103//77 98//78 101//78 
f 98//78 103//77 99//77 
f 104//76 98//78 100//76 
f 98//78 104//76 101//78 
g Group21 
usemtl Layer_Layer0
v -1.6451 -3.55002 -1.95874
v -1.6451 -3.55002 -1.99874
v -1.6451 -3.57002 -1.97874
vn -1 0 0
f 105//79 106//79 107//79 
v -1.6451 -3.53002 -1.97874
f 106//79 105//79 108//79 
v 1.3549 -3.55002 -1.99874
v 1.3549 -3.55002 -1.95874
v 1.3549 -3.57002 -1.97874
vn 1 0 0
f 109//80 110//80 111//80 
v 1.3549 -3.53002 -1.97874
f 110//80 109//80 112//80 
vn 0 0 1
vn 0 1 0
f 105//81 112//82 108//82 
f 112//82 105//81 110//81 
vn 0 -1 0
f 111//83 105//81 107//83 
f 105//81 111//83 110//81 
vn 0 0 -1
f 111//83 106//84 109//84 
f 106//84 111//83 107//83 
f 112//82 106//84 108//82 
f 106//84 112//82 109//84 
g Group22 
usemtl Layer_Layer0
v 1.3549 1.44998 -1.95874
v 1.3549 1.44998 -1.99874
v 1.3749 1.44998 -1.97874
vn 0 -1 0
f 113//85 114//85 115//85 
v 1.3349 1.44998 -1.97874
f 114//85 113//85 116//85 
v 1.3549 3.44998 -1.99874
v 1.3549 3.44998 -1.95874
v 1.3749 3.44998 -1.97874
vn 0 1 0
f 117//86 118//86 119//86 
v 1.3349 3.44998 -1.97874
f 118//86 117//86 120//86 
vn 0 0 1
vn -1 0 0
f 113//87 120//88 116//88 
f 120//88 113//87 118//87 
vn 1 0 0
f 119//89 113//87 115//89 
f 113//87 119//89 118//87 
vn 0 0 -1
f 119//89 114//90 117//90 
f 114//90 119//89 115//89 
f 120//88 114//90 116//88 
f 114//90 120//88 117//90 
g Group23 
usemtl Layer_Layer0
v 1.3549 -3.55002 -1.95874
v 1.3549 -3.55002 -1.99874
v 1.3749 -3.55002 -1.97874
vn 0 -1 0
f 121//91 122//91 123//91 
v 1.3349 -3.55002 -1.97874
f 122//91 121//91 124//91 
v 1.3549 -1.55002 -1.99874
v 1.3549 -1.55002 -1.95874
v 1.3749 -1.55002 -1.97874
vn 0 1 0
f 125//92 126//92 127//92 
v 1.3349 -1.55002 -1.97874
f 126//92 125//92 128//92 
vn 0 0 1
vn -1 0 0
f 121//93 128//94 124//94 
f 128//94 121//93 126//93 
vn 1 0 0
f 127//95 121//93 123//95 
f 121//93 127//95 126//93 
vn 0 0 -1
f 127//95 122//96 125//96 
f 122//96 127//95 123//95 
f 128//94 122//96 124//94 
f 122//96 128//94 125//96 
g Group24 
usemtl Layer_Layer0
v 1.3549 3.44998 -1.95874
v 1.3549 3.44998 -1.99874
v 1.3549 3.46997 -1.97874
vn 1 0 0
f 129//97 130//97 131//97 
v 1.3549 3.42998 -1.97874
f 130//97 129//97 132//97 
v -1.6451 3.44998 -1.99874
v -1.6451 3.44998 -1.95874
v -1.6451 3.46997 -1.97874
vn -1 0 0
f 133//98 134//98 135//98 
v -1.6451 3.42998 -1.97874
f 134//98 133//98 136//98 
vn 0 0 1
vn 0 -1 0
f 129//99 136//100 132//100 
f 136//100 129//99 134//99 
vn 0 1 0
f 135//101 129//99 131//101 
f 129//99 135//101 134//99 
vn 0 0 -1
f 135//101 130//102 133//102 
f 130//102 135//101 131//101 
f 136//100 130//102 132//100 
f 130//102 136//100 133//102 
g Group25 
usemtl Layer_Layer0
v -1.6451 3.44998 -1.95874
v -1.6451 3.44998 -1.99874
v -1.6651 3.44998 -1.97874
vn 0 1 0
f 137//103 138//103 139//103 
v -1.6251 3.44998 -1.97874
f 138//103 137//103 140//103 
v -1.6451 -3.55002 -1.99874
v -1.6451 -3.55002 -1.95874
v -1.6651 -3.55002 -1.97874
vn 0 -1 0
f 141//104 142//104 143//104 
v -1.6251 -3.55002 -1.97874
f 142//104 141//104 144//104 
vn 0 0 1
vn 1 0 0
f 137//105 144//106 140//106 
f 144//106 137//105 142//105 
vn -1 0 0
f 143//107 137//105 139//107 
f 137//105 143//107 142//105 
vn 0 0 -1
f 143//107 138//108 141//108 
f 138//108 143//107 139//107 
f 144//106 138//108 140//106 
f 138//108 144//106 141//108 
g Group26 
usemtl Layer_Layer0
v 1.3549 -1.55002 -1.95874
v 1.3549 -1.55002 -1.99874
v 1.3749 -1.55002 -1.97874
vn 0 -1 0
f 145//109 146//109 147//109 
v 1.3349 -1.55002 -1.97874
f 146//109 145//109 148//109 
v 1.3549 1.44998 -1.99874
v 1.3549 1.44998 -1.95874
v 1.3749 1.44998 -1.97874
vn 0 1 0
f 149//110 150//110 151//110 
v 1.3349 1.44998 -1.97874
f 150//110 149//110 152//110 
vn 0 0 1
vn -1 0 0
f 145//111 152//112 148//112 
f 152//112 145//111 150//111 
vn 1 0 0
f 151//113 145//111 147//113 
f 145//111 151//113 150//111 
vn 0 0 -1
f 151//113 146//114 149//114 
f 146//114 151//113 147//113 
f 152//112 146//114 148//112 
f 146//114 152//112 149//114 
g Group27 
usemtl Layer_Layer0
v 1.3549 -1.55002 2.04126
v 1.3549 -1.55002 2.00126
v 1.3549 -1.53002 2.02126
vn 1 0 0
f 153//115 154//115 155//115 
v 1.3549 -1.57002 2.02126
f 154//115 153//115 156//115 
v 0.354899 -1.55002 2.00126
v 0.354899 -1.55002 2.04126
v 0.354899 -1.53002 2.02126
vn -1 0 0
f 157//116 158//116 159//116 
v 0.354899 -1.57002 2.02126
f 158//116 157//116 160//116 
vn 0 0 1
vn 0 -1 0
f 153//117 160//118 156//118 
f 160//118 153//117 158//117 
vn 0 1 0
f 159//119 153//117 155//119 
f 153//117 159//119 158//117 
vn 0 0 -1
f 159//119 154//120 157//120 
f 154//120 159//119 155//119 
f 160//118 154//120 156//118 
f 154//120 160//118 157//120 
g Group28 
usemtl Color_G07
v 1.3549 3.44998 -1.97874
v -1.6451 -3.55002 -1.97874
v -1.6451 3.44998 -1.97874
vn 0 0 -1
f 161//121 162//121 163//121 
v 1.3549 -3.55002 -1.97874
f 162//121 161//121 164//121 
v 1.3549 1.44998 -1.97874
f 164//121 161//121 165//121 
v 1.3549 -1.55002 -1.97874
f 164//121 165//121 166//121 
v -1.6451 -3.55002 2.02126
v 0.354899 -1.55002 2.02126
v -1.6451 3.44998 2.02126
vn 0 0 1
f 167//122 168//122 169//122 
v 1.3549 -3.55002 2.02126
f 168//122 167//122 170//122 
v 1.3549 -1.55002 2.02126
f 168//122 170//122 171//122 
v 0.354899 3.44998 2.02126
f 168//122 172//122 169//122 
v 0.354899 1.44998 2.02126
f 172//122 168//122 173//122 
v 1.3549 1.44998 2.02126
f 172//122 173//122 174//122 
v 1.3549 3.44998 2.02126
f 172//122 174//122 175//122 
vn 0 1 0
f 169//123 161//123 163//123 
v 1.3549 3.44998 0.0212594
f 161//123 169//123 176//123 
f 176//123 169//123 175//123 
f 175//123 169//123 172//123 
v 1.3549 -1.55002 0.0212594
vn 1 0 0
f 165//124 177//124 166//124 
v 1.3549 1.44998 0.0212594
f 177//124 165//124 178//124 
f 178//124 165//124 161//124 
f 178//124 161//124 174//124 
f 174//124 161//124 175//124 
f 175//124 161//124 176//124 
f 166//124 170//124 164//124 
f 170//124 166//124 171//124 
f 171//124 166//124 177//124 
vn 0 -1 0
f 170//125 162//125 164//125 
f 162//125 170//125 167//125 
vn -1 0 0
f 169//126 162//126 167//126 
f 162//126 169//126 163//126 
v 0.354899 1.44998 0.0212594
v 0.354899 -1.55002 0.0212594
f 177//122 179//122 180//122 
f 179//122 177//122 178//122 
f 174//125 179//125 178//125 
f 179//125 174//125 173//125 
v 0.354899 1.42998 0.0412594
v 0.354899 -1.55002 2.00126
v 0.354899 -1.55002 0.0412594
vn 1 -3.48237e-16 -5.29463e-16
f 181//127 182//127 183//127 
v 0.354899 1.42998 2.00126
f 182//127 181//127 184//127 
v 1.3349 -1.55002 2.00126
v 1.3349 -1.55002 0.0412594
f 183//123 185//123 186//123 
f 185//123 183//123 182//123 
usemtl Layer_Layer0
v 0.354899 -1.53002 0.0412594
v 0.354899 -1.57002 0.0412594
v 0.334899 -1.55002 0.0412594
f 187//121 188//121 189//121 
v 0.374899 -1.55002 0.0412594
f 188//121 187//121 190//121 
v 0.354899 -1.57002 2.00126
v 0.354899 -1.53002 2.00126
v 0.334899 -1.55002 2.00126
f 191//122 192//122 193//122 
v 0.374899 -1.55002 2.00126
f 192//122 191//122 194//122 
f 187//123 194//124 190//124 
f 194//124 187//123 192//123 
f 193//126 187//123 189//126 
f 187//123 193//126 192//123 
f 193//126 188//125 191//125 
f 188//125 193//126 189//126 
f 194//124 188//125 190//124 
f 188//125 194//124 191//125 
usemtl Layer_flecha
v 26.0902 -44.6486 -1.44382e-15
v 16.0262 -27.8284 1.44382e-15
v 16.0262 -44.6486 1.44382e-15
vn 2.01832e-16 3.16584e-17 1
f 195//128 196//128 197//128 
v 21.0582 -19.57 -1.44382e-15
f 196//128 195//128 198//128 
v 26.0902 -27.8284 -1.44382e-15
f 198//128 195//128 199//128 
v 30.4784 -27.8284 -1.44382e-15
f 198//128 199//128 200//128 
v 11.638 -27.8284 1.44382e-15
f 198//128 201//128 196//128 
g Group3 
usemtl Layer_Layer0
v -1.6451 3.46997 -1.97874
v -1.6451 3.42998 -1.97874
v -1.6651 3.44998 -1.97874
vn 0 0 -1
f 202//129 203//129 204//129 
v -1.6251 3.44998 -1.97874
f 203//129 202//129 205//129 
v -1.6451 3.42998 2.02126
v -1.6451 3.46997 2.02126
v -1.6651 3.44998 2.02126
vn 0 0 1
f 206//130 207//130 208//130 
v -1.6251 3.44998 2.02126
f 207//130 206//130 209//130 
vn 0 1 0
vn 1 0 0
f 202//131 209//132 205//132 
f 209//132 202//131 207//131 
vn -1 0 0
f 208//133 202//131 204//133 
f 202//131 208//133 207//131 
vn 0 -1 0
f 208//133 203//134 206//134 
f 203//134 208//133 204//133 
f 209//132 203//134 205//132 
f 203//134 209//132 206//134 
g Group4 
usemtl Layer_Layer0
v 0.354899 -1.55002 0.0412594
v 0.354899 -1.55002 0.0012594
v 0.374899 -1.55002 0.0212594
vn 0 -1 0
f 210//135 211//135 212//135 
v 0.334899 -1.55002 0.0212594
f 211//135 210//135 213//135 
v 0.354899 1.44998 0.0012594
v 0.354899 1.44998 0.0412594
v 0.374899 1.44998 0.0212594
vn 0 1 0
f 214//136 215//136 216//136 
v 0.334899 1.44998 0.0212594
f 215//136 214//136 217//136 
vn 0 0 1
vn -1 0 0
f 210//137 217//138 213//138 
f 217//138 210//137 215//137 
vn 1 0 0
f 216//139 210//137 212//139 
f 210//137 216//139 215//137 
vn 0 0 -1
f 216//139 211//140 214//140 
f 211//140 216//139 212//139 
f 217//138 211//140 213//138 
f 211//140 217//138 214//140 
g Group5 
usemtl Layer_Layer0
v -1.6451 3.44998 2.04126
v -1.6451 3.44998 2.00126
v -1.6651 3.44998 2.02126
vn 0 1 0
f 218//141 219//141 220//141 
v -1.6251 3.44998 2.02126
f 219//141 218//141 221//141 
v -1.6451 -3.55002 2.00126
v -1.6451 -3.55002 2.04126
v -1.6651 -3.55002 2.02126
vn 0 -1 0
f 222//142 223//142 224//142 
v -1.6251 -3.55002 2.02126
f 223//142 222//142 225//142 
vn 0 0 1
vn 1 0 0
f 218//143 225//144 221//144 
f 225//144 218//143 223//143 
vn -1 0 0
f 224//145 218//143 220//145 
f 218//143 224//145 223//143 
vn 0 0 -1
f 224//145 219//146 222//146 
f 219//146 224//145 220//145 
f 225//144 219//146 221//144 
f 219//146 225//144 222//146 
g Group6 
usemtl Layer_Layer0
v 1.3549 3.44998 2.04126
v 1.3549 3.44998 2.00126
v 1.3549 3.46997 2.02126
vn 1 0 0
f 226//147 227//147 228//147 
v 1.3549 3.42998 2.02126
f 227//147 226//147 229//147 
v 0.354899 3.44998 2.00126
v 0.354899 3.44998 2.04126
v 0.354899 3.46997 2.02126
vn -1 0 0
f 230//148 231//148 232//148 
v 0.354899 3.42998 2.02126
f 231//148 230//148 233//148 
vn 0 0 1
vn 0 -1 0
f 226//149 233//150 229//150 
f 233//150 226//149 231//149 
vn 0 1 0
f 232//151 226//149 228//151 
f 226//149 232//151 231//149 
vn 0 0 -1
f 232//151 227//152 230//152 
f 227//152 232//151 228//151 
f 233//150 227//152 229//150 
f 227//152 233//150 230//152 
g Group7 
usemtl Layer_Layer0
v 1.3549 3.46997 0.0212594
v 1.3549 3.42998 0.0212594
v 1.3349 3.44998 0.0212594
vn 0 0 -1
f 234//153 235//153 236//153 
v 1.3749 3.44998 0.0212594
f 235//153 234//153 237//153 
v 1.3549 3.42998 2.02126
v 1.3549 3.46997 2.02126
v 1.3349 3.44998 2.02126
vn 0 0 1
f 238//154 239//154 240//154 
v 1.3749 3.44998 2.02126
f 239//154 238//154 241//154 
vn 0 1 0
vn 1 0 0
f 234//155 241//156 237//156 
f 241//156 234//155 239//155 
vn -1 0 0
f 240//157 234//155 236//157 
f 234//155 240//157 239//155 
vn 0 -1 0
f 240//157 235//158 238//158 
f 235//158 240//157 236//157 
f 241//156 235//158 237//156 
f 235//158 241//156 238//158 
g Group8 
usemtl Layer_Layer0
v 1.3549 -1.53002 2.02126
v 1.3549 -1.57002 2.02126
v 1.3749 -1.55002 2.02126
vn 0 0 1
f 242//159 243//159 244//159 
v 1.3349 -1.55002 2.02126
f 243//159 242//159 245//159 
v 1.3549 -1.57002 0.0212594
v 1.3549 -1.53002 0.0212594
v 1.3749 -1.55002 0.0212594
vn 0 0 -1
f 246//160 247//160 248//160 
v 1.3349 -1.55002 0.0212594
f 247//160 246//160 249//160 
vn 0 1 0
vn -1 0 0
f 242//161 249//162 245//162 
f 249//162 242//161 247//161 
vn 1 0 0
f 248//163 242//161 244//163 
f 242//161 248//163 247//161 
vn 0 -1 0
f 248//163 243//164 246//164 
f 243//164 248//163 244//163 
f 249//162 243//164 245//162 
f 243//164 249//162 246//164 
g Group9 
usemtl Layer_Layer0
v 0.354899 1.44998 2.04126
v 0.354899 1.44998 2.00126
v 0.354899 1.42998 2.02126
vn -1 0 0
f 250//165 251//165 252//165 
v 0.354899 1.46998 2.02126
f 251//165 250//165 253//165 
v 1.3549 1.44998 2.00126
v 1.3549 1.44998 2.04126
v 1.3549 1.42998 2.02126
vn 1 0 0
f 254//166 255//166 256//166 
v 1.3549 1.46998 2.02126
f 255//166 254//166 257//166 
vn 0 0 1
vn 0 1 0
f 250//167 257//168 253//168 
f 257//168 250//167 255//167 
vn 0 -1 0
f 256//169 250//167 252//169 
f 250//167 256//169 255//167 
vn 0 0 -1
f 256//169 251//170 254//170 
f 251//170 256//169 252//169 
f 257//168 251//170 253//168 
f 251//170 257//168 254//170 
