mtllib p130a.mtl
s 1
o 
g Group1 
usemtl Color_M00
v -1.6451 3.58971 -1.81
v -1.6451 3.58971 -1.89
v -1.6851 3.58971 -1.85
vn 0 1 0
f 1//1 2//1 3//1 
v -1.6051 3.58971 -1.85
f 2//1 1//1 4//1 
v -1.6451 -3.41029 -1.89
v -1.6451 -3.41029 -1.81
v -1.6851 -3.41029 -1.85
vn 0 -1 0
f 5//2 6//2 7//2 
v -1.6051 -3.41029 -1.85
f 6//2 5//2 8//2 
vn 0 0 1
vn 1 0 0
f 1//3 8//4 4//4 
f 8//4 1//3 6//3 
vn -1 0 0
f 7//5 1//3 3//5 
f 1//3 7//5 6//3 
vn 0 0 -1
f 7//5 2//6 5//6 
f 2//6 7//5 3//5 
f 8//4 2//6 4//4 
f 2//6 8//4 5//6 
g Group10 
usemtl Color_M00
v -1.6451 -3.41029 2.19
v -1.6451 -3.41029 2.11
v -1.6451 -3.45029 2.15
vn -1 0 0
f 9//7 10//7 11//7 
v -1.6451 -3.37029 2.15
f 10//7 9//7 12//7 
v 1.3549 -3.41029 2.11
v 1.3549 -3.41029 2.19
v 1.3549 -3.45029 2.15
vn 1 0 0
f 13//8 14//8 15//8 
v 1.3549 -3.37029 2.15
f 14//8 13//8 16//8 
vn 0 0 1
vn 0 1 0
f 9//9 16//10 12//10 
f 16//10 9//9 14//9 
vn 0 -1 0
f 15//11 9//9 11//11 
f 9//9 15//11 14//9 
vn 0 0 -1
f 15//11 10//12 13//12 
f 10//12 15//11 11//11 
f 16//10 10//12 12//10 
f 10//12 16//10 13//12 
g Group11 
usemtl Color_M00
v 1.3549 3.62971 -1.85
v 1.3549 3.54971 -1.85
v 1.3149 3.58971 -1.85
vn 0 0 -1
f 17//13 18//13 19//13 
v 1.3949 3.58971 -1.85
f 18//13 17//13 20//13 
v 1.3549 3.54971 0.15
v 1.3549 3.62971 0.15
v 1.3149 3.58971 0.15
vn 0 0 1
f 21//14 22//14 23//14 
v 1.3949 3.58971 0.15
f 22//14 21//14 24//14 
vn 0 1 0
vn 1 0 0
f 17//15 24//16 20//16 
f 24//16 17//15 22//15 
vn -1 0 0
f 23//17 17//15 19//17 
f 17//15 23//17 22//15 
vn 0 -1 0
f 23//17 18//18 21//18 
f 18//18 23//17 19//17 
f 24//16 18//18 20//16 
f 18//18 24//16 21//18 
g Group12 
usemtl Color_M00
v -1.6451 3.58971 2.19
v -1.6451 3.58971 2.11
v -1.6851 3.58971 2.15
vn 0 1 0
f 25//19 26//19 27//19 
v -1.6051 3.58971 2.15
f 26//19 25//19 28//19 
v -1.6451 -3.41029 2.11
v -1.6451 -3.41029 2.19
v -1.6851 -3.41029 2.15
vn 0 -1 0
f 29//20 30//20 31//20 
v -1.6051 -3.41029 2.15
f 30//20 29//20 32//20 
vn 0 0 1
vn 1 0 0
f 25//21 32//22 28//22 
f 32//22 25//21 30//21 
vn -1 0 0
f 31//23 25//21 27//23 
f 25//21 31//23 30//21 
vn 0 0 -1
f 31//23 26//24 29//24 
f 26//24 31//23 27//23 
f 32//22 26//24 28//22 
f 26//24 32//22 29//24 
g Group13 
usemtl Color_M00
v -1.6451 -3.41029 -1.81
v -1.6451 -3.41029 -1.89
v -1.6451 -3.45029 -1.85
vn -1 0 0
f 33//25 34//25 35//25 
v -1.6451 -3.37029 -1.85
f 34//25 33//25 36//25 
v 1.3549 -3.41029 -1.89
v 1.3549 -3.41029 -1.81
v 1.3549 -3.45029 -1.85
vn 1 0 0
f 37//26 38//26 39//26 
v 1.3549 -3.37029 -1.85
f 38//26 37//26 40//26 
vn 0 0 1
vn 0 1 0
f 33//27 40//28 36//28 
f 40//28 33//27 38//27 
vn 0 -1 0
f 39//29 33//27 35//29 
f 33//27 39//29 38//27 
vn 0 0 -1
f 39//29 34//30 37//30 
f 34//30 39//29 35//29 
f 40//28 34//30 36//28 
f 34//30 40//28 37//30 
g Group14 
usemtl Color_M00
v 1.3549 1.62971 2.15
v 1.3549 1.54971 2.15
v 1.3949 1.58971 2.15
vn 0 0 1
f 41//31 42//31 43//31 
v 1.3149 1.58971 2.15
f 42//31 41//31 44//31 
v 1.3549 1.54971 0.15
v 1.3549 1.62971 0.15
v 1.3949 1.58971 0.15
vn 0 0 -1
f 45//32 46//32 47//32 
v 1.3149 1.58971 0.15
f 46//32 45//32 48//32 
vn 0 1 0
vn -1 0 0
f 41//33 48//34 44//34 
f 48//34 41//33 46//33 
vn 1 0 0
f 47//35 41//33 43//35 
f 41//33 47//35 46//33 
vn 0 -1 0
f 47//35 42//36 45//36 
f 42//36 47//35 43//35 
f 48//34 42//36 44//34 
f 42//36 48//34 45//36 
g Group15 
usemtl Color_M00
v 1.3549 3.58971 2.19
v 1.3549 3.58971 2.11
v 1.3549 3.62971 2.15
vn 1 0 0
f 49//37 50//37 51//37 
v 1.3549 3.54971 2.15
f 50//37 49//37 52//37 
v 0.354899 3.58971 2.11
v 0.354899 3.58971 2.19
v 0.354899 3.62971 2.15
vn -1 0 0
f 53//38 54//38 55//38 
v 0.354899 3.54971 2.15
f 54//38 53//38 56//38 
vn 0 0 1
vn 0 -1 0
f 49//39 56//40 52//40 
f 56//40 49//39 54//39 
vn 0 1 0
f 55//41 49//39 51//41 
f 49//39 55//41 54//39 
vn 0 0 -1
f 55//41 50//42 53//42 
f 50//42 55//41 51//41 
f 56//40 50//42 52//40 
f 50//42 56//40 53//42 
g Group16 
usemtl Color_M00
v 1.3549 -3.41029 2.19
v 1.3549 -3.41029 2.11
v 1.3949 -3.41029 2.15
vn 0 -1 0
f 57//43 58//43 59//43 
v 1.3149 -3.41029 2.15
f 58//43 57//43 60//43 
v 1.3549 -1.41029 2.11
v 1.3549 -1.41029 2.19
v 1.3949 -1.41029 2.15
vn 0 1 0
f 61//44 62//44 63//44 
v 1.3149 -1.41029 2.15
f 62//44 61//44 64//44 
vn 0 0 1
vn -1 0 0
f 57//45 64//46 60//46 
f 64//46 57//45 62//45 
vn 1 0 0
f 63//47 57//45 59//47 
f 57//45 63//47 62//45 
vn 0 0 -1
f 63//47 58//48 61//48 
f 58//48 63//47 59//47 
f 64//46 58//48 60//46 
f 58//48 64//46 61//48 
g Group17 
usemtl Color_M00
v 1.3549 -3.37029 -1.85
v 1.3549 -3.45029 -1.85
v 1.3149 -3.41029 -1.85
vn 0 0 -1
f 65//49 66//49 67//49 
v 1.3949 -3.41029 -1.85
f 66//49 65//49 68//49 
v 1.3549 -3.45029 2.15
v 1.3549 -3.37029 2.15
v 1.3149 -3.41029 2.15
vn 0 0 1
f 69//50 70//50 71//50 
v 1.3949 -3.41029 2.15
f 70//50 69//50 72//50 
vn 0 1 0
vn 1 0 0
f 65//51 72//52 68//52 
f 72//52 65//51 70//51 
vn -1 0 0
f 71//53 65//51 67//53 
f 65//51 71//53 70//51 
vn 0 -1 0
f 71//53 66//54 69//54 
f 66//54 71//53 67//53 
f 72//52 66//54 68//52 
f 66//54 72//52 69//54 
g Group18 
usemtl Color_M00
v 1.3549 -1.41029 0.19
v 1.3549 -1.41029 0.11
v 1.3949 -1.41029 0.15
vn 0 -1 0
f 73//55 74//55 75//55 
v 1.3149 -1.41029 0.15
f 74//55 73//55 76//55 
v 1.3549 1.58971 0.11
v 1.3549 1.58971 0.19
v 1.3949 1.58971 0.15
vn 0 1 0
f 77//56 78//56 79//56 
v 1.3149 1.58971 0.15
f 78//56 77//56 80//56 
vn 0 0 1
vn -1 0 0
f 73//57 80//58 76//58 
f 80//58 73//57 78//57 
vn 1 0 0
f 79//59 73//57 75//59 
f 73//57 79//59 78//57 
vn 0 0 -1
f 79//59 74//60 77//60 
f 74//60 79//59 75//59 
f 80//58 74//60 76//58 
f 74//60 80//58 77//60 
g Group19 
usemtl Color_M00
v 0.354899 1.58971 2.19
v 0.354899 1.58971 2.11
v 0.354899 1.54971 2.15
vn -1 0 0
f 81//61 82//61 83//61 
v 0.354899 1.62971 2.15
f 82//61 81//61 84//61 
v 1.3549 1.58971 2.11
v 1.3549 1.58971 2.19
v 1.3549 1.54971 2.15
vn 1 0 0
f 85//62 86//62 87//62 
v 1.3549 1.62971 2.15
f 86//62 85//62 88//62 
vn 0 0 1
vn 0 1 0
f 81//63 88//64 84//64 
f 88//64 81//63 86//63 
vn 0 -1 0
f 87//65 81//63 83//65 
f 81//63 87//65 86//63 
vn 0 0 -1
f 87//65 82//66 85//66 
f 82//66 87//65 83//65 
f 88//64 82//66 84//64 
f 82//66 88//64 85//66 
g Group2 
usemtl Color_M00
v 1.3549 1.58971 -1.81
v 1.3549 1.58971 -1.89
v 1.3949 1.58971 -1.85
vn 0 -1 0
f 89//67 90//67 91//67 
v 1.3149 1.58971 -1.85
f 90//67 89//67 92//67 
v 1.3549 3.58971 -1.89
v 1.3549 3.58971 -1.81
v 1.3949 3.58971 -1.85
vn 0 1 0
f 93//68 94//68 95//68 
v 1.3149 3.58971 -1.85
f 94//68 93//68 96//68 
vn 0 0 1
vn -1 0 0
f 89//69 96//70 92//70 
f 96//70 89//69 94//69 
vn 1 0 0
f 95//71 89//69 91//71 
f 89//69 95//71 94//69 
vn 0 0 -1
f 95//71 90//72 93//72 
f 90//72 95//71 91//71 
f 96//70 90//72 92//70 
f 90//72 96//70 93//72 
g Group20 
usemtl Color_M00
v 1.3549 -1.37029 2.15
v 1.3549 -1.45029 2.15
v 1.3949 -1.41029 2.15
vn 0 0 1
f 97//73 98//73 99//73 
v 1.3149 -1.41029 2.15
f 98//73 97//73 100//73 
v 1.3549 -1.45029 0.15
v 1.3549 -1.37029 0.15
v 1.3949 -1.41029 0.15
vn 0 0 -1
f 101//74 102//74 103//74 
v 1.3149 -1.41029 0.15
f 102//74 101//74 104//74 
vn 0 1 0
vn -1 0 0
f 97//75 104//76 100//76 
f 104//76 97//75 102//75 
vn 1 0 0
f 103//77 97//75 99//77 
f 97//75 103//77 102//75 
vn 0 -1 0
f 103//77 98//78 101//78 
f 98//78 103//77 99//77 
f 104//76 98//78 100//76 
f 98//78 104//76 101//78 
g Group21 
usemtl Color_M00
v 1.3549 3.58971 -1.81
v 1.3549 3.58971 -1.89
v 1.3549 3.62971 -1.85
vn 1 0 0
f 105//79 106//79 107//79 
v 1.3549 3.54971 -1.85
f 106//79 105//79 108//79 
v -1.6451 3.58971 -1.89
v -1.6451 3.58971 -1.81
v -1.6451 3.62971 -1.85
vn -1 0 0
f 109//80 110//80 111//80 
v -1.6451 3.54971 -1.85
f 110//80 109//80 112//80 
vn 0 0 1
vn 0 -1 0
f 105//81 112//82 108//82 
f 112//82 105//81 110//81 
vn 0 1 0
f 111//83 105//81 107//83 
f 105//81 111//83 110//81 
vn 0 0 -1
f 111//83 106//84 109//84 
f 106//84 111//83 107//83 
f 112//82 106//84 108//82 
f 106//84 112//82 109//84 
g Group22 
usemtl Color_M00
v 1.3549 3.62971 0.15
v 1.3549 3.54971 0.15
v 1.3149 3.58971 0.15
vn 0 0 -1
f 113//85 114//85 115//85 
v 1.3949 3.58971 0.15
f 114//85 113//85 116//85 
v 1.3549 3.54971 2.15
v 1.3549 3.62971 2.15
v 1.3149 3.58971 2.15
vn 0 0 1
f 117//86 118//86 119//86 
v 1.3949 3.58971 2.15
f 118//86 117//86 120//86 
vn 0 1 0
vn 1 0 0
f 113//87 120//88 116//88 
f 120//88 113//87 118//87 
vn -1 0 0
f 119//89 113//87 115//89 
f 113//87 119//89 118//87 
vn 0 -1 0
f 119//89 114//90 117//90 
f 114//90 119//89 115//89 
f 120//88 114//90 116//88 
f 114//90 120//88 117//90 
g Group23 
usemtl Color_M00
v -1.6451 -3.37029 -1.85
v -1.6451 -3.45029 -1.85
v -1.6851 -3.41029 -1.85
vn 0 0 -1
f 121//91 122//91 123//91 
v -1.6051 -3.41029 -1.85
f 122//91 121//91 124//91 
v -1.6451 -3.45029 2.15
v -1.6451 -3.37029 2.15
v -1.6851 -3.41029 2.15
vn 0 0 1
f 125//92 126//92 127//92 
v -1.6051 -3.41029 2.15
f 126//92 125//92 128//92 
vn 0 1 0
vn 1 0 0
f 121//93 128//94 124//94 
f 128//94 121//93 126//93 
vn -1 0 0
f 127//95 121//93 123//95 
f 121//93 127//95 126//93 
vn 0 -1 0
f 127//95 122//96 125//96 
f 122//96 127//95 123//95 
f 128//94 122//96 124//94 
f 122//96 128//94 125//96 
g Group24 
usemtl Color_M00
v 0.354899 1.58971 0.19
v 0.354899 1.58971 0.11
v 0.354899 1.54971 0.15
vn -1 0 0
f 129//97 130//97 131//97 
v 0.354899 1.62971 0.15
f 130//97 129//97 132//97 
v 1.3549 1.58971 0.11
v 1.3549 1.58971 0.19
v 1.3549 1.54971 0.15
vn 1 0 0
f 133//98 134//98 135//98 
v 1.3549 1.62971 0.15
f 134//98 133//98 136//98 
vn 0 0 1
vn 0 1 0
f 129//99 136//100 132//100 
f 136//100 129//99 134//99 
vn 0 -1 0
f 135//101 129//99 131//101 
f 129//99 135//101 134//99 
vn 0 0 -1
f 135//101 130//102 133//102 
f 130//102 135//101 131//101 
f 136//100 130//102 132//100 
f 130//102 136//100 133//102 
g Group25 
usemtl Color_M00
v 0.354899 1.62971 2.15
v 0.354899 1.54971 2.15
v 0.394899 1.58971 2.15
vn 0 0 1
f 137//103 138//103 139//103 
v 0.314899 1.58971 2.15
f 138//103 137//103 140//103 
v 0.354899 1.54971 0.15
v 0.354899 1.62971 0.15
v 0.394899 1.58971 0.15
vn 0 0 -1
f 141//104 142//104 143//104 
v 0.314899 1.58971 0.15
f 142//104 141//104 144//104 
vn 0 1 0
vn -1 0 0
f 137//105 144//106 140//106 
f 144//106 137//105 142//105 
vn 1 0 0
f 143//107 137//105 139//107 
f 137//105 143//107 142//105 
vn 0 -1 0
f 143//107 138//108 141//108 
f 138//108 143//107 139//107 
f 144//106 138//108 140//106 
f 138//108 144//106 141//108 
g Group26 
usemtl Color_M00
v 0.354899 -1.37029 2.15
v 0.354899 -1.45029 2.15
v 0.394899 -1.41029 2.15
vn 0 0 1
f 145//109 146//109 147//109 
v 0.314899 -1.41029 2.15
f 146//109 145//109 148//109 
v 0.354899 -1.45029 0.15
v 0.354899 -1.37029 0.15
v 0.394899 -1.41029 0.15
vn 0 0 -1
f 149//110 150//110 151//110 
v 0.314899 -1.41029 0.15
f 150//110 149//110 152//110 
vn 0 1 0
vn -1 0 0
f 145//111 152//112 148//112 
f 152//112 145//111 150//111 
vn 1 0 0
f 151//113 145//111 147//113 
f 145//111 151//113 150//111 
vn 0 -1 0
f 151//113 146//114 149//114 
f 146//114 151//113 147//113 
f 152//112 146//114 148//112 
f 146//114 152//112 149//114 
g Group27 
usemtl Color_M00
v 1.3549 -1.41029 0.19
v 1.3549 -1.41029 0.11
v 1.3549 -1.37029 0.15
vn 1 0 0
f 153//115 154//115 155//115 
v 1.3549 -1.45029 0.15
f 154//115 153//115 156//115 
v 0.354899 -1.41029 0.11
v 0.354899 -1.41029 0.19
v 0.354899 -1.37029 0.15
vn -1 0 0
f 157//116 158//116 159//116 
v 0.354899 -1.45029 0.15
f 158//116 157//116 160//116 
vn 0 0 1
vn 0 -1 0
f 153//117 160//118 156//118 
f 160//118 153//117 158//117 
vn 0 1 0
f 159//119 153//117 155//119 
f 153//117 159//119 158//117 
vn 0 0 -1
f 159//119 154//120 157//120 
f 154//120 159//119 155//119 
f 160//118 154//120 156//118 
f 154//120 160//118 157//120 
g Group28 
usemtl Color_I01
v 1.3549 3.58971 -1.85
v -1.6451 -3.41029 -1.85
v -1.6451 3.58971 -1.85
vn 0 0 -1
f 161//121 162//121 163//121 
v 1.3549 -3.41029 -1.85
f 162//121 161//121 164//121 
v 1.3549 1.58971 -1.85
f 164//121 161//121 165//121 
v 1.3549 -1.41029 -1.85
f 164//121 165//121 166//121 
v -1.6451 -3.41029 2.15
v 0.354899 -1.41029 2.15
v -1.6451 3.58971 2.15
vn 0 0 1
f 167//122 168//122 169//122 
v 1.3549 -3.41029 2.15
f 168//122 167//122 170//122 
v 1.3549 -1.41029 2.15
f 168//122 170//122 171//122 
v 0.354899 3.58971 2.15
f 168//122 172//122 169//122 
v 0.354899 1.58971 2.15
f 172//122 168//122 173//122 
v 1.3549 1.58971 2.15
f 172//122 173//122 174//122 
v 1.3549 3.58971 2.15
f 172//122 174//122 175//122 
vn 0 1 0
f 169//123 161//123 163//123 
v 1.3549 3.58971 0.15
f 161//123 169//123 176//123 
f 176//123 169//123 175//123 
f 175//123 169//123 172//123 
v 1.3549 -1.41029 0.15
vn 1 -2.12323e-32 8.14306e-33
f 165//124 177//124 166//124 
v 1.3549 1.58971 0.15
f 177//124 165//124 178//124 
f 178//124 165//124 161//124 
f 178//124 161//124 174//124 
f 174//124 161//124 175//124 
f 175//124 161//124 176//124 
f 166//124 170//124 164//124 
f 170//124 166//124 171//124 
f 171//124 166//124 177//124 
vn 0 -1 0
f 170//125 162//125 164//125 
f 162//125 170//125 167//125 
vn -1 0 0
f 169//126 162//126 167//126 
f 162//126 169//126 163//126 
v 0.354899 1.58971 0.15
v 0.354899 -1.41029 0.15
f 177//122 179//122 180//122 
f 179//122 177//122 178//122 
f 174//125 179//125 178//125 
f 179//125 174//125 173//125 
vn 1 0 0
f 179//127 168//127 180//127 
f 168//127 179//127 173//127 
f 168//123 177//123 180//123 
f 177//123 168//123 171//123 
usemtl Color_M00
v 0.354899 -1.41029 0.19
v 0.354899 -1.41029 0.11
v 0.394899 -1.41029 0.15
f 181//125 182//125 183//125 
v 0.314899 -1.41029 0.15
f 182//125 181//125 184//125 
v 0.354899 1.58971 0.11
v 0.354899 1.58971 0.19
v 0.394899 1.58971 0.15
f 185//123 186//123 187//123 
v 0.314899 1.58971 0.15
f 186//123 185//123 188//123 
f 181//122 188//126 184//126 
f 188//126 181//122 186//122 
f 187//127 181//122 183//127 
f 181//122 187//127 186//122 
f 187//127 182//121 185//121 
f 182//121 187//127 183//127 
f 188//126 182//121 184//126 
f 182//121 188//126 185//121 
usemtl Layer_flecha
v 26.0902 -44.6486 -1.44382e-15
v 16.0262 -27.8284 1.44382e-15
v 16.0262 -44.6486 1.44382e-15
vn 2.01832e-16 3.16584e-17 1
f 189//128 190//128 191//128 
v 21.0582 -19.57 -1.44382e-15
f 190//128 189//128 192//128 
v 26.0902 -27.8284 -1.44382e-15
f 192//128 189//128 193//128 
v 30.4784 -27.8284 -1.44382e-15
f 192//128 193//128 194//128 
v 11.638 -27.8284 1.44382e-15
f 192//128 195//128 190//128 
g Group3 
usemtl Color_M00
v 1.3549 -3.41029 -1.81
v 1.3549 -3.41029 -1.89
v 1.3949 -3.41029 -1.85
vn 0 -1 0
f 196//129 197//129 198//129 
v 1.3149 -3.41029 -1.85
f 197//129 196//129 199//129 
v 1.3549 -1.41029 -1.89
v 1.3549 -1.41029 -1.81
v 1.3949 -1.41029 -1.85
vn 0 1 0
f 200//130 201//130 202//130 
v 1.3149 -1.41029 -1.85
f 201//130 200//130 203//130 
vn 0 0 1
vn -1 0 0
f 196//131 203//132 199//132 
f 203//132 196//131 201//131 
vn 1 0 0
f 202//133 196//131 198//133 
f 196//131 202//133 201//131 
vn 0 0 -1
f 202//133 197//134 200//134 
f 197//134 202//133 198//133 
f 203//132 197//134 199//132 
f 197//134 203//132 200//134 
g Group4 
usemtl Color_M00
v 1.3549 -1.41029 -1.81
v 1.3549 -1.41029 -1.89
v 1.3949 -1.41029 -1.85
vn 0 -1 0
f 204//135 205//135 206//135 
v 1.3149 -1.41029 -1.85
f 205//135 204//135 207//135 
v 1.3549 1.58971 -1.89
v 1.3549 1.58971 -1.81
v 1.3949 1.58971 -1.85
vn 0 1 0
f 208//136 209//136 210//136 
v 1.3149 1.58971 -1.85
f 209//136 208//136 211//136 
vn 0 0 1
vn -1 0 0
f 204//137 211//138 207//138 
f 211//138 204//137 209//137 
vn 1 0 0
f 210//139 204//137 206//139 
f 204//137 210//139 209//137 
vn 0 0 -1
f 210//139 205//140 208//140 
f 205//140 210//139 206//139 
f 211//138 205//140 207//138 
f 205//140 211//138 208//140 
g Group5 
usemtl Color_M00
v 1.3549 -1.41029 2.19
v 1.3549 -1.41029 2.11
v 1.3549 -1.37029 2.15
vn 1 0 0
f 212//141 213//141 214//141 
v 1.3549 -1.45029 2.15
f 213//141 212//141 215//141 
v 0.354899 -1.41029 2.11
v 0.354899 -1.41029 2.19
v 0.354899 -1.37029 2.15
vn -1 0 0
f 216//142 217//142 218//142 
v 0.354899 -1.45029 2.15
f 217//142 216//142 219//142 
vn 0 0 1
vn 0 -1 0
f 212//143 219//144 215//144 
f 219//144 212//143 217//143 
vn 0 1 0
f 218//145 212//143 214//145 
f 212//143 218//145 217//143 
vn 0 0 -1
f 218//145 213//146 216//146 
f 213//146 218//145 214//145 
f 219//144 213//146 215//144 
f 213//146 219//144 216//146 
g Group6 
usemtl Color_M00
v 0.354899 -1.41029 2.19
v 0.354899 -1.41029 2.11
v 0.394899 -1.41029 2.15
vn 0 -1 0
f 220//147 221//147 222//147 
v 0.314899 -1.41029 2.15
f 221//147 220//147 223//147 
v 0.354899 1.58971 2.11
v 0.354899 1.58971 2.19
v 0.394899 1.58971 2.15
vn 0 1 0
f 224//148 225//148 226//148 
v 0.314899 1.58971 2.15
f 225//148 224//148 227//148 
vn 0 0 1
vn -1 0 0
f 220//149 227//150 223//150 
f 227//150 220//149 225//149 
vn 1 0 0
f 226//151 220//149 222//151 
f 220//149 226//151 225//149 
vn 0 0 -1
f 226//151 221//152 224//152 
f 221//152 226//151 222//151 
f 227//150 221//152 223//150 
f 221//152 227//150 224//152 
g Group7 
usemtl Color_M00
v 1.3549 1.58971 2.19
v 1.3549 1.58971 2.11
v 1.3949 1.58971 2.15
vn 0 -1 0
f 228//153 229//153 230//153 
v 1.3149 1.58971 2.15
f 229//153 228//153 231//153 
v 1.3549 3.58971 2.11
v 1.3549 3.58971 2.19
v 1.3949 3.58971 2.15
vn 0 1 0
f 232//154 233//154 234//154 
v 1.3149 3.58971 2.15
f 233//154 232//154 235//154 
vn 0 0 1
vn -1 0 0
f 228//155 235//156 231//156 
f 235//156 228//155 233//155 
vn 1 0 0
f 234//157 228//155 230//157 
f 228//155 234//157 233//155 
vn 0 0 -1
f 234//157 229//158 232//158 
f 229//158 234//157 230//157 
f 235//156 229//158 231//156 
f 229//158 235//156 232//158 
g Group8 
usemtl Color_M00
v 0.354899 3.58971 2.19
v 0.354899 3.58971 2.11
v 0.354899 3.62971 2.15
vn 1 0 0
f 236//159 237//159 238//159 
v 0.354899 3.54971 2.15
f 237//159 236//159 239//159 
v -1.6451 3.58971 2.11
v -1.6451 3.58971 2.19
v -1.6451 3.62971 2.15
vn -1 0 0
f 240//160 241//160 242//160 
v -1.6451 3.54971 2.15
f 241//160 240//160 243//160 
vn 0 0 1
vn 0 -1 0
f 236//161 243//162 239//162 
f 243//162 236//161 241//161 
vn 0 1 0
f 242//163 236//161 238//163 
f 236//161 242//163 241//161 
vn 0 0 -1
f 242//163 237//164 240//164 
f 237//164 242//163 238//163 
f 243//162 237//164 239//162 
f 237//164 243//162 240//164 
g Group9 
usemtl Color_M00
v -1.6451 3.62971 -1.85
v -1.6451 3.54971 -1.85
v -1.6851 3.58971 -1.85
vn 0 0 -1
f 244//165 245//165 246//165 
v -1.6051 3.58971 -1.85
f 245//165 244//165 247//165 
v -1.6451 3.54971 2.15
v -1.6451 3.62971 2.15
v -1.6851 3.58971 2.15
vn 0 0 1
f 248//166 249//166 250//166 
v -1.6051 3.58971 2.15
f 249//166 248//166 251//166 
vn 0 1 0
vn 1 0 0
f 244//167 251//168 247//168 
f 251//168 244//167 249//167 
vn -1 0 0
f 250//169 244//167 246//169 
f 244//167 250//169 249//167 
vn 0 -1 0
f 250//169 245//170 248//170 
f 245//170 250//169 246//169 
f 251//168 245//170 247//168 
f 245//170 251//168 248//170 
