mtllib p130a.mtl
s 1
o 
g Group1 
usemtl Layer_Layer0
v 0.354899 -1.55002 2.04126
v 0.354899 -1.55002 2.00126
v 0.374899 -1.55002 2.02126
vn 0 -1 0
f 1//1 2//1 3//1 
v 0.334899 -1.55002 2.02126
f 2//1 1//1 4//1 
v 0.354899 1.44998 2.00126
v 0.354899 1.44998 2.04126
v 0.374899 1.44998 2.02126
vn 0 1 0
f 5//2 6//2 7//2 
v 0.334899 1.44998 2.02126
f 6//2 5//2 8//2 
vn 0 0 1
vn -1 0 0
f 1//3 8//4 4//4 
f 8//4 1//3 6//3 
vn 1 0 0
f 7//5 1//3 3//5 
f 1//3 7//5 6//3 
vn 0 0 -1
f 7//5 2//6 5//6 
f 2//6 7//5 3//5 
f 8//4 2//6 4//4 
f 2//6 8//4 5//6 
g Group10 
usemtl Layer_Layer0
v 1.3549 3.46997 -1.97874
v 1.3549 3.42998 -1.97874
v 1.3349 3.44998 -1.97874
vn 0 0 -1
f 9//7 10//7 11//7 
v 1.3749 3.44998 -1.97874
f 10//7 9//7 12//7 
v 1.3549 3.42998 0.0212594
v 1.3549 3.46997 0.0212594
v 1.3349 3.44998 0.0212594
vn 0 0 1
f 13//8 14//8 15//8 
v 1.3749 3.44998 0.0212594
f 14//8 13//8 16//8 
vn 0 1 0
vn 1 0 0
f 9//9 16//10 12//10 
f 16//10 9//9 14//9 
vn -1 0 0
f 15//11 9//9 11//11 
f 9//9 15//11 14//9 
vn 0 -1 0
f 15//11 10//12 13//12 
f 10//12 15//11 11//11 
f 16//10 10//12 12//10 
f 10//12 16//10 13//12 
g Group11 
usemtl Layer_Layer0
v 1.3549 -1.55002 0.0412594
v 1.3549 -1.55002 0.0012594
v 1.3549 -1.53002 0.0212594
vn 1 0 0
f 17//13 18//13 19//13 
v 1.3549 -1.57002 0.0212594
f 18//13 17//13 20//13 
v 0.354899 -1.55002 0.0012594
v 0.354899 -1.55002 0.0412594
v 0.354899 -1.53002 0.0212594
vn -1 0 0
f 21//14 22//14 23//14 
v 0.354899 -1.57002 0.0212594
f 22//14 21//14 24//14 
vn 0 0 1
vn 0 -1 0
f 17//15 24//16 20//16 
f 24//16 17//15 22//15 
vn 0 1 0
f 23//17 17//15 19//17 
f 17//15 23//17 22//15 
vn 0 0 -1
f 23//17 18//18 21//18 
f 18//18 23//17 19//17 
f 24//16 18//18 20//16 
f 18//18 24//16 21//18 
g Group12 
usemtl Layer_Layer0
v 1.3549 -3.53002 -1.97874
v 1.3549 -3.57002 -1.97874
v 1.3349 -3.55002 -1.97874
vn 0 0 -1
f 25//19 26//19 27//19 
v 1.3749 -3.55002 -1.97874
f 26//19 25//19 28//19 
v 1.3549 -3.57002 2.02126
v 1.3549 -3.53002 2.02126
v 1.3349 -3.55002 2.02126
vn 0 0 1
f 29//20 30//20 31//20 
v 1.3749 -3.55002 2.02126
f 30//20 29//20 32//20 
vn 0 1 0
vn 1 0 0
f 25//21 32//22 28//22 
f 32//22 25//21 30//21 
vn -1 0 0
f 31//23 25//21 27//23 
f 25//21 31//23 30//21 
vn 0 -1 0
f 31//23 26//24 29//24 
f 26//24 31//23 27//23 
f 32//22 26//24 28//22 
f 26//24 32//22 29//24 
g Group13 
usemtl Layer_Layer0
v 0.354899 3.44998 2.04126
v 0.354899 3.44998 2.00126
v 0.354899 3.46997 2.02126
vn 1 0 0
f 33//25 34//25 35//25 
v 0.354899 3.42998 2.02126
f 34//25 33//25 36//25 
v -1.6451 3.44998 2.00126
v -1.6451 3.44998 2.04126
v -1.6451 3.46997 2.02126
vn -1 0 0
f 37//26 38//26 39//26 
v -1.6451 3.42998 2.02126
f 38//26 37//26 40//26 
vn 0 0 1
vn 0 -1 0
f 33//27 40//28 36//28 
f 40//28 33//27 38//27 
vn 0 1 0
f 39//29 33//27 35//29 
f 33//27 39//29 38//27 
vn 0 0 -1
f 39//29 34//30 37//30 
f 34//30 39//29 35//29 
f 40//28 34//30 36//28 
f 34//30 40//28 37//30 
g Group14 
usemtl Layer_Layer0
v 1.3549 1.44998 2.04126
v 1.3549 1.44998 2.00126
v 1.3749 1.44998 2.02126
vn 0 -1 0
f 41//31 42//31 43//31 
v 1.3349 1.44998 2.02126
f 42//31 41//31 44//31 
v 1.3549 3.44998 2.00126
v 1.3549 3.44998 2.04126
v 1.3749 3.44998 2.02126
vn 0 1 0
f 45//32 46//32 47//32 
v 1.3349 3.44998 2.02126
f 46//32 45//32 48//32 
vn 0 0 1
vn -1 0 0
f 41//33 48//34 44//34 
f 48//34 41//33 46//33 
vn 1 0 0
f 47//35 41//33 43//35 
f 41//33 47//35 46//33 
vn 0 0 -1
f 47//35 42//36 45//36 
f 42//36 47//35 43//35 
f 48//34 42//36 44//34 
f 42//36 48//34 45//36 
g Group15 
usemtl Layer_Layer0
v -1.6451 -3.55002 2.04126
v -1.6451 -3.55002 2.00126
v -1.6451 -3.57002 2.02126
vn -1 0 0
f 49//37 50//37 51//37 
v -1.6451 -3.53002 2.02126
f 50//37 49//37 52//37 
v 1.3549 -3.55002 2.00126
v 1.3549 -3.55002 2.04126
v 1.3549 -3.57002 2.02126
vn 1 0 0
f 53//38 54//38 55//38 
v 1.3549 -3.53002 2.02126
f 54//38 53//38 56//38 
vn 0 0 1
vn 0 1 0
f 49//39 56//40 52//40 
f 56//40 49//39 54//39 
vn 0 -1 0
f 55//41 49//39 51//41 
f 49//39 55//41 54//39 
vn 0 0 -1
f 55//41 50//42 53//42 
f 50//42 55//41 51//41 
f 56//40 50//42 52//40 
f 50//42 56//40 53//42 
g Group16 
usemtl Layer_Layer0
v 0.354899 1.44998 0.0412594
v 0.354899 1.44998 0.0012594
v 0.354899 1.42998 0.0212594
vn -1 0 0
f 57//43 58//43 59//43 
v 0.354899 1.46998 0.0212594
f 58//43 57//43 60//43 
v 1.3549 1.44998 0.0012594
v 1.3549 1.44998 0.0412594
v 1.3549 1.42998 0.0212594
vn 1 0 0
f 61//44 62//44 63//44 
v 1.3549 1.46998 0.0212594
f 62//44 61//44 64//44 
vn 0 0 1
vn 0 1 0
f 57//45 64//46 60//46 
f 64//46 57//45 62//45 
vn 0 -1 0
f 63//47 57//45 59//47 
f 57//45 63//47 62//45 
vn 0 0 -1
f 63//47 58//48 61//48 
f 58//48 63//47 59//47 
f 64//46 58//48 60//46 
f 58//48 64//46 61//48 
g Group17 
usemtl Layer_Layer0
v -1.6451 -3.53002 -1.97874
v -1.6451 -3.57002 -1.97874
v -1.6651 -3.55002 -1.97874
vn 0 0 -1
f 65//49 66//49 67//49 
v -1.6251 -3.55002 -1.97874
f 66//49 65//49 68//49 
v -1.6451 -3.57002 2.02126
v -1.6451 -3.53002 2.02126
v -1.6651 -3.55002 2.02126
vn 0 0 1
f 69//50 70//50 71//50 
v -1.6251 -3.55002 2.02126
f 70//50 69//50 72//50 
vn 0 1 0
vn 1 0 0
f 65//51 72//52 68//52 
f 72//52 65//51 70//51 
vn -1 0 0
f 71//53 65//51 67//53 
f 65//51 71//53 70//51 
vn 0 -1 0
f 71//53 66//54 69//54 
f 66//54 71//53 67//53 
f 72//52 66//54 68//52 
f 66//54 72//52 69//54 
g Group18 
usemtl Layer_Layer0
v 1.3549 -1.55002 0.0412594
v 1.3549 -1.55002 0.0012594
v 1.3749 -1.55002 0.0212594
vn 0 -1 0
f 73//55 74//55 75//55 
v 1.3349 -1.55002 0.0212594
f 74//55 73//55 76//55 
v 1.3549 1.44998 0.0012594
v 1.3549 1.44998 0.0412594
v 1.3749 1.44998 0.0212594
vn 0 1 0
f 77//56 78//56 79//56 
v 1.3349 1.44998 0.0212594
f 78//56 77//56 80//56 
vn 0 0 1
vn -1 0 0
f 73//57 80//58 76//58 
f 80//58 73//57 78//57 
vn 1 0 0
f 79//59 73//57 75//59 
f 73//57 79//59 78//57 
vn 0 0 -1
f 79//59 74//60 77//60 
f 74//60 79//59 75//59 
f 80//58 74//60 76//58 
f 74//60 80//58 77//60 
g Group19 
usemtl Layer_Layer0
v 1.3549 1.46998 2.02126
v 1.3549 1.42998 2.02126
v 1.3749 1.44998 2.02126
vn 0 0 1
f 81//61 82//61 83//61 
v 1.3349 1.44998 2.02126
f 82//61 81//61 84//61 
v 1.3549 1.42998 0.0212594
v 1.3549 1.46998 0.0212594
v 1.3749 1.44998 0.0212594
vn 0 0 -1
f 85//62 86//62 87//62 
v 1.3349 1.44998 0.0212594
f 86//62 85//62 88//62 
vn 0 1 0
vn -1 0 0
f 81//63 88//64 84//64 
f 88//64 81//63 86//63 
vn 1 0 0
f 87//65 81//63 83//65 
f 81//63 87//65 86//63 
vn 0 -1 0
f 87//65 82//66 85//66 
f 82//66 87//65 83//65 
f 88//64 82//66 84//64 
f 82//66 88//64 85//66 
g Group2 
usemtl Layer_Layer0
v 0.354899 1.46998 2.02126
v 0.354899 1.42998 2.02126
v 0.374899 1.44998 2.02126
vn 0 0 1
f 89//67 90//67 91//67 
v 0.334899 1.44998 2.02126
f 90//67 89//67 92//67 
v 0.354899 1.42998 0.0212594
v 0.354899 1.46998 0.0212594
v 0.374899 1.44998 0.0212594
vn 0 0 -1
f 93//68 94//68 95//68 
v 0.334899 1.44998 0.0212594
f 94//68 93//68 96//68 
vn 0 1 0
vn -1 0 0
f 89//69 96//70 92//70 
f 96//70 89//69 94//69 
vn 1 0 0
f 95//71 89//69 91//71 
f 89//69 95//71 94//69 
vn 0 -1 0
f 95//71 90//72 93//72 
f 90//72 95//71 91//71 
f 96//70 90//72 92//70 
f 90//72 96//70 93//72 
g Group20 
usemtl Layer_Layer0
v 1.3549 -3.55002 2.04126
v 1.3549 -3.55002 2.00126
v 1.3749 -3.55002 2.02126
vn 0 -1 0
f 97//73 98//73 99//73 
v 1.3349 -3.55002 2.02126
f 98//73 97//73 100//73 
v 1.3549 -1.55002 2.00126
v 1.3549 -1.55002 2.04126
v 1.3749 -1.55002 2.02126
vn 0 1 0
f 101//74 102//74 103//74 
v 1.3349 -1.55002 2.02126
f 102//74 101//74 104//74 
vn 0 0 1
vn -1 0 0
f 97//75 104//76 100//76 
f 104//76 97//75 102//75 
vn 1 0 0
f 103//77 97//75 99//77 
f 97//75 103//77 102//75 
vn 0 0 -1
f 103//77 98//78 101//78 
f 98//78 103//77 99//77 
f 104//76 98//78 100//76 
f 98//78 104//76 101//78 
g Group21 
usemtl Layer_Layer0
v -1.6451 -3.55002 -1.95874
v -1.6451 -3.55002 -1.99874
v -1.6451 -3.57002 -1.97874
vn -1 0 0
f 105//79 106//79 107//79 
v -1.6451 -3.53002 -1.97874
f 106//79 105//79 108//79 
v 1.3549 -3.55002 -1.99874
v 1.3549 -3.55002 -1.95874
v 1.3549 -3.57002 -1.97874
vn 1 0 0
f 109//80 110//80 111//80 
v 1.3549 -3.53002 -1.97874
f 110//80 109//80 112//80 
vn 0 0 1
vn 0 1 0
f 105//81 112//82 108//82 
f 112//82 105//81 110//81 
vn 0 -1 0
f 111//83 105//81 107//83 
f 105//81 111//83 110//81 
vn 0 0 -1
f 111//83 106//84 109//84 
f 106//84 111//83 107//83 
f 112//82 106//84 108//82 
f 106//84 112//82 109//84 
g Group22 
usemtl Layer_Layer0
v 1.3549 1.44998 -1.95874
v 1.3549 1.44998 -1.99874
v 1.3749 1.44998 -1.97874
vn 0 -1 0
f 113//85 114//85 115//85 
v 1.3349 1.44998 -1.97874
f 114//85 113//85 116//85 
v 1.3549 3.44998 -1.99874
v 1.3549 3.44998 -1.95874
v 1.3749 3.44998 -1.97874
vn 0 1 0
f 117//86 118//86 119//86 
v 1.3349 3.44998 -1.97874
f 118//86 117//86 120//86 
vn 0 0 1
vn -1 0 0
f 113//87 120//88 116//88 
f 120//88 113//87 118//87 
vn 1 0 0
f 119//89 113//87 115//89 
f 113//87 119//89 118//87 
vn 0 0 -1
f 119//89 114//90 117//90 
f 114//90 119//89 115//89 
f 120//88 114//90 116//88 
f 114//90 120//88 117//90 
g Group23 
usemtl Layer_Layer0
v 1.3549 -3.55002 -1.95874
v 1.3549 -3.55002 -1.99874
v 1.3749 -3.55002 -1.97874
vn 0 -1 0
f 121//91 122//91 123//91 
v 1.3349 -3.55002 -1.97874
f 122//91 121//91 124//91 
v 1.3549 -1.55002 -1.99874
v 1.3549 -1.55002 -1.95874
v 1.3749 -1.55002 -1.97874
vn 0 1 0
f 125//92 126//92 127//92 
v 1.3349 -1.55002 -1.97874
f 126//92 125//92 128//92 
vn 0 0 1
vn -1 0 0
f 121//93 128//94 124//94 
f 128//94 121//93 126//93 
vn 1 0 0
f 127//95 121//93 123//95 
f 121//93 127//95 126//93 
vn 0 0 -1
f 127//95 122//96 125//96 
f 122//96 127//95 123//95 
f 128//94 122//96 124//94 
f 122//96 128//94 125//96 
g Group24 
usemtl Layer_Layer0
v 1.3549 3.44998 -1.95874
v 1.3549 3.44998 -1.99874
v 1.3549 3.46997 -1.97874
vn 1 0 0
f 129//97 130//97 131//97 
v 1.3549 3.42998 -1.97874
f 130//97 129//97 132//97 
v -1.6451 3.44998 -1.99874
v -1.6451 3.44998 -1.95874
v -1.6451 3.46997 -1.97874
vn -1 0 0
f 133//98 134//98 135//98 
v -1.6451 3.42998 -1.97874
f 134//98 133//98 136//98 
vn 0 0 1
vn 0 -1 0
f 129//99 136//100 132//100 
f 136//100 129//99 134//99 
vn 0 1 0
f 135//101 129//99 131//101 
f 129//99 135//101 134//99 
vn 0 0 -1
f 135//101 130//102 133//102 
f 130//102 135//101 131//101 
f 136//100 130//102 132//100 
f 130//102 136//100 133//102 
g Group25 
usemtl Layer_Layer0
v -1.6451 3.44998 -1.95874
v -1.6451 3.44998 -1.99874
v -1.6651 3.44998 -1.97874
vn 0 1 0
f 137//103 138//103 139//103 
v -1.6251 3.44998 -1.97874
f 138//103 137//103 140//103 
v -1.6451 -3.55002 -1.99874
v -1.6451 -3.55002 -1.95874
v -1.6651 -3.55002 -1.97874
vn 0 -1 0
f 141//104 142//104 143//104 
v -1.6251 -3.55002 -1.97874
f 142//104 141//104 144//104 
vn 0 0 1
vn 1 0 0
f 137//105 144//106 140//106 
f 144//106 137//105 142//105 
vn -1 0 0
f 143//107 137//105 139//107 
f 137//105 143//107 142//105 
vn 0 0 -1
f 143//107 138//108 141//108 
f 138//108 143//107 139//107 
f 144//106 138//108 140//106 
f 138//108 144//106 141//108 
g Group26 
usemtl Layer_Layer0
v 1.3549 -1.55002 -1.95874
v 1.3549 -1.55002 -1.99874
v 1.3749 -1.55002 -1.97874
vn 0 -1 0
f 145//109 146//109 147//109 
v 1.3349 -1.55002 -1.97874
f 146//109 145//109 148//109 
v 1.3549 1.44998 -1.99874
v 1.3549 1.44998 -1.95874
v 1.3749 1.44998 -1.97874
vn 0 1 0
f 149//110 150//110 151//110 
v 1.3349 1.44998 -1.97874
f 150//110 149//110 152//110 
vn 0 0 1
vn -1 0 0
f 145//111 152//112 148//112 
f 152//112 145//111 150//111 
vn 1 0 0
f 151//113 145//111 147//113 
f 145//111 151//113 150//111 
vn 0 0 -1
f 151//113 146//114 149//114 
f 146//114 151//113 147//113 
f 152//112 146//114 148//112 
f 146//114 152//112 149//114 
g Group27 
usemtl Color_G07
v 1.3549 3.44998 -1.97874
v -1.6451 -3.55002 -1.97874
v -1.6451 3.44998 -1.97874
vn 0 0 -1
f 153//115 154//115 155//115 
v 1.3549 -3.55002 -1.97874
f 154//115 153//115 156//115 
v 1.3549 1.44998 -1.97874
f 156//115 153//115 157//115 
v 1.3549 -1.55002 -1.97874
f 156//115 157//115 158//115 
v -1.6451 -3.55002 2.02126
v 0.354899 -1.55002 2.02126
v -1.6451 3.44998 2.02126
vn 0 0 1
f 159//116 160//116 161//116 
v 1.3549 -3.55002 2.02126
f 160//116 159//116 162//116 
v 1.3549 -1.55002 2.02126
f 160//116 162//116 163//116 
v 0.354899 3.44998 2.02126
f 160//116 164//116 161//116 
v 0.354899 1.44998 2.02126
f 164//116 160//116 165//116 
v 1.3549 1.44998 2.02126
f 164//116 165//116 166//116 
v 1.3549 3.44998 2.02126
f 164//116 166//116 167//116 
vn 0 1 0
f 161//117 153//117 155//117 
v 1.3549 3.44998 0.0212594
f 153//117 161//117 168//117 
f 168//117 161//117 167//117 
f 167//117 161//117 164//117 
v 1.3549 -1.55002 0.0212594
vn 1 0 0
f 157//118 169//118 158//118 
v 1.3549 1.44998 0.0212594
f 169//118 157//118 170//118 
f 170//118 157//118 153//118 
f 170//118 153//118 166//118 
f 166//118 153//118 167//118 
f 167//118 153//118 168//118 
f 158//118 162//118 156//118 
f 162//118 158//118 163//118 
f 163//118 158//118 169//118 
vn 0 -1 0
f 162//119 154//119 156//119 
f 154//119 162//119 159//119 
vn -1 0 0
f 161//120 154//120 159//120 
f 154//120 161//120 155//120 
v 0.354899 1.44998 0.0212594
v 0.354899 -1.55002 0.0212594
f 169//116 171//116 172//116 
f 171//116 169//116 170//116 
f 166//119 171//119 170//119 
f 171//119 166//119 165//119 
usemtl Layer_Layer0
v 1.3549 -1.55002 2.04126
v 1.3549 -1.55002 2.00126
v 1.3549 -1.53002 2.02126
f 173//118 174//118 175//118 
v 1.3549 -1.57002 2.02126
f 174//118 173//118 176//118 
v 0.354899 -1.55002 2.00126
v 0.354899 -1.55002 2.04126
v 0.354899 -1.53002 2.02126
f 177//120 178//120 179//120 
v 0.354899 -1.57002 2.02126
f 178//120 177//120 180//120 
f 173//116 180//119 176//119 
f 180//119 173//116 178//116 
f 179//117 173//116 175//117 
f 173//116 179//117 178//116 
f 179//117 174//115 177//115 
f 174//115 179//117 175//117 
f 180//119 174//115 176//119 
f 174//115 180//119 177//115 
usemtl Layer_flecha
v 26.0902 -44.6486 -1.44382e-15
v 16.0262 -27.8284 1.44382e-15
v 16.0262 -44.6486 1.44382e-15
vn 2.01832e-16 3.16584e-17 1
f 181//121 182//121 183//121 
v 21.0582 -19.57 -1.44382e-15
f 182//121 181//121 184//121 
v 26.0902 -27.8284 -1.44382e-15
f 184//121 181//121 185//121 
v 30.4784 -27.8284 -1.44382e-15
f 184//121 185//121 186//121 
v 11.638 -27.8284 1.44382e-15
f 184//121 187//121 182//121 
g Group3 
usemtl Layer_Layer0
v -1.6451 3.46997 -1.97874
v -1.6451 3.42998 -1.97874
v -1.6651 3.44998 -1.97874
vn 0 0 -1
f 188//122 189//122 190//122 
v -1.6251 3.44998 -1.97874
f 189//122 188//122 191//122 
v -1.6451 3.42998 2.02126
v -1.6451 3.46997 2.02126
v -1.6651 3.44998 2.02126
vn 0 0 1
f 192//123 193//123 194//123 
v -1.6251 3.44998 2.02126
f 193//123 192//123 195//123 
vn 0 1 0
vn 1 0 0
f 188//124 195//125 191//125 
f 195//125 188//124 193//124 
vn -1 0 0
f 194//126 188//124 190//126 
f 188//124 194//126 193//124 
vn 0 -1 0
f 194//126 189//127 192//127 
f 189//127 194//126 190//126 
f 195//125 189//127 191//125 
f 189//127 195//125 192//127 
g Group4 
usemtl Layer_Layer0
v 0.354899 -1.55002 0.0412594
v 0.354899 -1.55002 0.0012594
v 0.374899 -1.55002 0.0212594
vn 0 -1 0
f 196//128 197//128 198//128 
v 0.334899 -1.55002 0.0212594
f 197//128 196//128 199//128 
v 0.354899 1.44998 0.0012594
v 0.354899 1.44998 0.0412594
v 0.374899 1.44998 0.0212594
vn 0 1 0
f 200//129 201//129 202//129 
v 0.334899 1.44998 0.0212594
f 201//129 200//129 203//129 
vn 0 0 1
vn -1 0 0
f 196//130 203//131 199//131 
f 203//131 196//130 201//130 
vn 1 0 0
f 202//132 196//130 198//132 
f 196//130 202//132 201//130 
vn 0 0 -1
f 202//132 197//133 200//133 
f 197//133 202//132 198//132 
f 203//131 197//133 199//131 
f 197//133 203//131 200//133 
g Group5 
usemtl Layer_Layer0
v -1.6451 3.44998 2.04126
v -1.6451 3.44998 2.00126
v -1.6651 3.44998 2.02126
vn 0 1 0
f 204//134 205//134 206//134 
v -1.6251 3.44998 2.02126
f 205//134 204//134 207//134 
v -1.6451 -3.55002 2.00126
v -1.6451 -3.55002 2.04126
v -1.6651 -3.55002 2.02126
vn 0 -1 0
f 208//135 209//135 210//135 
v -1.6251 -3.55002 2.02126
f 209//135 208//135 211//135 
vn 0 0 1
vn 1 0 0
f 204//136 211//137 207//137 
f 211//137 204//136 209//136 
vn -1 0 0
f 210//138 204//136 206//138 
f 204//136 210//138 209//136 
vn 0 0 -1
f 210//138 205//139 208//139 
f 205//139 210//138 206//138 
f 211//137 205//139 207//137 
f 205//139 211//137 208//139 
g Group6 
usemtl Layer_Layer0
v 1.3549 3.44998 2.04126
v 1.3549 3.44998 2.00126
v 1.3549 3.46997 2.02126
vn 1 0 0
f 212//140 213//140 214//140 
v 1.3549 3.42998 2.02126
f 213//140 212//140 215//140 
v 0.354899 3.44998 2.00126
v 0.354899 3.44998 2.04126
v 0.354899 3.46997 2.02126
vn -1 0 0
f 216//141 217//141 218//141 
v 0.354899 3.42998 2.02126
f 217//141 216//141 219//141 
vn 0 0 1
vn 0 -1 0
f 212//142 219//143 215//143 
f 219//143 212//142 217//142 
vn 0 1 0
f 218//144 212//142 214//144 
f 212//142 218//144 217//142 
vn 0 0 -1
f 218//144 213//145 216//145 
f 213//145 218//144 214//144 
f 219//143 213//145 215//143 
f 213//145 219//143 216//145 
g Group7 
usemtl Layer_Layer0
v 1.3549 3.46997 0.0212594
v 1.3549 3.42998 0.0212594
v 1.3349 3.44998 0.0212594
vn 0 0 -1
f 220//146 221//146 222//146 
v 1.3749 3.44998 0.0212594
f 221//146 220//146 223//146 
v 1.3549 3.42998 2.02126
v 1.3549 3.46997 2.02126
v 1.3349 3.44998 2.02126
vn 0 0 1
f 224//147 225//147 226//147 
v 1.3749 3.44998 2.02126
f 225//147 224//147 227//147 
vn 0 1 0
vn 1 0 0
f 220//148 227//149 223//149 
f 227//149 220//148 225//148 
vn -1 0 0
f 226//150 220//148 222//150 
f 220//148 226//150 225//148 
vn 0 -1 0
f 226//150 221//151 224//151 
f 221//151 226//150 222//150 
f 227//149 221//151 223//149 
f 221//151 227//149 224//151 
g Group8 
usemtl Layer_Layer0
v 1.3549 -1.53002 2.02126
v 1.3549 -1.57002 2.02126
v 1.3749 -1.55002 2.02126
vn 0 0 1
f 228//152 229//152 230//152 
v 1.3349 -1.55002 2.02126
f 229//152 228//152 231//152 
v 1.3549 -1.57002 0.0212594
v 1.3549 -1.53002 0.0212594
v 1.3749 -1.55002 0.0212594
vn 0 0 -1
f 232//153 233//153 234//153 
v 1.3349 -1.55002 0.0212594
f 233//153 232//153 235//153 
vn 0 1 0
vn -1 0 0
f 228//154 235//155 231//155 
f 235//155 228//154 233//154 
vn 1 0 0
f 234//156 228//154 230//156 
f 228//154 234//156 233//154 
vn 0 -1 0
f 234//156 229//157 232//157 
f 229//157 234//156 230//156 
f 235//155 229//157 231//155 
f 229//157 235//155 232//157 
g Group9 
usemtl Layer_Layer0
v 0.354899 1.44998 2.04126
v 0.354899 1.44998 2.00126
v 0.354899 1.42998 2.02126
vn -1 0 0
f 236//158 237//158 238//158 
v 0.354899 1.46998 2.02126
f 237//158 236//158 239//158 
v 1.3549 1.44998 2.00126
v 1.3549 1.44998 2.04126
v 1.3549 1.42998 2.02126
vn 1 0 0
f 240//159 241//159 242//159 
v 1.3549 1.46998 2.02126
f 241//159 240//159 243//159 
vn 0 0 1
vn 0 1 0
f 236//160 243//161 239//161 
f 243//161 236//160 241//160 
vn 0 -1 0
f 242//162 236//160 238//162 
f 236//160 242//162 241//160 
vn 0 0 -1
f 242//162 237//163 240//163 
f 237//163 242//162 238//162 
f 243//161 237//163 239//161 
f 237//163 243//161 240//163 
