mtllib p131a.mtl
s 1
o 
g Group1 
usemtl Color_M00
v -3 1.96 2
v -3 1.96 1.96
v -3 1.94 1.98
vn -1 0 0
f 1//1 2//1 3//1 
v -3 1.98 1.98
f 2//1 1//1 4//1 
v 2.28882e-08 1.96 1.96
v 2.28882e-08 1.96 2
v 2.28882e-08 1.94 1.98
vn 1 0 0
f 5//2 6//2 7//2 
v 2.28882e-08 1.98 1.98
f 6//2 5//2 8//2 
vn 0 0 1
vn 0 1 0
f 1//3 8//4 4//4 
f 8//4 1//3 6//3 
vn 0 -1 0
f 7//5 1//3 3//5 
f 1//3 7//5 6//3 
vn 0 0 -1
f 7//5 2//6 5//6 
f 2//6 7//5 3//5 
f 8//4 2//6 4//4 
f 2//6 8//4 5//6 
g Group10 
usemtl Color_M00
v -3 1.96 -2
v -3 1.96 -2.04
v -3.02 1.96 -2.02
vn 0 1 0
f 9//7 10//7 11//7 
v -2.98 1.96 -2.02
f 10//7 9//7 12//7 
v -3 0.96 -2.04
v -3 0.96 -2
v -3.02 0.96 -2.02
vn 0 -1 0
f 13//8 14//8 15//8 
v -2.98 0.96 -2.02
f 14//8 13//8 16//8 
vn 0 0 1
vn 1 0 0
f 9//9 16//10 12//10 
f 16//10 9//9 14//9 
vn -1 0 0
f 15//11 9//9 11//11 
f 9//9 15//11 14//9 
vn 0 0 -1
f 15//11 10//12 13//12 
f 10//12 15//11 11//11 
f 16//10 10//12 12//10 
f 10//12 16//10 13//12 
g Group11 
usemtl Color_M00
v -3 2.96 2
v -3 2.96 1.96
v -3.02 2.96 1.98
vn 0 1 0
f 17//13 18//13 19//13 
v -2.98 2.96 1.98
f 18//13 17//13 20//13 
v -3 1.96 1.96
v -3 1.96 2
v -3.02 1.96 1.98
vn 0 -1 0
f 21//14 22//14 23//14 
v -2.98 1.96 1.98
f 22//14 21//14 24//14 
vn 0 0 1
vn 1 0 0
f 17//15 24//16 20//16 
f 24//16 17//15 22//15 
vn -1 0 0
f 23//17 17//15 19//17 
f 17//15 23//17 22//15 
vn 0 0 -1
f 23//17 18//18 21//18 
f 18//18 23//17 19//17 
f 24//16 18//18 20//16 
f 18//18 24//16 21//18 
g Group12 
usemtl Color_M00
v 5.59481e-15 0.96 2
v 5.59481e-15 0.96 1.96
v 5.59963e-15 0.94 1.98
vn -1 0 0
f 25//19 26//19 27//19 
v 5.59e-15 0.98 1.98
f 26//19 25//19 28//19 
v 3 0.96 1.96
v 3 0.96 2
v 3 0.94 1.98
vn 1 0 0
f 29//20 30//20 31//20 
v 3 0.98 1.98
f 30//20 29//20 32//20 
vn 0 0 1
vn -2.40639e-16 1 0
f 25//21 32//22 28//22 
f 32//22 25//21 30//21 
vn 2.40639e-16 -1 0
f 31//23 25//21 27//23 
f 25//21 31//23 30//21 
vn 0 0 -1
f 31//23 26//24 29//24 
f 26//24 31//23 27//23 
f 32//22 26//24 28//22 
f 26//24 32//22 29//24 
g Group13 
usemtl Color_M00
v 3 2.98 -2.02
v 3 2.94 -2.02
v 2.98 2.96 -2.02
vn 0 0 -1
f 33//25 34//25 35//25 
v 3.02 2.96 -2.02
f 34//25 33//25 36//25 
v 3 2.94 1.98
v 3 2.98 1.98
v 2.98 2.96 1.98
vn 0 0 1
f 37//26 38//26 39//26 
v 3.02 2.96 1.98
f 38//26 37//26 40//26 
vn 0 1 0
vn 1 0 0
f 33//27 40//28 36//28 
f 40//28 33//27 38//27 
vn -1 0 0
f 39//29 33//27 35//29 
f 33//27 39//29 38//27 
vn 0 -1 0
f 39//29 34//30 37//30 
f 34//30 39//29 35//29 
f 40//28 34//30 36//28 
f 34//30 40//28 37//30 
g Group14 
usemtl Color_M00
v -3 0.96 -2
v -3 0.96 -2.04
v -3 0.94 -2.02
vn -1 0 0
f 41//31 42//31 43//31 
v -3 0.98 -2.02
f 42//31 41//31 44//31 
v 3 0.96 -2.04
v 3 0.96 -2
v 3 0.94 -2.02
vn 1 0 0
f 45//32 46//32 47//32 
v 3 0.98 -2.02
f 46//32 45//32 48//32 
vn 0 0 1
vn 0 1 0
f 41//33 48//34 44//34 
f 48//34 41//33 46//33 
vn 0 -1 0
f 47//35 41//33 43//35 
f 41//33 47//35 46//33 
vn 0 0 -1
f 47//35 42//36 45//36 
f 42//36 47//35 43//35 
f 48//34 42//36 44//34 
f 42//36 48//34 45//36 
g Group15 
usemtl Color_M00
v -1.81703e-16 1.98 1.98
v -1.76804e-16 1.94 1.98
v 0.02 1.96 1.98
vn 0 0 1
f 49//37 50//37 51//37 
v -0.02 1.96 1.98
f 50//37 49//37 52//37 
v -1.76804e-16 1.94 -0.02
v -1.81703e-16 1.98 -0.02
v 0.02 1.96 -0.02
vn 0 0 -1
f 53//38 54//38 55//38 
v -0.02 1.96 -0.02
f 54//38 53//38 56//38 
vn 0 1 0
vn -1 0 0
f 49//39 56//40 52//40 
f 56//40 49//39 54//39 
vn 1 0 0
f 55//41 49//39 51//41 
f 49//39 55//41 54//39 
vn 9.99554e-17 -1 0
f 55//41 50//42 53//42 
f 50//42 55//41 51//41 
f 56//40 50//42 52//40 
f 50//42 56//40 53//42 
g Group16 
usemtl Color_M00
v 5.59359e-15 0.98 1.98
v 5.59849e-15 0.94 1.98
v 0.02 0.96 1.98
vn 0 0 1
f 57//43 58//43 59//43 
v -0.02 0.96 1.98
f 58//43 57//43 60//43 
v 5.59849e-15 0.94 -0.02
v 5.59359e-15 0.98 -0.02
v 0.02 0.96 -0.02
vn 0 0 -1
f 61//44 62//44 63//44 
v -0.02 0.96 -0.02
f 62//44 61//44 64//44 
vn 0 1 0
vn -1 0 0
f 57//45 64//46 60//46 
f 64//46 57//45 62//45 
vn 1 0 0
f 63//47 57//45 59//47 
f 57//45 63//47 62//45 
vn 9.99499e-17 -1 0
f 63//47 58//48 61//48 
f 58//48 63//47 59//47 
f 64//46 58//48 60//46 
f 58//48 64//46 61//48 
g Group17 
usemtl Color_M00
v -3 0.96 -4.52996e-10
v -3 0.96 -0.04
v -3 0.94 -0.02
vn -1 0 0
f 65//49 66//49 67//49 
v -3 0.98 -0.02
f 66//49 65//49 68//49 
v 2.28882e-08 0.96 -0.04
v 2.28882e-08 0.96 -4.52996e-10
v 2.28882e-08 0.94 -0.02
vn 1 0 0
f 69//50 70//50 71//50 
v 2.28882e-08 0.98 -0.02
f 70//50 69//50 72//50 
vn 0 0 1
vn 0 1 0
f 65//51 72//52 68//52 
f 72//52 65//51 70//51 
vn 0 -1 0
f 71//53 65//51 67//53 
f 65//51 71//53 70//51 
vn 0 0 -1
f 71//53 66//54 69//54 
f 66//54 71//53 67//53 
f 72//52 66//54 68//52 
f 66//54 72//52 69//54 
g Group18 
usemtl Color_M00
v -1.79253e-16 1.96 -4.52996e-10
v -1.84152e-16 1.96 -0.04
v -0.02 1.96 -0.02
vn -5.77529e-15 1 0
f 73//55 74//55 75//55 
v 0.02 1.96 -0.02
f 74//55 73//55 76//55 
v 5.59114e-15 0.96 -0.04
v 5.59604e-15 0.96 -4.52996e-10
v -0.02 0.96 -0.02
vn 5.77529e-15 -1 0
f 77//56 78//56 79//56 
v 0.02 0.96 -0.02
f 78//56 77//56 80//56 
vn 0 0 1
vn 1 0 0
f 73//57 80//58 76//58 
f 80//58 73//57 78//57 
vn -1 0 0
f 79//59 73//57 75//59 
f 73//57 79//59 78//57 
vn -9.9955e-17 0 -1
f 79//59 74//60 77//60 
f 74//60 79//59 75//59 
f 80//58 74//60 76//58 
f 74//60 80//58 77//60 
g Group19 
usemtl Color_M00
v -3 0.98 -2.02
v -3 0.94 -2.02
v -3.02 0.96 -2.02
vn 0 0 -1
f 81//61 82//61 83//61 
v -2.98 0.96 -2.02
f 82//61 81//61 84//61 
v -3 0.94 -0.02
v -3 0.98 -0.02
v -3.02 0.96 -0.02
vn 0 0 1
f 85//62 86//62 87//62 
v -2.98 0.96 -0.02
f 86//62 85//62 88//62 
vn 0 1 0
vn 1 0 0
f 81//63 88//64 84//64 
f 88//64 81//63 86//63 
vn -1 0 0
f 87//65 81//63 83//65 
f 81//63 87//65 86//63 
vn 0 -1 0
f 87//65 82//66 85//66 
f 82//66 87//65 83//65 
f 88//64 82//66 84//64 
f 82//66 88//64 85//66 
g Group2 
usemtl Color_M00
v -1.79253e-16 1.96 2
v -1.84152e-16 1.96 1.96
v -0.02 1.96 1.98
vn -5.77529e-15 1 0
f 89//67 90//67 91//67 
v 0.02 1.96 1.98
f 90//67 89//67 92//67 
v 5.59114e-15 0.96 1.96
v 5.59604e-15 0.96 2
v -0.02 0.96 1.98
vn 5.77529e-15 -1 0
f 93//68 94//68 95//68 
v 0.02 0.96 1.98
f 94//68 93//68 96//68 
vn 0 0 1
vn 1 0 0
f 89//69 96//70 92//70 
f 96//70 89//69 94//69 
vn -1 0 0
f 95//71 89//69 91//71 
f 89//69 95//71 94//69 
vn -9.9955e-17 0 -1
f 95//71 90//72 93//72 
f 90//72 95//71 91//71 
f 96//70 90//72 92//70 
f 90//72 96//70 93//72 
g Group20 
usemtl Color_M00
v -3 1.96 -4.52996e-10
v -3 1.96 -0.04
v -3 1.94 -0.02
vn -1 0 0
f 97//73 98//73 99//73 
v -3 1.98 -0.02
f 98//73 97//73 100//73 
v 2.28882e-08 1.96 -0.04
v 2.28882e-08 1.96 -4.52996e-10
v 2.28882e-08 1.94 -0.02
vn 1 0 0
f 101//74 102//74 103//74 
v 2.28882e-08 1.98 -0.02
f 102//74 101//74 104//74 
vn 0 0 1
vn 0 1 0
f 97//75 104//76 100//76 
f 104//76 97//75 102//75 
vn 0 -1 0
f 103//77 97//75 99//77 
f 97//75 103//77 102//75 
vn 0 0 -1
f 103//77 98//78 101//78 
f 98//78 103//77 99//77 
f 104//76 98//78 100//76 
f 98//78 104//76 101//78 
g Group21 
usemtl Color_M00
v -3 1.98 1.98
v -3 1.94 1.98
v -2.98 1.96 1.98
vn 0 0 1
f 105//79 106//79 107//79 
v -3.02 1.96 1.98
f 106//79 105//79 108//79 
v -3 1.94 -0.02
v -3 1.98 -0.02
v -2.98 1.96 -0.02
vn 0 0 -1
f 109//80 110//80 111//80 
v -3.02 1.96 -0.02
f 110//80 109//80 112//80 
vn 0 1 0
vn -1 0 0
f 105//81 112//82 108//82 
f 112//82 105//81 110//81 
vn 1 0 0
f 111//83 105//81 107//83 
f 105//81 111//83 110//81 
vn 0 -1 0
f 111//83 106//84 109//84 
f 106//84 111//83 107//83 
f 112//82 106//84 108//82 
f 106//84 112//82 109//84 
g Group22 
usemtl Color_H08
v 3 2.96 -2.02
v -3 1.96 -2.02
v -3 2.96 -2.02
vn 0 0 -1
f 113//85 114//85 115//85 
v -3 0.96 -2.02
f 114//85 113//85 116//85 
v 3 0.96 -2.02
f 116//85 113//85 117//85 
v -3 1.96 1.98
v 3 2.96 1.98
v -3 2.96 1.98
vn 0 0 1
f 118//86 119//86 120//86 
v -1.80478e-16 1.96 1.98
f 119//86 118//86 121//86 
v 5.59481e-15 0.96 1.98
f 119//86 121//86 122//86 
v 3 0.96 1.98
f 119//86 122//86 123//86 
vn 1.20319e-16 1 0
f 120//87 113//87 115//87 
f 113//87 120//87 119//87 
vn 1 7.21911e-16 0
f 113//88 123//88 117//88 
f 123//88 113//88 119//88 
v 5.59481e-15 0.96 -0.02
vn -5.45444e-16 -1 -3.36892e-16
f 117//89 124//89 116//89 
f 124//89 117//89 123//89 
f 124//89 123//89 122//89 
v -3 0.96 -0.02
f 125//89 116//89 124//89 
v -3 1.96 -0.02
vn -1 -7.21911e-16 -1.86829e-32
f 120//90 126//90 118//90 
f 126//90 120//90 114//90 
f 114//90 120//90 115//90 
f 126//90 116//90 125//90 
f 116//90 126//90 114//90 
v -1.80478e-16 1.96 -0.02
f 125//86 127//86 126//86 
f 127//86 125//86 124//86 
vn -1 -5.77529e-15 0
f 121//91 124//91 122//91 
f 124//91 121//91 127//91 
vn -4.81274e-16 -1 0
f 121//92 126//92 127//92 
f 126//92 121//92 118//92 
usemtl Color_M00
v -3 1.96 -4.52996e-10
v -3 1.96 -0.04
v -3.02 1.96 -0.02
vn 0 1 0
f 128//93 129//93 130//93 
v -2.98 1.96 -0.02
f 129//93 128//93 131//93 
v -3 0.96 -0.04
v -3 0.96 -4.52996e-10
v -3.02 0.96 -0.02
vn 0 -1 0
f 132//94 133//94 134//94 
v -2.98 0.96 -0.02
f 133//94 132//94 135//94 
vn 1 0 0
f 128//86 135//95 131//95 
f 135//95 128//86 133//86 
vn -1 0 0
f 134//96 128//86 130//96 
f 128//86 134//96 133//86 
f 134//96 129//85 132//85 
f 129//85 134//96 130//96 
f 135//95 129//85 131//95 
f 129//85 135//95 132//85 
g Group3 
usemtl Color_M00
v 3 0.96 2
v 3 0.96 1.96
v 3.02 0.96 1.98
vn 0 -1 0
f 136//97 137//97 138//97 
v 2.98 0.96 1.98
f 137//97 136//97 139//97 
v 3 2.96 1.96
v 3 2.96 2
v 3.02 2.96 1.98
vn 0 1 0
f 140//98 141//98 142//98 
v 2.98 2.96 1.98
f 141//98 140//98 143//98 
vn 0 0 1
vn -1 0 0
f 136//99 143//100 139//100 
f 143//100 136//99 141//99 
vn 1 0 0
f 142//101 136//99 138//101 
f 136//99 142//101 141//99 
vn 0 0 -1
f 142//101 137//102 140//102 
f 137//102 142//101 138//101 
f 143//100 137//102 139//100 
f 137//102 143//100 140//102 
g Group4 
usemtl Color_M00
v 3 0.96 -2
v 3 0.96 -2.04
v 3.02 0.96 -2.02
vn 0 -1 0
f 144//103 145//103 146//103 
v 2.98 0.96 -2.02
f 145//103 144//103 147//103 
v 3 2.96 -2.04
v 3 2.96 -2
v 3.02 2.96 -2.02
vn 0 1 0
f 148//104 149//104 150//104 
v 2.98 2.96 -2.02
f 149//104 148//104 151//104 
vn 0 0 1
vn -1 0 0
f 144//105 151//106 147//106 
f 151//106 144//105 149//105 
vn 1 0 0
f 150//107 144//105 146//107 
f 144//105 150//107 149//105 
vn 0 0 -1
f 150//107 145//108 148//108 
f 145//108 150//107 146//107 
f 151//106 145//108 147//106 
f 145//108 151//106 148//108 
g Group5 
usemtl Color_M00
v 3 2.96 2
v 3 2.96 1.96
v 3 2.98 1.98
vn 1 0 0
f 152//109 153//109 154//109 
v 3 2.94 1.98
f 153//109 152//109 155//109 
v -3 2.96 1.96
v -3 2.96 2
v -3 2.98 1.98
vn -1 0 0
f 156//110 157//110 158//110 
v -3 2.94 1.98
f 157//110 156//110 159//110 
vn 0 0 1
vn 0 -1 0
f 152//111 159//112 155//112 
f 159//112 152//111 157//111 
vn 0 1 0
f 158//113 152//111 154//113 
f 152//111 158//113 157//111 
vn 0 0 -1
f 158//113 153//114 156//114 
f 153//114 158//113 154//113 
f 159//112 153//114 155//112 
f 153//114 159//112 156//114 
g Group6 
usemtl Color_M00
v -3 2.98 -2.02
v -3 2.94 -2.02
v -3.02 2.96 -2.02
vn 0 0 -1
f 160//115 161//115 162//115 
v -2.98 2.96 -2.02
f 161//115 160//115 163//115 
v -3 2.94 1.98
v -3 2.98 1.98
v -3.02 2.96 1.98
vn 0 0 1
f 164//116 165//116 166//116 
v -2.98 2.96 1.98
f 165//116 164//116 167//116 
vn 0 1 0
vn 1 0 0
f 160//117 167//118 163//118 
f 167//118 160//117 165//117 
vn -1 0 0
f 166//119 160//117 162//119 
f 160//117 166//119 165//117 
vn 0 -1 0
f 166//119 161//120 164//120 
f 161//120 166//119 162//119 
f 167//118 161//120 163//118 
f 161//120 167//118 164//120 
g Group7 
usemtl Color_M00
v 3 0.98 -2.02
v 3 0.94 -2.02
v 2.98 0.96 -2.02
vn 0 0 -1
f 168//121 169//121 170//121 
v 3.02 0.96 -2.02
f 169//121 168//121 171//121 
v 3 0.94 1.98
v 3 0.98 1.98
v 2.98 0.96 1.98
vn 0 0 1
f 172//122 173//122 174//122 
v 3.02 0.96 1.98
f 173//122 172//122 175//122 
vn 0 1 0
vn 1 0 0
f 168//123 175//124 171//124 
f 175//124 168//123 173//123 
vn -1 0 0
f 174//125 168//123 170//125 
f 168//123 174//125 173//123 
vn 0 -1 0
f 174//125 169//126 172//126 
f 169//126 174//125 170//125 
f 175//124 169//126 171//124 
f 169//126 175//124 172//126 
g Group8 
usemtl Color_M00
v 3 2.96 -2
v 3 2.96 -2.04
v 3 2.98 -2.02
vn 1 0 0
f 176//127 177//127 178//127 
v 3 2.94 -2.02
f 177//127 176//127 179//127 
v -3 2.96 -2.04
v -3 2.96 -2
v -3 2.98 -2.02
vn -1 0 0
f 180//128 181//128 182//128 
v -3 2.94 -2.02
f 181//128 180//128 183//128 
vn 0 0 1
vn 0 -1 0
f 176//129 183//130 179//130 
f 183//130 176//129 181//129 
vn 0 1 0
f 182//131 176//129 178//131 
f 176//129 182//131 181//129 
vn 0 0 -1
f 182//131 177//132 180//132 
f 177//132 182//131 178//131 
f 183//130 177//132 179//130 
f 177//132 183//130 180//132 
g Group9 
usemtl Color_M00
v -3 2.96 -2
v -3 2.96 -2.04
v -3.02 2.96 -2.02
vn 0 1 0
f 184//133 185//133 186//133 
v -2.98 2.96 -2.02
f 185//133 184//133 187//133 
v -3 1.96 -2.04
v -3 1.96 -2
v -3.02 1.96 -2.02
vn 0 -1 0
f 188//134 189//134 190//134 
v -2.98 1.96 -2.02
f 189//134 188//134 191//134 
vn 0 0 1
vn 1 0 0
f 184//135 191//136 187//136 
f 191//136 184//135 189//135 
vn -1 0 0
f 190//137 184//135 186//137 
f 184//135 190//137 189//135 
vn 0 0 -1
f 190//137 185//138 188//138 
f 185//138 190//137 186//137 
f 191//136 185//138 187//136 
f 185//138 191//136 188//138 
