mtllib p131c.mtl
s 1
o 
g Group1 
usemtl Color_M00
v 2.79 -1.55 -2.05
v 2.79 -1.55 -2.09
v 2.81 -1.55 -2.07
vn 0 -1 0
f 1//1 2//1 3//1 
v 2.77 -1.55 -2.07
f 2//1 1//1 4//1 
v 2.79 1.45 -2.09
v 2.79 1.45 -2.05
v 2.81 1.45 -2.07
vn 0 1 0
f 5//2 6//2 7//2 
v 2.77 1.45 -2.07
f 6//2 5//2 8//2 
vn 0 0 1
vn -1 0 0
f 1//3 8//4 4//4 
f 8//4 1//3 6//3 
vn 1 0 0
f 7//5 1//3 3//5 
f 1//3 7//5 6//3 
vn 0 0 -1
f 7//5 2//6 5//6 
f 2//6 7//5 3//5 
f 8//4 2//6 4//4 
f 2//6 8//4 5//6 
g Group10 
usemtl Color_M00
v -2.21 -1.55 1.95
v -2.21 -1.55 1.91
v -2.21 -1.57 1.93
vn -1 0 0
f 9//7 10//7 11//7 
v -2.21 -1.53 1.93
f 10//7 9//7 12//7 
v 1.79 -1.55 1.91
v 1.79 -1.55 1.95
v 1.79 -1.57 1.93
vn 1 0 0
f 13//8 14//8 15//8 
v 1.79 -1.53 1.93
f 14//8 13//8 16//8 
vn 0 0 1
vn 0 1 0
f 9//9 16//10 12//10 
f 16//10 9//9 14//9 
vn 0 -1 0
f 15//11 9//9 11//11 
f 9//9 15//11 14//9 
vn 0 0 -1
f 15//11 10//12 13//12 
f 10//12 15//11 11//11 
f 16//10 10//12 12//10 
f 10//12 16//10 13//12 
g Group11 
usemtl Color_M00
v 2.79 -1.55 -0.05
v 2.79 -1.55 -0.09
v 2.81 -1.55 -0.07
vn 0 -1 0
f 17//13 18//13 19//13 
v 2.77 -1.55 -0.07
f 18//13 17//13 20//13 
v 2.79 1.45 -0.09
v 2.79 1.45 -0.05
v 2.81 1.45 -0.07
vn 0 1 0
f 21//14 22//14 23//14 
v 2.77 1.45 -0.07
f 22//14 21//14 24//14 
vn 0 0 1
vn -1 0 0
f 17//15 24//16 20//16 
f 24//16 17//15 22//15 
vn 1 0 0
f 23//17 17//15 19//17 
f 17//15 23//17 22//15 
vn 0 0 -1
f 23//17 18//18 21//18 
f 18//18 23//17 19//17 
f 24//16 18//18 20//16 
f 18//18 24//16 21//18 
g Group12 
usemtl Color_M00
v 0.79 1.47 0.93
v 0.79 1.43 0.93
v 0.81 1.45 0.93
vn 0 0 1
f 25//19 26//19 27//19 
v 0.77 1.45 0.93
f 26//19 25//19 28//19 
v 0.79 1.43 -2.07
v 0.79 1.47 -2.07
v 0.81 1.45 -2.07
vn 0 0 -1
f 29//20 30//20 31//20 
v 0.77 1.45 -2.07
f 30//20 29//20 32//20 
vn 0 1 0
vn -1 0 0
f 25//21 32//22 28//22 
f 32//22 25//21 30//21 
vn 1 0 0
f 31//23 25//21 27//23 
f 25//21 31//23 30//21 
vn 0 -1 0
f 31//23 26//24 29//24 
f 26//24 31//23 27//23 
f 32//22 26//24 28//22 
f 26//24 32//22 29//24 
g Group13 
usemtl Color_M00
v 0.79 -1.55 -2.05
v 0.79 -1.55 -2.09
v 0.79 -1.57 -2.07
vn -1 0 0
f 33//25 34//25 35//25 
v 0.79 -1.53 -2.07
f 34//25 33//25 36//25 
v 2.79 -1.55 -2.09
v 2.79 -1.55 -2.05
v 2.79 -1.57 -2.07
vn 1 0 0
f 37//26 38//26 39//26 
v 2.79 -1.53 -2.07
f 38//26 37//26 40//26 
vn 0 0 1
vn 0 1 0
f 33//27 40//28 36//28 
f 40//28 33//27 38//27 
vn 0 -1 0
f 39//29 33//27 35//29 
f 33//27 39//29 38//27 
vn 0 0 -1
f 39//29 34//30 37//30 
f 34//30 39//29 35//29 
f 40//28 34//30 36//28 
f 34//30 40//28 37//30 
g Group14 
usemtl Color_M00
v 0.79 -1.55 -2.05
v 0.79 -1.55 -2.09
v 0.81 -1.55 -2.07
vn 0 -1 0
f 41//31 42//31 43//31 
v 0.77 -1.55 -2.07
f 42//31 41//31 44//31 
v 0.79 1.45 -2.09
v 0.79 1.45 -2.05
v 0.81 1.45 -2.07
vn 0 1 0
f 45//32 46//32 47//32 
v 0.77 1.45 -2.07
f 46//32 45//32 48//32 
vn 0 0 1
vn -1 0 0
f 41//33 48//34 44//34 
f 48//34 41//33 46//33 
vn 1 0 0
f 47//35 41//33 43//35 
f 41//33 47//35 46//33 
vn 0 0 -1
f 47//35 42//36 45//36 
f 42//36 47//35 43//35 
f 48//34 42//36 44//34 
f 42//36 48//34 45//36 
g Group15 
usemtl Color_M00
v -2.21 -1.55 -2.05
v -2.21 -1.55 -2.09
v -2.21 -1.57 -2.07
vn -1 0 0
f 49//37 50//37 51//37 
v -2.21 -1.53 -2.07
f 50//37 49//37 52//37 
v -1.21 -1.55 -2.09
v -1.21 -1.55 -2.05
v -1.21 -1.57 -2.07
vn 1 0 0
f 53//38 54//38 55//38 
v -1.21 -1.53 -2.07
f 54//38 53//38 56//38 
vn 0 0 1
vn 0 1 0
f 49//39 56//40 52//40 
f 56//40 49//39 54//39 
vn 0 -1 0
f 55//41 49//39 51//41 
f 49//39 55//41 54//39 
vn 0 0 -1
f 55//41 50//42 53//42 
f 50//42 55//41 51//41 
f 56//40 50//42 52//40 
f 50//42 56//40 53//42 
g Group16 
usemtl Color_M00
v -1.21 -1.55 0.95
v -1.21 -1.55 0.91
v -1.21 -1.57 0.93
vn -1 0 0
f 57//43 58//43 59//43 
v -1.21 -1.53 0.93
f 58//43 57//43 60//43 
v 0.79 -1.55 0.91
v 0.79 -1.55 0.95
v 0.79 -1.57 0.93
vn 1 0 0
f 61//44 62//44 63//44 
v 0.79 -1.53 0.93
f 62//44 61//44 64//44 
vn 0 0 1
vn 0 1 0
f 57//45 64//46 60//46 
f 64//46 57//45 62//45 
vn 0 -1 0
f 63//47 57//45 59//47 
f 57//45 63//47 62//45 
vn 0 0 -1
f 63//47 58//48 61//48 
f 58//48 63//47 59//47 
f 64//46 58//48 60//46 
f 58//48 64//46 61//48 
g Group17 
usemtl Color_M00
v 0.79 -1.53 0.93
v 0.79 -1.57 0.93
v 0.81 -1.55 0.93
vn 0 0 1
f 65//49 66//49 67//49 
v 0.77 -1.55 0.93
f 66//49 65//49 68//49 
v 0.79 -1.57 -2.07
v 0.79 -1.53 -2.07
v 0.81 -1.55 -2.07
vn 0 0 -1
f 69//50 70//50 71//50 
v 0.77 -1.55 -2.07
f 70//50 69//50 72//50 
vn 0 1 0
vn -1 0 0
f 65//51 72//52 68//52 
f 72//52 65//51 70//51 
vn 1 0 0
f 71//53 65//51 67//53 
f 65//51 71//53 70//51 
vn 0 -1 0
f 71//53 66//54 69//54 
f 66//54 71//53 67//53 
f 72//52 66//54 68//52 
f 66//54 72//52 69//54 
g Group18 
usemtl Color_M00
v -1.21 -1.55 -2.05
v -1.21 -1.55 -2.09
v -1.19 -1.55 -2.07
vn 0 -1 0
f 73//55 74//55 75//55 
v -1.23 -1.55 -2.07
f 74//55 73//55 76//55 
v -1.21 1.45 -2.09
v -1.21 1.45 -2.05
v -1.19 1.45 -2.07
vn 0 1 0
f 77//56 78//56 79//56 
v -1.23 1.45 -2.07
f 78//56 77//56 80//56 
vn 0 0 1
vn -1 0 0
f 73//57 80//58 76//58 
f 80//58 73//57 78//57 
vn 1 0 0
f 79//59 73//57 75//59 
f 73//57 79//59 78//57 
vn 0 0 -1
f 79//59 74//60 77//60 
f 74//60 79//59 75//59 
f 80//58 74//60 76//58 
f 74//60 80//58 77//60 
g Group19 
usemtl Color_M00
v 1.79 1.45 1.95
v 1.79 1.45 1.91
v 1.79 1.47 1.93
vn 1 0 0
f 81//61 82//61 83//61 
v 1.79 1.43 1.93
f 82//61 81//61 84//61 
v -2.21 1.45 1.91
v -2.21 1.45 1.95
v -2.21 1.47 1.93
vn -1 0 0
f 85//62 86//62 87//62 
v -2.21 1.43 1.93
f 86//62 85//62 88//62 
vn 0 0 1
vn 0 -1 0
f 81//63 88//64 84//64 
f 88//64 81//63 86//63 
vn 0 1 0
f 87//65 81//63 83//65 
f 81//63 87//65 86//63 
vn 0 0 -1
f 87//65 82//66 85//66 
f 82//66 87//65 83//65 
f 88//64 82//66 84//64 
f 82//66 88//64 85//66 
g Group2 
usemtl Color_M00
v 2.79 1.45 -2.05
v 2.79 1.45 -2.09
v 2.79 1.47 -2.07
vn 1 0 0
f 89//67 90//67 91//67 
v 2.79 1.43 -2.07
f 90//67 89//67 92//67 
v 0.79 1.45 -2.09
v 0.79 1.45 -2.05
v 0.79 1.47 -2.07
vn -1 0 0
f 93//68 94//68 95//68 
v 0.79 1.43 -2.07
f 94//68 93//68 96//68 
vn 0 0 1
vn 0 -1 0
f 89//69 96//70 92//70 
f 96//70 89//69 94//69 
vn 0 1 0
f 95//71 89//69 91//71 
f 89//69 95//71 94//69 
vn 0 0 -1
f 95//71 90//72 93//72 
f 90//72 95//71 91//71 
f 96//70 90//72 92//70 
f 90//72 96//70 93//72 
g Group20 
usemtl Color_M00
v -2.21 1.47 -2.07
v -2.21 1.43 -2.07
v -2.23 1.45 -2.07
vn 0 0 -1
f 97//73 98//73 99//73 
v -2.19 1.45 -2.07
f 98//73 97//73 100//73 
v -2.21 1.43 1.93
v -2.21 1.47 1.93
v -2.23 1.45 1.93
vn 0 0 1
f 101//74 102//74 103//74 
v -2.19 1.45 1.93
f 102//74 101//74 104//74 
vn 0 1 0
vn 1 0 0
f 97//75 104//76 100//76 
f 104//76 97//75 102//75 
vn -1 0 0
f 103//77 97//75 99//77 
f 97//75 103//77 102//75 
vn 0 -1 0
f 103//77 98//78 101//78 
f 98//78 103//77 99//77 
f 104//76 98//78 100//76 
f 98//78 104//76 101//78 
g Group21 
usemtl Color_M00
v -1.21 1.47 -2.07
v -1.21 1.43 -2.07
v -1.23 1.45 -2.07
vn 0 0 -1
f 105//79 106//79 107//79 
v -1.19 1.45 -2.07
f 106//79 105//79 108//79 
v -1.21 1.43 0.93
v -1.21 1.47 0.93
v -1.23 1.45 0.93
vn 0 0 1
f 109//80 110//80 111//80 
v -1.19 1.45 0.93
f 110//80 109//80 112//80 
vn 0 1 0
vn 1 0 0
f 105//81 112//82 108//82 
f 112//82 105//81 110//81 
vn -1 0 0
f 111//83 105//81 107//83 
f 105//81 111//83 110//81 
vn 0 -1 0
f 111//83 106//84 109//84 
f 106//84 111//83 107//83 
f 112//82 106//84 108//82 
f 106//84 112//82 109//84 
g Group22 
usemtl Color_M00
v 1.79 1.45 -0.05
v 1.79 1.45 -0.09
v 1.79 1.43 -0.07
vn -1 0 0
f 113//85 114//85 115//85 
v 1.79 1.47 -0.07
f 114//85 113//85 116//85 
v 2.79 1.45 -0.09
v 2.79 1.45 -0.05
v 2.79 1.43 -0.07
vn 1 0 0
f 117//86 118//86 119//86 
v 2.79 1.47 -0.07
f 118//86 117//86 120//86 
vn 0 0 1
vn 0 1 0
f 113//87 120//88 116//88 
f 120//88 113//87 118//87 
vn 0 -1 0
f 119//89 113//87 115//89 
f 113//87 119//89 118//87 
vn 0 0 -1
f 119//89 114//90 117//90 
f 114//90 119//89 115//89 
f 120//88 114//90 116//88 
f 114//90 120//88 117//90 
g Group23 
usemtl Color_M00
v 0.79 -1.55 0.95
v 0.79 -1.55 0.91
v 0.81 -1.55 0.93
vn 0 -1 0
f 121//91 122//91 123//91 
v 0.77 -1.55 0.93
f 122//91 121//91 124//91 
v 0.79 1.45 0.91
v 0.79 1.45 0.95
v 0.81 1.45 0.93
vn 0 1 0
f 125//92 126//92 127//92 
v 0.77 1.45 0.93
f 126//92 125//92 128//92 
vn 0 0 1
vn -1 0 0
f 121//93 128//94 124//94 
f 128//94 121//93 126//93 
vn 1 0 0
f 127//95 121//93 123//95 
f 121//93 127//95 126//93 
vn 0 0 -1
f 127//95 122//96 125//96 
f 122//96 127//95 123//95 
f 128//94 122//96 124//94 
f 122//96 128//94 125//96 
g Group24 
usemtl Color_M00
v -1.21 -1.55 0.95
v -1.21 -1.55 0.91
v -1.19 -1.55 0.93
vn 0 -1 0
f 129//97 130//97 131//97 
v -1.23 -1.55 0.93
f 130//97 129//97 132//97 
v -1.21 1.45 0.91
v -1.21 1.45 0.95
v -1.19 1.45 0.93
vn 0 1 0
f 133//98 134//98 135//98 
v -1.23 1.45 0.93
f 134//98 133//98 136//98 
vn 0 0 1
vn -1 0 0
f 129//99 136//100 132//100 
f 136//100 129//99 134//99 
vn 1 0 0
f 135//101 129//99 131//101 
f 129//99 135//101 134//99 
vn 0 0 -1
f 135//101 130//102 133//102 
f 130//102 135//101 131//101 
f 136//100 130//102 132//100 
f 130//102 136//100 133//102 
g Group25 
usemtl Color_M00
v -1.21 1.45 -2.05
v -1.21 1.45 -2.09
v -1.21 1.47 -2.07
vn 1 0 0
f 137//103 138//103 139//103 
v -1.21 1.43 -2.07
f 138//103 137//103 140//103 
v -2.21 1.45 -2.09
v -2.21 1.45 -2.05
v -2.21 1.47 -2.07
vn -1 0 0
f 141//104 142//104 143//104 
v -2.21 1.43 -2.07
f 142//104 141//104 144//104 
vn 0 0 1
vn 0 -1 0
f 137//105 144//106 140//106 
f 144//106 137//105 142//105 
vn 0 1 0
f 143//107 137//105 139//107 
f 137//105 143//107 142//105 
vn 0 0 -1
f 143//107 138//108 141//108 
f 138//108 143//107 139//107 
f 144//106 138//108 140//106 
f 138//108 144//106 141//108 
g Group26 
usemtl Color_M00
v -2.21 -1.53 -2.07
v -2.21 -1.57 -2.07
v -2.23 -1.55 -2.07
vn 0 0 -1
f 145//109 146//109 147//109 
v -2.19 -1.55 -2.07
f 146//109 145//109 148//109 
v -2.21 -1.57 1.93
v -2.21 -1.53 1.93
v -2.23 -1.55 1.93
vn 0 0 1
f 149//110 150//110 151//110 
v -2.19 -1.55 1.93
f 150//110 149//110 152//110 
vn 0 1 0
vn 1 0 0
f 145//111 152//112 148//112 
f 152//112 145//111 150//111 
vn -1 0 0
f 151//113 145//111 147//113 
f 145//111 151//113 150//111 
vn 0 -1 0
f 151//113 146//114 149//114 
f 146//114 151//113 147//113 
f 152//112 146//114 148//112 
f 146//114 152//112 149//114 
g Group27 
usemtl Color_M00
v 2.79 1.47 -2.07
v 2.79 1.43 -2.07
v 2.77 1.45 -2.07
vn 0 0 -1
f 153//115 154//115 155//115 
v 2.81 1.45 -2.07
f 154//115 153//115 156//115 
v 2.79 1.43 -0.07
v 2.79 1.47 -0.07
v 2.77 1.45 -0.07
vn 0 0 1
f 157//116 158//116 159//116 
v 2.81 1.45 -0.07
f 158//116 157//116 160//116 
vn 0 1 0
vn 1 0 0
f 153//117 160//118 156//118 
f 160//118 153//117 158//117 
vn -1 0 0
f 159//119 153//117 155//119 
f 153//117 159//119 158//117 
vn 0 -1 0
f 159//119 154//120 157//120 
f 154//120 159//119 155//119 
f 160//118 154//120 156//118 
f 154//120 160//118 157//120 
g Group28 
usemtl Color_M00
v 1.79 -1.55 -0.05
v 1.79 -1.55 -0.09
v 1.81 -1.55 -0.07
vn 0 -1 0
f 161//121 162//121 163//121 
v 1.77 -1.55 -0.07
f 162//121 161//121 164//121 
v 1.79 1.45 -0.09
v 1.79 1.45 -0.05
v 1.81 1.45 -0.07
vn 0 1 0
f 165//122 166//122 167//122 
v 1.77 1.45 -0.07
f 166//122 165//122 168//122 
vn 0 0 1
vn -1 0 0
f 161//123 168//124 164//124 
f 168//124 161//123 166//123 
vn 1 0 0
f 167//125 161//123 163//125 
f 161//123 167//125 166//123 
vn 0 0 -1
f 167//125 162//126 165//126 
f 162//126 167//125 163//125 
f 168//124 162//126 164//124 
f 162//126 168//124 165//126 
g Group29 
usemtl Color_M00
v 1.79 -1.53 1.93
v 1.79 -1.57 1.93
v 1.81 -1.55 1.93
vn 0 0 1
f 169//127 170//127 171//127 
v 1.77 -1.55 1.93
f 170//127 169//127 172//127 
v 1.79 -1.57 -0.07
v 1.79 -1.53 -0.07
v 1.81 -1.55 -0.07
vn 0 0 -1
f 173//128 174//128 175//128 
v 1.77 -1.55 -0.07
f 174//128 173//128 176//128 
vn 0 1 0
vn -1 0 0
f 169//129 176//130 172//130 
f 176//130 169//129 174//129 
vn 1 0 0
f 175//131 169//129 171//131 
f 169//129 175//131 174//129 
vn 0 -1 0
f 175//131 170//132 173//132 
f 170//132 175//131 171//131 
f 176//130 170//132 172//130 
f 170//132 176//130 173//132 
g Group3 
usemtl Color_M00
v 1.79 -1.55 1.95
v 1.79 -1.55 1.91
v 1.81 -1.55 1.93
vn 0 -1 0
f 177//133 178//133 179//133 
v 1.77 -1.55 1.93
f 178//133 177//133 180//133 
v 1.79 1.45 1.91
v 1.79 1.45 1.95
v 1.81 1.45 1.93
vn 0 1 0
f 181//134 182//134 183//134 
v 1.77 1.45 1.93
f 182//134 181//134 184//134 
vn 0 0 1
vn -1 0 0
f 177//135 184//136 180//136 
f 184//136 177//135 182//135 
vn 1 0 0
f 183//137 177//135 179//137 
f 177//135 183//137 182//135 
vn 0 0 -1
f 183//137 178//138 181//138 
f 178//138 183//137 179//137 
f 184//136 178//138 180//136 
f 178//138 184//136 181//138 
g Group30 
usemtl Color_B04
v -1.21 1.45 -2.07
v -2.21 -1.55 -2.07
v -2.21 1.45 -2.07
vn 0 0 -1
f 185//139 186//139 187//139 
v -1.21 -1.55 -2.07
f 186//139 185//139 188//139 
v 1.79 -1.55 1.93
v -2.21 1.45 1.93
v -2.21 -1.55 1.93
vn 0 0 1
f 189//140 190//140 191//140 
v 1.79 1.45 1.93
f 190//140 189//140 192//140 
vn -1 0 0
f 190//141 186//141 191//141 
f 186//141 190//141 187//141 
vn -1.7056e-32 1 -5.33001e-34
f 190//142 185//142 187//142 
v -1.21 1.45 0.93
f 185//142 190//142 193//142 
v 0.79 1.45 0.93
f 193//142 190//142 194//142 
v 2.79 1.45 -2.07
v 0.79 1.45 -2.07
f 194//142 195//142 196//142 
v 1.79 1.45 -0.07
f 195//142 194//142 197//142 
f 197//142 194//142 192//142 
f 192//142 194//142 190//142 
v 2.79 1.45 -0.07
f 198//142 195//142 197//142 
v 2.79 -1.55 -0.07
v 2.79 -1.55 -2.07
vn 1 0 0
f 195//143 199//143 200//143 
f 199//143 195//143 198//143 
v 0.79 -1.55 -2.07
v 0.79 -1.55 0.93
f 194//141 201//141 202//141 
f 201//141 194//141 196//141 
v -1.21 -1.55 0.93
f 194//139 203//139 193//139 
f 203//139 194//139 202//139 
f 185//143 203//143 188//143 
f 203//143 185//143 193//143 
f 195//139 201//139 196//139 
f 201//139 195//139 200//139 
vn 0 -1 0
f 199//144 201//144 200//144 
v 1.79 -1.55 -0.07
f 201//144 199//144 204//144 
f 201//144 204//144 202//144 
f 202//144 204//144 189//144 
f 202//144 189//144 203//144 
f 203//144 186//144 188//144 
f 186//144 203//144 191//144 
f 191//144 203//144 189//144 
f 197//143 189//143 204//143 
f 189//143 197//143 192//143 
f 199//140 197//140 204//140 
f 197//140 199//140 198//140 
usemtl Color_M00
v 1.79 -1.55 -0.05
v 1.79 -1.55 -0.09
v 1.79 -1.57 -0.07
f 205//141 206//141 207//141 
v 1.79 -1.53 -0.07
f 206//141 205//141 208//141 
v 2.79 -1.55 -0.09
v 2.79 -1.55 -0.05
v 2.79 -1.57 -0.07
f 209//143 210//143 211//143 
v 2.79 -1.53 -0.07
f 210//143 209//143 212//143 
vn 0 1 0
f 205//140 212//145 208//145 
f 212//145 205//140 210//140 
f 211//144 205//140 207//144 
f 205//140 211//144 210//140 
f 211//144 206//139 209//139 
f 206//139 211//144 207//144 
f 212//145 206//139 208//145 
f 206//139 212//145 209//139 
g Group4 
usemtl Color_M00
v -1.21 1.45 0.95
v -1.21 1.45 0.91
v -1.21 1.43 0.93
vn -1 0 0
f 213//146 214//146 215//146 
v -1.21 1.47 0.93
f 214//146 213//146 216//146 
v 0.79 1.45 0.91
v 0.79 1.45 0.95
v 0.79 1.43 0.93
vn 1 0 0
f 217//147 218//147 219//147 
v 0.79 1.47 0.93
f 218//147 217//147 220//147 
vn 0 0 1
vn 0 1 0
f 213//148 220//149 216//149 
f 220//149 213//148 218//148 
vn 0 -1 0
f 219//150 213//148 215//150 
f 213//148 219//150 218//148 
vn 0 0 -1
f 219//150 214//151 217//151 
f 214//151 219//150 215//150 
f 220//149 214//151 216//149 
f 214//151 220//149 217//151 
g Group5 
usemtl Color_M00
v -2.21 1.45 -2.05
v -2.21 1.45 -2.09
v -2.23 1.45 -2.07
vn 0 1 0
f 221//152 222//152 223//152 
v -2.19 1.45 -2.07
f 222//152 221//152 224//152 
v -2.21 -1.55 -2.09
v -2.21 -1.55 -2.05
v -2.23 -1.55 -2.07
vn 0 -1 0
f 225//153 226//153 227//153 
v -2.19 -1.55 -2.07
f 226//153 225//153 228//153 
vn 0 0 1
vn 1 0 0
f 221//154 228//155 224//155 
f 228//155 221//154 226//154 
vn -1 0 0
f 227//156 221//154 223//156 
f 221//154 227//156 226//154 
vn 0 0 -1
f 227//156 222//157 225//157 
f 222//157 227//156 223//156 
f 228//155 222//157 224//155 
f 222//157 228//155 225//157 
g Group6 
usemtl Color_M00
v 1.79 1.47 1.93
v 1.79 1.43 1.93
v 1.81 1.45 1.93
vn 0 0 1
f 229//158 230//158 231//158 
v 1.77 1.45 1.93
f 230//158 229//158 232//158 
v 1.79 1.43 -0.07
v 1.79 1.47 -0.07
v 1.81 1.45 -0.07
vn 0 0 -1
f 233//159 234//159 235//159 
v 1.77 1.45 -0.07
f 234//159 233//159 236//159 
vn 0 1 0
vn -1 0 0
f 229//160 236//161 232//161 
f 236//161 229//160 234//160 
vn 1 0 0
f 235//162 229//160 231//162 
f 229//160 235//162 234//160 
vn 0 -1 0
f 235//162 230//163 233//163 
f 230//163 235//162 231//162 
f 236//161 230//163 232//161 
f 230//163 236//161 233//163 
g Group7 
usemtl Color_M00
v 2.79 -1.53 -2.07
v 2.79 -1.57 -2.07
v 2.77 -1.55 -2.07
vn 0 0 -1
f 237//164 238//164 239//164 
v 2.81 -1.55 -2.07
f 238//164 237//164 240//164 
v 2.79 -1.57 -0.07
v 2.79 -1.53 -0.07
v 2.77 -1.55 -0.07
vn 0 0 1
f 241//165 242//165 243//165 
v 2.81 -1.55 -0.07
f 242//165 241//165 244//165 
vn 0 1 0
vn 1 0 0
f 237//166 244//167 240//167 
f 244//167 237//166 242//166 
vn -1 0 0
f 243//168 237//166 239//168 
f 237//166 243//168 242//166 
vn 0 -1 0
f 243//168 238//169 241//169 
f 238//169 243//168 239//168 
f 244//167 238//169 240//167 
f 238//169 244//167 241//169 
g Group8 
usemtl Color_M00
v -1.21 -1.53 -2.07
v -1.21 -1.57 -2.07
v -1.23 -1.55 -2.07
vn 0 0 -1
f 245//170 246//170 247//170 
v -1.19 -1.55 -2.07
f 246//170 245//170 248//170 
v -1.21 -1.57 0.93
v -1.21 -1.53 0.93
v -1.23 -1.55 0.93
vn 0 0 1
f 249//171 250//171 251//171 
v -1.19 -1.55 0.93
f 250//171 249//171 252//171 
vn 0 1 0
vn 1 0 0
f 245//172 252//173 248//173 
f 252//173 245//172 250//172 
vn -1 0 0
f 251//174 245//172 247//174 
f 245//172 251//174 250//172 
vn 0 -1 0
f 251//174 246//175 249//175 
f 246//175 251//174 247//174 
f 252//173 246//175 248//173 
f 246//175 252//173 249//175 
g Group9 
usemtl Color_M00
v -2.21 1.45 1.95
v -2.21 1.45 1.91
v -2.23 1.45 1.93
vn 0 1 0
f 253//176 254//176 255//176 
v -2.19 1.45 1.93
f 254//176 253//176 256//176 
v -2.21 -1.55 1.91
v -2.21 -1.55 1.95
v -2.23 -1.55 1.93
vn 0 -1 0
f 257//177 258//177 259//177 
v -2.19 -1.55 1.93
f 258//177 257//177 260//177 
vn 0 0 1
vn 1 0 0
f 253//178 260//179 256//179 
f 260//179 253//178 258//178 
vn -1 0 0
f 259//180 253//178 255//180 
f 253//178 259//180 258//178 
vn 0 0 -1
f 259//180 254//181 257//181 
f 254//181 259//180 255//180 
f 260//179 254//181 256//179 
f 254//181 260//179 257//181 
