mtllib p131b.mtl
s 1
o 
g Group1 
usemtl Color_M00
v -0.01 1.95 0.03
v -0.01 1.95 -0.03
v -0.01 1.92 3.67394e-18
vn -1 0 0
f 1//1 2//1 3//1 
v -0.01 1.98 0
f 2//1 1//1 4//1 
v 2.99 1.95 -0.03
v 2.99 1.95 0.03
v 2.99 1.92 3.67394e-18
vn 1 0 0
f 5//2 6//2 7//2 
v 2.99 1.98 0
f 6//2 5//2 8//2 
vn 0 0 1
vn 0 1 0
f 1//3 8//4 4//4 
f 8//4 1//3 6//3 
vn 0 -1 0
f 7//5 1//3 3//5 
f 1//3 7//5 6//3 
vn 0 0 -1
f 7//5 2//6 5//6 
f 2//6 7//5 3//5 
f 8//4 2//6 4//4 
f 2//6 8//4 5//6 
g Group10 
usemtl Color_M00
v 2.99 2.98 -2
v 2.99 2.92 -2
v 2.96 2.95 -2
vn 0 0 -1
f 9//7 10//7 11//7 
v 3.02 2.95 -2
f 10//7 9//7 12//7 
v 2.99 2.92 2
v 2.99 2.98 2
v 2.96 2.95 2
vn 0 0 1
f 13//8 14//8 15//8 
v 3.02 2.95 2
f 14//8 13//8 16//8 
vn 0 1 0
vn 1 0 0
f 9//9 16//10 12//10 
f 16//10 9//9 14//9 
vn -1 0 0
f 15//11 9//9 11//11 
f 9//9 15//11 14//9 
vn 0 -1 0
f 15//11 10//12 13//12 
f 10//12 15//11 11//11 
f 16//10 10//12 12//10 
f 10//12 16//10 13//12 
g Group11 
usemtl Color_M00
v 2.99 0.98 0
v 2.99 0.92 0
v 2.96 0.95 0
vn 0 0 -1
f 17//13 18//13 19//13 
v 3.02 0.95 0
f 18//13 17//13 20//13 
v 2.99 0.92 2
v 2.99 0.98 2
v 2.96 0.95 2
vn 0 0 1
f 21//14 22//14 23//14 
v 3.02 0.95 2
f 22//14 21//14 24//14 
vn 0 1 0
vn 1 0 0
f 17//15 24//16 20//16 
f 24//16 17//15 22//15 
vn -1 0 0
f 23//17 17//15 19//17 
f 17//15 23//17 22//15 
vn 0 -1 0
f 23//17 18//18 21//18 
f 18//18 23//17 19//17 
f 24//16 18//18 20//16 
f 18//18 24//16 21//18 
g Group12 
usemtl Color_M00
v -0.01 1.98 6.63065e-34
v -0.01 1.92 -1.98919e-33
v 0.02 1.95 -1.08287e-17
vn 0 0 1
f 25//19 26//19 27//19 
v -0.04 1.95 1.08287e-17
f 26//19 25//19 28//19 
v -0.01 1.92 -2
v -0.01 1.98 -2
v 0.02 1.95 -2
vn 0 0 -1
f 29//20 30//20 31//20 
v -0.04 1.95 -2
f 30//20 29//20 32//20 
vn 0 1 0
vn -1 0 3.60956e-16
f 25//21 32//22 28//22 
f 32//22 25//21 30//21 
vn 1 0 -3.60956e-16
f 31//23 25//21 27//23 
f 25//21 31//23 30//21 
vn 0 -1 -3.60794e-32
f 31//23 26//24 29//24 
f 26//24 31//23 27//23 
f 32//22 26//24 28//22 
f 26//24 32//22 29//24 
g Group13 
usemtl Color_M00
v 2.99 2.95 2.03
v 2.99 2.95 1.97
v 2.99 2.98 2
vn 1 0 0
f 33//25 34//25 35//25 
v 2.99 2.92 2
f 34//25 33//25 36//25 
v -3.01 2.95 1.97
v -3.01 2.95 2.03
v -3.01 2.98 2
vn -1 0 0
f 37//26 38//26 39//26 
v -3.01 2.92 2
f 38//26 37//26 40//26 
vn 0 0 1
vn 0 -1 0
f 33//27 40//28 36//28 
f 40//28 33//27 38//27 
vn 0 1 0
f 39//29 33//27 35//29 
f 33//27 39//29 38//27 
vn 0 0 -1
f 39//29 34//30 37//30 
f 34//30 39//29 35//29 
f 40//28 34//30 36//28 
f 34//30 40//28 37//30 
g Group14 
usemtl Color_M00
v -3.01 0.95 -1.97
v -3.01 0.95 -2.03
v -3.01 0.92 -2
vn -1 0 0
f 41//31 42//31 43//31 
v -3.01 0.98 -2
f 42//31 41//31 44//31 
v -0.00999998 0.95 -2.03
v -0.00999998 0.95 -1.97
v -0.00999998 0.92 -2
vn 1 0 0
f 45//32 46//32 47//32 
v -0.00999998 0.98 -2
f 46//32 45//32 48//32 
vn 0 0 1
vn 0 1 0
f 41//33 48//34 44//34 
f 48//34 41//33 46//33 
vn 0 -1 0
f 47//35 41//33 43//35 
f 41//33 47//35 46//33 
vn 0 0 -1
f 47//35 42//36 45//36 
f 42//36 47//35 43//35 
f 48//34 42//36 44//34 
f 42//36 48//34 45//36 
g Group15 
usemtl Color_M00
v -0.01 0.95 -1.97
v -0.01 0.95 -2.03
v 0.02 0.95 -2
vn 0 -1 0
f 49//37 50//37 51//37 
v -0.04 0.95 -2
f 50//37 49//37 52//37 
v -0.01 1.95 -2.03
v -0.01 1.95 -1.97
v 0.02 1.95 -2
vn 0 1 0
f 53//38 54//38 55//38 
v -0.04 1.95 -2
f 54//38 53//38 56//38 
vn 0 0 1
vn -1 0 0
f 49//39 56//40 52//40 
f 56//40 49//39 54//39 
vn 1 0 0
f 55//41 49//39 51//41 
f 49//39 55//41 54//39 
vn 0 0 -1
f 55//41 50//42 53//42 
f 50//42 55//41 51//41 
f 56//40 50//42 52//40 
f 50//42 56//40 53//42 
g Group16 
usemtl Color_M00
v 2.99 1.95 -1.97
v 2.99 1.95 -2.03
v 3.02 1.95 -2
vn 0 -1 0
f 57//43 58//43 59//43 
v 2.96 1.95 -2
f 58//43 57//43 60//43 
v 2.99 2.95 -2.03
v 2.99 2.95 -1.97
v 3.02 2.95 -2
vn 0 1 0
f 61//44 62//44 63//44 
v 2.96 2.95 -2
f 62//44 61//44 64//44 
vn 0 0 1
vn -1 0 0
f 57//45 64//46 60//46 
f 64//46 57//45 62//45 
vn 1 0 0
f 63//47 57//45 59//47 
f 57//45 63//47 62//45 
vn 0 0 -1
f 63//47 58//48 61//48 
f 58//48 63//47 59//47 
f 64//46 58//48 60//46 
f 58//48 64//46 61//48 
g Group17 
usemtl Color_M00
v 2.99 0.95 0.03
v 2.99 0.95 -0.03
v 3.02 0.95 3.67394e-18
vn 0 -1 0
f 65//49 66//49 67//49 
v 2.96 0.95 0
f 66//49 65//49 68//49 
v 2.99 1.95 -0.03
v 2.99 1.95 0.03
v 3.02 1.95 3.67394e-18
vn 0 1 0
f 69//50 70//50 71//50 
v 2.96 1.95 0
f 70//50 69//50 72//50 
vn 0 0 1
vn -1 0 0
f 65//51 72//52 68//52 
f 72//52 65//51 70//51 
vn 1 0 0
f 71//53 65//51 67//53 
f 65//51 71//53 70//51 
vn 0 0 -1
f 71//53 66//54 69//54 
f 66//54 71//53 67//53 
f 72//52 66//54 68//52 
f 66//54 72//52 69//54 
g Group18 
usemtl Color_M00
v -3.01 0.95 0.03
v -3.01 0.95 -0.03
v -3.01 0.92 3.67394e-18
vn -1 0 0
f 73//55 74//55 75//55 
v -3.01 0.98 0
f 74//55 73//55 76//55 
v -0.00999998 0.95 -0.03
v -0.00999998 0.95 0.03
v -0.00999998 0.92 3.67394e-18
vn 1 0 0
f 77//56 78//56 79//56 
v -0.00999998 0.98 0
f 78//56 77//56 80//56 
vn 0 0 1
vn 0 1 0
f 73//57 80//58 76//58 
f 80//58 73//57 78//57 
vn 0 -1 0
f 79//59 73//57 75//59 
f 73//57 79//59 78//57 
vn 0 0 -1
f 79//59 74//60 77//60 
f 74//60 79//59 75//59 
f 80//58 74//60 76//58 
f 74//60 80//58 77//60 
g Group19 
usemtl Color_M00
v -0.01 0.98 0
v -0.01 0.92 0
v 0.02 0.95 0
vn 0 0 1
f 81//61 82//61 83//61 
v -0.04 0.95 0
f 82//61 81//61 84//61 
v -0.01 0.92 -2
v -0.01 0.98 -2
v 0.02 0.95 -2
vn 0 0 -1
f 85//62 86//62 87//62 
v -0.04 0.95 -2
f 86//62 85//62 88//62 
vn 0 1 0
vn -1 0 0
f 81//63 88//64 84//64 
f 88//64 81//63 86//63 
vn 1 0 0
f 87//65 81//63 83//65 
f 81//63 87//65 86//63 
vn 0 -1 0
f 87//65 82//66 85//66 
f 82//66 87//65 83//65 
f 88//64 82//66 84//64 
f 82//66 88//64 85//66 
g Group2 
usemtl Color_M00
v -3.01 1.95 2.03
v -3.01 1.95 1.97
v -3.01 1.92 2
vn -1 0 0
f 89//67 90//67 91//67 
v -3.01 1.98 2
f 90//67 89//67 92//67 
v -0.00999998 1.95 1.97
v -0.00999998 1.95 2.03
v -0.00999998 1.92 2
vn 1 0 0
f 93//68 94//68 95//68 
v -0.00999998 1.98 2
f 94//68 93//68 96//68 
vn 0 0 1
vn 0 1 0
f 89//69 96//70 92//70 
f 96//70 89//69 94//69 
vn 0 -1 0
f 95//71 89//69 91//71 
f 89//69 95//71 94//69 
vn 0 0 -1
f 95//71 90//72 93//72 
f 90//72 95//71 91//71 
f 96//70 90//72 92//70 
f 90//72 96//70 93//72 
g Group20 
usemtl Color_M00
v -3.01 2.98 -2
v -3.01 2.92 -2
v -3.04 2.95 -2
vn 0 0 -1
f 97//73 98//73 99//73 
v -2.98 2.95 -2
f 98//73 97//73 100//73 
v -3.01 2.92 2
v -3.01 2.98 2
v -3.04 2.95 2
vn 0 0 1
f 101//74 102//74 103//74 
v -2.98 2.95 2
f 102//74 101//74 104//74 
vn 0 1 0
vn 1 0 0
f 97//75 104//76 100//76 
f 104//76 97//75 102//75 
vn -1 0 0
f 103//77 97//75 99//77 
f 97//75 103//77 102//75 
vn 0 -1 0
f 103//77 98//78 101//78 
f 98//78 103//77 99//77 
f 104//76 98//78 100//76 
f 98//78 104//76 101//78 
g Group21 
usemtl Color_M00
v -3.01 1.98 2
v -3.01 1.92 2
v -2.98 1.95 2
vn 0 0 1
f 105//79 106//79 107//79 
v -3.04 1.95 2
f 106//79 105//79 108//79 
v -3.01 1.92 -1.52588e-08
v -3.01 1.98 -1.52588e-08
v -2.98 1.95 -1.52588e-08
vn 0 0 -1
f 109//80 110//80 111//80 
v -3.04 1.95 -1.52588e-08
f 110//80 109//80 112//80 
vn 0 1 0
vn -1 0 0
f 105//81 112//82 108//82 
f 112//82 105//81 110//81 
vn 1 0 0
f 111//83 105//81 107//83 
f 105//81 111//83 110//81 
vn 0 -1 0
f 111//83 106//84 109//84 
f 106//84 111//83 107//83 
f 112//82 106//84 108//82 
f 106//84 112//82 109//84 
g Group22 
usemtl Color_M00
v -0.01 1.95 -1.97
v -0.01 1.95 -2.03
v -0.01 1.92 -2
vn -1 0 0
f 113//85 114//85 115//85 
v -0.01 1.98 -2
f 114//85 113//85 116//85 
v 2.99 1.95 -2.03
v 2.99 1.95 -1.97
v 2.99 1.92 -2
vn 1 0 0
f 117//86 118//86 119//86 
v 2.99 1.98 -2
f 118//86 117//86 120//86 
vn 0 0 1
vn 0 1 0
f 113//87 120//88 116//88 
f 120//88 113//87 118//87 
vn 0 -1 0
f 119//89 113//87 115//89 
f 113//87 119//89 118//87 
vn 0 0 -1
f 119//89 114//90 117//90 
f 114//90 119//89 115//89 
f 120//88 114//90 116//88 
f 114//90 120//88 117//90 
g Group23 
usemtl Color_M00
v -3.01 1.95 0.03
v -3.01 1.95 -0.03
v -3.01 1.92 3.67394e-18
vn -1 0 0
f 121//91 122//91 123//91 
v -3.01 1.98 0
f 122//91 121//91 124//91 
v -0.00999998 1.95 -0.03
v -0.00999998 1.95 0.03
v -0.00999998 1.92 3.67394e-18
vn 1 0 0
f 125//92 126//92 127//92 
v -0.00999998 1.98 0
f 126//92 125//92 128//92 
vn 0 0 1
vn 0 1 0
f 121//93 128//94 124//94 
f 128//94 121//93 126//93 
vn 0 -1 0
f 127//95 121//93 123//95 
f 121//93 127//95 126//93 
vn 0 0 -1
f 127//95 122//96 125//96 
f 122//96 127//95 123//95 
f 128//94 122//96 124//94 
f 122//96 128//94 125//96 
g Group24 
usemtl Color_M00
v -3.01 2.95 -1.97
v -3.01 2.95 -2.03
v -3.04 2.95 -2
vn 0 1 0
f 129//97 130//97 131//97 
v -2.98 2.95 -2
f 130//97 129//97 132//97 
v -3.01 1.95 -2.03
v -3.01 1.95 -1.97
v -3.04 1.95 -2
vn 0 -1 0
f 133//98 134//98 135//98 
v -2.98 1.95 -2
f 134//98 133//98 136//98 
vn 0 0 1
vn 1 0 0
f 129//99 136//100 132//100 
f 136//100 129//99 134//99 
vn -1 0 0
f 135//101 129//99 131//101 
f 129//99 135//101 134//99 
vn 0 0 -1
f 135//101 130//102 133//102 
f 130//102 135//101 131//101 
f 136//100 130//102 132//100 
f 130//102 136//100 133//102 
g Group25 
usemtl Color_M00
v -3.01 0.98 -2
v -3.01 0.92 -2
v -3.04 0.95 -2
vn 0 0 -1
f 137//103 138//103 139//103 
v -2.98 0.95 -2
f 138//103 137//103 140//103 
v -3.01 0.92 1.52588e-08
v -3.01 0.98 1.52588e-08
v -3.04 0.95 1.52588e-08
vn 0 0 1
f 141//104 142//104 143//104 
v -2.98 0.95 1.52588e-08
f 142//104 141//104 144//104 
vn 0 1 0
vn 1 0 0
f 137//105 144//106 140//106 
f 144//106 137//105 142//105 
vn -1 0 0
f 143//107 137//105 139//107 
f 137//105 143//107 142//105 
vn 0 -1 0
f 143//107 138//108 141//108 
f 138//108 143//107 139//107 
f 144//106 138//108 140//106 
f 138//108 144//106 141//108 
g Group26 
usemtl Color_M00
v -0.01 0.95 0.03
v -0.01 0.95 -0.03
v -0.01 0.92 3.67394e-18
vn -1 0 0
f 145//109 146//109 147//109 
v -0.01 0.98 0
f 146//109 145//109 148//109 
v 2.99 0.95 -0.03
v 2.99 0.95 0.03
v 2.99 0.92 3.67394e-18
vn 1 0 0
f 149//110 150//110 151//110 
v 2.99 0.98 0
f 150//110 149//110 152//110 
vn 0 0 1
vn 0 1 0
f 145//111 152//112 148//112 
f 152//112 145//111 150//111 
vn 0 -1 0
f 151//113 145//111 147//113 
f 145//111 151//113 150//111 
vn 0 0 -1
f 151//113 146//114 149//114 
f 146//114 151//113 147//113 
f 152//112 146//114 148//112 
f 146//114 152//112 149//114 
g Group27 
usemtl Color_M00
v 2.99 1.98 -2
v 2.99 1.92 -2
v 2.96 1.95 -2
vn 0 0 -1
f 153//115 154//115 155//115 
v 3.02 1.95 -2
f 154//115 153//115 156//115 
v 2.99 1.92 1.52588e-08
v 2.99 1.98 1.52588e-08
v 2.96 1.95 1.52588e-08
vn 0 0 1
f 157//116 158//116 159//116 
v 3.02 1.95 1.52588e-08
f 158//116 157//116 160//116 
vn 0 1 0
vn 1 0 0
f 153//117 160//118 156//118 
f 160//118 153//117 158//117 
vn -1 0 0
f 159//119 153//117 155//119 
f 153//117 159//119 158//117 
vn 0 -1 0
f 159//119 154//120 157//120 
f 154//120 159//119 155//119 
f 160//118 154//120 156//118 
f 154//120 160//118 157//120 
g Group28 
usemtl Color_M00
v -3.01 2.95 2.03
v -3.01 2.95 1.97
v -3.04 2.95 2
vn 0 1 0
f 161//121 162//121 163//121 
v -2.98 2.95 2
f 162//121 161//121 164//121 
v -3.01 1.95 1.97
v -3.01 1.95 2.03
v -3.04 1.95 2
vn 0 -1 0
f 165//122 166//122 167//122 
v -2.98 1.95 2
f 166//122 165//122 168//122 
vn 0 0 1
vn 1 0 0
f 161//123 168//124 164//124 
f 168//124 161//123 166//123 
vn -1 0 0
f 167//125 161//123 163//125 
f 161//123 167//125 166//123 
vn 0 0 -1
f 167//125 162//126 165//126 
f 162//126 167//125 163//125 
f 168//124 162//126 164//124 
f 162//126 168//124 165//126 
g Group29 
usemtl Color_M00
v -0.01 1.95 2.03
v -0.01 1.95 1.97
v -0.04 1.95 2
vn 0 1 0
f 169//127 170//127 171//127 
v 0.02 1.95 2
f 170//127 169//127 172//127 
v -0.01 0.95 1.97
v -0.01 0.95 2.03
v -0.04 0.95 2
vn 0 -1 0
f 173//128 174//128 175//128 
v 0.02 0.95 2
f 174//128 173//128 176//128 
vn 0 0 1
vn 1 0 0
f 169//129 176//130 172//130 
f 176//130 169//129 174//129 
vn -1 0 0
f 175//131 169//129 171//131 
f 169//129 175//131 174//129 
vn 0 0 -1
f 175//131 170//132 173//132 
f 170//132 175//131 171//131 
f 176//130 170//132 172//130 
f 170//132 176//130 173//132 
g Group3 
usemtl Color_M00
v 2.99 0.95 2.03
v 2.99 0.95 1.97
v 3.02 0.95 2
vn 0 -1 0
f 177//133 178//133 179//133 
v 2.96 0.95 2
f 178//133 177//133 180//133 
v 2.99 2.95 1.97
v 2.99 2.95 2.03
v 3.02 2.95 2
vn 0 1 0
f 181//134 182//134 183//134 
v 2.96 2.95 2
f 182//134 181//134 184//134 
vn 0 0 1
vn -1 0 0
f 177//135 184//136 180//136 
f 184//136 177//135 182//135 
vn 1 0 0
f 183//137 177//135 179//137 
f 177//135 183//137 182//135 
vn 0 0 -1
f 183//137 178//138 181//138 
f 178//138 183//137 179//137 
f 184//136 178//138 180//136 
f 178//138 184//136 181//138 
g Group30 
usemtl Color_H08
v 2.99 2.95 -2
v -3.01 1.95 -2
v -3.01 2.95 -2
vn 0 0 -1
f 185//139 186//139 187//139 
v -3.01 0.95 -2
f 186//139 185//139 188//139 
v -0.01 1.95 -2
f 188//139 185//139 189//139 
v 2.99 1.95 -2
f 189//139 185//139 190//139 
v -0.01 0.95 -2
f 191//139 188//139 189//139 
v -0.01 1.95 2
v -3.01 2.95 2
v -3.01 1.95 2
vn 0 0 1
f 192//140 193//140 194//140 
v 2.99 2.95 2
f 193//140 192//140 195//140 
v -0.01 0.95 2
f 195//140 192//140 196//140 
v 2.99 0.95 2
f 195//140 196//140 197//140 
vn -9.62549e-16 1 0
f 193//141 185//141 187//141 
f 185//141 193//141 195//141 
v 2.99 1.95 0
vn 1 1.15506e-15 -5.77529e-16
f 185//142 198//142 190//142 
v 2.99 0.95 0
f 198//142 197//142 199//142 
f 197//142 198//142 195//142 
f 195//142 198//142 185//142 
v -0.01 0.95 0
vn -9.62549e-16 -1 0
f 197//143 200//143 199//143 
f 200//143 197//143 196//143 
v -3.01 1.95 0
vn -1 0 0
f 193//144 201//144 194//144 
f 201//144 193//144 186//144 
f 186//144 193//144 187//144 
v -3.01 0.95 0
f 201//144 188//144 202//144 
f 188//144 201//144 186//144 
f 200//140 201//140 202//140 
v -0.01 1.95 0
f 201//140 200//140 203//140 
vn -1 -7.21911e-15 0
f 192//145 200//145 196//145 
f 200//145 192//145 203//145 
f 192//143 201//143 203//143 
f 201//143 192//143 194//143 
f 200//143 188//143 191//143 
f 188//143 200//143 202//143 
vn 9.62549e-16 -1 -1.41199e-31
f 198//146 189//146 190//146 
f 189//146 198//146 203//146 
f 198//139 200//139 203//139 
f 200//139 198//139 199//139 
vn 1 7.58007e-15 -1.80478e-16
f 189//147 200//147 191//147 
f 200//147 189//147 203//147 
usemtl Color_M00
v -0.01 0.98 2
v -0.01 0.92 2
v 0.02 0.95 2
f 204//140 205//140 206//140 
v -0.04 0.95 2
f 205//140 204//140 207//140 
v -0.01 0.92 -1.52588e-08
v -0.01 0.98 -1.52588e-08
v 0.02 0.95 -1.52588e-08
f 208//139 209//139 210//139 
v -0.04 0.95 -1.52588e-08
f 209//139 208//139 211//139 
vn 0 1 0
f 204//148 211//144 207//144 
f 211//144 204//148 209//148 
vn 1 0 0
f 210//149 204//148 206//149 
f 204//148 210//149 209//148 
vn 0 -1 0
f 210//149 205//150 208//150 
f 205//150 210//149 206//149 
f 211//144 205//150 207//144 
f 205//150 211//144 208//150 
g Group4 
usemtl Color_M00
v -3.01 1.95 0.03
v -3.01 1.95 -0.03
v -3.04 1.95 3.67394e-18
vn 0 1 0
f 212//151 213//151 214//151 
v -2.98 1.95 0
f 213//151 212//151 215//151 
v -3.01 0.95 -0.03
v -3.01 0.95 0.03
v -3.04 0.95 3.67394e-18
vn 0 -1 0
f 216//152 217//152 218//152 
v -2.98 0.95 0
f 217//152 216//152 219//152 
vn 0 0 1
vn 1 0 0
f 212//153 219//154 215//154 
f 219//154 212//153 217//153 
vn -1 0 0
f 218//155 212//153 214//155 
f 212//153 218//155 217//153 
vn 0 0 -1
f 218//155 213//156 216//156 
f 213//156 218//155 214//155 
f 219//154 213//156 215//154 
f 213//156 219//154 216//156 
g Group5 
usemtl Color_M00
v -0.01 1.98 2
v -0.01 1.92 2
v 0.02 1.95 2
vn 0 0 1
f 220//157 221//157 222//157 
v -0.04 1.95 2
f 221//157 220//157 223//157 
v -0.01 1.92 -1.52588e-08
v -0.01 1.98 -1.52588e-08
v 0.02 1.95 -1.52588e-08
vn 0 0 -1
f 224//158 225//158 226//158 
v -0.04 1.95 -1.52588e-08
f 225//158 224//158 227//158 
vn 0 1 0
vn -1 0 0
f 220//159 227//160 223//160 
f 227//160 220//159 225//159 
vn 1 0 0
f 226//161 220//159 222//161 
f 220//159 226//161 225//159 
vn 0 -1 0
f 226//161 221//162 224//162 
f 221//162 226//161 222//161 
f 227//160 221//162 223//160 
f 221//162 227//160 224//162 
g Group6 
usemtl Color_M00
v 2.99 2.95 -1.97
v 2.99 2.95 -2.03
v 2.99 2.98 -2
vn 1 0 0
f 228//163 229//163 230//163 
v 2.99 2.92 -2
f 229//163 228//163 231//163 
v -3.01 2.95 -2.03
v -3.01 2.95 -1.97
v -3.01 2.98 -2
vn -1 0 0
f 232//164 233//164 234//164 
v -3.01 2.92 -2
f 233//164 232//164 235//164 
vn 0 0 1
vn 0 -1 0
f 228//165 235//166 231//166 
f 235//166 228//165 233//165 
vn 0 1 0
f 234//167 228//165 230//167 
f 228//165 234//167 233//165 
vn 0 0 -1
f 234//167 229//168 232//168 
f 229//168 234//167 230//167 
f 235//166 229//168 231//166 
f 229//168 235//166 232//168 
g Group7 
usemtl Color_M00
v -0.01 0.95 0.03
v -0.01 0.95 -0.03
v 0.02 0.95 3.67394e-18
vn 0 -1 0
f 236//169 237//169 238//169 
v -0.04 0.95 0
f 237//169 236//169 239//169 
v -0.01 1.95 -0.03
v -0.01 1.95 0.03
v 0.02 1.95 3.67394e-18
vn 0 1 0
f 240//170 241//170 242//170 
v -0.04 1.95 0
f 241//170 240//170 243//170 
vn 0 0 1
vn -1 0 0
f 236//171 243//172 239//172 
f 243//172 236//171 241//171 
vn 1 0 0
f 242//173 236//171 238//173 
f 236//171 242//173 241//171 
vn 0 0 -1
f 242//173 237//174 240//174 
f 237//174 242//173 238//173 
f 243//172 237//174 239//172 
f 237//174 243//172 240//174 
g Group8 
usemtl Color_M00
v -3.01 1.95 -1.97
v -3.01 1.95 -2.03
v -3.04 1.95 -2
vn 0 1 0
f 244//175 245//175 246//175 
v -2.98 1.95 -2
f 245//175 244//175 247//175 
v -3.01 0.95 -2.03
v -3.01 0.95 -1.97
v -3.04 0.95 -2
vn 0 -1 0
f 248//176 249//176 250//176 
v -2.98 0.95 -2
f 249//176 248//176 251//176 
vn 0 0 1
vn 1 0 0
f 244//177 251//178 247//178 
f 251//178 244//177 249//177 
vn -1 0 0
f 250//179 244//177 246//179 
f 244//177 250//179 249//177 
vn 0 0 -1
f 250//179 245//180 248//180 
f 245//180 250//179 246//179 
f 251//178 245//180 247//178 
f 245//180 251//178 248//180 
g Group9 
usemtl Color_M00
v -0.01 0.95 2.03
v -0.01 0.95 1.97
v -0.01 0.92 2
vn -1 0 0
f 252//181 253//181 254//181 
v -0.01 0.98 2
f 253//181 252//181 255//181 
v 2.99 0.95 1.97
v 2.99 0.95 2.03
v 2.99 0.92 2
vn 1 0 0
f 256//182 257//182 258//182 
v 2.99 0.98 2
f 257//182 256//182 259//182 
vn 0 0 1
vn 0 1 0
f 252//183 259//184 255//184 
f 259//184 252//183 257//183 
vn 0 -1 0
f 258//185 252//183 254//185 
f 252//183 258//185 257//183 
vn 0 0 -1
f 258//185 253//186 256//186 
f 253//186 258//185 254//185 
f 259//184 253//186 255//184 
f 253//186 259//184 256//186 
