mtllib p132d.mtl
s 1
o 
g Group1 
usemtl Layer_Layer0
v -1.48 0.44 1.76
v -1.48 0.4 1.76
v -1.46 0.42 1.76
vn 0 0 1
f 1//1 2//1 3//1 
v -1.5 0.42 1.76
f 2//1 1//1 4//1 
v -1.48 0.4 -2.24
v -1.48 0.44 -2.24
v -1.46 0.42 -2.24
vn 0 0 -1
f 5//2 6//2 7//2 
v -1.5 0.42 -2.24
f 6//2 5//2 8//2 
vn 0 1 0
vn -1 0 0
f 1//3 8//4 4//4 
f 8//4 1//3 6//3 
vn 1 0 0
f 7//5 1//3 3//5 
f 1//3 7//5 6//3 
vn 0 -1 0
f 7//5 2//6 5//6 
f 2//6 7//5 3//5 
f 8//4 2//6 4//4 
f 2//6 8//4 5//6 
g Group10 
usemtl Layer_Layer0
v -1.48 0.42 -2.22
v -1.48 0.42 -2.26
v -1.48 0.4 -2.24
vn -1 0 0
f 9//7 10//7 11//7 
v -1.48 0.44 -2.24
f 10//7 9//7 12//7 
v 1.52 0.42 -2.26
v 1.52 0.42 -2.22
v 1.52 0.4 -2.24
vn 1 0 0
f 13//8 14//8 15//8 
v 1.52 0.44 -2.24
f 14//8 13//8 16//8 
vn 0 0 1
vn 0 1 0
f 9//9 16//10 12//10 
f 16//10 9//9 14//9 
vn 0 -1 0
f 15//11 9//9 11//11 
f 9//9 15//11 14//9 
vn 0 0 -1
f 15//11 10//12 13//12 
f 10//12 15//11 11//11 
f 16//10 10//12 12//10 
f 10//12 16//10 13//12 
g Group11 
usemtl Layer_Layer0
v 1.52 -0.58 0.78
v 1.52 -0.58 0.74
v 1.54 -0.58 0.76
vn 0 -1 0
f 17//13 18//13 19//13 
v 1.5 -0.58 0.76
f 18//13 17//13 20//13 
v 1.52 0.42 0.74
v 1.52 0.42 0.78
v 1.54 0.42 0.76
vn 0 1 0
f 21//14 22//14 23//14 
v 1.5 0.42 0.76
f 22//14 21//14 24//14 
vn 0 0 1
vn -1 0 0
f 17//15 24//16 20//16 
f 24//16 17//15 22//15 
vn 1 0 0
f 23//17 17//15 19//17 
f 17//15 23//17 22//15 
vn 0 0 -1
f 23//17 18//18 21//18 
f 18//18 23//17 19//17 
f 24//16 18//18 20//16 
f 18//18 24//16 21//18 
g Group12 
usemtl Layer_Layer0
v -1.48 -1.58 -2.22
v -1.48 -1.58 -2.26
v -1.46 -1.58 -2.24
vn 0 -1 0
f 25//19 26//19 27//19 
v -1.5 -1.58 -2.24
f 26//19 25//19 28//19 
v -1.48 0.42 -2.26
v -1.48 0.42 -2.22
v -1.46 0.42 -2.24
vn 0 1 0
f 29//20 30//20 31//20 
v -1.5 0.42 -2.24
f 30//20 29//20 32//20 
vn 0 0 1
vn -1 0 0
f 25//21 32//22 28//22 
f 32//22 25//21 30//21 
vn 1 0 0
f 31//23 25//21 27//23 
f 25//21 31//23 30//21 
vn 0 0 -1
f 31//23 26//24 29//24 
f 26//24 31//23 27//23 
f 32//22 26//24 28//22 
f 26//24 32//22 29//24 
g Group13 
usemtl Layer_Layer0
v 0.52 0.42 1.78
v 0.52 0.42 1.74
v 0.54 0.42 1.76
vn 0 -1 0
f 33//25 34//25 35//25 
v 0.5 0.42 1.76
f 34//25 33//25 36//25 
v 0.52 1.42 1.74
v 0.52 1.42 1.78
v 0.54 1.42 1.76
vn 0 1 0
f 37//26 38//26 39//26 
v 0.5 1.42 1.76
f 38//26 37//26 40//26 
vn 0 0 1
vn -1 0 0
f 33//27 40//28 36//28 
f 40//28 33//27 38//27 
vn 1 0 0
f 39//29 33//27 35//29 
f 33//27 39//29 38//27 
vn 0 0 -1
f 39//29 34//30 37//30 
f 34//30 39//29 35//29 
f 40//28 34//30 36//28 
f 34//30 40//28 37//30 
g Group14 
usemtl Layer_Layer0
v 1.52 0.44 0.76
v 1.52 0.4 0.76
v 1.54 0.42 0.76
vn 0 0 1
f 41//31 42//31 43//31 
v 1.5 0.42 0.76
f 42//31 41//31 44//31 
v 1.52 0.4 -2.24
v 1.52 0.44 -2.24
v 1.54 0.42 -2.24
vn 0 0 -1
f 45//32 46//32 47//32 
v 1.5 0.42 -2.24
f 46//32 45//32 48//32 
vn 0 1 0
vn -1 0 0
f 41//33 48//34 44//34 
f 48//34 41//33 46//33 
vn 1 0 0
f 47//35 41//33 43//35 
f 41//33 47//35 46//33 
vn 0 -1 0
f 47//35 42//36 45//36 
f 42//36 47//35 43//35 
f 48//34 42//36 44//34 
f 42//36 48//34 45//36 
g Group15 
usemtl Layer_Layer0
v 0.52 1.42 1.78
v 0.52 1.42 1.74
v 0.52 1.44 1.76
vn 1 0 0
f 49//37 50//37 51//37 
v 0.52 1.4 1.76
f 50//37 49//37 52//37 
v -2.48 1.42 1.74
v -2.48 1.42 1.78
v -2.48 1.44 1.76
vn -1 0 0
f 53//38 54//38 55//38 
v -2.48 1.4 1.76
f 54//38 53//38 56//38 
vn 0 0 1
vn 0 -1 0
f 49//39 56//40 52//40 
f 56//40 49//39 54//39 
vn 0 1 0
f 55//41 49//39 51//41 
f 49//39 55//41 54//39 
vn 0 0 -1
f 55//41 50//42 53//42 
f 50//42 55//41 51//41 
f 56//40 50//42 52//40 
f 50//42 56//40 53//42 
g Group16 
usemtl Layer_Layer0
v 1.52 -0.56 0.76
v 1.52 -0.6 0.76
v 1.54 -0.58 0.76
vn 0 0 1
f 57//43 58//43 59//43 
v 1.5 -0.58 0.76
f 58//43 57//43 60//43 
v 1.52 -0.6 -2.24
v 1.52 -0.56 -2.24
v 1.54 -0.58 -2.24
vn 0 0 -1
f 61//44 62//44 63//44 
v 1.5 -0.58 -2.24
f 62//44 61//44 64//44 
vn 0 1 0
vn -1 0 0
f 57//45 64//46 60//46 
f 64//46 57//45 62//45 
vn 1 0 0
f 63//47 57//45 59//47 
f 57//45 63//47 62//45 
vn 0 -1 0
f 63//47 58//48 61//48 
f 58//48 63//47 59//47 
f 64//46 58//48 60//46 
f 58//48 64//46 61//48 
g Group17 
usemtl Layer_Layer0
v 1.52 0.42 0.78
v 1.52 0.42 0.74
v 1.52 0.44 0.76
vn 1 0 0
f 65//49 66//49 67//49 
v 1.52 0.4 0.76
f 66//49 65//49 68//49 
v 0.52 0.42 0.74
v 0.52 0.42 0.78
v 0.52 0.44 0.76
vn -1 0 0
f 69//50 70//50 71//50 
v 0.52 0.4 0.76
f 70//50 69//50 72//50 
vn 0 0 1
vn 0 -1 0
f 65//51 72//52 68//52 
f 72//52 65//51 70//51 
vn 0 1 0
f 71//53 65//51 67//53 
f 65//51 71//53 70//51 
vn 0 0 -1
f 71//53 66//54 69//54 
f 66//54 71//53 67//53 
f 72//52 66//54 68//52 
f 66//54 72//52 69//54 
g Group18 
usemtl Layer_Layer0
v 0.52 0.44 1.76
v 0.52 0.4 1.76
v 0.54 0.42 1.76
vn 0 0 1
f 73//55 74//55 75//55 
v 0.5 0.42 1.76
f 74//55 73//55 76//55 
v 0.52 0.4 0.76
v 0.52 0.44 0.76
v 0.54 0.42 0.76
vn 0 0 -1
f 77//56 78//56 79//56 
v 0.5 0.42 0.76
f 78//56 77//56 80//56 
vn 0 1 0
vn -1 0 0
f 73//57 80//58 76//58 
f 80//58 73//57 78//57 
vn 1 0 0
f 79//59 73//57 75//59 
f 73//57 79//59 78//57 
vn 0 -1 0
f 79//59 74//60 77//60 
f 74//60 79//59 75//59 
f 80//58 74//60 76//58 
f 74//60 80//58 77//60 
g Group19 
usemtl Layer_Layer0
v 1.52 -0.58 0.78
v 1.52 -0.58 0.74
v 1.52 -0.6 0.76
vn -1 0 0
f 81//61 82//61 83//61 
v 1.52 -0.56 0.76
f 82//61 81//61 84//61 
v 2.52 -0.58 0.74
v 2.52 -0.58 0.78
v 2.52 -0.6 0.76
vn 1 0 0
f 85//62 86//62 87//62 
v 2.52 -0.56 0.76
f 86//62 85//62 88//62 
vn 0 0 1
vn 0 1 0
f 81//63 88//64 84//64 
f 88//64 81//63 86//63 
vn 0 -1 0
f 87//65 81//63 83//65 
f 81//63 87//65 86//63 
vn 0 0 -1
f 87//65 82//66 85//66 
f 82//66 87//65 83//65 
f 88//64 82//66 84//64 
f 82//66 88//64 85//66 
g Group2 
usemtl Layer_Layer0
v 1.52 -0.58 -2.22
v 1.52 -0.58 -2.26
v 1.52 -0.6 -2.24
vn -1 0 0
f 89//67 90//67 91//67 
v 1.52 -0.56 -2.24
f 90//67 89//67 92//67 
v 2.52 -0.58 -2.26
v 2.52 -0.58 -2.22
v 2.52 -0.6 -2.24
vn 1 0 0
f 93//68 94//68 95//68 
v 2.52 -0.56 -2.24
f 94//68 93//68 96//68 
vn 0 0 1
vn 0 1 0
f 89//69 96//70 92//70 
f 96//70 89//69 94//69 
vn 0 -1 0
f 95//71 89//69 91//71 
f 89//69 95//71 94//69 
vn 0 0 -1
f 95//71 90//72 93//72 
f 90//72 95//71 91//71 
f 96//70 90//72 92//70 
f 90//72 96//70 93//72 
g Group20 
usemtl Layer_Layer0
v 2.52 1.44 -2.24
v 2.52 1.4 -2.24
v 2.5 1.42 -2.24
vn 0 0 -1
f 97//73 98//73 99//73 
v 2.54 1.42 -2.24
f 98//73 97//73 100//73 
v 2.52 1.4 0.76
v 2.52 1.44 0.76
v 2.5 1.42 0.76
vn 0 0 1
f 101//74 102//74 103//74 
v 2.54 1.42 0.76
f 102//74 101//74 104//74 
vn 0 1 0
vn 1 0 0
f 97//75 104//76 100//76 
f 104//76 97//75 102//75 
vn -1 0 0
f 103//77 97//75 99//77 
f 97//75 103//77 102//75 
vn 0 -1 0
f 103//77 98//78 101//78 
f 98//78 103//77 99//77 
f 104//76 98//78 100//76 
f 98//78 104//76 101//78 
g Group21 
usemtl Layer_Layer0
v -1.48 0.42 1.78
v -1.48 0.42 1.74
v -1.48 0.4 1.76
vn -1 0 0
f 105//79 106//79 107//79 
v -1.48 0.44 1.76
f 106//79 105//79 108//79 
v 0.52 0.42 1.74
v 0.52 0.42 1.78
v 0.52 0.4 1.76
vn 1 0 0
f 109//80 110//80 111//80 
v 0.52 0.44 1.76
f 110//80 109//80 112//80 
vn 0 0 1
vn 0 1 0
f 105//81 112//82 108//82 
f 112//82 105//81 110//81 
vn 0 -1 0
f 111//83 105//81 107//83 
f 105//81 111//83 110//81 
vn 0 0 -1
f 111//83 106//84 109//84 
f 106//84 111//83 107//83 
f 112//82 106//84 108//82 
f 106//84 112//82 109//84 
g Group22 
usemtl Layer_Layer0
v -2.48 1.42 1.78
v -2.48 1.42 1.74
v -2.5 1.42 1.76
vn 0 1 0
f 113//85 114//85 115//85 
v -2.46 1.42 1.76
f 114//85 113//85 116//85 
v -2.48 -1.58 1.74
v -2.48 -1.58 1.78
v -2.5 -1.58 1.76
vn 0 -1 0
f 117//86 118//86 119//86 
v -2.46 -1.58 1.76
f 118//86 117//86 120//86 
vn 0 0 1
vn 1 0 0
f 113//87 120//88 116//88 
f 120//88 113//87 118//87 
vn -1 0 0
f 119//89 113//87 115//89 
f 113//87 119//89 118//87 
vn 0 0 -1
f 119//89 114//90 117//90 
f 114//90 119//89 115//89 
f 120//88 114//90 116//88 
f 114//90 120//88 117//90 
g Group23 
usemtl Layer_Layer0
v -2.48 -1.58 1.78
v -2.48 -1.58 1.74
v -2.48 -1.6 1.76
vn -1 0 0
f 121//91 122//91 123//91 
v -2.48 -1.56 1.76
f 122//91 121//91 124//91 
v -1.48 -1.58 1.74
v -1.48 -1.58 1.78
v -1.48 -1.6 1.76
vn 1 0 0
f 125//92 126//92 127//92 
v -1.48 -1.56 1.76
f 126//92 125//92 128//92 
vn 0 0 1
vn 0 1 0
f 121//93 128//94 124//94 
f 128//94 121//93 126//93 
vn 0 -1 0
f 127//95 121//93 123//95 
f 121//93 127//95 126//93 
vn 0 0 -1
f 127//95 122//96 125//96 
f 122//96 127//95 123//95 
f 128//94 122//96 124//94 
f 122//96 128//94 125//96 
g Group24 
usemtl Layer_Layer0
v -2.48 -1.56 -2.24
v -2.48 -1.6 -2.24
v -2.5 -1.58 -2.24
vn 0 0 -1
f 129//97 130//97 131//97 
v -2.46 -1.58 -2.24
f 130//97 129//97 132//97 
v -2.48 -1.6 1.76
v -2.48 -1.56 1.76
v -2.5 -1.58 1.76
vn 0 0 1
f 133//98 134//98 135//98 
v -2.46 -1.58 1.76
f 134//98 133//98 136//98 
vn 0 1 0
vn 1 0 0
f 129//99 136//100 132//100 
f 136//100 129//99 134//99 
vn -1 0 0
f 135//101 129//99 131//101 
f 129//99 135//101 134//99 
vn 0 -1 0
f 135//101 130//102 133//102 
f 130//102 135//101 131//101 
f 136//100 130//102 132//100 
f 130//102 136//100 133//102 
g Group25 
usemtl Layer_Layer0
v 0.52 1.44 1.76
v 0.52 1.4 1.76
v 0.54 1.42 1.76
vn 0 0 1
f 137//103 138//103 139//103 
v 0.5 1.42 1.76
f 138//103 137//103 140//103 
v 0.52 1.4 0.76
v 0.52 1.44 0.76
v 0.54 1.42 0.76
vn 0 0 -1
f 141//104 142//104 143//104 
v 0.5 1.42 0.76
f 142//104 141//104 144//104 
vn 0 1 0
vn -1 0 0
f 137//105 144//106 140//106 
f 144//106 137//105 142//105 
vn 1 0 0
f 143//107 137//105 139//107 
f 137//105 143//107 142//105 
vn 0 -1 0
f 143//107 138//108 141//108 
f 138//108 143//107 139//107 
f 144//106 138//108 140//106 
f 138//108 144//106 141//108 
g Group26 
usemtl Layer_Layer0
v 2.52 1.42 -2.22
v 2.52 1.42 -2.26
v 2.52 1.44 -2.24
vn 1 0 0
f 145//109 146//109 147//109 
v 2.52 1.4 -2.24
f 146//109 145//109 148//109 
v -2.48 1.42 -2.26
v -2.48 1.42 -2.22
v -2.48 1.44 -2.24
vn -1 0 0
f 149//110 150//110 151//110 
v -2.48 1.4 -2.24
f 150//110 149//110 152//110 
vn 0 0 1
vn 0 -1 0
f 145//111 152//112 148//112 
f 152//112 145//111 150//111 
vn 0 1 0
f 151//113 145//111 147//113 
f 145//111 151//113 150//111 
vn 0 0 -1
f 151//113 146//114 149//114 
f 146//114 151//113 147//113 
f 152//112 146//114 148//112 
f 146//114 152//112 149//114 
g Group27 
usemtl Layer_Layer0
v 0.52 1.42 0.78
v 0.52 1.42 0.74
v 0.52 1.4 0.76
vn -1 0 0
f 153//115 154//115 155//115 
v 0.52 1.44 0.76
f 154//115 153//115 156//115 
v 2.52 1.42 0.74
v 2.52 1.42 0.78
v 2.52 1.4 0.76
vn 1 0 0
f 157//116 158//116 159//116 
v 2.52 1.44 0.76
f 158//116 157//116 160//116 
vn 0 0 1
vn 0 1 0
f 153//117 160//118 156//118 
f 160//118 153//117 158//117 
vn 0 -1 0
f 159//119 153//117 155//119 
f 153//117 159//119 158//117 
vn 0 0 -1
f 159//119 154//120 157//120 
f 154//120 159//119 155//119 
f 160//118 154//120 156//118 
f 154//120 160//118 157//120 
g Group28 
usemtl Layer_Layer0
v 2.52 -0.58 -2.22
v 2.52 -0.58 -2.26
v 2.54 -0.58 -2.24
vn 0 -1 0
f 161//121 162//121 163//121 
v 2.5 -0.58 -2.24
f 162//121 161//121 164//121 
v 2.52 1.42 -2.26
v 2.52 1.42 -2.22
v 2.54 1.42 -2.24
vn 0 1 0
f 165//122 166//122 167//122 
v 2.5 1.42 -2.24
f 166//122 165//122 168//122 
vn 0 0 1
vn -1 0 0
f 161//123 168//124 164//124 
f 168//124 161//123 166//123 
vn 1 0 0
f 167//125 161//123 163//125 
f 161//123 167//125 166//123 
vn 0 0 -1
f 167//125 162//126 165//126 
f 162//126 167//125 163//125 
f 168//124 162//126 164//124 
f 162//126 168//124 165//126 
g Group29 
usemtl Layer_Layer0
v 2.52 -0.58 0.78
v 2.52 -0.58 0.74
v 2.54 -0.58 0.76
vn 0 -1 0
f 169//127 170//127 171//127 
v 2.5 -0.58 0.76
f 170//127 169//127 172//127 
v 2.52 1.42 0.74
v 2.52 1.42 0.78
v 2.54 1.42 0.76
vn 0 1 0
f 173//128 174//128 175//128 
v 2.5 1.42 0.76
f 174//128 173//128 176//128 
vn 0 0 1
vn -1 0 0
f 169//129 176//130 172//130 
f 176//130 169//129 174//129 
vn 1 0 0
f 175//131 169//129 171//131 
f 169//129 175//131 174//129 
vn 0 0 -1
f 175//131 170//132 173//132 
f 170//132 175//131 171//131 
f 176//130 170//132 172//130 
f 170//132 176//130 173//132 
g Group3 
usemtl Layer_Layer0
v -1.48 -1.58 1.78
v -1.48 -1.58 1.74
v -1.46 -1.58 1.76
vn 0 -1 0
f 177//133 178//133 179//133 
v -1.5 -1.58 1.76
f 178//133 177//133 180//133 
v -1.48 0.42 1.74
v -1.48 0.42 1.78
v -1.46 0.42 1.76
vn 0 1 0
f 181//134 182//134 183//134 
v -1.5 0.42 1.76
f 182//134 181//134 184//134 
vn 0 0 1
vn -1 0 0
f 177//135 184//136 180//136 
f 184//136 177//135 182//135 
vn 1 0 0
f 183//137 177//135 179//137 
f 177//135 183//137 182//135 
vn 0 0 -1
f 183//137 178//138 181//138 
f 178//138 183//137 179//137 
f 184//136 178//138 180//136 
f 178//138 184//136 181//138 
g Group30 
usemtl Color_F08
v -2.48 1.42 -2.24
v -1.48 0.42 -2.24
v -2.48 -1.58 -2.24
vn -4.90187e-17 5.5703e-17 -1
f 185//139 186//139 187//139 
v 2.52 1.42 -2.24
f 186//139 185//139 188//139 
v 1.52 0.42 -2.24
f 186//139 188//139 189//139 
v 1.52 -0.58 -2.24
f 189//139 188//139 190//139 
v 2.52 -0.58 -2.24
f 190//139 188//139 191//139 
v -1.48 -1.58 -2.24
f 192//139 187//139 186//139 
v -1.48 -1.58 1.76
v -2.48 1.42 1.76
v -2.48 -1.58 1.76
vn 0 0 1
f 193//140 194//140 195//140 
v -1.48 0.42 1.76
f 194//140 193//140 196//140 
v 0.52 1.42 1.76
f 194//140 196//140 197//140 
v 0.52 0.42 1.76
f 197//140 196//140 198//140 
vn 0 -1 0
f 193//141 187//141 192//141 
f 187//141 193//141 195//141 
vn -1 0 0
f 194//142 187//142 195//142 
f 187//142 194//142 185//142 
vn -9.24399e-17 1 -1.32057e-16
f 194//143 188//143 185//143 
v 0.52 1.42 0.76
f 188//143 194//143 199//143 
f 199//143 194//143 197//143 
v 2.52 1.42 0.76
f 200//143 188//143 199//143 
v 2.52 -0.58 0.76
vn 1 0 0
f 188//144 201//144 191//144 
f 201//144 188//144 200//144 
v 1.52 0.42 0.76
v 1.52 -0.58 0.76
f 202//142 190//142 203//142 
f 190//142 202//142 189//142 
f 202//141 186//141 189//141 
v 0.52 0.42 0.76
f 186//141 202//141 204//141 
f 186//141 204//141 196//141 
f 196//141 204//141 198//141 
f 186//144 193//144 192//144 
f 193//144 186//144 196//144 
f 201//141 190//141 191//141 
f 190//141 201//141 203//141 
f 201//140 202//140 203//140 
f 202//140 199//140 204//140 
f 199//140 202//140 200//140 
f 200//140 202//140 201//140 
f 199//144 198//144 204//144 
f 198//144 199//144 197//144 
usemtl Layer_Layer0
v 0.52 0.42 0.78
v 0.52 0.42 0.74
v 0.54 0.42 0.76
f 205//141 206//141 207//141 
v 0.5 0.42 0.76
f 206//141 205//141 208//141 
v 0.52 1.42 0.74
v 0.52 1.42 0.78
v 0.54 1.42 0.76
vn 0 1 0
f 209//145 210//145 211//145 
v 0.5 1.42 0.76
f 210//145 209//145 212//145 
f 205//140 212//142 208//142 
f 212//142 205//140 210//140 
f 211//144 205//140 207//144 
f 205//140 211//144 210//140 
vn 0 0 -1
f 211//144 206//146 209//146 
f 206//146 211//144 207//144 
f 212//142 206//146 208//142 
f 206//146 212//142 209//146 
g Group4 
usemtl Layer_Layer0
v -1.48 -1.56 1.76
v -1.48 -1.6 1.76
v -1.46 -1.58 1.76
vn 0 0 1
f 213//147 214//147 215//147 
v -1.5 -1.58 1.76
f 214//147 213//147 216//147 
v -1.48 -1.6 -2.24
v -1.48 -1.56 -2.24
v -1.46 -1.58 -2.24
vn 0 0 -1
f 217//148 218//148 219//148 
v -1.5 -1.58 -2.24
f 218//148 217//148 220//148 
vn 0 1 0
vn -1 0 0
f 213//149 220//150 216//150 
f 220//150 213//149 218//149 
vn 1 0 0
f 219//151 213//149 215//151 
f 213//149 219//151 218//149 
vn 0 -1 0
f 219//151 214//152 217//152 
f 214//152 219//151 215//151 
f 220//150 214//152 216//150 
f 214//152 220//150 217//152 
g Group5 
usemtl Layer_Layer0
v -2.48 -1.58 -2.22
v -2.48 -1.58 -2.26
v -2.48 -1.6 -2.24
vn -1 0 0
f 221//153 222//153 223//153 
v -2.48 -1.56 -2.24
f 222//153 221//153 224//153 
v -1.48 -1.58 -2.26
v -1.48 -1.58 -2.22
v -1.48 -1.6 -2.24
vn 1 0 0
f 225//154 226//154 227//154 
v -1.48 -1.56 -2.24
f 226//154 225//154 228//154 
vn 0 0 1
vn 0 1 0
f 221//155 228//156 224//156 
f 228//156 221//155 226//155 
vn 0 -1 0
f 227//157 221//155 223//157 
f 221//155 227//157 226//155 
vn 0 0 -1
f 227//157 222//158 225//158 
f 222//158 227//157 223//157 
f 228//156 222//158 224//156 
f 222//158 228//156 225//158 
g Group6 
usemtl Layer_Layer0
v -2.48 1.44 -2.24
v -2.48 1.4 -2.24
v -2.5 1.42 -2.24
vn 0 0 -1
f 229//159 230//159 231//159 
v -2.46 1.42 -2.24
f 230//159 229//159 232//159 
v -2.48 1.4 1.76
v -2.48 1.44 1.76
v -2.5 1.42 1.76
vn 0 0 1
f 233//160 234//160 235//160 
v -2.46 1.42 1.76
f 234//160 233//160 236//160 
vn 0 1 0
vn 1 0 0
f 229//161 236//162 232//162 
f 236//162 229//161 234//161 
vn -1 0 0
f 235//163 229//161 231//163 
f 229//161 235//163 234//161 
vn 0 -1 0
f 235//163 230//164 233//164 
f 230//164 235//163 231//163 
f 236//162 230//164 232//162 
f 230//164 236//162 233//164 
g Group7 
usemtl Layer_Layer0
v 2.52 -0.56 0.76
v 2.52 -0.6 0.76
v 2.54 -0.58 0.76
vn 0 0 1
f 237//165 238//165 239//165 
v 2.5 -0.58 0.76
f 238//165 237//165 240//165 
v 2.52 -0.6 -2.24
v 2.52 -0.56 -2.24
v 2.54 -0.58 -2.24
vn 0 0 -1
f 241//166 242//166 243//166 
v 2.5 -0.58 -2.24
f 242//166 241//166 244//166 
vn 0 1 0
vn -1 0 0
f 237//167 244//168 240//168 
f 244//168 237//167 242//167 
vn 1 0 0
f 243//169 237//167 239//169 
f 237//167 243//169 242//167 
vn 0 -1 0
f 243//169 238//170 241//170 
f 238//170 243//169 239//169 
f 244//168 238//170 240//168 
f 238//170 244//168 241//170 
g Group8 
usemtl Layer_Layer0
v -2.48 1.42 -2.22
v -2.48 1.42 -2.26
v -2.5 1.42 -2.24
vn 0 1 0
f 245//171 246//171 247//171 
v -2.46 1.42 -2.24
f 246//171 245//171 248//171 
v -2.48 -1.58 -2.26
v -2.48 -1.58 -2.22
v -2.5 -1.58 -2.24
vn 0 -1 0
f 249//172 250//172 251//172 
v -2.46 -1.58 -2.24
f 250//172 249//172 252//172 
vn 0 0 1
vn 1 0 0
f 245//173 252//174 248//174 
f 252//174 245//173 250//173 
vn -1 0 0
f 251//175 245//173 247//175 
f 245//173 251//175 250//173 
vn 0 0 -1
f 251//175 246//176 249//176 
f 246//176 251//175 247//175 
f 252//174 246//176 248//174 
f 246//176 252//174 249//176 
g Group9 
usemtl Layer_Layer0
v 1.52 0.42 -2.22
v 1.52 0.42 -2.26
v 1.5 0.42 -2.24
vn 0 1 0
f 253//177 254//177 255//177 
v 1.54 0.42 -2.24
f 254//177 253//177 256//177 
v 1.52 -0.58 -2.26
v 1.52 -0.58 -2.22
v 1.5 -0.58 -2.24
vn 0 -1 0
f 257//178 258//178 259//178 
v 1.54 -0.58 -2.24
f 258//178 257//178 260//178 
vn 0 0 1
vn 1 0 0
f 253//179 260//180 256//180 
f 260//180 253//179 258//179 
vn -1 0 0
f 259//181 253//179 255//181 
f 253//179 259//181 258//179 
vn 0 0 -1
f 259//181 254//182 257//182 
f 254//182 259//181 255//181 
f 260//180 254//182 256//180 
f 254//182 260//180 257//182 
