mtllib p133d.mtl
s 1
o 
g Group1 
usemtl Layer_Layer0
v 3.88971 -2.38234 -1.47
v 3.88971 -2.42234 -1.47
v 3.86971 -2.40234 -1.47
vn 0 0 -1
f 1//1 2//1 3//1 
v 3.90971 -2.40234 -1.47
f 2//1 1//1 4//1 
v 3.88971 -2.42234 1.53
v 3.88971 -2.38234 1.53
v 3.86971 -2.40234 1.53
vn 0 0 1
f 5//2 6//2 7//2 
v 3.90971 -2.40234 1.53
f 6//2 5//2 8//2 
vn 0 1 0
vn 1 0 0
f 1//3 8//4 4//4 
f 8//4 1//3 6//3 
vn -1 0 0
f 7//5 1//3 3//5 
f 1//3 7//5 6//3 
vn 0 -1 0
f 7//5 2//6 5//6 
f 2//6 7//5 3//5 
f 8//4 2//6 4//4 
f 2//6 8//4 5//6 
g Group10 
usemtl Layer_Layer0
v -1.11029 -2.40234 -1.45
v -1.11029 -2.40234 -1.49
v -1.09172 -2.39492 -1.47
vn 0.371391 -0.928477 0
f 9//7 10//7 11//7 
v -1.12886 -2.40977 -1.47
f 10//7 9//7 12//7 
v -3.11029 2.59766 -1.49
v -3.11029 2.59766 -1.45
v -3.09172 2.60508 -1.47
vn -0.371391 0.928477 0
f 13//8 14//8 15//8 
v -3.12886 2.59023 -1.47
f 14//8 13//8 16//8 
vn 0 0 1
vn -0.928477 -0.371391 0
f 9//9 16//10 12//10 
f 16//10 9//9 14//9 
vn 0.928477 0.371391 0
f 15//11 9//9 11//11 
f 9//9 15//11 14//9 
vn 0 0 -1
f 15//11 10//12 13//12 
f 10//12 15//11 11//11 
f 16//10 10//12 12//10 
f 10//12 16//10 13//12 
g Group11 
usemtl Layer_Layer0
v 3.88971 2.59766 1.55
v 3.88971 2.59766 1.51
v 3.88971 2.61765 1.53
vn 1 0 0
f 17//13 18//13 19//13 
v 3.88971 2.57766 1.53
f 18//13 17//13 20//13 
v -0.110294 2.59766 1.51
v -0.110294 2.59766 1.55
v -0.110294 2.61765 1.53
vn -1 0 0
f 21//14 22//14 23//14 
v -0.110294 2.57766 1.53
f 22//14 21//14 24//14 
vn 0 0 1
vn 0 -1 0
f 17//15 24//16 20//16 
f 24//16 17//15 22//15 
vn 0 1 0
f 23//17 17//15 19//17 
f 17//15 23//17 22//15 
vn 0 0 -1
f 23//17 18//18 21//18 
f 18//18 23//17 19//17 
f 24//16 18//18 20//16 
f 18//18 24//16 21//18 
g Group12 
usemtl Color_G08
v 3.88971 2.59766 -1.47
v -1.11029 -2.40234 -1.47
v -3.11029 2.59766 -1.47
vn 0 0 -1
f 25//19 26//19 27//19 
v 3.88971 -2.40234 -1.47
f 26//19 25//19 28//19 
v 3.88971 -2.40234 1.53
vn -6.97018e-16 -1 3.48509e-16
f 29//20 26//20 28//20 
v 1.88971 -2.40234 1.53
f 26//20 29//20 30//20 
vn 1 -1.73259e-15 0
f 25//21 29//21 28//21 
v 3.88971 2.59766 1.53
f 29//21 25//21 31//21 
v -0.110294 2.59766 1.53
vn 0 0 1
f 30//22 31//22 32//22 
f 31//22 30//22 29//22 
vn 3.3319e-16 1 -4.07232e-16
f 32//23 25//23 27//23 
f 25//23 32//23 31//23 
vn -0.680414 -0.272166 0.680414
f 32//24 26//24 30//24 
f 26//24 32//24 27//24 
usemtl Layer_Layer0
v 1.88971 -2.40234 1.55
v 1.88971 -2.40234 1.51
v 1.88971 -2.42234 1.53
vn -1 0 0
f 33//25 34//25 35//25 
v 1.88971 -2.38234 1.53
f 34//25 33//25 36//25 
v 3.88971 -2.40234 1.51
v 3.88971 -2.40234 1.55
v 3.88971 -2.42234 1.53
vn 1 0 0
f 37//26 38//26 39//26 
v 3.88971 -2.38234 1.53
f 38//26 37//26 40//26 
vn 0 1 0
f 33//22 40//27 36//27 
f 40//27 33//22 38//22 
vn 0 -1 0
f 39//28 33//22 35//28 
f 33//22 39//28 38//22 
f 39//28 34//19 37//19 
f 34//19 39//28 35//28 
f 40//27 34//19 36//27 
f 34//19 40//27 37//19 
g Group2 
usemtl Layer_Layer0
v -0.124436 2.59766 1.54414
v -0.0961521 2.59766 1.51586
v -0.110294 2.61765 1.53
vn 0.707107 0 0.707107
f 41//29 42//29 43//29 
v -0.110294 2.57766 1.53
f 42//29 41//29 44//29 
v -3.09615 2.59766 -1.48414
v -3.12444 2.59766 -1.45586
v -3.11029 2.61765 -1.47
vn -0.707107 0 -0.707107
f 45//30 46//30 47//30 
v -3.11029 2.57766 -1.47
f 46//30 45//30 48//30 
vn -0.707107 0 0.707107
vn 0 -1 0
f 41//31 48//32 44//32 
f 48//32 41//31 46//31 
vn 0 1 0
f 47//33 41//31 43//33 
f 41//31 47//33 46//31 
vn 0.707106 0 -0.707107
f 47//33 42//34 45//34 
f 42//34 47//33 43//33 
f 48//32 42//34 44//32 
f 42//34 48//32 45//34 
g Group3 
usemtl Layer_Layer0
v 1.87556 -2.40234 1.54414
v 1.90385 -2.40234 1.51586
v 1.88971 -2.38234 1.53
vn 0.707107 0 0.707107
f 49//35 50//35 51//35 
v 1.88971 -2.42234 1.53
f 50//35 49//35 52//35 
v -1.09615 -2.40234 -1.48414
v -1.12444 -2.40234 -1.45586
v -1.11029 -2.38234 -1.47
vn -0.707107 0 -0.707107
f 53//36 54//36 55//36 
v -1.11029 -2.42234 -1.47
f 54//36 53//36 56//36 
vn -0.707107 0 0.707107
vn 0 -1 0
f 49//37 56//38 52//38 
f 56//38 49//37 54//37 
vn 0 1 0
f 55//39 49//37 51//39 
f 49//37 55//39 54//37 
vn 0.707107 0 -0.707107
f 55//39 50//40 53//40 
f 50//40 55//39 51//39 
f 56//38 50//40 52//38 
f 50//40 56//38 53//40 
g Group4 
usemtl Layer_Layer0
v -0.110294 2.59766 1.55
v -0.110294 2.59766 1.51
v -0.128864 2.59023 1.53
vn -0.371391 0.928477 0
f 57//41 58//41 59//41 
v -0.0917247 2.60508 1.53
f 58//41 57//41 60//41 
v 1.88971 -2.40234 1.51
v 1.88971 -2.40234 1.55
v 1.87114 -2.40977 1.53
vn 0.371391 -0.928477 0
f 61//42 62//42 63//42 
v 1.90828 -2.39492 1.53
f 62//42 61//42 64//42 
vn 0 0 1
vn 0.928476 0.371391 0
f 57//43 64//44 60//44 
f 64//44 57//43 62//43 
vn -0.928477 -0.371391 0
f 63//45 57//43 59//45 
f 57//43 63//45 62//43 
vn 0 0 -1
f 63//45 58//46 61//46 
f 58//46 63//45 59//45 
f 64//44 58//46 60//44 
f 58//46 64//44 61//46 
g Group5 
usemtl Layer_Layer0
v 3.88971 2.59766 -1.45
v 3.88971 2.59766 -1.49
v 3.88971 2.61765 -1.47
vn 1 0 0
f 65//47 66//47 67//47 
v 3.88971 2.57766 -1.47
f 66//47 65//47 68//47 
v -3.11029 2.59766 -1.49
v -3.11029 2.59766 -1.45
v -3.11029 2.61765 -1.47
vn -1 0 0
f 69//48 70//48 71//48 
v -3.11029 2.57766 -1.47
f 70//48 69//48 72//48 
vn 0 0 1
vn 0 -1 0
f 65//49 72//50 68//50 
f 72//50 65//49 70//49 
vn 0 1 0
f 71//51 65//49 67//51 
f 65//49 71//51 70//49 
vn 0 0 -1
f 71//51 66//52 69//52 
f 66//52 71//51 67//51 
f 72//50 66//52 68//50 
f 66//52 72//50 69//52 
g Group6 
usemtl Layer_Layer0
v 3.88971 -2.40234 -1.45
v 3.88971 -2.40234 -1.49
v 3.90971 -2.40234 -1.47
vn 0 -1 0
f 73//53 74//53 75//53 
v 3.86971 -2.40234 -1.47
f 74//53 73//53 76//53 
v 3.88971 2.59766 -1.49
v 3.88971 2.59766 -1.45
v 3.90971 2.59766 -1.47
vn 0 1 0
f 77//54 78//54 79//54 
v 3.86971 2.59766 -1.47
f 78//54 77//54 80//54 
vn 0 0 1
vn -1 0 0
f 73//55 80//56 76//56 
f 80//56 73//55 78//55 
vn 1 0 0
f 79//57 73//55 75//57 
f 73//55 79//57 78//55 
vn 0 0 -1
f 79//57 74//58 77//58 
f 74//58 79//57 75//57 
f 80//56 74//58 76//56 
f 74//58 80//56 77//58 
g Group7 
usemtl Layer_Layer0
v -1.11029 -2.40234 -1.45
v -1.11029 -2.40234 -1.49
v -1.11029 -2.42234 -1.47
vn -1 0 0
f 81//59 82//59 83//59 
v -1.11029 -2.38234 -1.47
f 82//59 81//59 84//59 
v 3.88971 -2.40234 -1.49
v 3.88971 -2.40234 -1.45
v 3.88971 -2.42234 -1.47
vn 1 0 0
f 85//60 86//60 87//60 
v 3.88971 -2.38234 -1.47
f 86//60 85//60 88//60 
vn 0 0 1
vn 0 1 0
f 81//61 88//62 84//62 
f 88//62 81//61 86//61 
vn 0 -1 0
f 87//63 81//61 83//63 
f 81//61 87//63 86//61 
vn 0 0 -1
f 87//63 82//64 85//64 
f 82//64 87//63 83//63 
f 88//62 82//64 84//62 
f 82//64 88//62 85//64 
g Group8 
usemtl Layer_Layer0
v 3.88971 -2.40234 1.55
v 3.88971 -2.40234 1.51
v 3.90971 -2.40234 1.53
vn 0 -1 0
f 89//65 90//65 91//65 
v 3.86971 -2.40234 1.53
f 90//65 89//65 92//65 
v 3.88971 2.59766 1.51
v 3.88971 2.59766 1.55
v 3.90971 2.59766 1.53
vn 0 1 0
f 93//66 94//66 95//66 
v 3.86971 2.59766 1.53
f 94//66 93//66 96//66 
vn 0 0 1
vn -1 0 0
f 89//67 96//68 92//68 
f 96//68 89//67 94//67 
vn 1 0 0
f 95//69 89//67 91//69 
f 89//67 95//69 94//67 
vn 0 0 -1
f 95//69 90//70 93//70 
f 90//70 95//69 91//69 
f 96//68 90//70 92//68 
f 90//70 96//68 93//70 
g Group9 
usemtl Layer_Layer0
v 3.88971 2.61765 -1.47
v 3.88971 2.57766 -1.47
v 3.86971 2.59766 -1.47
vn 0 0 -1
f 97//71 98//71 99//71 
v 3.90971 2.59766 -1.47
f 98//71 97//71 100//71 
v 3.88971 2.57766 1.53
v 3.88971 2.61765 1.53
v 3.86971 2.59766 1.53
vn 0 0 1
f 101//72 102//72 103//72 
v 3.90971 2.59766 1.53
f 102//72 101//72 104//72 
vn 0 1 0
vn 1 0 0
f 97//73 104//74 100//74 
f 104//74 97//73 102//73 
vn -1 0 0
f 103//75 97//73 99//75 
f 97//73 103//75 102//73 
vn 0 -1 0
f 103//75 98//76 101//76 
f 98//76 103//75 99//75 
f 104//74 98//76 100//74 
f 98//76 104//74 101//76 
