mtllib p134b.mtl
s 1
o 
g Group1 
usemtl Layer_Layer0
v 4.25 2 -0.29
v 4.25 2 -0.33
v 4.25 2.02 -0.31
vn 1 0 0
f 1//1 2//1 3//1 
v 4.25 1.98 -0.31
f 2//1 1//1 4//1 
v -3.75 2 -0.33
v -3.75 2 -0.29
v -3.75 2.02 -0.31
vn -1 0 0
f 5//2 6//2 7//2 
v -3.75 1.98 -0.31
f 6//2 5//2 8//2 
vn 0 0 1
vn 0 -1 0
f 1//3 8//4 4//4 
f 8//4 1//3 6//3 
vn 0 1 0
f 7//5 1//3 3//5 
f 1//3 7//5 6//3 
vn 0 0 -1
f 7//5 2//6 5//6 
f 2//6 7//5 3//5 
f 8//4 2//6 4//4 
f 2//6 8//4 5//6 
g Group10 
usemtl Layer_Layer0
v -3.75 2.01664 -0.298906
v -3.75 1.98336 -0.321094
v -3.77 2 -0.31
vn 0 0.5547 -0.83205
f 9//7 10//7 11//7 
v -3.73 2 -0.31
f 10//7 9//7 12//7 
v -3.75 -0.016641 2.67891
v -3.75 0.016641 2.70109
v -3.77 -1.52588e-08 2.69
vn 0 -0.5547 0.83205
f 13//8 14//8 15//8 
v -3.73 -1.52588e-08 2.69
f 14//8 13//8 16//8 
vn 0 0.832049 0.554702
vn 1 0 0
f 9//9 16//10 12//10 
f 16//10 9//9 14//9 
vn -1 0 0
f 15//11 9//9 11//11 
f 9//9 15//11 14//9 
vn 0 -0.832052 -0.554698
f 15//11 10//12 13//12 
f 10//12 15//11 11//11 
f 16//10 10//12 12//10 
f 10//12 16//10 13//12 
g Group11 
usemtl Layer_Layer0
v 4.25 2.02 -2.31
v 4.25 1.98 -2.31
v 4.23 2 -2.31
vn 0 0 -1
f 17//13 18//13 19//13 
v 4.27 2 -2.31
f 18//13 17//13 20//13 
v 4.25 1.98 -0.31
v 4.25 2.02 -0.31
v 4.23 2 -0.31
vn 0 0 1
f 21//14 22//14 23//14 
v 4.27 2 -0.31
f 22//14 21//14 24//14 
vn 0 1 0
vn 1 0 0
f 17//15 24//16 20//16 
f 24//16 17//15 22//15 
vn -1 0 0
f 23//17 17//15 19//17 
f 17//15 23//17 22//15 
vn 0 -1 0
f 23//17 18//18 21//18 
f 18//18 23//17 19//17 
f 24//16 18//18 20//16 
f 18//18 24//16 21//18 
g Group12 
usemtl Layer_Layer0
v -3.75 2.02 -2.31
v -3.75 1.98 -2.31
v -3.77 2 -2.31
vn 0 0 -1
f 25//19 26//19 27//19 
v -3.73 2 -2.31
f 26//19 25//19 28//19 
v -3.75 1.98 -0.31
v -3.75 2.02 -0.31
v -3.77 2 -0.31
vn 0 0 1
f 29//20 30//20 31//20 
v -3.73 2 -0.31
f 30//20 29//20 32//20 
vn 0 1 0
vn 1 0 0
f 25//21 32//22 28//22 
f 32//22 25//21 30//21 
vn -1 0 0
f 31//23 25//21 27//23 
f 25//21 31//23 30//21 
vn 0 -1 0
f 31//23 26//24 29//24 
f 26//24 31//23 27//23 
f 32//22 26//24 28//22 
f 26//24 32//22 29//24 
g Group13 
usemtl Layer_Layer0
v 1.25 -2 -2.29
v 1.25 -2 -2.33
v 1.25 -2.02 -2.31
vn -1 0 0
f 33//25 34//25 35//25 
v 1.25 -1.98 -2.31
f 34//25 33//25 36//25 
v 4.25 -2 -2.33
v 4.25 -2 -2.29
v 4.25 -2.02 -2.31
vn 1 0 0
f 37//26 38//26 39//26 
v 4.25 -1.98 -2.31
f 38//26 37//26 40//26 
vn 0 0 1
vn 0 1 0
f 33//27 40//28 36//28 
f 40//28 33//27 38//27 
vn 0 -1 0
f 39//29 33//27 35//29 
f 33//27 39//29 38//27 
vn 0 0 -1
f 39//29 34//30 37//30 
f 34//30 39//29 35//29 
f 40//28 34//30 36//28 
f 34//30 40//28 37//30 
g Group14 
usemtl Layer_Layer0
v -3.75 -2 -0.29
v -3.75 -2 -0.33
v -3.75 -2.02 -0.31
vn -1 0 0
f 41//31 42//31 43//31 
v -3.75 -1.98 -0.31
f 42//31 41//31 44//31 
v 4.25 -2 -0.33
v 4.25 -2 -0.29
v 4.25 -2.02 -0.31
vn 1 0 0
f 45//32 46//32 47//32 
v 4.25 -1.98 -0.31
f 46//32 45//32 48//32 
vn 0 0 1
vn 0 1 0
f 41//33 48//34 44//34 
f 48//34 41//33 46//33 
vn 0 -1 0
f 47//35 41//33 43//35 
f 41//33 47//35 46//33 
vn 0 0 -1
f 47//35 42//36 45//36 
f 42//36 47//35 43//35 
f 48//34 42//36 44//34 
f 42//36 48//34 45//36 
g Group15 
usemtl Layer_Layer0
v -3.75 2 -2.29
v -3.75 2 -2.33
v -3.77 2 -2.31
vn 0 1 0
f 49//37 50//37 51//37 
v -3.73 2 -2.31
f 50//37 49//37 52//37 
v -3.75 -2 -2.33
v -3.75 -2 -2.29
v -3.77 -2 -2.31
vn 0 -1 0
f 53//38 54//38 55//38 
v -3.73 -2 -2.31
f 54//38 53//38 56//38 
vn 0 0 1
vn 1 0 0
f 49//39 56//40 52//40 
f 56//40 49//39 54//39 
vn -1 0 0
f 55//41 49//39 51//41 
f 49//39 55//41 54//39 
vn 0 0 -1
f 55//41 50//42 53//42 
f 50//42 55//41 51//41 
f 56//40 50//42 52//40 
f 50//42 56//40 53//42 
g Group16 
usemtl Color_B04
v 4.25 2 -2.31
v -3.75 -2 -2.31
v -3.75 2 -2.31
vn 0 0 -1
f 57//43 58//43 59//43 
v 1.25 -2 -2.31
f 58//43 57//43 60//43 
v 4.25 -2 -2.31
f 60//43 57//43 61//43 
v 4.25 3.60956e-16 2.69
v -3.75 -2 -0.31
v 4.25 -2 -0.31
vn 0 -0.83205 0.5547
f 62//44 63//44 64//44 
v -3.75 3.60956e-16 2.69
f 63//44 62//44 65//44 
vn 1 0 0
f 57//45 64//45 61//45 
f 64//45 57//45 62//45 
v 4.25 2 -0.31
f 62//45 57//45 66//45 
vn 0 -1 0
f 64//46 60//46 61//46 
f 60//46 64//46 58//46 
f 58//46 64//46 63//46 
vn -1 0 0
f 65//47 58//47 63//47 
f 58//47 65//47 59//47 
v -3.75 2 -0.31
f 59//47 65//47 67//47 
vn 0 1 0
f 67//48 57//48 59//48 
f 57//48 67//48 66//48 
vn 0 0.83205 0.5547
f 65//49 66//49 67//49 
f 66//49 65//49 62//49 
usemtl Layer_Layer0
v -3.75 -2 -2.29
v -3.75 -2 -2.33
v -3.75 -2.02 -2.31
f 68//47 69//47 70//47 
v -3.75 -1.98 -2.31
f 69//47 68//47 71//47 
v 1.25 -2 -2.33
v 1.25 -2 -2.29
v 1.25 -2.02 -2.31
f 72//45 73//45 74//45 
v 1.25 -1.98 -2.31
f 73//45 72//45 75//45 
vn 0 0 1
f 68//50 75//48 71//48 
f 75//48 68//50 73//50 
f 74//46 68//50 70//46 
f 68//50 74//46 73//50 
f 74//46 69//43 72//43 
f 69//43 74//46 70//46 
f 75//48 69//43 71//48 
f 69//43 75//48 72//43 
g Group2 
usemtl Layer_Layer0
v 4.25 -2.01664 -0.298906
v 4.25 -1.98336 -0.321094
v 4.27 -2 -0.31
vn 0 -0.5547 -0.83205
f 76//51 77//51 78//51 
v 4.23 -2 -0.31
f 77//51 76//51 79//51 
v 4.25 0.016641 2.67891
v 4.25 -0.016641 2.70109
v 4.27 1.52588e-08 2.69
vn 0 0.5547 0.83205
f 80//52 81//52 82//52 
v 4.23 1.52588e-08 2.69
f 81//52 80//52 83//52 
vn 0 -0.832049 0.554702
vn -1 0 0
f 76//53 83//54 79//54 
f 83//54 76//53 81//53 
vn 1 0 0
f 82//55 76//53 78//55 
f 76//53 82//55 81//53 
vn 0 0.832052 -0.554698
f 82//55 77//56 80//56 
f 77//56 82//55 78//55 
f 83//54 77//56 79//54 
f 77//56 83//54 80//56 
g Group3 
usemtl Layer_Layer0
v 4.25 2 -2.29
v 4.25 2 -2.33
v 4.25 2.02 -2.31
vn 1 0 0
f 84//57 85//57 86//57 
v 4.25 1.98 -2.31
f 85//57 84//57 87//57 
v -3.75 2 -2.33
v -3.75 2 -2.29
v -3.75 2.02 -2.31
vn -1 0 0
f 88//58 89//58 90//58 
v -3.75 1.98 -2.31
f 89//58 88//58 91//58 
vn 0 0 1
vn 0 -1 0
f 84//59 91//60 87//60 
f 91//60 84//59 89//59 
vn 0 1 0
f 90//61 84//59 86//61 
f 84//59 90//61 89//59 
vn 0 0 -1
f 90//61 85//62 88//62 
f 85//62 90//61 86//61 
f 91//60 85//62 87//60 
f 85//62 91//60 88//62 
g Group4 
usemtl Layer_Layer0
v 4.25 -2 -2.29
v 4.25 -2 -2.33
v 4.27 -2 -2.31
vn 0 -1 0
f 92//63 93//63 94//63 
v 4.23 -2 -2.31
f 93//63 92//63 95//63 
v 4.25 2 -2.33
v 4.25 2 -2.29
v 4.27 2 -2.31
vn 0 1 0
f 96//64 97//64 98//64 
v 4.23 2 -2.31
f 97//64 96//64 99//64 
vn 0 0 1
vn -1 0 0
f 92//65 99//66 95//66 
f 99//66 92//65 97//65 
vn 1 0 0
f 98//67 92//65 94//67 
f 92//65 98//67 97//65 
vn 0 0 -1
f 98//67 93//68 96//68 
f 93//68 98//67 94//67 
f 99//66 93//68 95//66 
f 93//68 99//66 96//68 
g Group5 
usemtl Layer_Layer0
v -3.75 -0.016641 2.70109
v -3.75 0.016641 2.67891
v -3.77 3.58918e-16 2.69
vn 0 0.5547 0.83205
f 100//69 101//69 102//69 
v -3.73 3.60956e-16 2.69
f 101//69 100//69 103//69 
v -3.75 -1.98336 -0.321094
v -3.75 -2.01664 -0.298906
v -3.77 -2 -0.31
vn 0 -0.5547 -0.83205
f 104//70 105//70 106//70 
v -3.73 -2 -0.31
f 105//70 104//70 107//70 
vn 0 -0.832049 0.554702
vn 1 0 0
f 100//71 107//72 103//72 
f 107//72 100//71 105//71 
vn -1 0 0
f 106//73 100//71 102//73 
f 100//71 106//73 105//71 
vn 0 0.832053 -0.554697
f 106//73 101//74 104//74 
f 101//74 106//73 102//73 
f 107//72 101//74 103//72 
f 101//74 107//72 104//74 
g Group6 
usemtl Layer_Layer0
v 4.25 3.59731e-16 2.71
v 4.25 3.6463e-16 2.67
v 4.25 0.02 2.69
vn 1 0 0
f 108//75 109//75 110//75 
v 4.25 -0.02 2.69
f 109//75 108//75 111//75 
v -3.75 3.6463e-16 2.67
v -3.75 3.59731e-16 2.71
v -3.75 0.02 2.69
vn -1 0 0
f 112//76 113//76 114//76 
v -3.75 -0.02 2.69
f 113//76 112//76 115//76 
vn 0 0 1
vn 0 -1 0
f 108//77 115//78 111//78 
f 115//78 108//77 113//77 
vn 0 1 0
f 114//79 108//77 110//79 
f 108//77 114//79 113//77 
vn 0 9.9955e-17 -1
f 114//79 109//80 112//80 
f 109//80 114//79 110//79 
f 115//78 109//80 111//78 
f 109//80 115//78 112//80 
g Group7 
usemtl Layer_Layer0
v 4.25 0.016641 2.70109
v 4.25 -0.016641 2.67891
v 4.27 3.62994e-16 2.69
vn 0 -0.5547 0.83205
f 116//81 117//81 118//81 
v 4.23 3.60956e-16 2.69
f 117//81 116//81 119//81 
v 4.25 1.98336 -0.321094
v 4.25 2.01664 -0.298906
v 4.27 2 -0.31
vn 0 0.5547 -0.83205
f 120//82 121//82 122//82 
v 4.23 2 -0.31
f 121//82 120//82 123//82 
vn 0 0.832049 0.554702
vn -1 0 0
f 116//83 123//84 119//84 
f 123//84 116//83 121//83 
vn 1 0 0
f 122//85 116//83 118//85 
f 116//83 122//85 121//83 
vn 0 -0.832053 -0.554697
f 122//85 117//86 120//86 
f 117//86 122//85 118//85 
f 123//84 117//86 119//84 
f 117//86 123//84 120//86 
g Group8 
usemtl Layer_Layer0
v -3.75 -1.98 -2.31
v -3.75 -2.02 -2.31
v -3.77 -2 -2.31
vn 0 0 -1
f 124//87 125//87 126//87 
v -3.73 -2 -2.31
f 125//87 124//87 127//87 
v -3.75 -2.02 -0.31
v -3.75 -1.98 -0.31
v -3.77 -2 -0.31
vn 0 0 1
f 128//88 129//88 130//88 
v -3.73 -2 -0.31
f 129//88 128//88 131//88 
vn 0 1 0
vn 1 0 0
f 124//89 131//90 127//90 
f 131//90 124//89 129//89 
vn -1 0 0
f 130//91 124//89 126//91 
f 124//89 130//91 129//89 
vn 0 -1 0
f 130//91 125//92 128//92 
f 125//92 130//91 126//91 
f 131//90 125//92 127//90 
f 125//92 131//90 128//92 
g Group9 
usemtl Layer_Layer0
v 4.25 -1.98 -2.31
v 4.25 -2.02 -2.31
v 4.23 -2 -2.31
vn 0 0 -1
f 132//93 133//93 134//93 
v 4.27 -2 -2.31
f 133//93 132//93 135//93 
v 4.25 -2.02 -0.31
v 4.25 -1.98 -0.31
v 4.23 -2 -0.31
vn 0 0 1
f 136//94 137//94 138//94 
v 4.27 -2 -0.31
f 137//94 136//94 139//94 
vn 0 1 0
vn 1 0 0
f 132//95 139//96 135//96 
f 139//96 132//95 137//95 
vn -1 0 0
f 138//97 132//95 134//97 
f 132//95 138//97 137//95 
vn 0 -1 0
f 138//97 133//98 136//98 
f 133//98 138//97 134//97 
f 139//96 133//98 135//96 
f 133//98 139//96 136//98 
