mtllib p134e.mtl
s 1
o 
g Group1 
usemtl Layer_Layer0
v -3.42121 2.80301 -1.2
v -3.42121 2.80301 -1.24
v -3.43683 2.79052 -1.22
vn -0.624695 0.780869 0
f 1//1 2//1 3//1 
v -3.40559 2.81551 -1.22
f 2//1 1//1 4//1 
v 0.578789 -2.19699 -1.24
v 0.578789 -2.19699 -1.2
v 0.563172 -2.20948 -1.22
vn 0.624695 -0.780869 0
f 5//2 6//2 7//2 
v 0.594407 -2.18449 -1.22
f 6//2 5//2 8//2 
vn 0 0 1
vn 0.780869 0.624695 0
f 1//3 8//4 4//4 
f 8//4 1//3 6//3 
vn -0.780869 -0.624695 0
f 7//5 1//3 3//5 
f 1//3 7//5 6//3 
vn 0 0 -1
f 7//5 2//6 5//6 
f 2//6 7//5 3//5 
f 8//4 2//6 4//4 
f 2//6 8//4 5//6 
g Group10 
usemtl Layer_Layer0
v -3.42121 2.80301 -1.2
v -3.42121 2.80301 -1.24
v -3.42121 2.78301 -1.22
vn -1 0 0
f 9//7 10//7 11//7 
v -3.42121 2.82301 -1.22
f 10//7 9//7 12//7 
v 3.57879 2.80301 -1.24
v 3.57879 2.80301 -1.2
v 3.57879 2.78301 -1.22
vn 1 0 0
f 13//8 14//8 15//8 
v 3.57879 2.82301 -1.22
f 14//8 13//8 16//8 
vn 0 0 1
vn 0 1 0
f 9//9 16//10 12//10 
f 16//10 9//9 14//9 
vn 0 -1 0
f 15//11 9//9 11//11 
f 9//9 15//11 14//9 
vn 0 0 -1
f 15//11 10//12 13//12 
f 10//12 15//11 11//11 
f 16//10 10//12 12//10 
f 10//12 16//10 13//12 
g Group11 
usemtl Layer_Layer0
v 3.57879 2.82301 -1.22
v 3.57879 2.78301 -1.22
v 3.55879 2.80301 -1.22
vn 0 0 -1
f 17//13 18//13 19//13 
v 3.59879 2.80301 -1.22
f 18//13 17//13 20//13 
v 3.57879 2.78301 1.78
v 3.57879 2.82301 1.78
v 3.55879 2.80301 1.78
vn 0 0 1
f 21//14 22//14 23//14 
v 3.59879 2.80301 1.78
f 22//14 21//14 24//14 
vn 0 1 0
vn 1 0 0
f 17//15 24//16 20//16 
f 24//16 17//15 22//15 
vn -1 0 0
f 23//17 17//15 19//17 
f 17//15 23//17 22//15 
vn 0 -1 0
f 23//17 18//18 21//18 
f 18//18 23//17 19//17 
f 24//16 18//18 20//16 
f 18//18 24//16 21//18 
g Group12 
usemtl Color_G08
v 3.57879 2.80301 -1.22
v 0.578789 -2.19699 -1.22
v -3.42121 2.80301 -1.22
vn 0 0 -1
f 25//19 26//19 27//19 
v 3.57879 -2.19699 -1.22
f 26//19 25//19 28//19 
v 3.57879 -2.19699 0.446667
vn 1 2.35529e-15 -6.77548e-16
f 25//20 29//20 28//20 
v 3.57879 0.803014 1.78
f 29//20 25//20 30//20 
v 3.57879 2.80301 1.78
f 30//20 25//20 31//20 
v 1.97879 2.80301 1.78
vn -9.63295e-16 1 8.66966e-16
f 32//21 25//21 27//21 
f 25//21 32//21 31//21 
vn 0 0 1
f 30//22 31//22 32//22 
vn -4.81274e-16 -1 8.66294e-16
f 29//23 26//23 28//23 
vn 0.452679 0.362143 -0.814822
f 32//24 26//24 27//24 
f 26//24 32//24 29//24 
f 29//24 32//24 30//24 
usemtl Layer_Layer0
v 3.56908 -2.19699 0.46415
v 3.5885 -2.19699 0.429184
v 3.57879 -2.17699 0.446667
vn 0.874157 0 0.485643
f 33//25 34//25 35//25 
v 3.57879 -2.21699 0.446667
f 34//25 33//25 36//25 
v 0.588502 -2.19699 -1.23748
v 0.569076 -2.19699 -1.20252
v 0.578789 -2.17699 -1.22
vn -0.874157 0 -0.485643
f 37//26 38//26 39//26 
v 0.578789 -2.21699 -1.22
f 38//26 37//26 40//26 
vn -0.485642 0 0.874158
vn 0 -1 0
f 33//27 40//28 36//28 
f 40//28 33//27 38//27 
vn 0 1 0
f 39//29 33//27 35//29 
f 33//27 39//29 38//27 
vn 0.485642 0 -0.874158
f 39//29 34//30 37//30 
f 34//30 39//29 35//29 
f 40//28 34//30 36//28 
f 34//30 40//28 37//30 
g Group2 
usemtl Layer_Layer0
v 3.57879 2.80301 1.8
v 3.57879 2.80301 1.76
v 3.55879 2.80301 1.78
vn 0 1 0
f 41//31 42//31 43//31 
v 3.59879 2.80301 1.78
f 42//31 41//31 44//31 
v 3.57879 0.803014 1.76
v 3.57879 0.803014 1.8
v 3.55879 0.803014 1.78
vn 0 -1 0
f 45//32 46//32 47//32 
v 3.59879 0.803014 1.78
f 46//32 45//32 48//32 
vn 0 0 1
vn 1 0 0
f 41//33 48//34 44//34 
f 48//34 41//33 46//33 
vn -1 0 0
f 47//35 41//33 43//35 
f 41//33 47//35 46//33 
vn 0 0 -1
f 47//35 42//36 45//36 
f 42//36 47//35 43//35 
f 48//34 42//36 44//34 
f 42//36 48//34 45//36 
g Group3 
usemtl Layer_Layer0
v 3.57879 0.794892 1.79828
v 3.57879 0.811137 1.76172
v 3.55879 0.803014 1.78
vn 0 0.913812 0.406137
f 49//37 50//37 51//37 
v 3.59879 0.803014 1.78
f 50//37 49//37 52//37 
v 3.57879 -2.18886 0.42839
v 3.57879 -2.20511 0.464943
v 3.55879 -2.19699 0.446667
vn 0 -0.913811 -0.406139
f 53//38 54//38 55//38 
v 3.59879 -2.19699 0.446667
f 54//38 53//38 56//38 
vn 0 -0.40614 0.913811
vn 1 0 0
f 49//39 56//40 52//40 
f 56//40 49//39 54//39 
vn -1 0 0
f 55//41 49//39 51//41 
f 49//39 55//41 54//39 
vn 0 0.40614 -0.913811
f 55//41 50//42 53//42 
f 50//42 55//41 51//41 
f 56//40 50//42 52//40 
f 50//42 56//40 53//42 
g Group4 
usemtl Layer_Layer0
v 3.57879 -2.17699 0.446667
v 3.57879 -2.21699 0.446667
v 3.59879 -2.19699 0.446667
vn 0 0 1
f 57//43 58//43 59//43 
v 3.55879 -2.19699 0.446667
f 58//43 57//43 60//43 
v 3.57879 -2.21699 -1.22
v 3.57879 -2.17699 -1.22
v 3.59879 -2.19699 -1.22
vn 0 0 -1
f 61//44 62//44 63//44 
v 3.55879 -2.19699 -1.22
f 62//44 61//44 64//44 
vn 0 1 0
vn -1 0 0
f 57//45 64//46 60//46 
f 64//46 57//45 62//45 
vn 1 0 0
f 63//47 57//45 59//47 
f 57//45 63//47 62//45 
vn 0 -1 0
f 63//47 58//48 61//48 
f 58//48 63//47 59//47 
f 64//46 58//48 60//46 
f 58//48 64//46 61//48 
g Group5 
usemtl Layer_Layer0
v 3.57879 2.80301 1.8
v 3.57879 2.80301 1.76
v 3.57879 2.82301 1.78
vn 1 0 0
f 65//49 66//49 67//49 
v 3.57879 2.78301 1.78
f 66//49 65//49 68//49 
v 1.97879 2.80301 1.76
v 1.97879 2.80301 1.8
v 1.97879 2.82301 1.78
vn -1 0 0
f 69//50 70//50 71//50 
v 1.97879 2.78301 1.78
f 70//50 69//50 72//50 
vn 0 0 1
vn 0 -1 0
f 65//51 72//52 68//52 
f 72//52 65//51 70//51 
vn 0 1 0
f 71//53 65//51 67//53 
f 65//51 71//53 70//51 
vn 0 0 -1
f 71//53 66//54 69//54 
f 66//54 71//53 67//53 
f 72//52 66//54 68//52 
f 66//54 72//52 69//54 
g Group6 
usemtl Layer_Layer0
v 1.97879 2.80301 1.8
v 1.97879 2.80301 1.76
v 1.96317 2.79052 1.78
vn -0.624695 0.780869 0
f 73//55 74//55 75//55 
v 1.99441 2.81551 1.78
f 74//55 73//55 76//55 
v 3.57879 0.803014 1.76
v 3.57879 0.803014 1.8
v 3.56317 0.790521 1.78
vn 0.624696 -0.780868 0
f 77//56 78//56 79//56 
v 3.59441 0.815508 1.78
f 78//56 77//56 80//56 
vn 0 0 1
vn 0.780869 0.624695 0
f 73//57 80//58 76//58 
f 80//58 73//57 78//57 
vn -0.780869 -0.624695 0
f 79//59 73//57 75//59 
f 73//57 79//59 78//57 
vn 0 0 -1
f 79//59 74//60 77//60 
f 74//60 79//59 75//59 
f 80//58 74//60 76//58 
f 74//60 80//58 77//60 
g Group7 
usemtl Layer_Layer0
v 3.57879 -2.19699 -1.2
v 3.57879 -2.19699 -1.24
v 3.57879 -2.17699 -1.22
vn 1 0 0
f 81//61 82//61 83//61 
v 3.57879 -2.21699 -1.22
f 82//61 81//61 84//61 
v 0.578789 -2.19699 -1.24
v 0.578789 -2.19699 -1.2
v 0.578789 -2.17699 -1.22
vn -1 0 0
f 85//62 86//62 87//62 
v 0.578789 -2.21699 -1.22
f 86//62 85//62 88//62 
vn 0 0 1
vn 0 -1 0
f 81//63 88//64 84//64 
f 88//64 81//63 86//63 
vn 0 1 0
f 87//65 81//63 83//65 
f 81//63 87//65 86//63 
vn 0 0 -1
f 87//65 82//66 85//66 
f 82//66 87//65 83//65 
f 88//64 82//66 84//64 
f 82//66 88//64 85//66 
g Group8 
usemtl Layer_Layer0
v 3.57879 2.80301 -1.2
v 3.57879 2.80301 -1.24
v 3.55879 2.80301 -1.22
vn 0 1 0
f 89//67 90//67 91//67 
v 3.59879 2.80301 -1.22
f 90//67 89//67 92//67 
v 3.57879 -2.19699 -1.24
v 3.57879 -2.19699 -1.2
v 3.55879 -2.19699 -1.22
vn 0 -1 0
f 93//68 94//68 95//68 
v 3.59879 -2.19699 -1.22
f 94//68 93//68 96//68 
vn 0 0 1
vn 1 0 0
f 89//69 96//70 92//70 
f 96//70 89//69 94//69 
vn -1 0 0
f 95//71 89//69 91//71 
f 89//69 95//71 94//69 
vn 0 0 -1
f 95//71 90//72 93//72 
f 90//72 95//71 91//71 
f 96//70 90//72 92//70 
f 90//72 96//70 93//72 
g Group9 
usemtl Layer_Layer0
v -3.43092 2.80301 -1.20252
v -3.4115 2.80301 -1.23748
v -3.42121 2.78301 -1.22
vn -0.874157 0 -0.485643
f 97//73 98//73 99//73 
v -3.42121 2.82301 -1.22
f 98//73 97//73 100//73 
v 1.9885 2.80301 1.76252
v 1.96908 2.80301 1.79748
v 1.97879 2.78301 1.78
vn 0.874158 0 0.485642
f 101//74 102//74 103//74 
v 1.97879 2.82301 1.78
f 102//74 101//74 104//74 
vn -0.48564 0 0.874159
vn 0 1 0
f 97//75 104//76 100//76 
f 104//76 97//75 102//75 
vn 0 -1 0
f 103//77 97//75 99//77 
f 97//75 103//77 102//75 
vn 0.485642 0 -0.874158
f 103//77 98//78 101//78 
f 98//78 103//77 99//77 
f 104//76 98//78 100//76 
f 98//78 104//76 101//78 
