mtllib p135d.mtl
s 1
o 
g Group1 
usemtl Layer_Layer0
v 4.31 0.9 2.53
v 4.31 0.9 2.49
v 4.31 0.92 2.51
vn 1 0 0
f 1//1 2//1 3//1 
v 4.31 0.88 2.51
f 2//1 1//1 4//1 
v 2.81 0.9 2.49
v 2.81 0.9 2.53
v 2.81 0.92 2.51
vn -1 0 0
f 5//2 6//2 7//2 
v 2.81 0.88 2.51
f 6//2 5//2 8//2 
vn 0 0 1
vn 0 -1 0
f 1//3 8//4 4//4 
f 8//4 1//3 6//3 
vn 0 1 0
f 7//5 1//3 3//5 
f 1//3 7//5 6//3 
vn 0 0 -1
f 7//5 2//6 5//6 
f 2//6 7//5 3//5 
f 8//4 2//6 4//4 
f 2//6 8//4 5//6 
g Group10 
usemtl Layer_Layer0
v 4.31922 -1.11229 -0.477196
v 4.30078 -1.08771 -0.502804
v 4.326 -1.088 -0.49
vn 0.384111 -0.512148 -0.768221
f 9//7 10//7 11//7 
v 4.294 -1.112 -0.49
f 10//7 9//7 12//7 
v 2.80078 0.912292 2.4972
v 2.81922 0.887708 2.5228
v 2.826 0.912 2.51
vn -0.384111 0.512148 0.768221
f 13//8 14//8 15//8 
v 2.794 0.888 2.51
f 14//8 13//8 16//8 
vn 0.460924 -0.614581 0.640187
vn -0.800002 -0.599998 0
f 9//9 16//10 12//10 
f 16//10 9//9 14//9 
vn 0.800002 0.599998 0
f 15//11 9//9 11//11 
f 9//9 15//11 14//9 
vn -0.460936 0.614576 -0.640182
f 15//11 10//12 13//12 
f 10//12 15//11 11//11 
f 16//10 10//12 12//10 
f 10//12 16//10 13//12 
g Group11 
usemtl Layer_Layer0
v -3.69 2.9 -2.47
v -3.69 2.9 -2.51
v -3.71 2.9 -2.49
vn 0 1 0
f 17//13 18//13 19//13 
v -3.67 2.9 -2.49
f 18//13 17//13 20//13 
v -3.69 -1.1 -2.51
v -3.69 -1.1 -2.47
v -3.71 -1.1 -2.49
vn 0 -1 0
f 21//14 22//14 23//14 
v -3.67 -1.1 -2.49
f 22//14 21//14 24//14 
vn 0 0 1
vn 1 0 0
f 17//15 24//16 20//16 
f 24//16 17//15 22//15 
vn -1 0 0
f 23//17 17//15 19//17 
f 17//15 23//17 22//15 
vn 0 0 -1
f 23//17 18//18 21//18 
f 18//18 23//17 19//17 
f 24//16 18//18 20//16 
f 18//18 24//16 21//18 
g Group12 
usemtl Layer_Layer0
v -3.69 -1.1 -2.47
v -3.69 -1.1 -2.51
v -3.69 -1.12 -2.49
vn -1 0 0
f 25//19 26//19 27//19 
v -3.69 -1.08 -2.49
f 26//19 25//19 28//19 
v 1.31 -1.1 -2.51
v 1.31 -1.1 -2.47
v 1.31 -1.12 -2.49
vn 1 0 0
f 29//20 30//20 31//20 
v 1.31 -1.08 -2.49
f 30//20 29//20 32//20 
vn 0 0 1
vn 0 1 0
f 25//21 32//22 28//22 
f 32//22 25//21 30//21 
vn 0 -1 0
f 31//23 25//21 27//23 
f 25//21 31//23 30//21 
vn 0 0 -1
f 31//23 26//24 29//24 
f 26//24 31//23 27//23 
f 32//22 26//24 28//22 
f 26//24 32//22 29//24 
g Group13 
usemtl Layer_Layer0
v 4.31 2.9 -2.47
v 4.31 2.9 -2.51
v 4.31 2.92 -2.49
vn 1 0 0
f 33//25 34//25 35//25 
v 4.31 2.88 -2.49
f 34//25 33//25 36//25 
v -3.69 2.9 -2.51
v -3.69 2.9 -2.47
v -3.69 2.92 -2.49
vn -1 0 0
f 37//26 38//26 39//26 
v -3.69 2.88 -2.49
f 38//26 37//26 40//26 
vn 0 0 1
vn 0 -1 0
f 33//27 40//28 36//28 
f 40//28 33//27 38//27 
vn 0 1 0
f 39//29 33//27 35//29 
f 33//27 39//29 38//27 
vn 0 0 -1
f 39//29 34//30 37//30 
f 34//30 39//29 35//29 
f 40//28 34//30 36//28 
f 34//30 40//28 37//30 
g Group14 
usemtl Layer_Layer0
v -3.69 2.91664 -0.478906
v -3.69 2.88336 -0.501094
v -3.71 2.9 -0.49
vn 0 0.5547 -0.83205
f 41//31 42//31 43//31 
v -3.67 2.9 -0.49
f 42//31 41//31 44//31 
v -3.69 0.883359 2.49891
v -3.69 0.916641 2.52109
v -3.71 0.9 2.51
vn 0 -0.5547 0.83205
f 45//32 46//32 47//32 
v -3.67 0.9 2.51
f 46//32 45//32 48//32 
vn 0 0.832052 0.554698
vn 1 0 0
f 41//33 48//34 44//34 
f 48//34 41//33 46//33 
vn -1 0 0
f 47//35 41//33 43//35 
f 41//33 47//35 46//33 
vn 0 -0.832049 -0.554702
f 47//35 42//36 45//36 
f 42//36 47//35 43//35 
f 48//34 42//36 44//34 
f 42//36 48//34 45//36 
g Group15 
usemtl Layer_Layer0
v 4.31 2.92 -2.49
v 4.31 2.88 -2.49
v 4.29 2.9 -2.49
vn 0 0 -1
f 49//37 50//37 51//37 
v 4.33 2.9 -2.49
f 50//37 49//37 52//37 
v 4.31 2.88 -0.49
v 4.31 2.92 -0.49
v 4.29 2.9 -0.49
vn 0 0 1
f 53//38 54//38 55//38 
v 4.33 2.9 -0.49
f 54//38 53//38 56//38 
vn 0 1 0
vn 1 0 0
f 49//39 56//40 52//40 
f 56//40 49//39 54//39 
vn -1 0 0
f 55//41 49//39 51//41 
f 49//39 55//41 54//39 
vn 0 -1 0
f 55//41 50//42 53//42 
f 50//42 55//41 51//41 
f 56//40 50//42 52//40 
f 50//42 56//40 53//42 
g Group16 
usemtl Layer_Layer0
v 1.31 -1.08 -2.49
v 1.31 -1.12 -2.49
v 1.29 -1.1 -2.49
vn 0 0 -1
f 57//43 58//43 59//43 
v 1.33 -1.1 -2.49
f 58//43 57//43 60//43 
v 1.31 -1.12 -0.49
v 1.31 -1.08 -0.49
v 1.29 -1.1 -0.49
vn 0 0 1
f 61//44 62//44 63//44 
v 1.33 -1.1 -0.49
f 62//44 61//44 64//44 
vn 0 1 0
vn 1 0 0
f 57//45 64//46 60//46 
f 64//46 57//45 62//45 
vn -1 0 0
f 63//47 57//45 59//47 
f 57//45 63//47 62//45 
vn 0 -1 0
f 63//47 58//48 61//48 
f 58//48 63//47 59//47 
f 64//46 58//48 60//46 
f 58//48 64//46 61//48 
g Group17 
usemtl Layer_Layer0
v 1.31 -1.1 -0.47
v 1.31 -1.1 -0.51
v 1.29 -1.1 -0.49
vn 0 1 0
f 65//49 66//49 67//49 
v 1.33 -1.1 -0.49
f 66//49 65//49 68//49 
v 1.31 -3.1 -0.51
v 1.31 -3.1 -0.47
v 1.29 -3.1 -0.49
vn 0 -1 0
f 69//50 70//50 71//50 
v 1.33 -3.1 -0.49
f 70//50 69//50 72//50 
vn 0 0 1
vn 1 0 0
f 65//51 72//52 68//52 
f 72//52 65//51 70//51 
vn -1 0 0
f 71//53 65//51 67//53 
f 65//51 71//53 70//51 
vn 0 0 -1
f 71//53 66//54 69//54 
f 66//54 71//53 67//53 
f 72//52 66//54 68//52 
f 66//54 72//52 69//54 
g Group18 
usemtl Layer_Layer0
v 1.31 -3.1 -2.47
v 1.31 -3.1 -2.51
v 1.31 -3.12 -2.49
vn -1 0 0
f 73//55 74//55 75//55 
v 1.31 -3.08 -2.49
f 74//55 73//55 76//55 
v 4.31 -3.1 -2.51
v 4.31 -3.1 -2.47
v 4.31 -3.12 -2.49
vn 1 0 0
f 77//56 78//56 79//56 
v 4.31 -3.08 -2.49
f 78//56 77//56 80//56 
vn 0 0 1
vn 0 1 0
f 73//57 80//58 76//58 
f 80//58 73//57 78//57 
vn 0 -1 0
f 79//59 73//57 75//59 
f 73//57 79//59 78//57 
vn 0 0 -1
f 79//59 74//60 77//60 
f 74//60 79//59 75//59 
f 80//58 74//60 76//58 
f 74//60 80//58 77//60 
g Group19 
usemtl Layer_Layer0
v 4.31 2.9 -0.47
v 4.31 2.9 -0.51
v 4.31 2.92 -0.49
vn 1 0 0
f 81//61 82//61 83//61 
v 4.31 2.88 -0.49
f 82//61 81//61 84//61 
v -3.69 2.9 -0.51
v -3.69 2.9 -0.47
v -3.69 2.92 -0.49
vn -1 0 0
f 85//62 86//62 87//62 
v -3.69 2.88 -0.49
f 86//62 85//62 88//62 
vn 0 0 1
vn 0 -1 0
f 81//63 88//64 84//64 
f 88//64 81//63 86//63 
vn 0 1 0
f 87//65 81//63 83//65 
f 81//63 87//65 86//63 
vn 0 0 -1
f 87//65 82//66 85//66 
f 82//66 87//65 83//65 
f 88//64 82//66 84//64 
f 82//66 88//64 85//66 
g Group2 
usemtl Layer_Layer0
v 2.82789 -3.1 2.51894
v 2.79211 -3.1 2.50106
v 2.81 -3.12 2.51
vn -0.447214 0 0.894427
f 89//67 90//67 91//67 
v 2.81 -3.08 2.51
f 90//67 89//67 92//67 
v 4.29211 -3.1 -0.498944
v 4.32789 -3.1 -0.481056
v 4.31 -3.12 -0.49
vn 0.447214 0 -0.894427
f 93//68 94//68 95//68 
v 4.31 -3.08 -0.49
f 94//68 93//68 96//68 
vn 0.894427 0 0.447214
vn 0 1 0
f 89//69 96//70 92//70 
f 96//70 89//69 94//69 
vn 0 -1 0
f 95//71 89//69 91//71 
f 89//69 95//71 94//69 
vn -0.894424 0 -0.44722
f 95//71 90//72 93//72 
f 90//72 95//71 91//71 
f 96//70 90//72 92//70 
f 90//72 96//70 93//72 
g Group20 
usemtl Layer_Layer0
v 4.31 0.916641 2.52109
v 4.31 0.883359 2.49891
v 4.33 0.9 2.51
vn 0 -0.5547 0.83205
f 97//73 98//73 99//73 
v 4.29 0.9 2.51
f 98//73 97//73 100//73 
v 4.31 2.88336 -0.501094
v 4.31 2.91664 -0.478906
v 4.33 2.9 -0.49
vn 0 0.5547 -0.83205
f 101//74 102//74 103//74 
v 4.29 2.9 -0.49
f 102//74 101//74 104//74 
vn 0 0.832053 0.554697
vn -1 0 0
f 97//75 104//76 100//76 
f 104//76 97//75 102//75 
vn 1 0 0
f 103//77 97//75 99//77 
f 97//75 103//77 102//75 
vn 0 -0.832049 -0.554702
f 103//77 98//78 101//78 
f 98//78 103//77 99//77 
f 104//76 98//78 100//76 
f 98//78 104//76 101//78 
g Group21 
usemtl Layer_Layer0
v 4.31 -1.1 -0.47
v 4.31 -1.1 -0.51
v 4.29 -1.1 -0.49
vn 0 1 0
f 105//79 106//79 107//79 
v 4.33 -1.1 -0.49
f 106//79 105//79 108//79 
v 4.31 -3.1 -0.51
v 4.31 -3.1 -0.47
v 4.29 -3.1 -0.49
vn 0 -1 0
f 109//80 110//80 111//80 
v 4.33 -3.1 -0.49
f 110//80 109//80 112//80 
vn 0 0 1
vn 1 0 0
f 105//81 112//82 108//82 
f 112//82 105//81 110//81 
vn -1 0 0
f 111//83 105//81 107//83 
f 105//81 111//83 110//81 
vn 0 0 -1
f 111//83 106//84 109//84 
f 106//84 111//83 107//83 
f 112//82 106//84 108//82 
f 106//84 112//82 109//84 
g Group22 
usemtl Layer_Layer0
v -3.69 0.883359 2.52109
v -3.69 0.916641 2.49891
v -3.71 0.9 2.51
vn 0 0.5547 0.83205
f 113//85 114//85 115//85 
v -3.67 0.9 2.51
f 114//85 113//85 116//85 
v -3.69 -1.08336 -0.501094
v -3.69 -1.11664 -0.478906
v -3.71 -1.1 -0.49
vn 0 -0.5547 -0.83205
f 117//86 118//86 119//86 
v -3.67 -1.1 -0.49
f 118//86 117//86 120//86 
vn 0 -0.832053 0.554697
vn 1 0 0
f 113//87 120//88 116//88 
f 120//88 113//87 118//87 
vn -1 0 0
f 119//89 113//87 115//89 
f 113//87 119//89 118//87 
vn 0 0.832049 -0.554702
f 119//89 114//90 117//90 
f 114//90 119//89 115//89 
f 120//88 114//90 116//88 
f 114//90 120//88 117//90 
g Group23 
usemtl Layer_Layer0
v -3.69 2.92 -2.49
v -3.69 2.88 -2.49
v -3.71 2.9 -2.49
vn 0 0 -1
f 121//91 122//91 123//91 
v -3.67 2.9 -2.49
f 122//91 121//91 124//91 
v -3.69 2.88 -0.49
v -3.69 2.92 -0.49
v -3.71 2.9 -0.49
vn 0 0 1
f 125//92 126//92 127//92 
v -3.67 2.9 -0.49
f 126//92 125//92 128//92 
vn 0 1 0
vn 1 0 0
f 121//93 128//94 124//94 
f 128//94 121//93 126//93 
vn -1 0 0
f 127//95 121//93 123//95 
f 121//93 127//95 126//93 
vn 0 -1 0
f 127//95 122//96 125//96 
f 122//96 127//95 123//95 
f 128//94 122//96 124//94 
f 122//96 128//94 125//96 
g Group24 
usemtl Layer_Layer0
v 1.31 -1.1 -2.47
v 1.31 -1.1 -2.51
v 1.29 -1.1 -2.49
vn 0 1 0
f 129//97 130//97 131//97 
v 1.33 -1.1 -2.49
f 130//97 129//97 132//97 
v 1.31 -3.1 -2.51
v 1.31 -3.1 -2.47
v 1.29 -3.1 -2.49
vn 0 -1 0
f 133//98 134//98 135//98 
v 1.33 -3.1 -2.49
f 134//98 133//98 136//98 
vn 0 0 1
vn 1 0 0
f 129//99 136//100 132//100 
f 136//100 129//99 134//99 
vn -1 0 0
f 135//101 129//99 131//101 
f 129//99 135//101 134//99 
vn 0 0 -1
f 135//101 130//102 133//102 
f 130//102 135//101 131//101 
f 136//100 130//102 132//100 
f 130//102 136//100 133//102 
g Group25 
usemtl Layer_Layer0
v 1.30078 -1.11229 -0.477196
v 1.31922 -1.08771 -0.502804
v 1.326 -1.112 -0.49
vn -0.384111 -0.512148 -0.768221
f 137//103 138//103 139//103 
v 1.294 -1.088 -0.49
f 138//103 137//103 140//103 
v 2.81922 0.912292 2.4972
v 2.80078 0.887708 2.5228
v 2.826 0.888 2.51
vn 0.384111 0.512148 0.768221
f 141//104 142//104 143//104 
v 2.794 0.912 2.51
f 142//104 141//104 144//104 
vn -0.460933 -0.614578 0.640184
vn -0.8 0.599999 0
f 137//105 144//106 140//106 
f 144//106 137//105 142//105 
vn 0.8 -0.599999 0
f 143//107 137//105 139//107 
f 137//105 143//107 142//105 
vn 0.460933 0.614578 -0.640184
f 143//107 138//108 141//108 
f 138//108 143//107 139//107 
f 144//106 138//108 140//106 
f 138//108 144//106 141//108 
g Group26 
usemtl Layer_Layer0
v -3.69 -1.1 -0.47
v -3.69 -1.1 -0.51
v -3.69 -1.12 -0.49
vn -1 0 0
f 145//109 146//109 147//109 
v -3.69 -1.08 -0.49
f 146//109 145//109 148//109 
v 1.31 -1.1 -0.51
v 1.31 -1.1 -0.47
v 1.31 -1.12 -0.49
vn 1 0 0
f 149//110 150//110 151//110 
v 1.31 -1.08 -0.49
f 150//110 149//110 152//110 
vn 0 0 1
vn 0 1 0
f 145//111 152//112 148//112 
f 152//112 145//111 150//111 
vn 0 -1 0
f 151//113 145//111 147//113 
f 145//111 151//113 150//111 
vn 0 0 -1
f 151//113 146//114 149//114 
f 146//114 151//113 147//113 
f 152//112 146//114 148//112 
f 146//114 152//112 149//114 
g Group27 
usemtl Color_B04
v 4.31 2.9 -2.49
v -3.69 -1.1 -2.49
v -3.69 2.9 -2.49
vn 0 0 -1
f 153//115 154//115 155//115 
v 1.31 -1.1 -2.49
f 154//115 153//115 156//115 
v 1.31 -3.1 -2.49
f 156//115 153//115 157//115 
v 4.31 -3.1 -2.49
f 157//115 153//115 158//115 
v 2.81 0.9 2.51
v -3.69 -1.1 -0.49
v 1.31 -1.1 -0.49
vn -4.26324e-18 -0.83205 0.5547
f 159//116 160//116 161//116 
v -3.69 0.9 2.51
f 160//116 159//116 162//116 
v 4.31 -3.1 -0.49
vn 1 0 0
f 153//117 163//117 158//117 
v 4.31 -1.1 -0.49
f 163//117 153//117 164//117 
v 4.31 0.9 2.51
f 164//117 153//117 165//117 
v 4.31 2.9 -0.49
f 165//117 153//117 166//117 
vn 0 -1 0
f 161//118 154//118 156//118 
f 154//118 161//118 160//118 
vn -1 0 0
f 162//119 154//119 160//119 
f 154//119 162//119 155//119 
v -3.69 2.9 -0.49
f 155//119 162//119 167//119 
vn 0 1 0
f 167//120 153//120 155//120 
f 153//120 167//120 166//120 
vn 1.40197e-17 0.83205 0.5547
f 162//121 166//121 167//121 
f 166//121 162//121 165//121 
f 165//121 162//121 159//121 
f 163//118 157//118 158//118 
v 1.31 -3.1 -0.49
f 157//118 163//118 168//118 
v 2.81 -3.1 2.51
f 168//118 163//118 169//118 
f 161//119 157//119 168//119 
f 157//119 161//119 156//119 
vn -9.55676e-17 -0.83205 0.5547
f 159//122 164//122 165//122 
vn 0.894427 1.54098e-17 0.447214
f 164//123 169//123 163//123 
f 169//123 164//123 159//123 
vn -0.894427 -1.54098e-17 0.447214
f 159//124 168//124 169//124 
f 168//124 159//124 161//124 
usemtl Layer_Layer0
v 2.81 -3.1 2.53
v 2.81 -3.1 2.49
v 2.83 -3.1 2.51
f 170//118 171//118 172//118 
v 2.79 -3.1 2.51
f 171//118 170//118 173//118 
v 2.81 0.9 2.49
v 2.81 0.9 2.53
v 2.83 0.9 2.51
f 174//120 175//120 176//120 
v 2.79 0.9 2.51
f 175//120 174//120 177//120 
vn 0 0 1
f 170//125 177//119 173//119 
f 177//119 170//125 175//125 
f 176//117 170//125 172//117 
f 170//125 176//117 175//125 
f 176//117 171//115 174//115 
f 171//115 176//117 172//117 
f 177//119 171//115 173//119 
f 171//115 177//119 174//115 
g Group3 
usemtl Layer_Layer0
v 4.31 -3.1 -2.47
v 4.31 -3.1 -2.51
v 4.33 -3.1 -2.49
vn 0 -1 0
f 178//126 179//126 180//126 
v 4.29 -3.1 -2.49
f 179//126 178//126 181//126 
v 4.31 2.9 -2.51
v 4.31 2.9 -2.47
v 4.33 2.9 -2.49
vn 0 1 0
f 182//127 183//127 184//127 
v 4.29 2.9 -2.49
f 183//127 182//127 185//127 
vn 0 0 1
vn -1 0 0
f 178//128 185//129 181//129 
f 185//129 178//128 183//128 
vn 1 0 0
f 184//130 178//128 180//130 
f 178//128 184//130 183//128 
vn 0 0 -1
f 184//130 179//131 182//131 
f 179//131 184//130 180//130 
f 185//129 179//131 181//129 
f 179//131 185//129 182//131 
g Group4 
usemtl Layer_Layer0
v 4.31 -1.11664 -0.478906
v 4.31 -1.08336 -0.501094
v 4.33 -1.1 -0.49
vn 0 -0.5547 -0.83205
f 186//132 187//132 188//132 
v 4.29 -1.1 -0.49
f 187//132 186//132 189//132 
v 4.31 0.916641 2.49891
v 4.31 0.883359 2.52109
v 4.33 0.9 2.51
vn 0 0.5547 0.83205
f 190//133 191//133 192//133 
v 4.29 0.9 2.51
f 191//133 190//133 193//133 
vn 0 -0.832051 0.554699
vn -1 0 0
f 186//134 193//135 189//135 
f 193//135 186//134 191//134 
vn 1 0 0
f 192//136 186//134 188//136 
f 186//134 192//136 191//134 
vn 0 0.83205 -0.554701
f 192//136 187//137 190//137 
f 187//137 192//136 188//136 
f 193//135 187//137 189//135 
f 187//137 193//135 190//137 
g Group5 
usemtl Layer_Layer0
v -3.69 -1.08 -2.49
v -3.69 -1.12 -2.49
v -3.71 -1.1 -2.49
vn 0 0 -1
f 194//138 195//138 196//138 
v -3.67 -1.1 -2.49
f 195//138 194//138 197//138 
v -3.69 -1.12 -0.49
v -3.69 -1.08 -0.49
v -3.71 -1.1 -0.49
vn 0 0 1
f 198//139 199//139 200//139 
v -3.67 -1.1 -0.49
f 199//139 198//139 201//139 
vn 0 1 0
vn 1 0 0
f 194//140 201//141 197//141 
f 201//141 194//140 199//140 
vn -1 0 0
f 200//142 194//140 196//142 
f 194//140 200//142 199//140 
vn 0 -1 0
f 200//142 195//143 198//143 
f 195//143 200//142 196//142 
f 201//141 195//143 197//141 
f 195//143 201//141 198//143 
g Group6 
usemtl Layer_Layer0
v 2.79211 -3.1 2.51894
v 2.82789 -3.1 2.50106
v 2.81 -3.08 2.51
vn 0.447214 0 0.894427
f 202//144 203//144 204//144 
v 2.81 -3.12 2.51
f 203//144 202//144 205//144 
v 1.32789 -3.1 -0.498944
v 1.29211 -3.1 -0.481056
v 1.31 -3.08 -0.49
vn -0.447214 0 -0.894427
f 206//145 207//145 208//145 
v 1.31 -3.12 -0.49
f 207//145 206//145 209//145 
vn -0.894427 0 0.447214
vn 0 -1 0
f 202//146 209//147 205//147 
f 209//147 202//146 207//146 
vn 0 1 0
f 208//148 202//146 204//148 
f 202//146 208//148 207//146 
vn 0.894424 0 -0.44722
f 208//148 203//149 206//149 
f 203//149 208//148 204//148 
f 209//147 203//149 205//147 
f 203//149 209//147 206//149 
g Group7 
usemtl Layer_Layer0
v 4.31 -3.08 -2.49
v 4.31 -3.12 -2.49
v 4.29 -3.1 -2.49
vn 0 0 -1
f 210//150 211//150 212//150 
v 4.33 -3.1 -2.49
f 211//150 210//150 213//150 
v 4.31 -3.12 -0.49
v 4.31 -3.08 -0.49
v 4.29 -3.1 -0.49
vn 0 0 1
f 214//151 215//151 216//151 
v 4.33 -3.1 -0.49
f 215//151 214//151 217//151 
vn 0 1 0
vn 1 0 0
f 210//152 217//153 213//153 
f 217//153 210//152 215//152 
vn -1 0 0
f 216//154 210//152 212//154 
f 210//152 216//154 215//152 
vn 0 -1 0
f 216//154 211//155 214//155 
f 211//155 216//154 212//154 
f 217//153 211//155 213//153 
f 211//155 217//153 214//155 
g Group8 
usemtl Layer_Layer0
v 1.31 -3.08 -2.49
v 1.31 -3.12 -2.49
v 1.29 -3.1 -2.49
vn 0 0 -1
f 218//156 219//156 220//156 
v 1.33 -3.1 -2.49
f 219//156 218//156 221//156 
v 1.31 -3.12 -0.49
v 1.31 -3.08 -0.49
v 1.29 -3.1 -0.49
vn 0 0 1
f 222//157 223//157 224//157 
v 1.33 -3.1 -0.49
f 223//157 222//157 225//157 
vn 0 1 0
vn 1 0 0
f 218//158 225//159 221//159 
f 225//159 218//158 223//158 
vn -1 0 0
f 224//160 218//158 220//160 
f 218//158 224//160 223//158 
vn 0 -1 0
f 224//160 219//161 222//161 
f 219//161 224//160 220//160 
f 225//159 219//161 221//159 
f 219//161 225//159 222//161 
g Group9 
usemtl Layer_Layer0
v 2.81 0.9 2.53
v 2.81 0.9 2.49
v 2.81 0.92 2.51
vn 1 0 0
f 226//162 227//162 228//162 
v 2.81 0.88 2.51
f 227//162 226//162 229//162 
v -3.69 0.9 2.49
v -3.69 0.9 2.53
v -3.69 0.92 2.51
vn -1 0 0
f 230//163 231//163 232//163 
v -3.69 0.88 2.51
f 231//163 230//163 233//163 
vn 0 0 1
vn 0 -1 0
f 226//164 233//165 229//165 
f 233//165 226//164 231//164 
vn 0 1 0
f 232//166 226//164 228//166 
f 226//164 232//166 231//164 
vn 0 0 -1
f 232//166 227//167 230//167 
f 227//167 232//166 228//166 
f 233//165 227//167 229//165 
f 227//167 233//165 230//167 
