mtllib mtl
s 1
o 
g Group1 
usemtl Layer_Layer0
v 1.37 -1.27 0.08
v 1.37 -1.27 0.04
v 1.37 -1.29 0.06
vn -1 0 0
f 1//1 2//1 3//1 
v 1.37 -1.25 0.06
f 2//1 1//1 4//1 
v 4.37 -1.27 0.04
v 4.37 -1.27 0.08
v 4.37 -1.29 0.06
vn 1 0 0
f 5//2 6//2 7//2 
v 4.37 -1.25 0.06
f 6//2 5//2 8//2 
vn 0 0 1
vn 0 1 0
f 1//3 8//4 4//4 
f 8//4 1//3 6//3 
vn 0 -1 0
f 7//5 1//3 3//5 
f 1//3 7//5 6//3 
vn 0 0 -1
f 7//5 2//6 5//6 
f 2//6 7//5 3//5 
f 8//4 2//6 4//4 
f 2//6 8//4 5//6 
g Group10 
usemtl Layer_Layer0
v 4.37 0.746641 3.07109
v 4.37 0.713359 3.04891
v 4.39 0.73 3.06
vn 0 -0.5547 0.83205
f 9//7 10//7 11//7 
v 4.35 0.73 3.06
f 10//7 9//7 12//7 
v 4.37 2.71336 0.048906
v 4.37 2.74664 0.071094
v 4.39 2.73 0.06
vn 0 0.5547 -0.83205
f 13//8 14//8 15//8 
v 4.35 2.73 0.06
f 14//8 13//8 16//8 
vn 0 0.832053 0.554697
vn -1 0 0
f 9//9 16//10 12//10 
f 16//10 9//9 14//9 
vn 1 0 0
f 15//11 9//9 11//11 
f 9//9 15//11 14//9 
vn 0 -0.832049 -0.554702
f 15//11 10//12 13//12 
f 10//12 15//11 11//11 
f 16//10 10//12 12//10 
f 10//12 16//10 13//12 
g Group11 
usemtl Layer_Layer0
v -3.63 2.74664 0.071094
v -3.63 2.71336 0.048906
v -3.65 2.73 0.06
vn 0 0.5547 -0.83205
f 17//13 18//13 19//13 
v -3.61 2.73 0.06
f 18//13 17//13 20//13 
v -3.63 0.713359 3.04891
v -3.63 0.746641 3.07109
v -3.65 0.73 3.06
vn 0 -0.5547 0.83205
f 21//14 22//14 23//14 
v -3.61 0.73 3.06
f 22//14 21//14 24//14 
vn 0 0.832049 0.554702
vn 1 0 0
f 17//15 24//16 20//16 
f 24//16 17//15 22//15 
vn -1 0 0
f 23//17 17//15 19//17 
f 17//15 23//17 22//15 
vn 0 -0.832051 -0.554698
f 23//17 18//18 21//18 
f 18//18 23//17 19//17 
f 24//16 18//18 20//16 
f 18//18 24//16 21//18 
g Group12 
usemtl Layer_Layer0
v -3.63 2.73 -1.92
v -3.63 2.73 -1.96
v -3.65 2.73 -1.94
vn 0 1 0
f 25//19 26//19 27//19 
v -3.61 2.73 -1.94
f 26//19 25//19 28//19 
v -3.63 -1.27 -1.96
v -3.63 -1.27 -1.92
v -3.65 -1.27 -1.94
vn 0 -1 0
f 29//20 30//20 31//20 
v -3.61 -1.27 -1.94
f 30//20 29//20 32//20 
vn 0 0 1
vn 1 0 0
f 25//21 32//22 28//22 
f 32//22 25//21 30//21 
vn -1 0 0
f 31//23 25//21 27//23 
f 25//21 31//23 30//21 
vn 0 0 -1
f 31//23 26//24 29//24 
f 26//24 31//23 27//23 
f 32//22 26//24 28//22 
f 26//24 32//22 29//24 
g Group13 
usemtl Layer_Layer0
v 1.37 -1.27 -1.92
v 1.37 -1.27 -1.96
v 1.35 -1.27 -1.94
vn 0 1 0
f 33//25 34//25 35//25 
v 1.39 -1.27 -1.94
f 34//25 33//25 36//25 
v 1.37 -3.27 -1.96
v 1.37 -3.27 -1.92
v 1.35 -3.27 -1.94
vn 0 -1 0
f 37//26 38//26 39//26 
v 1.39 -3.27 -1.94
f 38//26 37//26 40//26 
vn 0 0 1
vn 1 0 0
f 33//27 40//28 36//28 
f 40//28 33//27 38//27 
vn -1 0 0
f 39//29 33//27 35//29 
f 33//27 39//29 38//27 
vn 0 0 -1
f 39//29 34//30 37//30 
f 34//30 39//29 35//29 
f 40//28 34//30 36//28 
f 34//30 40//28 37//30 
g Group14 
usemtl Layer_Layer0
v 4.37 2.73 0.08
v 4.37 2.73 0.04
v 4.37 2.75 0.06
vn 1 0 0
f 41//31 42//31 43//31 
v 4.37 2.71 0.06
f 42//31 41//31 44//31 
v -3.63 2.73 0.04
v -3.63 2.73 0.08
v -3.63 2.75 0.06
vn -1 0 0
f 45//32 46//32 47//32 
v -3.63 2.71 0.06
f 46//32 45//32 48//32 
vn 0 0 1
vn 0 -1 0
f 41//33 48//34 44//34 
f 48//34 41//33 46//33 
vn 0 1 0
f 47//35 41//33 43//35 
f 41//33 47//35 46//33 
vn 0 0 -1
f 47//35 42//36 45//36 
f 42//36 47//35 43//35 
f 48//34 42//36 44//34 
f 42//36 48//34 45//36 
g Group15 
usemtl Layer_Layer0
v 1.37 -3.27 -1.92
v 1.37 -3.27 -1.96
v 1.37 -3.29 -1.94
vn -1 0 0
f 49//37 50//37 51//37 
v 1.37 -3.25 -1.94
f 50//37 49//37 52//37 
v 4.37 -3.27 -1.96
v 4.37 -3.27 -1.92
v 4.37 -3.29 -1.94
vn 1 0 0
f 53//38 54//38 55//38 
v 4.37 -3.25 -1.94
f 54//38 53//38 56//38 
vn 0 0 1
vn 0 1 0
f 49//39 56//40 52//40 
f 56//40 49//39 54//39 
vn 0 -1 0
f 55//41 49//39 51//41 
f 49//39 55//41 54//39 
vn 0 0 -1
f 55//41 50//42 53//42 
f 50//42 55//41 51//41 
f 56//40 50//42 52//40 
f 50//42 56//40 53//42 
g Group16 
usemtl Layer_Layer0
v 1.37 -3.25 -1.94
v 1.37 -3.29 -1.94
v 1.35 -3.27 -1.94
vn 0 0 -1
f 57//43 58//43 59//43 
v 1.39 -3.27 -1.94
f 58//43 57//43 60//43 
v 1.37 -3.29 0.06
v 1.37 -3.25 0.06
v 1.35 -3.27 0.06
vn 0 0 1
f 61//44 62//44 63//44 
v 1.39 -3.27 0.06
f 62//44 61//44 64//44 
vn 0 1 0
vn 1 0 0
f 57//45 64//46 60//46 
f 64//46 57//45 62//45 
vn -1 0 0
f 63//47 57//45 59//47 
f 57//45 63//47 62//45 
vn 0 -1 0
f 63//47 58//48 61//48 
f 58//48 63//47 59//47 
f 64//46 58//48 60//46 
f 58//48 64//46 61//48 
g Group17 
usemtl Layer_Layer0
v 1.37 -1.27 0.08
v 1.37 -1.27 0.04
v 1.35 -1.27 0.06
vn 0 1 0
f 65//49 66//49 67//49 
v 1.39 -1.27 0.06
f 66//49 65//49 68//49 
v 1.37 -3.27 0.04
v 1.37 -3.27 0.08
v 1.35 -3.27 0.06
vn 0 -1 0
f 69//50 70//50 71//50 
v 1.39 -3.27 0.06
f 70//50 69//50 72//50 
vn 0 0 1
vn 1 0 0
f 65//51 72//52 68//52 
f 72//52 65//51 70//51 
vn -1 0 0
f 71//53 65//51 67//53 
f 65//51 71//53 70//51 
vn 0 0 -1
f 71//53 66//54 69//54 
f 66//54 71//53 67//53 
f 72//52 66//54 68//52 
f 66//54 72//52 69//54 
g Group18 
usemtl Layer_Layer0
v 4.37 -3.25 -1.94
v 4.37 -3.29 -1.94
v 4.35 -3.27 -1.94
vn 0 0 -1
f 73//55 74//55 75//55 
v 4.39 -3.27 -1.94
f 74//55 73//55 76//55 
v 4.37 -3.29 0.06
v 4.37 -3.25 0.06
v 4.35 -3.27 0.06
vn 0 0 1
f 77//56 78//56 79//56 
v 4.39 -3.27 0.06
f 78//56 77//56 80//56 
vn 0 1 0
vn 1 0 0
f 73//57 80//58 76//58 
f 80//58 73//57 78//57 
vn -1 0 0
f 79//59 73//57 75//59 
f 73//57 79//59 78//57 
vn 0 -1 0
f 79//59 74//60 77//60 
f 74//60 79//59 75//59 
f 80//58 74//60 76//58 
f 74//60 80//58 77//60 
g Group19 
usemtl Layer_Layer0
v 4.37 -1.27 0.08
v 4.37 -1.27 0.04
v 4.35 -1.27 0.06
vn 0 1 0
f 81//61 82//61 83//61 
v 4.39 -1.27 0.06
f 82//61 81//61 84//61 
v 4.37 -3.27 0.04
v 4.37 -3.27 0.08
v 4.35 -3.27 0.06
vn 0 -1 0
f 85//62 86//62 87//62 
v 4.39 -3.27 0.06
f 86//62 85//62 88//62 
vn 0 0 1
vn 1 0 0
f 81//63 88//64 84//64 
f 88//64 81//63 86//63 
vn -1 0 0
f 87//65 81//63 83//65 
f 81//63 87//65 86//63 
vn 0 0 -1
f 87//65 82//66 85//66 
f 82//66 87//65 83//65 
f 88//64 82//66 84//64 
f 82//66 88//64 85//66 
g Group2 
usemtl Layer_Layer0
v 1.37 -1.25 -1.94
v 1.37 -1.29 -1.94
v 1.35 -1.27 -1.94
vn 0 0 -1
f 89//67 90//67 91//67 
v 1.39 -1.27 -1.94
f 90//67 89//67 92//67 
v 1.37 -1.29 0.06
v 1.37 -1.25 0.06
v 1.35 -1.27 0.06
vn 0 0 1
f 93//68 94//68 95//68 
v 1.39 -1.27 0.06
f 94//68 93//68 96//68 
vn 0 1 0
vn 1 0 0
f 89//69 96//70 92//70 
f 96//70 89//69 94//69 
vn -1 0 0
f 95//71 89//69 91//71 
f 89//69 95//71 94//69 
vn 0 -1 0
f 95//71 90//72 93//72 
f 90//72 95//71 91//71 
f 96//70 90//72 92//70 
f 90//72 96//70 93//72 
g Group20 
usemtl Layer_Layer0
v 4.37 -1.27 -1.92
v 4.37 -1.27 -1.96
v 4.39 -1.27 -1.94
vn 0 -1 0
f 97//73 98//73 99//73 
v 4.35 -1.27 -1.94
f 98//73 97//73 100//73 
v 4.37 2.73 -1.96
v 4.37 2.73 -1.92
v 4.39 2.73 -1.94
vn 0 1 0
f 101//74 102//74 103//74 
v 4.35 2.73 -1.94
f 102//74 101//74 104//74 
vn 0 0 1
vn -1 0 0
f 97//75 104//76 100//76 
f 104//76 97//75 102//75 
vn 1 0 0
f 103//77 97//75 99//77 
f 97//75 103//77 102//75 
vn 0 0 -1
f 103//77 98//78 101//78 
f 98//78 103//77 99//77 
f 104//76 98//78 100//76 
f 98//78 104//76 101//78 
g Group21 
usemtl Layer_Layer0
v 4.37 2.75 -1.94
v 4.37 2.71 -1.94
v 4.35 2.73 -1.94
vn 0 0 -1
f 105//79 106//79 107//79 
v 4.39 2.73 -1.94
f 106//79 105//79 108//79 
v 4.37 2.71 0.06
v 4.37 2.75 0.06
v 4.35 2.73 0.06
vn 0 0 1
f 109//80 110//80 111//80 
v 4.39 2.73 0.06
f 110//80 109//80 112//80 
vn 0 1 0
vn 1 0 0
f 105//81 112//82 108//82 
f 112//82 105//81 110//81 
vn -1 0 0
f 111//83 105//81 107//83 
f 105//81 111//83 110//81 
vn 0 -1 0
f 111//83 106//84 109//84 
f 106//84 111//83 107//83 
f 112//82 106//84 108//82 
f 106//84 112//82 109//84 
g Group22 
usemtl Layer_Layer0
v 4.37 2.73 -1.92
v 4.37 2.73 -1.96
v 4.37 2.75 -1.94
vn 1 0 0
f 113//85 114//85 115//85 
v 4.37 2.71 -1.94
f 114//85 113//85 116//85 
v -3.63 2.73 -1.96
v -3.63 2.73 -1.92
v -3.63 2.75 -1.94
vn -1 0 0
f 117//86 118//86 119//86 
v -3.63 2.71 -1.94
f 118//86 117//86 120//86 
vn 0 0 1
vn 0 -1 0
f 113//87 120//88 116//88 
f 120//88 113//87 118//87 
vn 0 1 0
f 119//89 113//87 115//89 
f 113//87 119//89 118//87 
vn 0 0 -1
f 119//89 114//90 117//90 
f 114//90 119//89 115//89 
f 120//88 114//90 116//88 
f 114//90 120//88 117//90 
g Group23 
usemtl Layer_Layer0
v -3.63 -1.27 -1.92
v -3.63 -1.27 -1.96
v -3.63 -1.29 -1.94
vn -1 0 0
f 121//91 122//91 123//91 
v -3.63 -1.25 -1.94
f 122//91 121//91 124//91 
v 1.37 -1.27 -1.96
v 1.37 -1.27 -1.92
v 1.37 -1.29 -1.94
vn 1 0 0
f 125//92 126//92 127//92 
v 1.37 -1.25 -1.94
f 126//92 125//92 128//92 
vn 0 0 1
vn 0 1 0
f 121//93 128//94 124//94 
f 128//94 121//93 126//93 
vn 0 -1 0
f 127//95 121//93 123//95 
f 121//93 127//95 126//93 
vn 0 0 -1
f 127//95 122//96 125//96 
f 122//96 127//95 123//95 
f 128//94 122//96 124//94 
f 122//96 128//94 125//96 
g Group24 
usemtl Color_B04
v 4.37 2.73 -1.94
v -3.63 -1.27 -1.94
v -3.63 2.73 -1.94
vn 0 0 -1
f 129//97 130//97 131//97 
v 1.37 -1.27 -1.94
f 130//97 129//97 132//97 
v 1.37 -3.27 -1.94
f 132//97 129//97 133//97 
v 4.37 -3.27 -1.94
f 133//97 129//97 134//97 
v 4.37 -1.27 -1.94
f 134//97 129//97 135//97 
v 4.37 0.73 3.06
v 1.37 -1.27 0.06
v 4.37 -1.27 0.06
vn -9.23656e-18 -0.83205 0.5547
f 136//98 137//98 138//98 
v -3.63 -1.27 0.06
f 137//98 136//98 139//98 
v -3.63 0.73 3.06
f 139//98 136//98 140//98 
v 4.37 -3.27 0.06
vn 1 0 0
f 135//99 141//99 134//99 
f 141//99 135//99 138//99 
f 138//99 135//99 129//99 
f 138//99 129//99 136//99 
v 4.37 2.73 0.06
f 136//99 129//99 142//99 
vn 0 -1 0
f 137//100 130//100 132//100 
f 130//100 137//100 139//100 
vn -1 0 0
f 140//101 130//101 139//101 
f 130//101 140//101 131//101 
v -3.63 2.73 0.06
f 131//101 140//101 143//101 
vn 0 1 0
f 143//102 129//102 131//102 
f 129//102 143//102 142//102 
vn 0 0.83205 0.5547
f 140//103 142//103 143//103 
f 142//103 140//103 136//103 
f 141//100 133//100 134//100 
v 1.37 -3.27 0.06
f 133//100 141//100 144//100 
vn 0 0 1
f 141//104 137//104 144//104 
f 137//104 141//104 138//104 
f 137//101 133//101 144//101 
f 133//101 137//101 132//101 
usemtl Layer_Layer0
v -3.63 2.75 -1.94
v -3.63 2.71 -1.94
v -3.65 2.73 -1.94
f 145//97 146//97 147//97 
v -3.61 2.73 -1.94
f 146//97 145//97 148//97 
v -3.63 2.71 0.06
v -3.63 2.75 0.06
v -3.65 2.73 0.06
f 149//104 150//104 151//104 
v -3.61 2.73 0.06
f 150//104 149//104 152//104 
f 145//102 152//99 148//99 
f 152//99 145//102 150//102 
f 151//101 145//102 147//101 
f 145//102 151//101 150//102 
f 151//101 146//100 149//100 
f 146//100 151//101 147//101 
f 152//99 146//100 148//99 
f 146//100 152//99 149//100 
g Group3 
usemtl Layer_Layer0
v 4.37 0.73 3.08
v 4.37 0.73 3.04
v 4.37 0.75 3.06
vn 1 0 0
f 153//105 154//105 155//105 
v 4.37 0.71 3.06
f 154//105 153//105 156//105 
v -3.63 0.73 3.04
v -3.63 0.73 3.08
v -3.63 0.75 3.06
vn -1 0 0
f 157//106 158//106 159//106 
v -3.63 0.71 3.06
f 158//106 157//106 160//106 
vn 0 0 1
vn 0 -1 0
f 153//107 160//108 156//108 
f 160//108 153//107 158//107 
vn 0 1 0
f 159//109 153//107 155//109 
f 153//107 159//109 158//107 
vn 0 0 -1
f 159//109 154//110 157//110 
f 154//110 159//109 155//109 
f 160//108 154//110 156//108 
f 154//110 160//108 157//110 
g Group4 
usemtl Layer_Layer0
v -3.63 -1.25 -1.94
v -3.63 -1.29 -1.94
v -3.65 -1.27 -1.94
vn 0 0 -1
f 161//111 162//111 163//111 
v -3.61 -1.27 -1.94
f 162//111 161//111 164//111 
v -3.63 -1.29 0.06
v -3.63 -1.25 0.06
v -3.65 -1.27 0.06
vn 0 0 1
f 165//112 166//112 167//112 
v -3.61 -1.27 0.06
f 166//112 165//112 168//112 
vn 0 1 0
vn 1 0 0
f 161//113 168//114 164//114 
f 168//114 161//113 166//113 
vn -1 0 0
f 167//115 161//113 163//115 
f 161//113 167//115 166//113 
vn 0 -1 0
f 167//115 162//116 165//116 
f 162//116 167//115 163//115 
f 168//114 162//116 164//114 
f 162//116 168//114 165//116 
g Group5 
usemtl Layer_Layer0
v -3.63 0.713359 3.07109
v -3.63 0.746641 3.04891
v -3.65 0.73 3.06
vn 0 0.5547 0.83205
f 169//117 170//117 171//117 
v -3.61 0.73 3.06
f 170//117 169//117 172//117 
v -3.63 -1.25336 0.048906
v -3.63 -1.28664 0.071094
v -3.65 -1.27 0.06
vn 0 -0.5547 -0.83205
f 173//118 174//118 175//118 
v -3.61 -1.27 0.06
f 174//118 173//118 176//118 
vn 0 -0.832053 0.554697
vn 1 0 0
f 169//119 176//120 172//120 
f 176//120 169//119 174//119 
vn -1 0 0
f 175//121 169//119 171//121 
f 169//119 175//121 174//119 
vn 0 0.832049 -0.554702
f 175//121 170//122 173//122 
f 170//122 175//121 171//121 
f 176//120 170//122 172//120 
f 170//122 176//120 173//122 
g Group6 
usemtl Layer_Layer0
v 4.37 -3.27 -1.92
v 4.37 -3.27 -1.96
v 4.39 -3.27 -1.94
vn 0 -1 0
f 177//123 178//123 179//123 
v 4.35 -3.27 -1.94
f 178//123 177//123 180//123 
v 4.37 -1.27 -1.96
v 4.37 -1.27 -1.92
v 4.39 -1.27 -1.94
vn 0 1 0
f 181//124 182//124 183//124 
v 4.35 -1.27 -1.94
f 182//124 181//124 184//124 
vn 0 0 1
vn -1 0 0
f 177//125 184//126 180//126 
f 184//126 177//125 182//125 
vn 1 0 0
f 183//127 177//125 179//127 
f 177//125 183//127 182//125 
vn 0 0 -1
f 183//127 178//128 181//128 
f 178//128 183//127 179//127 
f 184//126 178//128 180//126 
f 178//128 184//126 181//128 
g Group7 
usemtl Layer_Layer0
v 1.37 -3.27 0.08
v 1.37 -3.27 0.04
v 1.37 -3.29 0.06
vn -1 0 0
f 185//129 186//129 187//129 
v 1.37 -3.25 0.06
f 186//129 185//129 188//129 
v 4.37 -3.27 0.04
v 4.37 -3.27 0.08
v 4.37 -3.29 0.06
vn 1 0 0
f 189//130 190//130 191//130 
v 4.37 -3.25 0.06
f 190//130 189//130 192//130 
vn 0 0 1
vn 0 1 0
f 185//131 192//132 188//132 
f 192//132 185//131 190//131 
vn 0 -1 0
f 191//133 185//131 187//133 
f 185//131 191//133 190//131 
vn 0 0 -1
f 191//133 186//134 189//134 
f 186//134 191//133 187//133 
f 192//132 186//134 188//132 
f 186//134 192//132 189//134 
g Group8 
usemtl Layer_Layer0
v -3.63 -1.27 0.08
v -3.63 -1.27 0.04
v -3.63 -1.29 0.06
vn -1 0 0
f 193//135 194//135 195//135 
v -3.63 -1.25 0.06
f 194//135 193//135 196//135 
v 1.37 -1.27 0.04
v 1.37 -1.27 0.08
v 1.37 -1.29 0.06
vn 1 0 0
f 197//136 198//136 199//136 
v 1.37 -1.25 0.06
f 198//136 197//136 200//136 
vn 0 0 1
vn 0 1 0
f 193//137 200//138 196//138 
f 200//138 193//137 198//137 
vn 0 -1 0
f 199//139 193//137 195//139 
f 193//137 199//139 198//137 
vn 0 0 -1
f 199//139 194//140 197//140 
f 194//140 199//139 195//139 
f 200//138 194//140 196//138 
f 194//140 200//138 197//140 
g Group9 
usemtl Layer_Layer0
v 4.37 -1.28664 0.071094
v 4.37 -1.25336 0.048906
v 4.39 -1.27 0.06
vn 0 -0.5547 -0.83205
f 201//141 202//141 203//141 
v 4.35 -1.27 0.06
f 202//141 201//141 204//141 
v 4.37 0.746641 3.04891
v 4.37 0.713359 3.07109
v 4.39 0.73 3.06
vn 0 0.5547 0.83205
f 205//142 206//142 207//142 
v 4.35 0.73 3.06
f 206//142 205//142 208//142 
vn 0 -0.83205 0.5547
vn -1 0 0
f 201//143 208//144 204//144 
f 208//144 201//143 206//143 
vn 1 0 0
f 207//145 201//143 203//145 
f 201//143 207//145 206//143 
vn 0 0.83205 -0.5547
f 207//145 202//146 205//146 
f 202//146 207//145 203//145 
f 208//144 202//146 204//144 
f 202//146 208//144 205//146 
