mtllib p135a.mtl
s 1
o 
g Group1 
usemtl Layer_Layer0
v 7.77 -4.45 5.08
v 7.77 -4.47 5.08
v 7.78 -4.46 5.08
vn 0 0 1
f 1//1 2//1 3//1 
v 7.76 -4.46 5.08
f 2//1 1//1 4//1 
v 7.77 -4.47 -4.42
v 7.77 -4.45 -4.42
v 7.78 -4.46 -4.42
vn 0 0 -1
f 5//2 6//2 7//2 
v 7.76 -4.46 -4.42
f 6//2 5//2 8//2 
vn 0 1 0
vn -1 0 0
f 1//3 8//4 4//4 
f 8//4 1//3 6//3 
vn 1 0 0
f 7//5 1//3 3//5 
f 1//3 7//5 6//3 
vn 0 -1 0
f 7//5 2//6 5//6 
f 2//6 7//5 3//5 
f 8//4 2//6 4//4 
f 2//6 8//4 5//6 
g Group10 
usemtl Layer_Layer0
v -4.23 5.04 -1.38
v -4.23 5.04 -1.46
v -4.27 5.04 -1.42
vn 0 1 0
f 9//7 10//7 11//7 
v -4.19 5.04 -1.42
f 10//7 9//7 12//7 
v -4.23 -1.46 -1.46
v -4.23 -1.46 -1.38
v -4.27 -1.46 -1.42
vn 0 -1 0
f 13//8 14//8 15//8 
v -4.19 -1.46 -1.42
f 14//8 13//8 16//8 
vn 0 0 1
vn 1 0 0
f 9//9 16//10 12//10 
f 16//10 9//9 14//9 
vn -1 0 0
f 15//11 9//9 11//11 
f 9//9 15//11 14//9 
vn 0 0 -1
f 15//11 10//12 13//12 
f 10//12 15//11 11//11 
f 16//10 10//12 12//10 
f 10//12 16//10 13//12 
g Group11 
usemtl Layer_Layer0
v 7.77 -1.42 1.58
v 7.77 -1.5 1.58
v 7.73 -1.46 1.58
vn 0 0 -1
f 17//13 18//13 19//13 
v 7.81 -1.46 1.58
f 18//13 17//13 20//13 
v 7.77 -1.5 5.08
v 7.77 -1.42 5.08
v 7.73 -1.46 5.08
vn 0 0 1
f 21//14 22//14 23//14 
v 7.81 -1.46 5.08
f 22//14 21//14 24//14 
vn 0 1 0
vn 1 0 0
f 17//15 24//16 20//16 
f 24//16 17//15 22//15 
vn -1 0 0
f 23//17 17//15 19//17 
f 17//15 23//17 22//15 
vn 0 -1 0
f 23//17 18//18 21//18 
f 18//18 23//17 19//17 
f 24//16 18//18 20//16 
f 18//18 24//16 21//18 
g Group12 
usemtl Layer_Layer0
v -7.23 -1.46 -1.38
v -7.23 -1.46 -1.46
v -7.23 -1.5 -1.42
vn -1 0 0
f 25//19 26//19 27//19 
v -7.23 -1.42 -1.42
f 26//19 25//19 28//19 
v -4.23 -1.46 -1.46
v -4.23 -1.46 -1.38
v -4.23 -1.5 -1.42
vn 1 0 0
f 29//20 30//20 31//20 
v -4.23 -1.42 -1.42
f 30//20 29//20 32//20 
vn 0 0 1
vn 0 1 0
f 25//21 32//22 28//22 
f 32//22 25//21 30//21 
vn 0 -1 0
f 31//23 25//21 27//23 
f 25//21 31//23 30//21 
vn 0 0 -1
f 31//23 26//24 29//24 
f 26//24 31//23 27//23 
f 32//22 26//24 28//22 
f 26//24 32//22 29//24 
g Group13 
usemtl Layer_Layer0
v 5.77 -1.46 1.62
v 5.77 -1.46 1.54
v 5.77 -1.5 1.58
vn -1 0 0
f 33//25 34//25 35//25 
v 5.77 -1.42 1.58
f 34//25 33//25 36//25 
v 7.77 -1.46 1.54
v 7.77 -1.46 1.62
v 7.77 -1.5 1.58
vn 1 0 0
f 37//26 38//26 39//26 
v 7.77 -1.42 1.58
f 38//26 37//26 40//26 
vn 0 0 1
vn 0 1 0
f 33//27 40//28 36//28 
f 40//28 33//27 38//27 
vn 0 -1 0
f 39//29 33//27 35//29 
f 33//27 39//29 38//27 
vn 0 0 -1
f 39//29 34//30 37//30 
f 34//30 39//29 35//29 
f 40//28 34//30 36//28 
f 34//30 40//28 37//30 
g Group14 
usemtl Layer_Layer0
v -7.23 -4.42 -4.42
v -7.23 -4.5 -4.42
v -7.27 -4.46 -4.42
vn 0 0 -1
f 41//31 42//31 43//31 
v -7.19 -4.46 -4.42
f 42//31 41//31 44//31 
v -7.23 -4.5 -1.42
v -7.23 -4.42 -1.42
v -7.27 -4.46 -1.42
vn 0 0 1
f 45//32 46//32 47//32 
v -7.19 -4.46 -1.42
f 46//32 45//32 48//32 
vn 0 1 0
vn 1 0 0
f 41//33 48//34 44//34 
f 48//34 41//33 46//33 
vn -1 0 0
f 47//35 41//33 43//35 
f 41//33 47//35 46//33 
vn 0 -1 0
f 47//35 42//36 45//36 
f 42//36 47//35 43//35 
f 48//34 42//36 44//34 
f 42//36 48//34 45//36 
g Group15 
usemtl Layer_Layer0
v -7.23 5.02324 -1.38368
v -7.23 5.05676 -1.45632
v -7.27 5.04 -1.42
vn 0 0.907959 0.419058
f 49//37 50//37 51//37 
v -7.19 5.04 -1.42
f 50//37 49//37 52//37 
v -7.23 -1.44324 -4.45632
v -7.23 -1.47676 -4.38368
v -7.27 -1.46 -4.42
vn 0 -0.907959 -0.419058
f 53//38 54//38 55//38 
v -7.19 -1.46 -4.42
f 54//38 53//38 56//38 
vn 0 -0.419066 0.907956
vn 1 0 0
f 49//39 56//40 52//40 
f 56//40 49//39 54//39 
vn -1 0 0
f 55//41 49//39 51//41 
f 49//39 55//41 54//39 
vn 0 0.419052 -0.907962
f 55//41 50//42 53//42 
f 50//42 55//41 51//41 
f 56//40 50//42 52//40 
f 50//42 56//40 53//42 
g Group16 
usemtl Layer_Layer0
v 5.77 -1.42 5.08
v 5.77 -1.5 5.08
v 5.81 -1.46 5.08
vn 0 0 1
f 57//43 58//43 59//43 
v 5.73 -1.46 5.08
f 58//43 57//43 60//43 
v 5.77 -1.5 1.58
v 5.77 -1.42 1.58
v 5.81 -1.46 1.58
vn 0 0 -1
f 61//44 62//44 63//44 
v 5.73 -1.46 1.58
f 62//44 61//44 64//44 
vn 0 1 0
vn -1 0 0
f 57//45 64//46 60//46 
f 64//46 57//45 62//45 
vn 1 0 0
f 63//47 57//45 59//47 
f 57//45 63//47 62//45 
vn 0 -1 0
f 63//47 58//48 61//48 
f 58//48 63//47 59//47 
f 64//46 58//48 60//46 
f 58//48 64//46 61//48 
g Group17 
usemtl Layer_Layer0
v 5.77 -4.46 -1.38
v 5.77 -4.46 -1.46
v 5.81 -4.46 -1.42
vn 0 -1 0
f 65//49 66//49 67//49 
v 5.73 -4.46 -1.42
f 66//49 65//49 68//49 
v 5.77 -1.46 -1.46
v 5.77 -1.46 -1.38
v 5.81 -1.46 -1.42
vn 0 1 0
f 69//50 70//50 71//50 
v 5.73 -1.46 -1.42
f 70//50 69//50 72//50 
vn 0 0 1
vn -1 0 0
f 65//51 72//52 68//52 
f 72//52 65//51 70//51 
vn 1 0 0
f 71//53 65//51 67//53 
f 65//51 71//53 70//51 
vn 0 0 -1
f 71//53 66//54 69//54 
f 66//54 71//53 67//53 
f 72//52 66//54 68//52 
f 66//54 72//52 69//54 
g Group18 
usemtl Layer_Layer0
v -7.23 -4.46 -1.38
v -7.23 -4.46 -1.46
v -7.23 -4.5 -1.42
vn -1 0 0
f 73//55 74//55 75//55 
v -7.23 -4.42 -1.42
f 74//55 73//55 76//55 
v 5.77 -4.46 -1.46
v 5.77 -4.46 -1.38
v 5.77 -4.5 -1.42
vn 1 0 0
f 77//56 78//56 79//56 
v 5.77 -4.42 -1.42
f 78//56 77//56 80//56 
vn 0 0 1
vn 0 1 0
f 73//57 80//58 76//58 
f 80//58 73//57 78//57 
vn 0 -1 0
f 79//59 73//57 75//59 
f 73//57 79//59 78//57 
vn 0 0 -1
f 79//59 74//60 77//60 
f 74//60 79//59 75//59 
f 80//58 74//60 76//58 
f 74//60 80//58 77//60 
g Group19 
usemtl Layer_Layer0
v -7.23 -1.46 -4.38
v -7.23 -1.46 -4.46
v -7.23 -1.5 -4.42
vn -1 0 0
f 81//61 82//61 83//61 
v -7.23 -1.42 -4.42
f 82//61 81//61 84//61 
v -4.23 -1.46 -4.46
v -4.23 -1.46 -4.38
v -4.23 -1.5 -4.42
vn 1 0 0
f 85//62 86//62 87//62 
v -4.23 -1.42 -4.42
f 86//62 85//62 88//62 
vn 0 0 1
vn 0 1 0
f 81//63 88//64 84//64 
f 88//64 81//63 86//63 
vn 0 -1 0
f 87//65 81//63 83//65 
f 81//63 87//65 86//63 
vn 0 0 -1
f 87//65 82//66 85//66 
f 82//66 87//65 83//65 
f 88//64 82//66 84//64 
f 82//66 88//64 85//66 
g Group2 
usemtl Layer_Layer0
v 5.77 -4.46 5.12
v 5.77 -4.46 5.04
v 5.81 -4.46 5.08
vn 0 -1 0
f 89//67 90//67 91//67 
v 5.73 -4.46 5.08
f 90//67 89//67 92//67 
v 5.77 -1.46 5.04
v 5.77 -1.46 5.12
v 5.81 -1.46 5.08
vn 0 1 0
f 93//68 94//68 95//68 
v 5.73 -1.46 5.08
f 94//68 93//68 96//68 
vn 0 0 1
vn -1 0 0
f 89//69 96//70 92//70 
f 96//70 89//69 94//69 
vn 1 0 0
f 95//71 89//69 91//71 
f 89//69 95//71 94//69 
vn 0 0 -1
f 95//71 90//72 93//72 
f 90//72 95//71 91//71 
f 96//70 90//72 92//70 
f 90//72 96//70 93//72 
g Group20 
usemtl Layer_Layer0
v 7.77 -1.46 5.12
v 7.77 -1.46 5.04
v 7.77 -1.42 5.08
vn 1 0 0
f 97//73 98//73 99//73 
v 7.77 -1.5 5.08
f 98//73 97//73 100//73 
v 5.77 -1.46 5.04
v 5.77 -1.46 5.12
v 5.77 -1.42 5.08
vn -1 0 0
f 101//74 102//74 103//74 
v 5.77 -1.5 5.08
f 102//74 101//74 104//74 
vn 0 0 1
vn 0 -1 0
f 97//75 104//76 100//76 
f 104//76 97//75 102//75 
vn 0 1 0
f 103//77 97//75 99//77 
f 97//75 103//77 102//75 
vn 0 0 -1
f 103//77 98//78 101//78 
f 98//78 103//77 99//77 
f 104//76 98//78 100//76 
f 98//78 104//76 101//78 
g Group21 
usemtl Layer_Layer0
v -7.23 -1.42 -1.42
v -7.23 -1.5 -1.42
v -7.19 -1.46 -1.42
vn 0 0 1
f 105//79 106//79 107//79 
v -7.27 -1.46 -1.42
f 106//79 105//79 108//79 
v -7.23 -1.5 -4.42
v -7.23 -1.42 -4.42
v -7.19 -1.46 -4.42
vn 0 0 -1
f 109//80 110//80 111//80 
v -7.27 -1.46 -4.42
f 110//80 109//80 112//80 
vn 0 1 0
vn -1 0 0
f 105//81 112//82 108//82 
f 112//82 105//81 110//81 
vn 1 0 0
f 111//83 105//81 107//83 
f 105//81 111//83 110//81 
vn 0 -1 0
f 111//83 106//84 109//84 
f 106//84 111//83 107//83 
f 112//82 106//84 108//82 
f 106//84 112//82 109//84 
g Group22 
usemtl Layer_Layer0
v 1.27 5.08 -1.42
v 1.27 5 -1.42
v 1.23 5.04 -1.42
vn 0 0 -1
f 113//85 114//85 115//85 
v 1.31 5.04 -1.42
f 114//85 113//85 116//85 
v 1.27 5 1.58
v 1.27 5.08 1.58
v 1.23 5.04 1.58
vn 0 0 1
f 117//86 118//86 119//86 
v 1.31 5.04 1.58
f 118//86 117//86 120//86 
vn 0 1 0
vn 1 0 0
f 113//87 120//88 116//88 
f 120//88 113//87 118//87 
vn -1 0 0
f 119//89 113//87 115//89 
f 113//87 119//89 118//87 
vn 0 -1 0
f 119//89 114//90 117//90 
f 114//90 119//89 115//89 
f 120//88 114//90 116//88 
f 114//90 120//88 117//90 
g Group23 
usemtl Layer_Layer0
v 7.77 5.04 1.62
v 7.77 5.04 1.54
v 7.77 5.08 1.58
vn 1 0 0
f 121//91 122//91 123//91 
v 7.77 5 1.58
f 122//91 121//91 124//91 
v 1.27 5.04 1.54
v 1.27 5.04 1.62
v 1.27 5.08 1.58
vn -1 0 0
f 125//92 126//92 127//92 
v 1.27 5 1.58
f 126//92 125//92 128//92 
vn 0 0 1
vn 0 -1 0
f 121//93 128//94 124//94 
f 128//94 121//93 126//93 
vn 0 1 0
f 127//95 121//93 123//95 
f 121//93 127//95 126//93 
vn 0 0 -1
f 127//95 122//96 125//96 
f 122//96 127//95 123//95 
f 128//94 122//96 124//94 
f 122//96 128//94 125//96 
g Group24 
usemtl Layer_Layer0
v -7.23 -1.46 -1.38
v -7.23 -1.46 -1.46
v -7.27 -1.46 -1.42
vn 0 1 0
f 129//97 130//97 131//97 
v -7.19 -1.46 -1.42
f 130//97 129//97 132//97 
v -7.23 -4.46 -1.46
v -7.23 -4.46 -1.38
v -7.27 -4.46 -1.42
vn 0 -1 0
f 133//98 134//98 135//98 
v -7.19 -4.46 -1.42
f 134//98 133//98 136//98 
vn 0 0 1
vn 1 0 0
f 129//99 136//100 132//100 
f 136//100 129//99 134//99 
vn -1 0 0
f 135//101 129//99 131//101 
f 129//99 135//101 134//99 
vn 0 0 -1
f 135//101 130//102 133//102 
f 130//102 135//101 131//101 
f 136//100 130//102 132//100 
f 130//102 136//100 133//102 
g Group25 
usemtl Layer_Layer0
v 1.27 5.04 -1.38
v 1.27 5.04 -1.46
v 1.27 5.08 -1.42
vn 1 0 0
f 137//103 138//103 139//103 
v 1.27 5 -1.42
f 138//103 137//103 140//103 
v -4.23 5.04 -1.46
v -4.23 5.04 -1.38
v -4.23 5.08 -1.42
vn -1 0 0
f 141//104 142//104 143//104 
v -4.23 5 -1.42
f 142//104 141//104 144//104 
vn 0 0 1
vn 0 -1 0
f 137//105 144//106 140//106 
f 144//106 137//105 142//105 
vn 0 1 0
f 143//107 137//105 139//107 
f 137//105 143//107 142//105 
vn 0 0 -1
f 143//107 138//108 141//108 
f 138//108 143//107 139//107 
f 144//106 138//108 140//106 
f 138//108 144//106 141//108 
g Group26 
usemtl Layer_Layer0
v -4.23 -1.42 -1.42
v -4.23 -1.5 -1.42
v -4.19 -1.46 -1.42
vn 0 0 1
f 145//109 146//109 147//109 
v -4.27 -1.46 -1.42
f 146//109 145//109 148//109 
v -4.23 -1.5 -4.42
v -4.23 -1.42 -4.42
v -4.19 -1.46 -4.42
vn 0 0 -1
f 149//110 150//110 151//110 
v -4.27 -1.46 -4.42
f 150//110 149//110 152//110 
vn 0 1 0
vn -1 0 0
f 145//111 152//112 148//112 
f 152//112 145//111 150//111 
vn 1 0 0
f 151//113 145//111 147//113 
f 145//111 151//113 150//111 
vn 0 -1 0
f 151//113 146//114 149//114 
f 146//114 151//113 147//113 
f 152//112 146//114 148//112 
f 146//114 152//112 149//114 
g Group27 
usemtl Layer_Layer0
v -4.23 5.04 -1.38
v -4.23 5.04 -1.46
v -4.23 5.08 -1.42
vn 1 0 0
f 153//115 154//115 155//115 
v -4.23 5 -1.42
f 154//115 153//115 156//115 
v -7.23 5.04 -1.46
v -7.23 5.04 -1.38
v -7.23 5.08 -1.42
vn -1 0 0
f 157//116 158//116 159//116 
v -7.23 5 -1.42
f 158//116 157//116 160//116 
vn 0 0 1
vn 0 -1 0
f 153//117 160//118 156//118 
f 160//118 153//117 158//117 
vn 0 1 0
f 159//119 153//117 155//119 
f 153//117 159//119 158//117 
vn 0 0 -1
f 159//119 154//120 157//120 
f 154//120 159//119 155//119 
f 160//118 154//120 156//118 
f 154//120 160//118 157//120 
g Group28 
usemtl Layer_Layer0
v -7.23 5.08 -4.42
v -7.23 5 -4.42
v -7.27 5.04 -4.42
vn 0 0 -1
f 161//121 162//121 163//121 
v -7.19 5.04 -4.42
f 162//121 161//121 164//121 
v -7.23 5 -1.42
v -7.23 5.08 -1.42
v -7.27 5.04 -1.42
vn 0 0 1
f 165//122 166//122 167//122 
v -7.19 5.04 -1.42
f 166//122 165//122 168//122 
vn 0 1 0
vn 1 0 0
f 161//123 168//124 164//124 
f 168//124 161//123 166//123 
vn -1 0 0
f 167//125 161//123 163//125 
f 161//123 167//125 166//123 
vn 0 -1 0
f 167//125 162//126 165//126 
f 162//126 167//125 163//125 
f 168//124 162//126 164//124 
f 162//126 168//124 165//126 
g Group29 
usemtl Layer_Layer0
v 7.77 -4.46 5.12
v 7.77 -4.46 5.04
v 7.81 -4.46 5.08
vn 0 -1 0
f 169//127 170//127 171//127 
v 7.73 -4.46 5.08
f 170//127 169//127 172//127 
v 7.77 -1.46 5.04
v 7.77 -1.46 5.12
v 7.81 -1.46 5.08
vn 0 1 0
f 173//128 174//128 175//128 
v 7.73 -1.46 5.08
f 174//128 173//128 176//128 
vn 0 0 1
vn -1 0 0
f 169//129 176//130 172//130 
f 176//130 169//129 174//129 
vn 1 0 0
f 175//131 169//129 171//131 
f 169//129 175//131 174//129 
vn 0 0 -1
f 175//131 170//132 173//132 
f 170//132 175//131 171//131 
f 176//130 170//132 172//130 
f 170//132 176//130 173//132 
g Group3 
usemtl Layer_Layer0
v -7.23 5.04 -4.38
v -7.23 5.04 -4.46
v -7.27 5.04 -4.42
vn 0 1 0
f 177//133 178//133 179//133 
v -7.19 5.04 -4.42
f 178//133 177//133 180//133 
v -7.23 -1.46 -4.46
v -7.23 -1.46 -4.38
v -7.27 -1.46 -4.42
vn 0 -1 0
f 181//134 182//134 183//134 
v -7.19 -1.46 -4.42
f 182//134 181//134 184//134 
vn 0 0 1
vn 1 0 0
f 177//135 184//136 180//136 
f 184//136 177//135 182//135 
vn -1 0 0
f 183//137 177//135 179//137 
f 177//135 183//137 182//135 
vn 0 0 -1
f 183//137 178//138 181//138 
f 178//138 183//137 179//137 
f 184//136 178//138 180//136 
f 178//138 184//136 181//138 
g Group30 
usemtl Layer_Layer0
v 1.27 5.04 -1.38
v 1.27 5.04 -1.46
v 1.23711 5.01723 -1.42
vn -0.56921 0.822192 0
f 185//139 186//139 187//139 
v 1.30289 5.06277 -1.42
f 186//139 185//139 188//139 
v 5.77 -1.46 -1.46
v 5.77 -1.46 -1.38
v 5.73711 -1.48277 -1.42
vn 0.56921 -0.822192 0
f 189//140 190//140 191//140 
v 5.80289 -1.43723 -1.42
f 190//140 189//140 192//140 
vn 0 0 1
vn 0.822198 0.569202 0
f 185//141 192//142 188//142 
f 192//142 185//141 190//141 
vn -0.822191 -0.569212 0
f 191//143 185//141 187//143 
f 185//141 191//143 190//141 
vn 0 0 -1
f 191//143 186//144 189//144 
f 186//144 191//143 187//143 
f 192//142 186//144 188//142 
f 186//144 192//142 189//144 
g Group31 
usemtl Layer_Layer0
v 1.27 5.04 1.62
v 1.27 5.04 1.54
v 1.23711 5.01723 1.58
vn -0.56921 0.822192 0
f 193//145 194//145 195//145 
v 1.30289 5.06277 1.58
f 194//145 193//145 196//145 
v 5.77 -1.46 1.54
v 5.77 -1.46 1.62
v 5.73711 -1.48277 1.58
vn 0.56921 -0.822192 0
f 197//146 198//146 199//146 
v 5.80289 -1.43723 1.58
f 198//146 197//146 200//146 
vn 0 0 1
vn 0.822198 0.569202 0
f 193//147 200//148 196//148 
f 200//148 193//147 198//147 
vn -0.822191 -0.569212 0
f 199//149 193//147 195//149 
f 193//147 199//149 198//147 
vn 0 0 -1
f 199//149 194//150 197//150 
f 194//150 199//149 195//149 
f 200//148 194//150 196//148 
f 194//150 200//148 197//150 
g Group32 
usemtl Layer_Layer0
v 7.77 -1.46 1.62
v 7.77 -1.46 1.54
v 7.81 -1.46 1.58
vn 0 -1 0
f 201//151 202//151 203//151 
v 7.73 -1.46 1.58
f 202//151 201//151 204//151 
v 7.77 5.04 1.54
v 7.77 5.04 1.62
v 7.81 5.04 1.58
vn 0 1 0
f 205//152 206//152 207//152 
v 7.73 5.04 1.58
f 206//152 205//152 208//152 
vn 0 0 1
vn -1 0 0
f 201//153 208//154 204//154 
f 208//154 201//153 206//153 
vn 1 0 0
f 207//155 201//153 203//155 
f 201//153 207//155 206//153 
vn 0 0 -1
f 207//155 202//156 205//156 
f 202//156 207//155 203//155 
f 208//154 202//156 204//154 
f 202//156 208//154 205//156 
g Group33 
usemtl Layer_Layer0
v 5.77 -4.42 -1.42
v 5.77 -4.5 -1.42
v 5.73 -4.46 -1.42
vn 0 0 -1
f 209//157 210//157 211//157 
v 5.81 -4.46 -1.42
f 210//157 209//157 212//157 
v 5.77 -4.5 5.08
v 5.77 -4.42 5.08
v 5.73 -4.46 5.08
vn 0 0 1
f 213//158 214//158 215//158 
v 5.81 -4.46 5.08
f 214//158 213//158 216//158 
vn 0 1 0
vn 1 0 0
f 209//159 216//160 212//160 
f 216//160 209//159 214//159 
vn -1 0 0
f 215//161 209//159 211//161 
f 209//159 215//161 214//159 
vn 0 -1 0
f 215//161 210//162 213//162 
f 210//162 215//161 211//161 
f 216//160 210//162 212//160 
f 210//162 216//160 213//162 
g Group34 
usemtl Layer_Layer0
v 5.77 -4.46 5.12
v 5.77 -4.46 5.04
v 5.77 -4.5 5.08
vn -1 0 0
f 217//163 218//163 219//163 
v 5.77 -4.42 5.08
f 218//163 217//163 220//163 
v 7.77 -4.46 5.04
v 7.77 -4.46 5.12
v 7.77 -4.5 5.08
vn 1 0 0
f 221//164 222//164 223//164 
v 7.77 -4.42 5.08
f 222//164 221//164 224//164 
vn 0 0 1
vn 0 1 0
f 217//165 224//166 220//166 
f 224//166 217//165 222//165 
vn 0 -1 0
f 223//167 217//165 219//167 
f 217//165 223//167 222//165 
vn 0 0 -1
f 223//167 218//168 221//168 
f 218//168 223//167 219//167 
f 224//166 218//168 220//166 
f 218//168 224//166 221//168 
g Group35 
usemtl Layer_Layer0
v 5.77 -1.42 1.58
v 5.77 -1.5 1.58
v 5.81 -1.46 1.58
vn 0 0 1
f 225//169 226//169 227//169 
v 5.73 -1.46 1.58
f 226//169 225//169 228//169 
v 5.77 -1.5 -1.42
v 5.77 -1.42 -1.42
v 5.81 -1.46 -1.42
vn 0 0 -1
f 229//170 230//170 231//170 
v 5.73 -1.46 -1.42
f 230//170 229//170 232//170 
vn 0 1 0
vn -1 0 0
f 225//171 232//172 228//172 
f 232//172 225//171 230//171 
vn 1 0 0
f 231//173 225//171 227//173 
f 225//171 231//173 230//171 
vn 0 -1 0
f 231//173 226//174 229//174 
f 226//174 231//173 227//173 
f 232//172 226//174 228//172 
f 226//174 232//172 229//174 
g Group36 
usemtl Color_G08
v 7.77 5.04 -4.42
v -7.23 -1.46 -4.42
v -7.23 5.04 -4.42
vn 0 0 -1
f 233//175 234//175 235//175 
v -7.23 -4.46 -4.42
f 234//175 233//175 236//175 
v 7.77 -4.46 -4.42
f 236//175 233//175 237//175 
v -7.23 -1.46 -1.42
v -7.23 -4.46 -1.42
vn -1 0 0
f 238//176 236//176 239//176 
f 236//176 238//176 234//176 
v -7.23 5.04 -1.42
vn 0 1 0
f 240//177 233//177 235//177 
v 1.27 5.04 -1.42
f 233//177 240//177 241//177 
v 7.77 5.04 1.58
f 233//177 241//177 242//177 
v -4.23 5.04 -1.42
f 241//177 240//177 243//177 
v 1.27 5.04 1.58
f 242//177 241//177 244//177 
v -4.23 -1.46 -4.42
f 238//177 245//177 234//177 
v -4.23 -1.46 -1.42
f 245//177 238//177 246//177 
vn 0 -0.419058 0.907959
f 245//178 240//178 234//178 
f 240//178 245//178 243//178 
f 243//176 245//176 246//176 
f 235//176 234//176 240//176 
v 5.77 -1.46 5.08
v 7.77 -1.46 1.58
v 5.77 -1.46 1.58
f 247//177 248//177 249//177 
v 7.77 -1.46 5.08
f 248//177 247//177 250//177 
v 5.77 -4.46 -1.42
v 5.77 -4.46 5.08
vn -1 1.47938e-16 -4.49505e-16
f 247//179 251//179 252//179 
v 5.77 -1.46 -1.42
f 251//179 247//179 253//179 
f 253//179 247//179 249//179 
v 7.77 -4.46 5.08
vn 0 0 1
f 254//180 247//180 252//180 
f 247//180 254//180 250//180 
f 251//180 238//180 239//180 
f 238//180 251//180 246//180 
f 246//180 251//180 243//180 
f 243//180 251//180 241//180 
f 241//180 251//180 253//180 
f 249//180 242//180 244//180 
f 242//180 249//180 248//180 
vn -0.822192 -0.56921 0
f 244//181 253//181 249//181 
f 253//181 244//181 241//181 
vn 1 0 0
f 237//182 248//182 254//182 
f 248//182 237//182 233//182 
f 248//182 233//182 242//182 
f 250//182 254//182 248//182 
vn 0 -1 0
f 237//183 251//183 236//183 
f 251//183 237//183 254//183 
f 251//183 254//183 252//183 
f 239//183 236//183 251//183 
usemtl Layer_Layer0
v 7.77 -4.42 5.08
v 7.77 -4.5 5.08
v 7.81 -4.46 5.08
f 255//180 256//180 257//180 
v 7.73 -4.46 5.08
f 256//180 255//180 258//180 
v 7.77 -4.5 -4.42
v 7.77 -4.42 -4.42
v 7.81 -4.46 -4.42
f 259//175 260//175 261//175 
v 7.73 -4.46 -4.42
f 260//175 259//175 262//175 
f 255//177 262//176 258//176 
f 262//176 255//177 260//177 
f 261//182 255//177 257//182 
f 255//177 261//182 260//177 
f 261//182 256//183 259//183 
f 256//183 261//182 257//182 
f 262//176 256//183 258//176 
f 256//183 262//176 259//183 
usemtl Layer_flecha
v 26.0902 -44.6486 -1.44382e-15
v 16.0262 -27.8284 1.44382e-15
v 16.0262 -44.6486 1.44382e-15
vn 2.01832e-16 3.16584e-17 1
f 263//184 264//184 265//184 
v 21.0582 -19.57 -1.44382e-15
f 264//184 263//184 266//184 
v 26.0902 -27.8284 -1.44382e-15
f 266//184 263//184 267//184 
v 30.4784 -27.8284 -1.44382e-15
f 266//184 267//184 268//184 
v 11.638 -27.8284 1.44382e-15
f 266//184 269//184 264//184 
g Group4 
usemtl Layer_Layer0
v 7.77 5.04 -4.38
v 7.77 5.04 -4.46
v 7.77 5.08 -4.42
vn 1 0 0
f 270//185 271//185 272//185 
v 7.77 5 -4.42
f 271//185 270//185 273//185 
v -7.23 5.04 -4.46
v -7.23 5.04 -4.38
v -7.23 5.08 -4.42
vn -1 0 0
f 274//186 275//186 276//186 
v -7.23 5 -4.42
f 275//186 274//186 277//186 
vn 0 0 1
vn 0 -1 0
f 270//187 277//188 273//188 
f 277//188 270//187 275//187 
vn 0 1 0
f 276//189 270//187 272//189 
f 270//187 276//189 275//187 
vn 0 0 -1
f 276//189 271//190 274//190 
f 271//190 276//189 272//189 
f 277//188 271//190 273//188 
f 271//190 277//188 274//190 
g Group5 
usemtl Layer_Layer0
v 7.77 5.04 -4.38
v 7.77 5.04 -4.46
v 7.73 5.04 -4.42
vn 0 1 0
f 278//191 279//191 280//191 
v 7.81 5.04 -4.42
f 279//191 278//191 281//191 
v 7.77 -4.46 -4.46
v 7.77 -4.46 -4.38
v 7.73 -4.46 -4.42
vn 0 -1 0
f 282//192 283//192 284//192 
v 7.81 -4.46 -4.42
f 283//192 282//192 285//192 
vn 0 0 1
vn 1 0 0
f 278//193 285//194 281//194 
f 285//194 278//193 283//193 
vn -1 0 0
f 284//195 278//193 280//195 
f 278//193 284//195 283//193 
vn 0 0 -1
f 284//195 279//196 282//196 
f 279//196 284//195 280//195 
f 285//194 279//196 281//194 
f 279//196 285//194 282//196 
g Group6 
usemtl Layer_Layer0
v -7.23 -4.46 -4.38
v -7.23 -4.46 -4.46
v -7.23 -4.5 -4.42
vn -1 0 0
f 286//197 287//197 288//197 
v -7.23 -4.42 -4.42
f 287//197 286//197 289//197 
v 7.77 -4.46 -4.46
v 7.77 -4.46 -4.38
v 7.77 -4.5 -4.42
vn 1 0 0
f 290//198 291//198 292//198 
v 7.77 -4.42 -4.42
f 291//198 290//198 293//198 
vn 0 0 1
vn 0 1 0
f 286//199 293//200 289//200 
f 293//200 286//199 291//199 
vn 0 -1 0
f 292//201 286//199 288//201 
f 286//199 292//201 291//199 
vn 0 0 -1
f 292//201 287//202 290//202 
f 287//202 292//201 288//201 
f 293//200 287//202 289//200 
f 287//202 293//200 290//202 
g Group7 
usemtl Layer_Layer0
v -7.23 -1.46 -4.38
v -7.23 -1.46 -4.46
v -7.27 -1.46 -4.42
vn 0 1 0
f 294//203 295//203 296//203 
v -7.19 -1.46 -4.42
f 295//203 294//203 297//203 
v -7.23 -4.46 -4.46
v -7.23 -4.46 -4.38
v -7.27 -4.46 -4.42
vn 0 -1 0
f 298//204 299//204 300//204 
v -7.19 -4.46 -4.42
f 299//204 298//204 301//204 
vn 0 0 1
vn 1 0 0
f 294//205 301//206 297//206 
f 301//206 294//205 299//205 
vn -1 0 0
f 300//207 294//205 296//207 
f 294//205 300//207 299//205 
vn 0 0 -1
f 300//207 295//208 298//208 
f 295//208 300//207 296//207 
f 301//206 295//208 297//206 
f 295//208 301//206 298//208 
g Group8 
usemtl Layer_Layer0
v 7.77 5.08 1.58
v 7.77 5 1.58
v 7.81 5.04 1.58
vn 0 0 1
f 302//209 303//209 304//209 
v 7.73 5.04 1.58
f 303//209 302//209 305//209 
v 7.77 5 -4.42
v 7.77 5.08 -4.42
v 7.81 5.04 -4.42
vn 0 0 -1
f 306//210 307//210 308//210 
v 7.73 5.04 -4.42
f 307//210 306//210 309//210 
vn 0 1 0
vn -1 0 0
f 302//211 309//212 305//212 
f 309//212 302//211 307//211 
vn 1 0 0
f 308//213 302//211 304//213 
f 302//211 308//213 307//211 
vn 0 -1 0
f 308//213 303//214 306//214 
f 303//214 308//213 304//213 
f 309//212 303//214 305//212 
f 303//214 309//212 306//214 
g Group9 
usemtl Layer_Layer0
v -4.23 -1.47676 -4.38368
v -4.23 -1.44324 -4.45632
v -4.19 -1.46 -4.42
vn 0 -0.907959 -0.419058
f 310//215 311//215 312//215 
v -4.27 -1.46 -4.42
f 311//215 310//215 313//215 
v -4.23 5.05676 -1.45632
v -4.23 5.02324 -1.38368
v -4.19 5.04 -1.42
vn 0 0.907959 0.419058
f 314//216 315//216 316//216 
v -4.27 5.04 -1.42
f 315//216 314//216 317//216 
vn 0 -0.419056 0.90796
vn -1 0 0
f 310//217 317//218 313//218 
f 317//218 310//217 315//217 
vn 1 0 0
f 316//219 310//217 312//219 
f 310//217 316//219 315//217 
vn 0 0.41906 -0.907959
f 316//219 311//220 314//220 
f 311//220 316//219 312//219 
f 317//218 311//220 313//218 
f 311//220 317//218 314//220 
