mtllib p145_1.mtl
s 1
o 
g Group1 
usemtl Layer_Layer0
v 4.43 -8.95 7.39
v 4.43 -8.95 7.19
v 4.43 -9.05 7.29
vn -1 0 0
f 1//1 2//1 3//1 
v 4.43 -8.85 7.29
f 2//1 1//1 4//1 
v 14.43 -8.95 7.19
v 14.43 -8.95 7.39
v 14.43 -9.05 7.29
vn 1 0 0
f 5//2 6//2 7//2 
v 14.43 -8.85 7.29
f 6//2 5//2 8//2 
vn 0 0 1
vn 0 1 0
f 1//3 8//4 4//4 
f 8//4 1//3 6//3 
vn 0 -1 0
f 7//5 1//3 3//5 
f 1//3 7//5 6//3 
vn 0 0 -1
f 7//5 2//6 5//6 
f 2//6 7//5 3//5 
f 8//4 2//6 4//4 
f 2//6 8//4 5//6 
g Group10 
usemtl Layer_Layer0
v 14.43 -8.95 7.39
v 14.43 -8.95 7.19
v 14.53 -8.95 7.29
vn 0 -1 0
f 9//7 10//7 11//7 
v 14.33 -8.95 7.29
f 10//7 9//7 12//7 
v 14.43 9.05 7.19
v 14.43 9.05 7.39
v 14.53 9.05 7.29
vn 0 1 0
f 13//8 14//8 15//8 
v 14.33 9.05 7.29
f 14//8 13//8 16//8 
vn 0 0 1
vn -1 0 0
f 9//9 16//10 12//10 
f 16//10 9//9 14//9 
vn 1 0 0
f 15//11 9//9 11//11 
f 9//9 15//11 14//9 
vn 0 0 -1
f 15//11 10//12 13//12 
f 10//12 15//11 11//11 
f 16//10 10//12 12//10 
f 10//12 16//10 13//12 
g Group11 
usemtl Layer_Layer0
v -1.57 -0.886416 -0.61
v -1.57 -0.886416 -0.81
v -1.47 -0.886416 -0.71
vn 0 -1 0
f 17//13 18//13 19//13 
v -1.67 -0.886416 -0.71
f 18//13 17//13 20//13 
v -1.57 9.05 -0.81
v -1.57 9.05 -0.61
v -1.47 9.05 -0.71
vn 0 1 0
f 21//14 22//14 23//14 
v -1.67 9.05 -0.71
f 22//14 21//14 24//14 
vn 0 0 1
vn -1 0 0
f 17//15 24//16 20//16 
f 24//16 17//15 22//15 
vn 1 0 0
f 23//17 17//15 19//17 
f 17//15 23//17 22//15 
vn 0 0 -1
f 23//17 18//18 21//18 
f 18//18 23//17 19//17 
f 24//16 18//18 20//16 
f 18//18 24//16 21//18 
g Group12 
usemtl Layer_Layer0
v 4.43 -8.95 7.39
v 4.43 -8.95 7.19
v 4.53 -8.95 7.29
vn 0 -1 0
f 25//19 26//19 27//19 
v 4.33 -8.95 7.29
f 26//19 25//19 28//19 
v 4.43 9.05 7.19
v 4.43 9.05 7.39
v 4.53 9.05 7.29
vn 0 1 0
f 29//20 30//20 31//20 
v 4.33 9.05 7.29
f 30//20 29//20 32//20 
vn 0 0 1
vn -1 0 0
f 25//21 32//22 28//22 
f 32//22 25//21 30//21 
vn 1 0 0
f 31//23 25//21 27//23 
f 25//21 31//23 30//21 
vn 0 0 -1
f 31//23 26//24 29//24 
f 26//24 31//23 27//23 
f 32//22 26//24 28//22 
f 26//24 32//22 29//24 
g Group13 
usemtl Layer_Layer0
v -15.57 -8.85 -8.71
v -15.57 -9.05 -8.71
v -15.67 -8.95 -8.71
vn 0 0 -1
f 33//25 34//25 35//25 
v -15.47 -8.95 -8.71
f 34//25 33//25 36//25 
v -15.57 -9.05 -0.71
v -15.57 -8.85 -0.71
v -15.67 -8.95 -0.71
vn 0 0 1
f 37//26 38//26 39//26 
v -15.47 -8.95 -0.71
f 38//26 37//26 40//26 
vn 0 1 0
vn 1 0 0
f 33//27 40//28 36//28 
f 40//28 33//27 38//27 
vn -1 0 0
f 39//29 33//27 35//29 
f 33//27 39//29 38//27 
vn 0 -1 0
f 39//29 34//30 37//30 
f 34//30 39//29 35//29 
f 40//28 34//30 36//28 
f 34//30 40//28 37//30 
g Group14 
usemtl Layer_Layer0
v -15.57 9.05 -8.61
v -15.57 9.05 -8.81
v -15.67 9.05 -8.71
vn 0 1 0
f 41//31 42//31 43//31 
v -15.47 9.05 -8.71
f 42//31 41//31 44//31 
v -15.57 4.05 -8.81
v -15.57 4.05 -8.61
v -15.67 4.05 -8.71
vn 0 -1 0
f 45//32 46//32 47//32 
v -15.47 4.05 -8.71
f 46//32 45//32 48//32 
vn 0 0 1
vn 1 0 0
f 41//33 48//34 44//34 
f 48//34 41//33 46//33 
vn -1 0 0
f 47//35 41//33 43//35 
f 41//33 47//35 46//33 
vn 0 0 -1
f 47//35 42//36 45//36 
f 42//36 47//35 43//35 
f 48//34 42//36 44//34 
f 42//36 48//34 45//36 
g Group15 
usemtl Layer_Layer0
v 14.43 9.05 7.39
v 14.43 9.05 7.19
v 14.43 9.15 7.29
vn 1 0 0
f 49//37 50//37 51//37 
v 14.43 8.95 7.29
f 50//37 49//37 52//37 
v 4.43 9.05 7.19
v 4.43 9.05 7.39
v 4.43 9.15 7.29
vn -1 0 0
f 53//38 54//38 55//38 
v 4.43 8.95 7.29
f 54//38 53//38 56//38 
vn 0 0 1
vn 0 -1 0
f 49//39 56//40 52//40 
f 56//40 49//39 54//39 
vn 0 1 0
f 55//41 49//39 51//41 
f 49//39 55//41 54//39 
vn 0 0 -1
f 55//41 50//42 53//42 
f 50//42 55//41 51//41 
f 56//40 50//42 52//40 
f 50//42 56//40 53//42 
g Group16 
usemtl Layer_Layer0
v -15.57 9.15 -7.03402
v -15.57 8.95 -7.03402
v -15.67 9.05 -7.03402
vn 0 0 -1
f 57//43 58//43 59//43 
v -15.47 9.05 -7.03402
f 58//43 57//43 60//43 
v -15.57 8.95 -0.71
v -15.57 9.15 -0.71
v -15.67 9.05 -0.71
vn 0 0 1
f 61//44 62//44 63//44 
v -15.47 9.05 -0.71
f 62//44 61//44 64//44 
vn 0 1 0
vn 1 0 0
f 57//45 64//46 60//46 
f 64//46 57//45 62//45 
vn -1 0 0
f 63//47 57//45 59//47 
f 57//45 63//47 62//45 
vn 0 -1 0
f 63//47 58//48 61//48 
f 58//48 63//47 59//47 
f 64//46 58//48 60//46 
f 58//48 64//46 61//48 
g Group17 
usemtl Layer_Layer0
v 14.43 9.15 -8.71
v 14.43 8.95 -8.71
v 14.33 9.05 -8.71
vn 0 0 -1
f 65//49 66//49 67//49 
v 14.53 9.05 -8.71
f 66//49 65//49 68//49 
v 14.43 8.95 7.29
v 14.43 9.15 7.29
v 14.33 9.05 7.29
vn 0 0 1
f 69//50 70//50 71//50 
v 14.53 9.05 7.29
f 70//50 69//50 72//50 
vn 0 1 0
vn 1 0 0
f 65//51 72//52 68//52 
f 72//52 65//51 70//51 
vn -1 0 0
f 71//53 65//51 67//53 
f 65//51 71//53 70//51 
vn 0 -1 0
f 71//53 66//54 69//54 
f 66//54 71//53 67//53 
f 72//52 66//54 68//52 
f 66//54 72//52 69//54 
g Group18 
usemtl Layer_Layer0
v 14.43 -8.85 -8.71
v 14.43 -9.05 -8.71
v 14.33 -8.95 -8.71
vn 0 0 -1
f 73//55 74//55 75//55 
v 14.53 -8.95 -8.71
f 74//55 73//55 76//55 
v 14.43 -9.05 7.29
v 14.43 -8.85 7.29
v 14.33 -8.95 7.29
vn 0 0 1
f 77//56 78//56 79//56 
v 14.53 -8.95 7.29
f 78//56 77//56 80//56 
vn 0 1 0
vn 1 0 0
f 73//57 80//58 76//58 
f 80//58 73//57 78//57 
vn -1 0 0
f 79//59 73//57 75//59 
f 73//57 79//59 78//57 
vn 0 -1 0
f 79//59 74//60 77//60 
f 74//60 79//59 75//59 
f 80//58 74//60 76//58 
f 74//60 80//58 77//60 
g Group19 
usemtl Layer_Layer0
v -15.57 -3.95 -8.61
v -15.57 -3.95 -8.81
v -15.67 -3.95 -8.71
vn 0 1 0
f 81//61 82//61 83//61 
v -15.47 -3.95 -8.71
f 82//61 81//61 84//61 
v -15.57 -8.95 -8.81
v -15.57 -8.95 -8.61
v -15.67 -8.95 -8.71
vn 0 -1 0
f 85//62 86//62 87//62 
v -15.47 -8.95 -8.71
f 86//62 85//62 88//62 
vn 0 0 1
vn 1 0 0
f 81//63 88//64 84//64 
f 88//64 81//63 86//63 
vn -1 0 0
f 87//65 81//63 83//65 
f 81//63 87//65 86//63 
vn 0 0 -1
f 87//65 82//66 85//66 
f 82//66 87//65 83//65 
f 88//64 82//66 84//64 
f 82//66 88//64 85//66 
g Group2 
usemtl Layer_Layer0
v 4.43 -8.95 -8.61
v 4.43 -8.95 -8.81
v 4.43 -9.05 -8.71
vn -1 0 0
f 89//67 90//67 91//67 
v 4.43 -8.85 -8.71
f 90//67 89//67 92//67 
v 14.43 -8.95 -8.81
v 14.43 -8.95 -8.61
v 14.43 -9.05 -8.71
vn 1 0 0
f 93//68 94//68 95//68 
v 14.43 -8.85 -8.71
f 94//68 93//68 96//68 
vn 0 0 1
vn 0 1 0
f 89//69 96//70 92//70 
f 96//70 89//69 94//69 
vn 0 -1 0
f 95//71 89//69 91//71 
f 89//69 95//71 94//69 
vn 0 0 -1
f 95//71 90//72 93//72 
f 90//72 95//71 91//71 
f 96//70 90//72 92//70 
f 90//72 96//70 93//72 
g Group20 
usemtl Layer_Layer0
v -15.57 -8.95 -0.61
v -15.57 -8.95 -0.81
v -15.57 -9.05 -0.71
vn -1 0 0
f 97//73 98//73 99//73 
v -15.57 -8.85 -0.71
f 98//73 97//73 100//73 
v -10.57 -8.95 -0.81
v -10.57 -8.95 -0.61
v -10.57 -9.05 -0.71
vn 1 0 0
f 101//74 102//74 103//74 
v -10.57 -8.85 -0.71
f 102//74 101//74 104//74 
vn 0 0 1
vn 0 1 0
f 97//75 104//76 100//76 
f 104//76 97//75 102//75 
vn 0 -1 0
f 103//77 97//75 99//77 
f 97//75 103//77 102//75 
vn 0 0 -1
f 103//77 98//78 101//78 
f 98//78 103//77 99//77 
f 104//76 98//78 100//76 
f 98//78 104//76 101//78 
g Group21 
usemtl Layer_Layer0
v -1.57 -8.95 -8.61
v -1.57 -8.95 -8.81
v -1.57 -9.05 -8.71
vn -1 0 0
f 105//79 106//79 107//79 
v -1.57 -8.85 -8.71
f 106//79 105//79 108//79 
v 4.43 -8.95 -8.81
v 4.43 -8.95 -8.61
v 4.43 -9.05 -8.71
vn 1 0 0
f 109//80 110//80 111//80 
v 4.43 -8.85 -8.71
f 110//80 109//80 112//80 
vn 0 0 1
vn 0 1 0
f 105//81 112//82 108//82 
f 112//82 105//81 110//81 
vn 0 -1 0
f 111//83 105//81 107//83 
f 105//81 111//83 110//81 
vn 0 0 -1
f 111//83 106//84 109//84 
f 106//84 111//83 107//83 
f 112//82 106//84 108//82 
f 106//84 112//82 109//84 
g Group22 
usemtl Layer_Layer0
v -10.57 -8.95 -0.61
v -10.57 -8.95 -0.81
v -10.57 -9.05 -0.71
vn -1 0 0
f 113//85 114//85 115//85 
v -10.57 -8.85 -0.71
f 114//85 113//85 116//85 
v -1.57 -8.95 -0.81
v -1.57 -8.95 -0.61
v -1.57 -9.05 -0.71
vn 1 0 0
f 117//86 118//86 119//86 
v -1.57 -8.85 -0.71
f 118//86 117//86 120//86 
vn 0 0 1
vn 0 1 0
f 113//87 120//88 116//88 
f 120//88 113//87 118//87 
vn 0 -1 0
f 119//89 113//87 115//89 
f 113//87 119//89 118//87 
vn 0 0 -1
f 119//89 114//90 117//90 
f 114//90 119//89 115//89 
f 120//88 114//90 116//88 
f 114//90 120//88 117//90 
g Group23 
usemtl Layer_Layer0
v -10.57 -8.95 -8.61
v -10.57 -8.95 -8.81
v -10.57 -9.05 -8.71
vn -1 0 0
f 121//91 122//91 123//91 
v -10.57 -8.85 -8.71
f 122//91 121//91 124//91 
v -1.57 -8.95 -8.81
v -1.57 -8.95 -8.61
v -1.57 -9.05 -8.71
vn 1 0 0
f 125//92 126//92 127//92 
v -1.57 -8.85 -8.71
f 126//92 125//92 128//92 
vn 0 0 1
vn 0 1 0
f 121//93 128//94 124//94 
f 128//94 121//93 126//93 
vn 0 -1 0
f 127//95 121//93 123//95 
f 121//93 127//95 126//93 
vn 0 0 -1
f 127//95 122//96 125//96 
f 122//96 127//95 123//95 
f 128//94 122//96 124//94 
f 122//96 128//94 125//96 
g Group24 
usemtl Layer_Layer0
v -1.65 -8.95 -0.65
v -1.49 -8.95 -0.77
v -1.57 -9.05 -0.71
vn -0.6 0 -0.8
f 129//97 130//97 131//97 
v -1.57 -8.85 -0.71
f 130//97 129//97 132//97 
v 4.51 -8.95 7.23
v 4.35 -8.95 7.35
v 4.43 -9.05 7.29
vn 0.6 0 0.8
f 133//98 134//98 135//98 
v 4.43 -8.85 7.29
f 134//98 133//98 136//98 
vn -0.8 0 0.599999
vn 0 1 0
f 129//99 136//100 132//100 
f 136//100 129//99 134//99 
vn 0 -1 0
f 135//101 129//99 131//101 
f 129//99 135//101 134//99 
vn 0.8 0 -0.600001
f 135//101 130//102 133//102 
f 130//102 135//101 131//101 
f 136//100 130//102 132//100 
f 130//102 136//100 133//102 
g Group25 
usemtl Layer_Layer0
v -15.57 -8.95 -8.61
v -15.57 -8.95 -8.81
v -15.57 -9.05 -8.71
vn -1 0 0
f 137//103 138//103 139//103 
v -15.57 -8.85 -8.71
f 138//103 137//103 140//103 
v -10.57 -8.95 -8.81
v -10.57 -8.95 -8.61
v -10.57 -9.05 -8.71
vn 1 0 0
f 141//104 142//104 143//104 
v -10.57 -8.85 -8.71
f 142//104 141//104 144//104 
vn 0 0 1
vn 0 1 0
f 137//105 144//106 140//106 
f 144//106 137//105 142//105 
vn 0 -1 0
f 143//107 137//105 139//107 
f 137//105 143//107 142//105 
vn 0 0 -1
f 143//107 138//108 141//108 
f 138//108 143//107 139//107 
f 144//106 138//108 140//106 
f 138//108 144//106 141//108 
g Group26 
usemtl Color_H08
v 14.43 9.05 -8.71
v -15.57 4.05 -8.71
v -15.57 9.05 -8.71
vn 0 0 -1
f 145//109 146//109 147//109 
v -15.57 -3.95 -8.71
f 146//109 145//109 148//109 
v -15.57 -8.95 -8.71
f 148//109 145//109 149//109 
v -10.57 -8.95 -8.71
f 149//109 145//109 150//109 
v -1.57 -8.95 -8.71
f 150//109 145//109 151//109 
v 4.43 -8.95 -8.71
f 151//109 145//109 152//109 
v 14.43 -8.95 -8.71
f 152//109 145//109 153//109 
v -15.57 9.05 -7.03402
vn 0 1 0
f 154//110 145//110 147//110 
v -1.57 9.05 -0.71
f 145//110 154//110 155//110 
v 14.43 9.05 7.29
f 145//110 155//110 156//110 
v -15.57 9.05 -0.71
f 155//110 154//110 157//110 
v 4.43 9.05 7.29
f 156//110 155//110 158//110 
v 14.43 -8.95 7.29
vn 1 0 0
f 145//111 159//111 153//111 
f 159//111 145//111 156//111 
vn 0 -1 0
f 159//112 152//112 153//112 
v 4.43 -8.95 7.29
f 152//112 159//112 160//112 
v -1.57 -8.95 -0.71
f 161//112 150//112 151//112 
v -10.57 -8.95 -0.71
f 150//112 161//112 162//112 
f 160//112 151//112 152//112 
f 151//112 160//112 161//112 
vn -0.8 1.59238e-18 0.6
f 158//113 161//113 160//113 
v -1.57 -0.886416 -0.71
f 161//113 158//113 163//113 
f 163//113 158//113 155//113 
vn 0 0 1
f 159//114 158//114 160//114 
f 158//114 159//114 156//114 
v -15.57 -8.95 -0.71
vn -1 0 0
f 157//115 149//115 164//115 
f 149//115 157//115 148//115 
f 148//115 157//115 146//115 
f 146//115 157//115 154//115 
f 162//112 149//112 150//112 
f 149//112 162//112 164//112 
f 163//114 162//114 161//114 
f 154//111 146//111 147//111 
f 162//114 157//114 164//114 
f 157//114 162//114 155//114 
f 155//114 162//114 163//114 
usemtl Layer_Layer0
v -1.65 9.05 -0.65
v -1.49 9.05 -0.77
v -1.57 8.95 -0.71
vn -0.6 0 -0.8
f 165//116 166//116 167//116 
v -1.57 9.15 -0.71
f 166//116 165//116 168//116 
v 4.51 9.05 7.23
v 4.35 9.05 7.35
v 4.43 8.95 7.29
vn 0.6 0 0.8
f 169//117 170//117 171//117 
v 4.43 9.15 7.29
f 170//117 169//117 172//117 
vn -0.8 0 0.599999
f 165//118 172//110 168//110 
f 172//110 165//118 170//118 
f 171//112 165//118 167//112 
f 165//118 171//112 170//118 
vn 0.8 0 -0.600001
f 171//112 166//119 169//119 
f 166//119 171//112 167//112 
f 172//110 166//119 168//110 
f 166//119 172//110 169//119 
g Group3 
usemtl Layer_Layer0
v -15.57 9.15 -8.71
v -15.57 8.95 -8.71
v -15.67 9.05 -8.71
vn 0 0 -1
f 173//120 174//120 175//120 
v -15.47 9.05 -8.71
f 174//120 173//120 176//120 
v -15.57 8.95 -7.03402
v -15.57 9.15 -7.03402
v -15.67 9.05 -7.03402
vn 0 0 1
f 177//121 178//121 179//121 
v -15.47 9.05 -7.03402
f 178//121 177//121 180//121 
vn 0 1 0
vn 1 0 0
f 173//122 180//123 176//123 
f 180//123 173//122 178//122 
vn -1 0 0
f 179//124 173//122 175//124 
f 173//122 179//124 178//122 
vn 0 -1 0
f 179//124 174//125 177//125 
f 174//125 179//124 175//124 
f 180//123 174//125 176//123 
f 174//125 180//123 177//125 
g Group4 
usemtl Layer_Layer0
v -15.57 9.05 -0.61
v -15.57 9.05 -0.81
v -15.57 8.95 -0.71
vn -1 0 0
f 181//126 182//126 183//126 
v -15.57 9.15 -0.71
f 182//126 181//126 184//126 
v -1.57 9.05 -0.81
v -1.57 9.05 -0.61
v -1.57 8.95 -0.71
vn 1 0 0
f 185//127 186//127 187//127 
v -1.57 9.15 -0.71
f 186//127 185//127 188//127 
vn 0 0 1
vn 0 1 0
f 181//128 188//129 184//129 
f 188//129 181//128 186//128 
vn 0 -1 0
f 187//130 181//128 183//130 
f 181//128 187//130 186//128 
vn 0 0 -1
f 187//130 182//131 185//131 
f 182//131 187//130 183//130 
f 188//129 182//131 184//129 
f 182//131 188//129 185//131 
g Group5 
usemtl Layer_Layer0
v -15.57 -8.95 -0.61
v -15.57 -8.95 -0.81
v -15.47 -8.95 -0.71
vn 0 -1 0
f 189//132 190//132 191//132 
v -15.67 -8.95 -0.71
f 190//132 189//132 192//132 
v -15.57 9.05 -0.81
v -15.57 9.05 -0.61
v -15.47 9.05 -0.71
vn 0 1 0
f 193//133 194//133 195//133 
v -15.67 9.05 -0.71
f 194//133 193//133 196//133 
vn 0 0 1
vn -1 0 0
f 189//134 196//135 192//135 
f 196//135 189//134 194//134 
vn 1 0 0
f 195//136 189//134 191//136 
f 189//134 195//136 194//134 
vn 0 0 -1
f 195//136 190//137 193//137 
f 190//137 195//136 191//136 
f 196//135 190//137 192//135 
f 190//137 196//135 193//137 
g Group6 
usemtl Layer_Layer0
v 14.43 -8.95 -8.61
v 14.43 -8.95 -8.81
v 14.53 -8.95 -8.71
vn 0 -1 0
f 197//138 198//138 199//138 
v 14.33 -8.95 -8.71
f 198//138 197//138 200//138 
v 14.43 9.05 -8.81
v 14.43 9.05 -8.61
v 14.53 9.05 -8.71
vn 0 1 0
f 201//139 202//139 203//139 
v 14.33 9.05 -8.71
f 202//139 201//139 204//139 
vn 0 0 1
vn -1 0 0
f 197//140 204//141 200//141 
f 204//141 197//140 202//140 
vn 1 0 0
f 203//142 197//140 199//142 
f 197//140 203//142 202//140 
vn 0 0 -1
f 203//142 198//143 201//143 
f 198//143 203//142 199//142 
f 204//141 198//143 200//141 
f 198//143 204//141 201//143 
g Group7 
usemtl Layer_Layer0
v 14.43 9.05 -8.61
v 14.43 9.05 -8.81
v 14.43 9.15 -8.71
vn 1 0 0
f 205//144 206//144 207//144 
v 14.43 8.95 -8.71
f 206//144 205//144 208//144 
v -15.57 9.05 -8.81
v -15.57 9.05 -8.61
v -15.57 9.15 -8.71
vn -1 0 0
f 209//145 210//145 211//145 
v -15.57 8.95 -8.71
f 210//145 209//145 212//145 
vn 0 0 1
vn 0 -1 0
f 205//146 212//147 208//147 
f 212//147 205//146 210//146 
vn 0 1 0
f 211//148 205//146 207//148 
f 205//146 211//148 210//146 
vn 0 0 -1
f 211//148 206//149 209//149 
f 206//149 211//148 207//148 
f 212//147 206//149 208//147 
f 206//149 212//147 209//149 
g Group8 
usemtl Layer_Layer0
v -15.57 4.05 -8.61
v -15.57 4.05 -8.81
v -15.67 4.05 -8.71
vn 0 1 0
f 213//150 214//150 215//150 
v -15.47 4.05 -8.71
f 214//150 213//150 216//150 
v -15.57 -3.95 -8.81
v -15.57 -3.95 -8.61
v -15.67 -3.95 -8.71
vn 0 -1 0
f 217//151 218//151 219//151 
v -15.47 -3.95 -8.71
f 218//151 217//151 220//151 
vn 0 0 1
vn 1 0 0
f 213//152 220//153 216//153 
f 220//153 213//152 218//152 
vn -1 0 0
f 219//154 213//152 215//154 
f 213//152 219//154 218//152 
vn 0 0 -1
f 219//154 214//155 217//155 
f 214//155 219//154 215//154 
f 220//153 214//155 216//153 
f 214//155 220//153 217//155 
g Group9 
usemtl Layer_Layer0
v -1.57 -8.95 -0.61
v -1.57 -8.95 -0.81
v -1.47 -8.95 -0.71
vn 0 -1 0
f 221//156 222//156 223//156 
v -1.67 -8.95 -0.71
f 222//156 221//156 224//156 
v -1.57 -0.886416 -0.81
v -1.57 -0.886416 -0.61
v -1.47 -0.886416 -0.71
vn 0 1 0
f 225//157 226//157 227//157 
v -1.67 -0.886416 -0.71
f 226//157 225//157 228//157 
vn 0 0 1
vn -1 0 0
f 221//158 228//159 224//159 
f 228//159 221//158 226//158 
vn 1 0 0
f 227//160 221//158 223//160 
f 221//158 227//160 226//158 
vn 0 0 -1
f 227//160 222//161 225//161 
f 222//161 227//160 223//160 
f 228//159 222//161 224//159 
f 222//161 228//159 225//161 
