mtllib p163a2.mtl
s 1
o 
g Group10 
usemtl Layer_Layer0
v -28.79 0.326081 14.78
v -28.79 0.326081 14.58
v -28.79 0.226081 14.68
vn -1 0 0
f 1//1 2//1 3//1 
v -28.79 0.426081 14.68
f 2//1 1//1 4//1 
v -8.79 0.326081 14.58
v -8.79 0.326081 14.78
v -8.79 0.226081 14.68
vn 1 0 0
f 5//2 6//2 7//2 
v -8.79 0.426081 14.68
f 6//2 5//2 8//2 
vn 0 0 1
vn 0 1 0
f 1//3 8//4 4//4 
f 8//4 1//3 6//3 
vn 0 -1 0
f 7//5 1//3 3//5 
f 1//3 7//5 6//3 
vn 0 0 -1
f 7//5 2//6 5//6 
f 2//6 7//5 3//5 
f 8//4 2//6 4//4 
f 2//6 8//4 5//6 
g Group11 
usemtl Layer_Layer0
v 11.21 13.74 -10.22
v 11.21 13.74 -10.42
v 11.21 13.84 -10.32
vn 1 0 0
f 9//7 10//7 11//7 
v 11.21 13.64 -10.32
f 10//7 9//7 12//7 
v -8.79 13.74 -10.42
v -8.79 13.74 -10.22
v -8.79 13.84 -10.32
vn -1 0 0
f 13//8 14//8 15//8 
v -8.79 13.64 -10.32
f 14//8 13//8 16//8 
vn 0 0 1
vn 0 -1 0
f 9//9 16//10 12//10 
f 16//10 9//9 14//9 
vn 0 1 0
f 15//11 9//9 11//11 
f 9//9 15//11 14//9 
vn 0 0 -1
f 15//11 10//12 13//12 
f 10//12 15//11 11//11 
f 16//10 10//12 12//10 
f 10//12 16//10 13//12 
g Group12 
usemtl Layer_Layer0
v 11.21 13.84 14.68
v 11.21 13.64 14.68
v 11.31 13.74 14.68
vn 0 0 1
f 17//13 18//13 19//13 
v 11.11 13.74 14.68
f 18//13 17//13 20//13 
v 11.21 13.64 -10.32
v 11.21 13.84 -10.32
v 11.31 13.74 -10.32
vn 0 0 -1
f 21//14 22//14 23//14 
v 11.11 13.74 -10.32
f 22//14 21//14 24//14 
vn 0 1 0
vn -1 0 0
f 17//15 24//16 20//16 
f 24//16 17//15 22//15 
vn 1 0 0
f 23//17 17//15 19//17 
f 17//15 23//17 22//15 
vn 0 -1 0
f 23//17 18//18 21//18 
f 18//18 23//17 19//17 
f 24//16 18//18 20//16 
f 18//18 24//16 21//18 
g Group13 
usemtl Layer_Layer0
v 31.21 3.74 14.78
v 31.21 3.74 14.58
v 31.31 3.74 14.68
vn 0 -1 0
f 25//19 26//19 27//19 
v 31.11 3.74 14.68
f 26//19 25//19 28//19 
v 31.21 13.74 14.58
v 31.21 13.74 14.78
v 31.31 13.74 14.68
vn 0 1 0
f 29//20 30//20 31//20 
v 31.11 13.74 14.68
f 30//20 29//20 32//20 
vn 0 0 1
vn -1 0 0
f 25//21 32//22 28//22 
f 32//22 25//21 30//21 
vn 1 0 0
f 31//23 25//21 27//23 
f 25//21 31//23 30//21 
vn 0 0 -1
f 31//23 26//24 29//24 
f 26//24 31//23 27//23 
f 32//22 26//24 28//22 
f 26//24 32//22 29//24 
g Group14 
usemtl Layer_Layer0
v 31.21 13.74 14.78
v 31.21 13.74 14.58
v 31.21 13.84 14.68
vn 1 0 0
f 33//25 34//25 35//25 
v 31.21 13.64 14.68
f 34//25 33//25 36//25 
v 11.21 13.74 14.58
v 11.21 13.74 14.78
v 11.21 13.84 14.68
vn -1 0 0
f 37//26 38//26 39//26 
v 11.21 13.64 14.68
f 38//26 37//26 40//26 
vn 0 0 1
vn 0 -1 0
f 33//27 40//28 36//28 
f 40//28 33//27 38//27 
vn 0 1 0
f 39//29 33//27 35//29 
f 33//27 39//29 38//27 
vn 0 0 -1
f 39//29 34//30 37//30 
f 34//30 39//29 35//29 
f 40//28 34//30 36//28 
f 34//30 40//28 37//30 
g Group15 
usemtl Layer_Layer0
v 11.21 0.326081 14.78
v 11.21 0.326081 14.58
v 11.21 0.226081 14.68
vn -1 0 0
f 41//31 42//31 43//31 
v 11.21 0.426081 14.68
f 42//31 41//31 44//31 
v 21.21 0.326081 14.58
v 21.21 0.326081 14.78
v 21.21 0.226081 14.68
vn 1 0 0
f 45//32 46//32 47//32 
v 21.21 0.426081 14.68
f 46//32 45//32 48//32 
vn 0 0 1
vn 0 1 0
f 41//33 48//34 44//34 
f 48//34 41//33 46//33 
vn 0 -1 0
f 47//35 41//33 43//35 
f 41//33 47//35 46//33 
vn 0 0 -1
f 47//35 42//36 45//36 
f 42//36 47//35 43//35 
f 48//34 42//36 44//34 
f 42//36 48//34 45//36 
g Group16 
usemtl Layer_Layer0
v -8.79 13.74 14.78
v -8.79 13.74 14.58
v -8.89 13.74 14.68
vn 0 1 0
f 49//37 50//37 51//37 
v -8.69 13.74 14.68
f 50//37 49//37 52//37 
v -8.79 0.326081 14.58
v -8.79 0.326081 14.78
v -8.89 0.326081 14.68
vn 0 -1 0
f 53//38 54//38 55//38 
v -8.69 0.326081 14.68
f 54//38 53//38 56//38 
vn 0 0 1
vn 1 0 0
f 49//39 56//40 52//40 
f 56//40 49//39 54//39 
vn -1 0 0
f 55//41 49//39 51//41 
f 49//39 55//41 54//39 
vn 0 0 -1
f 55//41 50//42 53//42 
f 50//42 55//41 51//41 
f 56//40 50//42 52//40 
f 50//42 56//40 53//42 
g Group17 
usemtl Layer_Layer0
v 31.21 3.74 -15.22
v 31.21 3.74 -15.42
v 31.31 3.74 -15.32
vn 0 -1 0
f 57//43 58//43 59//43 
v 31.11 3.74 -15.32
f 58//43 57//43 60//43 
v 31.21 13.74 -15.42
v 31.21 13.74 -15.22
v 31.31 13.74 -15.32
vn 0 1 0
f 61//44 62//44 63//44 
v 31.11 13.74 -15.32
f 62//44 61//44 64//44 
vn 0 0 1
vn -1 0 0
f 57//45 64//46 60//46 
f 64//46 57//45 62//45 
vn 1 0 0
f 63//47 57//45 59//47 
f 57//45 63//47 62//45 
vn 0 0 -1
f 63//47 58//48 61//48 
f 58//48 63//47 59//47 
f 64//46 58//48 60//46 
f 58//48 64//46 61//48 
g Group18 
usemtl Layer_Layer0
v -8.79 0.326081 -10.22
v -8.79 0.326081 -10.42
v -8.79 0.226081 -10.32
vn -1 0 0
f 65//49 66//49 67//49 
v -8.79 0.426081 -10.32
f 66//49 65//49 68//49 
v 11.21 0.326081 -10.42
v 11.21 0.326081 -10.22
v 11.21 0.226081 -10.32
vn 1 0 0
f 69//50 70//50 71//50 
v 11.21 0.426081 -10.32
f 70//50 69//50 72//50 
vn 0 0 1
vn 0 1 0
f 65//51 72//52 68//52 
f 72//52 65//51 70//51 
vn 0 -1 0
f 71//53 65//51 67//53 
f 65//51 71//53 70//51 
vn 0 0 -1
f 71//53 66//54 69//54 
f 66//54 71//53 67//53 
f 72//52 66//54 68//52 
f 66//54 72//52 69//54 
g Group19 
usemtl Layer_Layer0
v 31.21 13.84 -15.32
v 31.21 13.64 -15.32
v 31.11 13.74 -15.32
vn 0 0 -1
f 73//55 74//55 75//55 
v 31.31 13.74 -15.32
f 74//55 73//55 76//55 
v 31.21 13.64 14.68
v 31.21 13.84 14.68
v 31.11 13.74 14.68
vn 0 0 1
f 77//56 78//56 79//56 
v 31.31 13.74 14.68
f 78//56 77//56 80//56 
vn 0 1 0
vn 1 0 0
f 73//57 80//58 76//58 
f 80//58 73//57 78//57 
vn -1 0 0
f 79//59 73//57 75//59 
f 73//57 79//59 78//57 
vn 0 -1 0
f 79//59 74//60 77//60 
f 74//60 79//59 75//59 
f 80//58 74//60 76//58 
f 74//60 80//58 77//60 
g Group2 
usemtl Layer_Layer0
v 21.21 0.326081 -15.22
v 21.21 0.326081 -15.42
v 21.21 0.426081 -15.32
vn 1 0 0
f 81//61 82//61 83//61 
v 21.21 0.226081 -15.32
f 82//61 81//61 84//61 
v -28.79 0.326081 -15.42
v -28.79 0.326081 -15.22
v -28.79 0.426081 -15.32
vn -1 0 0
f 85//62 86//62 87//62 
v -28.79 0.226081 -15.32
f 86//62 85//62 88//62 
vn 0 0 1
vn 0 -1 0
f 81//63 88//64 84//64 
f 88//64 81//63 86//63 
vn 0 1 0
f 87//65 81//63 83//65 
f 81//63 87//65 86//63 
vn 0 0 -1
f 87//65 82//66 85//66 
f 82//66 87//65 83//65 
f 88//64 82//66 84//64 
f 82//66 88//64 85//66 
g Group20 
usemtl Layer_Layer0
v 21.21 0.426081 14.68
v 21.21 0.226081 14.68
v 21.31 0.326081 14.68
vn 0 0 1
f 89//67 90//67 91//67 
v 21.11 0.326081 14.68
f 90//67 89//67 92//67 
v 21.21 0.226081 -15.32
v 21.21 0.426081 -15.32
v 21.31 0.326081 -15.32
vn 0 0 -1
f 93//68 94//68 95//68 
v 21.11 0.326081 -15.32
f 94//68 93//68 96//68 
vn 0 1 0
vn -1 0 0
f 89//69 96//70 92//70 
f 96//70 89//69 94//69 
vn 1 0 0
f 95//71 89//69 91//71 
f 89//69 95//71 94//69 
vn 0 -1 0
f 95//71 90//72 93//72 
f 90//72 95//71 91//71 
f 96//70 90//72 92//70 
f 90//72 96//70 93//72 
g Group21 
usemtl Layer_Layer0
v 31.21 13.74 -15.22
v 31.21 13.74 -15.42
v 31.21 13.84 -15.32
vn 1 0 0
f 97//73 98//73 99//73 
v 31.21 13.64 -15.32
f 98//73 97//73 100//73 
v -28.79 13.74 -15.42
v -28.79 13.74 -15.22
v -28.79 13.84 -15.32
vn -1 0 0
f 101//74 102//74 103//74 
v -28.79 13.64 -15.32
f 102//74 101//74 104//74 
vn 0 0 1
vn 0 -1 0
f 97//75 104//76 100//76 
f 104//76 97//75 102//75 
vn 0 1 0
f 103//77 97//75 99//77 
f 97//75 103//77 102//75 
vn 0 0 -1
f 103//77 98//78 101//78 
f 98//78 103//77 99//77 
f 104//76 98//78 100//76 
f 98//78 104//76 101//78 
g Group22 
usemtl Layer_Layer0
v 21.21 0.326081 -15.22
v 21.21 0.326081 -15.42
v 21.31 0.326081 -15.32
vn 0 -1 0
f 105//79 106//79 107//79 
v 21.11 0.326081 -15.32
f 106//79 105//79 108//79 
v 21.21 3.74 -15.42
v 21.21 3.74 -15.22
v 21.31 3.74 -15.32
vn 0 1 0
f 109//80 110//80 111//80 
v 21.11 3.74 -15.32
f 110//80 109//80 112//80 
vn 0 0 1
vn -1 0 0
f 105//81 112//82 108//82 
f 112//82 105//81 110//81 
vn 1 0 0
f 111//83 105//81 107//83 
f 105//81 111//83 110//81 
vn 0 0 -1
f 111//83 106//84 109//84 
f 106//84 111//83 107//83 
f 112//82 106//84 108//82 
f 106//84 112//82 109//84 
g Group23 
usemtl Layer_Layer0
v 11.21 0.326081 14.78
v 11.21 0.326081 14.58
v 11.31 0.326081 14.68
vn 0 -1 0
f 113//85 114//85 115//85 
v 11.11 0.326081 14.68
f 114//85 113//85 116//85 
v 11.21 13.74 14.58
v 11.21 13.74 14.78
v 11.31 13.74 14.68
vn 0 1 0
f 117//86 118//86 119//86 
v 11.11 13.74 14.68
f 118//86 117//86 120//86 
vn 0 0 1
vn -1 0 0
f 113//87 120//88 116//88 
f 120//88 113//87 118//87 
vn 1 0 0
f 119//89 113//87 115//89 
f 113//87 119//89 118//87 
vn 0 0 -1
f 119//89 114//90 117//90 
f 114//90 119//89 115//89 
f 120//88 114//90 116//88 
f 114//90 120//88 117//90 
g Group24 
usemtl Layer_Layer0
v -28.79 13.74 -15.22
v -28.79 13.74 -15.42
v -28.89 13.74 -15.32
vn 0 1 0
f 121//91 122//91 123//91 
v -28.69 13.74 -15.32
f 122//91 121//91 124//91 
v -28.79 0.326081 -15.42
v -28.79 0.326081 -15.22
v -28.89 0.326081 -15.32
vn 0 -1 0
f 125//92 126//92 127//92 
v -28.69 0.326081 -15.32
f 126//92 125//92 128//92 
vn 0 0 1
vn 1 0 0
f 121//93 128//94 124//94 
f 128//94 121//93 126//93 
vn -1 0 0
f 127//95 121//93 123//95 
f 121//93 127//95 126//93 
vn 0 0 -1
f 127//95 122//96 125//96 
f 122//96 127//95 123//95 
f 128//94 122//96 124//94 
f 122//96 128//94 125//96 
g Group25 
usemtl Layer_Layer0
v 21.21 0.326081 14.78
v 21.21 0.326081 14.58
v 21.31 0.326081 14.68
vn 0 -1 0
f 129//97 130//97 131//97 
v 21.11 0.326081 14.68
f 130//97 129//97 132//97 
v 21.21 3.74 14.58
v 21.21 3.74 14.78
v 21.31 3.74 14.68
vn 0 1 0
f 133//98 134//98 135//98 
v 21.11 3.74 14.68
f 134//98 133//98 136//98 
vn 0 0 1
vn -1 0 0
f 129//99 136//100 132//100 
f 136//100 129//99 134//99 
vn 1 0 0
f 135//101 129//99 131//101 
f 129//99 135//101 134//99 
vn 0 0 -1
f 135//101 130//102 133//102 
f 130//102 135//101 131//101 
f 136//100 130//102 132//100 
f 130//102 136//100 133//102 
g Group26 
usemtl Layer_Layer0
v -28.79 0.426081 14.68
v -28.79 0.226081 14.68
v -28.69 0.326081 14.68
vn 0 0 1
f 137//103 138//103 139//103 
v -28.89 0.326081 14.68
f 138//103 137//103 140//103 
v -28.79 0.226081 -15.32
v -28.79 0.426081 -15.32
v -28.69 0.326081 -15.32
vn 0 0 -1
f 141//104 142//104 143//104 
v -28.89 0.326081 -15.32
f 142//104 141//104 144//104 
vn 0 1 0
vn -1 0 0
f 137//105 144//106 140//106 
f 144//106 137//105 142//105 
vn 1 0 0
f 143//107 137//105 139//107 
f 137//105 143//107 142//105 
vn 0 -1 0
f 143//107 138//108 141//108 
f 138//108 143//107 139//107 
f 144//106 138//108 140//106 
f 138//108 144//106 141//108 
g Group27 
usemtl Layer_Layer0
v -28.79 13.74 14.78
v -28.79 13.74 14.58
v -28.89 13.74 14.68
vn 0 1 0
f 145//109 146//109 147//109 
v -28.69 13.74 14.68
f 146//109 145//109 148//109 
v -28.79 0.326081 14.58
v -28.79 0.326081 14.78
v -28.89 0.326081 14.68
vn 0 -1 0
f 149//110 150//110 151//110 
v -28.69 0.326081 14.68
f 150//110 149//110 152//110 
vn 0 0 1
vn 1 0 0
f 145//111 152//112 148//112 
f 152//112 145//111 150//111 
vn -1 0 0
f 151//113 145//111 147//113 
f 145//111 151//113 150//111 
vn 0 0 -1
f 151//113 146//114 149//114 
f 146//114 151//113 147//113 
f 152//112 146//114 148//112 
f 146//114 152//112 149//114 
g Group28 
usemtl Layer_Layer0
v -28.79 13.84 -15.32
v -28.79 13.64 -15.32
v -28.89 13.74 -15.32
vn 0 0 -1
f 153//115 154//115 155//115 
v -28.69 13.74 -15.32
f 154//115 153//115 156//115 
v -28.79 13.64 14.68
v -28.79 13.84 14.68
v -28.89 13.74 14.68
vn 0 0 1
f 157//116 158//116 159//116 
v -28.69 13.74 14.68
f 158//116 157//116 160//116 
vn 0 1 0
vn 1 0 0
f 153//117 160//118 156//118 
f 160//118 153//117 158//117 
vn -1 0 0
f 159//119 153//117 155//119 
f 153//117 159//119 158//117 
vn 0 -1 0
f 159//119 154//120 157//120 
f 154//120 159//119 155//119 
f 160//118 154//120 156//118 
f 154//120 160//118 157//120 
g Group29 
usemtl Layer_Layer0
v 31.21 3.84 14.68
v 31.21 3.64 14.68
v 31.31 3.74 14.68
vn 0 0 1
f 161//121 162//121 163//121 
v 31.11 3.74 14.68
f 162//121 161//121 164//121 
v 31.21 3.64 -15.32
v 31.21 3.84 -15.32
v 31.31 3.74 -15.32
vn 0 0 -1
f 165//122 166//122 167//122 
v 31.11 3.74 -15.32
f 166//122 165//122 168//122 
vn 0 1 0
vn -1 0 0
f 161//123 168//124 164//124 
f 168//124 161//123 166//123 
vn 1 0 0
f 167//125 161//123 163//125 
f 161//123 167//125 166//123 
vn 0 -1 0
f 167//125 162//126 165//126 
f 162//126 167//125 163//125 
f 168//124 162//126 164//124 
f 162//126 168//124 165//126 
g Group3 
usemtl Layer_Layer0
v 11.21 0.326081 -10.22
v 11.21 0.326081 -10.42
v 11.31 0.326081 -10.32
vn 0 -1 0
f 169//127 170//127 171//127 
v 11.11 0.326081 -10.32
f 170//127 169//127 172//127 
v 11.21 13.74 -10.42
v 11.21 13.74 -10.22
v 11.31 13.74 -10.32
vn 0 1 0
f 173//128 174//128 175//128 
v 11.11 13.74 -10.32
f 174//128 173//128 176//128 
vn 0 0 1
vn -1 0 0
f 169//129 176//130 172//130 
f 176//130 169//129 174//129 
vn 1 0 0
f 175//131 169//129 171//131 
f 169//129 175//131 174//129 
vn 0 0 -1
f 175//131 170//132 173//132 
f 170//132 175//131 171//131 
f 176//130 170//132 172//130 
f 170//132 176//130 173//132 
g Group30 
usemtl Layer_Layer0
v 21.21 3.74 -15.22
v 21.21 3.74 -15.42
v 21.21 3.64 -15.32
vn -1 0 0
f 177//133 178//133 179//133 
v 21.21 3.84 -15.32
f 178//133 177//133 180//133 
v 31.21 3.74 -15.42
v 31.21 3.74 -15.22
v 31.21 3.64 -15.32
vn 1 0 0
f 181//134 182//134 183//134 
v 31.21 3.84 -15.32
f 182//134 181//134 184//134 
vn 0 0 1
vn 0 1 0
f 177//135 184//136 180//136 
f 184//136 177//135 182//135 
vn 0 -1 0
f 183//137 177//135 179//137 
f 177//135 183//137 182//135 
vn 0 0 -1
f 183//137 178//138 181//138 
f 178//138 183//137 179//137 
f 184//136 178//138 180//136 
f 178//138 184//136 181//138 
g Group31 
usemtl Layer_Layer0
v 21.21 3.84 14.68
v 21.21 3.64 14.68
v 21.31 3.74 14.68
vn 0 0 1
f 185//139 186//139 187//139 
v 21.11 3.74 14.68
f 186//139 185//139 188//139 
v 21.21 3.64 -15.32
v 21.21 3.84 -15.32
v 21.31 3.74 -15.32
vn 0 0 -1
f 189//140 190//140 191//140 
v 21.11 3.74 -15.32
f 190//140 189//140 192//140 
vn 0 1 0
vn -1 0 0
f 185//141 192//142 188//142 
f 192//142 185//141 190//141 
vn 1 0 0
f 191//143 185//141 187//143 
f 185//141 191//143 190//141 
vn 0 -1 0
f 191//143 186//144 189//144 
f 186//144 191//143 187//143 
f 192//142 186//144 188//142 
f 186//144 192//142 189//144 
g Group32 
usemtl Color_B05
v -28.79 13.74 14.68
v -28.79 0.326081 -15.32
v -28.79 0.326081 14.68
vn -1 0 0
f 193//145 194//145 195//145 
v -28.79 13.74 -15.32
f 194//145 193//145 196//145 
v -8.79 13.74 -10.32
v 31.21 13.74 -15.32
vn 0 1 0
f 196//146 197//146 198//146 
f 197//146 196//146 193//146 
v -8.79 13.74 14.68
f 197//146 193//146 199//146 
v -18.79 13.74 14.68
f 199//146 193//146 200//146 
v 11.21 13.74 -10.32
v 31.21 13.74 14.68
f 198//146 201//146 202//146 
f 201//146 198//146 197//146 
v 11.21 13.74 14.68
f 202//146 201//146 203//146 
v 21.21 0.326081 -15.32
v 21.21 3.74 -15.32
vn 0 0 -1
f 204//147 194//147 205//147 
f 198//147 194//147 196//147 
f 194//147 198//147 205//147 
v 31.21 3.74 -15.32
f 205//147 198//147 206//147 
v 31.21 3.74 14.68
vn 1 0 0
f 198//148 207//148 206//148 
f 207//148 198//148 202//148 
v -8.79 0.326081 14.68
vn 0 0 1
f 208//149 193//149 195//149 
f 193//149 208//149 200//149 
f 200//149 208//149 199//149 
v 11.21 0.326081 -10.32
v 11.21 0.326081 14.68
f 203//145 209//145 210//145 
f 209//145 203//145 201//145 
v -8.79 0.326081 -10.32
f 211//148 199//148 208//148 
f 199//148 211//148 197//148 
f 209//149 197//149 211//149 
f 197//149 209//149 201//149 
vn 0 -1 0
f 207//150 205//150 206//150 
v 21.21 3.74 14.68
f 205//150 207//150 212//150 
v 21.21 0.326081 14.68
f 205//148 213//148 204//148 
f 213//148 205//148 212//148 
f 210//149 202//149 203//149 
f 202//149 210//149 212//149 
f 212//149 210//149 213//149 
f 202//149 212//149 207//149 
usemtl Color_C06
f 213//150 209//150 204//150 
f 209//150 213//150 210//150 
f 194//150 211//150 195//150 
f 211//150 194//150 204//150 
f 211//150 204//150 209//150 
f 195//150 211//150 208//150 
usemtl Layer_Layer0
v -8.79 13.74 -10.22
v -8.79 13.74 -10.42
v -8.89 13.74 -10.32
f 214//146 215//146 216//146 
v -8.69 13.74 -10.32
f 215//146 214//146 217//146 
v -8.79 0.326081 -10.42
v -8.79 0.326081 -10.22
v -8.89 0.326081 -10.32
f 218//150 219//150 220//150 
v -8.69 0.326081 -10.32
f 219//150 218//150 221//150 
f 214//149 221//148 217//148 
f 221//148 214//149 219//149 
f 220//145 214//149 216//145 
f 214//149 220//145 219//149 
f 220//145 215//147 218//147 
f 215//147 220//145 216//145 
f 221//148 215//147 217//148 
f 215//147 221//148 218//147 
g Group4 
usemtl Layer_Layer0
v 11.21 0.426081 -10.32
v 11.21 0.226081 -10.32
v 11.11 0.326081 -10.32
vn 0 0 -1
f 222//151 223//151 224//151 
v 11.31 0.326081 -10.32
f 223//151 222//151 225//151 
v 11.21 0.226081 14.68
v 11.21 0.426081 14.68
v 11.11 0.326081 14.68
vn 0 0 1
f 226//152 227//152 228//152 
v 11.31 0.326081 14.68
f 227//152 226//152 229//152 
vn 0 1 0
vn 1 0 0
f 222//153 229//154 225//154 
f 229//154 222//153 227//153 
vn -1 0 0
f 228//155 222//153 224//155 
f 222//153 228//155 227//153 
vn 0 -1 0
f 228//155 223//156 226//156 
f 223//156 228//155 224//155 
f 229//154 223//156 225//154 
f 223//156 229//154 226//156 
g Group5 
usemtl Layer_Layer0
v -8.79 0.426081 14.68
v -8.79 0.226081 14.68
v -8.69 0.326081 14.68
vn 0 0 1
f 230//157 231//157 232//157 
v -8.89 0.326081 14.68
f 231//157 230//157 233//157 
v -8.79 0.226081 -10.32
v -8.79 0.426081 -10.32
v -8.69 0.326081 -10.32
vn 0 0 -1
f 234//158 235//158 236//158 
v -8.89 0.326081 -10.32
f 235//158 234//158 237//158 
vn 0 1 0
vn -1 0 0
f 230//159 237//160 233//160 
f 237//160 230//159 235//159 
vn 1 0 0
f 236//161 230//159 232//161 
f 230//159 236//161 235//159 
vn 0 -1 0
f 236//161 231//162 234//162 
f 231//162 236//161 232//161 
f 237//160 231//162 233//160 
f 231//162 237//160 234//162 
g Group6 
usemtl Layer_Layer0
v -8.79 13.74 14.78
v -8.79 13.74 14.58
v -8.79 13.84 14.68
vn 1 0 0
f 238//163 239//163 240//163 
v -8.79 13.64 14.68
f 239//163 238//163 241//163 
v -18.79 13.74 14.58
v -18.79 13.74 14.78
v -18.79 13.84 14.68
vn -1 0 0
f 242//164 243//164 244//164 
v -18.79 13.64 14.68
f 243//164 242//164 245//164 
vn 0 0 1
vn 0 -1 0
f 238//165 245//166 241//166 
f 245//166 238//165 243//165 
vn 0 1 0
f 244//167 238//165 240//167 
f 238//165 244//167 243//165 
vn 0 0 -1
f 244//167 239//168 242//168 
f 239//168 244//167 240//167 
f 245//166 239//168 241//166 
f 239//168 245//166 242//168 
g Group7 
usemtl Layer_Layer0
v 21.21 3.74 14.78
v 21.21 3.74 14.58
v 21.21 3.64 14.68
vn -1 0 0
f 246//169 247//169 248//169 
v 21.21 3.84 14.68
f 247//169 246//169 249//169 
v 31.21 3.74 14.58
v 31.21 3.74 14.78
v 31.21 3.64 14.68
vn 1 0 0
f 250//170 251//170 252//170 
v 31.21 3.84 14.68
f 251//170 250//170 253//170 
vn 0 0 1
vn 0 1 0
f 246//171 253//172 249//172 
f 253//172 246//171 251//171 
vn 0 -1 0
f 252//173 246//171 248//173 
f 246//171 252//173 251//171 
vn 0 0 -1
f 252//173 247//174 250//174 
f 247//174 252//173 248//173 
f 253//172 247//174 249//172 
f 247//174 253//172 250//174 
g Group8 
usemtl Layer_Layer0
v -18.79 13.74 14.78
v -18.79 13.74 14.58
v -18.79 13.84 14.68
vn 1 0 0
f 254//175 255//175 256//175 
v -18.79 13.64 14.68
f 255//175 254//175 257//175 
v -28.79 13.74 14.58
v -28.79 13.74 14.78
v -28.79 13.84 14.68
vn -1 0 0
f 258//176 259//176 260//176 
v -28.79 13.64 14.68
f 259//176 258//176 261//176 
vn 0 0 1
vn 0 -1 0
f 254//177 261//178 257//178 
f 261//178 254//177 259//177 
vn 0 1 0
f 260//179 254//177 256//179 
f 254//177 260//179 259//177 
vn 0 0 -1
f 260//179 255//180 258//180 
f 255//180 260//179 256//179 
f 261//178 255//180 257//178 
f 255//180 261//178 258//180 
g Group9 
usemtl Layer_Layer0
v -8.79 13.84 14.68
v -8.79 13.64 14.68
v -8.69 13.74 14.68
vn 0 0 1
f 262//181 263//181 264//181 
v -8.89 13.74 14.68
f 263//181 262//181 265//181 
v -8.79 13.64 -10.32
v -8.79 13.84 -10.32
v -8.69 13.74 -10.32
vn 0 0 -1
f 266//182 267//182 268//182 
v -8.89 13.74 -10.32
f 267//182 266//182 269//182 
vn 0 1 0
vn -1 0 0
f 262//183 269//184 265//184 
f 269//184 262//183 267//183 
vn 1 0 0
f 268//185 262//183 264//185 
f 262//183 268//185 267//183 
vn 0 -1 0
f 268//185 263//186 266//186 
f 263//186 268//185 264//185 
f 269//184 263//186 265//184 
f 263//186 269//184 266//186 
