mtllib p164b1.mtl
s 1
o 
g Group1 
usemtl Color_H08
v 10.66 18.4 4.1
v 10.66 8.4 -5.9
v 10.66 8.4 4.1
vn -1 0 0
f 1//1 2//1 3//1 
v 10.66 18.4 -5.9
f 2//1 1//1 4//1 
v -9.34 8.4 4.1
v -9.34 18.4 4.1
vn 0 0 -1
f 1//2 5//2 6//2 
f 5//2 1//2 3//2 
usemtl Color_M08
v -29.34 5.8605 -20.9
v -19.34 5.8605 -10.9
v 30.66 5.8605 -20.9
vn 0 1 0
f 7//3 8//3 9//3 
v -29.34 5.8605 19.1
f 8//3 7//3 10//3 
v 20.66 5.8605 -10.9
f 9//3 8//3 11//3 
v -19.34 5.8605 9.1
f 8//3 10//3 12//3 
v 30.66 5.8605 19.1
f 11//3 13//3 9//3 
v 20.66 5.8605 9.1
f 13//3 11//3 14//3 
f 13//3 14//3 12//3 
f 13//3 12//3 10//3 
usemtl [Color_H08]1
v 30.66 18.4 -20.9
vn 1 0 0
f 15//4 13//4 9//4 
v 30.66 18.4 19.1
f 13//4 15//4 16//4 
v -29.34 18.4 -20.9
f 15//2 7//2 17//2 
f 7//2 15//2 9//2 
v -29.34 18.4 19.1
f 18//1 7//1 10//1 
f 7//1 18//1 17//1 
v -9.34 18.4 -5.9
f 17//3 19//3 15//3 
f 19//3 17//3 18//3 
f 19//3 18//3 6//3 
f 6//3 18//3 1//3 
f 15//3 4//3 16//3 
f 4//3 15//3 19//3 
f 16//3 4//3 1//3 
f 16//3 1//3 18//3 
v -19.34 8.4 -10.9
vn 0 0 1
f 11//5 20//5 8//5 
v 20.66 8.4 -10.9
f 20//5 11//5 21//5 
f 20//4 12//4 8//4 
v -19.34 8.4 9.1
f 12//4 20//4 22//4 
v -9.34 8.4 -5.9
f 2//5 19//5 23//5 
f 19//5 2//5 4//5 
f 19//4 5//4 23//4 
f 5//4 19//4 6//4 
v 20.66 8.4 9.1
f 24//2 12//2 22//2 
f 12//2 24//2 14//2 
vn 0 -1 0
f 21//6 2//6 20//6 
f 2//6 21//6 24//6 
f 2//6 24//6 3//6 
f 3//6 24//6 5//6 
f 20//6 23//6 22//6 
f 23//6 20//6 2//6 
f 22//6 23//6 5//6 
f 22//6 5//6 24//6 
f 24//1 11//1 14//1 
f 11//1 24//1 21//1 
f 13//5 18//5 10//5 
f 18//5 13//5 16//5 
g Group10 
usemtl Color_M00
v -29.34 -21.6 -20.7
v -29.34 -21.6 -21.1
v -29.34 -21.8 -20.9
vn -1 0 0
f 25//7 26//7 27//7 
v -29.34 -21.4 -20.9
f 26//7 25//7 28//7 
v 30.66 -21.6 -21.1
v 30.66 -21.6 -20.7
v 30.66 -21.8 -20.9
vn 1 0 0
f 29//8 30//8 31//8 
v 30.66 -21.4 -20.9
f 30//8 29//8 32//8 
vn 0 0 1
vn 0 1 0
f 25//9 32//10 28//10 
f 32//10 25//9 30//9 
vn 0 -1 0
f 31//11 25//9 27//11 
f 25//9 31//11 30//9 
vn 0 0 -1
f 31//11 26//12 29//12 
f 26//12 31//11 27//11 
f 32//10 26//12 28//10 
f 26//12 32//10 29//12 
g Group11 
usemtl Color_M00
v 20.66 -21.6 9.3
v 20.66 -21.6 8.9
v 20.66 -21.4 9.1
vn 1 0 0
f 33//13 34//13 35//13 
v 20.66 -21.8 9.1
f 34//13 33//13 36//13 
v -19.34 -21.6 8.9
v -19.34 -21.6 9.3
v -19.34 -21.4 9.1
vn -1 0 0
f 37//14 38//14 39//14 
v -19.34 -21.8 9.1
f 38//14 37//14 40//14 
vn 0 0 1
vn 0 -1 0
f 33//15 40//16 36//16 
f 40//16 33//15 38//15 
vn 0 1 0
f 39//17 33//15 35//17 
f 33//15 39//17 38//15 
vn 0 0 -1
f 39//17 34//18 37//18 
f 34//18 39//17 35//17 
f 40//16 34//18 36//16 
f 34//18 40//16 37//18 
g Group12 
usemtl Color_M00
v -19.34 -21.4 9.1
v -19.34 -21.8 9.1
v -19.14 -21.6 9.1
vn 0 0 1
f 41//19 42//19 43//19 
v -19.54 -21.6 9.1
f 42//19 41//19 44//19 
v -19.34 -21.8 -10.9
v -19.34 -21.4 -10.9
v -19.14 -21.6 -10.9
vn 0 0 -1
f 45//20 46//20 47//20 
v -19.54 -21.6 -10.9
f 46//20 45//20 48//20 
vn 0 1 0
vn -1 0 0
f 41//21 48//22 44//22 
f 48//22 41//21 46//21 
vn 1 0 0
f 47//23 41//21 43//23 
f 41//21 47//23 46//21 
vn 0 -1 0
f 47//23 42//24 45//24 
f 42//24 47//23 43//23 
f 48//22 42//24 44//22 
f 42//24 48//22 45//24 
g Group13 
usemtl Color_M00
v -19.34 -21.6 -10.7
v -19.34 -21.6 -11.1
v -19.34 -21.8 -10.9
vn -1 0 0
f 49//25 50//25 51//25 
v -19.34 -21.4 -10.9
f 50//25 49//25 52//25 
v 20.66 -21.6 -11.1
v 20.66 -21.6 -10.7
v 20.66 -21.8 -10.9
vn 1 0 0
f 53//26 54//26 55//26 
v 20.66 -21.4 -10.9
f 54//26 53//26 56//26 
vn 0 0 1
vn 0 1 0
f 49//27 56//28 52//28 
f 56//28 49//27 54//27 
vn 0 -1 0
f 55//29 49//27 51//29 
f 49//27 55//29 54//27 
vn 0 0 -1
f 55//29 50//30 53//30 
f 50//30 55//29 51//29 
f 56//28 50//30 52//28 
f 50//30 56//28 53//30 
g Group14 
usemtl Color_M00
v 20.66 -21.4 -10.9
v 20.66 -21.8 -10.9
v 20.46 -21.6 -10.9
vn 0 0 -1
f 57//31 58//31 59//31 
v 20.86 -21.6 -10.9
f 58//31 57//31 60//31 
v 20.66 -21.8 9.1
v 20.66 -21.4 9.1
v 20.46 -21.6 9.1
vn 0 0 1
f 61//32 62//32 63//32 
v 20.86 -21.6 9.1
f 62//32 61//32 64//32 
vn 0 1 0
vn 1 0 0
f 57//33 64//34 60//34 
f 64//34 57//33 62//33 
vn -1 0 0
f 63//35 57//33 59//35 
f 57//33 63//35 62//33 
vn 0 -1 0
f 63//35 58//36 61//36 
f 58//36 63//35 59//35 
f 64//34 58//36 60//34 
f 58//36 64//34 61//36 
g Group15 
usemtl Color_M00
v -19.34 -21.6 9.3
v -19.34 -21.6 8.9
v -19.14 -21.6 9.1
vn 0 -1 0
f 65//37 66//37 67//37 
v -19.54 -21.6 9.1
f 66//37 65//37 68//37 
v -19.34 5.8605 8.9
v -19.34 5.8605 9.3
v -19.14 5.8605 9.1
vn 0 1 0
f 69//38 70//38 71//38 
v -19.54 5.8605 9.1
f 70//38 69//38 72//38 
vn 0 0 1
vn -1 0 0
f 65//39 72//40 68//40 
f 72//40 65//39 70//39 
vn 1 0 0
f 71//41 65//39 67//41 
f 65//39 71//41 70//39 
vn 0 0 -1
f 71//41 66//42 69//42 
f 66//42 71//41 67//41 
f 72//40 66//42 68//40 
f 66//42 72//40 69//42 
g Group16 
usemtl Color_M00
v -19.34 -21.6 -10.7
v -19.34 -21.6 -11.1
v -19.14 -21.6 -10.9
vn 0 -1 0
f 73//43 74//43 75//43 
v -19.54 -21.6 -10.9
f 74//43 73//43 76//43 
v -19.34 5.8605 -11.1
v -19.34 5.8605 -10.7
v -19.14 5.8605 -10.9
vn 0 1 0
f 77//44 78//44 79//44 
v -19.54 5.8605 -10.9
f 78//44 77//44 80//44 
vn 0 0 1
vn -1 0 0
f 73//45 80//46 76//46 
f 80//46 73//45 78//45 
vn 1 0 0
f 79//47 73//45 75//47 
f 73//45 79//47 78//45 
vn 0 0 -1
f 79//47 74//48 77//48 
f 74//48 79//47 75//47 
f 80//46 74//48 76//46 
f 74//48 80//46 77//48 
g Group17 
usemtl Color_M00
v 20.66 -21.6 9.3
v 20.66 -21.6 8.9
v 20.86 -21.6 9.1
vn 0 -1 0
f 81//49 82//49 83//49 
v 20.46 -21.6 9.1
f 82//49 81//49 84//49 
v 20.66 5.8605 8.9
v 20.66 5.8605 9.3
v 20.86 5.8605 9.1
vn 0 1 0
f 85//50 86//50 87//50 
v 20.46 5.8605 9.1
f 86//50 85//50 88//50 
vn 0 0 1
vn -1 0 0
f 81//51 88//52 84//52 
f 88//52 81//51 86//51 
vn 1 0 0
f 87//53 81//51 83//53 
f 81//51 87//53 86//51 
vn 0 0 -1
f 87//53 82//54 85//54 
f 82//54 87//53 83//53 
f 88//52 82//54 84//52 
f 82//54 88//52 85//54 
g Group18 
usemtl Color_M00
v 20.66 -21.6 -10.7
v 20.66 -21.6 -11.1
v 20.86 -21.6 -10.9
vn 0 -1 0
f 89//55 90//55 91//55 
v 20.46 -21.6 -10.9
f 90//55 89//55 92//55 
v 20.66 5.8605 -11.1
v 20.66 5.8605 -10.7
v 20.86 5.8605 -10.9
vn 0 1 0
f 93//56 94//56 95//56 
v 20.46 5.8605 -10.9
f 94//56 93//56 96//56 
vn 0 0 1
vn -1 0 0
f 89//57 96//58 92//58 
f 96//58 89//57 94//57 
vn 1 0 0
f 95//59 89//57 91//59 
f 89//57 95//59 94//57 
vn 0 0 -1
f 95//59 90//60 93//60 
f 90//60 95//59 91//59 
f 96//58 90//60 92//58 
f 90//60 96//58 93//60 
g Group19 
usemtl Color_M00
v 30.66 -21.4 -20.9
v 30.66 -21.8 -20.9
v 30.46 -21.6 -20.9
vn 0 0 -1
f 97//61 98//61 99//61 
v 30.86 -21.6 -20.9
f 98//61 97//61 100//61 
v 30.66 -21.8 19.1
v 30.66 -21.4 19.1
v 30.46 -21.6 19.1
vn 0 0 1
f 101//62 102//62 103//62 
v 30.86 -21.6 19.1
f 102//62 101//62 104//62 
vn 0 1 0
vn 1 0 0
f 97//63 104//64 100//64 
f 104//64 97//63 102//63 
vn -1 0 0
f 103//65 97//63 99//65 
f 97//63 103//65 102//63 
vn 0 -1 0
f 103//65 98//66 101//66 
f 98//66 103//65 99//65 
f 104//64 98//66 100//64 
f 98//66 104//64 101//66 
g Group20 
usemtl Color_M00
v 30.66 -21.6 19.3
v 30.66 -21.6 18.9
v 30.86 -21.6 19.1
vn 0 -1 0
f 105//67 106//67 107//67 
v 30.46 -21.6 19.1
f 106//67 105//67 108//67 
v 30.66 5.8605 18.9
v 30.66 5.8605 19.3
v 30.86 5.8605 19.1
vn 0 1 0
f 109//68 110//68 111//68 
v 30.46 5.8605 19.1
f 110//68 109//68 112//68 
vn 0 0 1
vn -1 0 0
f 105//69 112//70 108//70 
f 112//70 105//69 110//69 
vn 1 0 0
f 111//71 105//69 107//71 
f 105//69 111//71 110//69 
vn 0 0 -1
f 111//71 106//72 109//72 
f 106//72 111//71 107//71 
f 112//70 106//72 108//70 
f 106//72 112//70 109//72 
g Group21 
usemtl Color_M00
v -19.34 5.8605 -10.7
v -19.34 5.8605 -11.1
v -19.34 5.6605 -10.9
vn -1 0 0
f 113//73 114//73 115//73 
v -19.34 6.0605 -10.9
f 114//73 113//73 116//73 
v 20.66 5.8605 -11.1
v 20.66 5.8605 -10.7
v 20.66 5.6605 -10.9
vn 1 0 0
f 117//74 118//74 119//74 
v 20.66 6.0605 -10.9
f 118//74 117//74 120//74 
vn 0 0 1
vn 0 1 0
f 113//75 120//76 116//76 
f 120//76 113//75 118//75 
vn 0 -1 0
f 119//77 113//75 115//77 
f 113//75 119//77 118//75 
vn 0 0 -1
f 119//77 114//78 117//78 
f 114//78 119//77 115//77 
f 120//76 114//78 116//76 
f 114//78 120//76 117//78 
g Group22 
usemtl Color_M00
v 20.66 6.0605 -10.9
v 20.66 5.6605 -10.9
v 20.46 5.8605 -10.9
vn 0 0 -1
f 121//79 122//79 123//79 
v 20.86 5.8605 -10.9
f 122//79 121//79 124//79 
v 20.66 5.6605 9.1
v 20.66 6.0605 9.1
v 20.46 5.8605 9.1
vn 0 0 1
f 125//80 126//80 127//80 
v 20.86 5.8605 9.1
f 126//80 125//80 128//80 
vn 0 1 0
vn 1 0 0
f 121//81 128//82 124//82 
f 128//82 121//81 126//81 
vn -1 0 0
f 127//83 121//81 123//83 
f 121//81 127//83 126//81 
vn 0 -1 0
f 127//83 122//84 125//84 
f 122//84 127//83 123//83 
f 128//82 122//84 124//82 
f 122//84 128//82 125//84 
g Group23 
usemtl Color_M00
v -29.34 5.8605 19.3
v -29.34 5.8605 18.9
v -29.34 5.6605 19.1
vn -1 0 0
f 129//85 130//85 131//85 
v -29.34 6.0605 19.1
f 130//85 129//85 132//85 
v 30.66 5.8605 18.9
v 30.66 5.8605 19.3
v 30.66 5.6605 19.1
vn 1 0 0
f 133//86 134//86 135//86 
v 30.66 6.0605 19.1
f 134//86 133//86 136//86 
vn 0 0 1
vn 0 1 0
f 129//87 136//88 132//88 
f 136//88 129//87 134//87 
vn 0 -1 0
f 135//89 129//87 131//89 
f 129//87 135//89 134//87 
vn 0 0 -1
f 135//89 130//90 133//90 
f 130//90 135//89 131//89 
f 136//88 130//90 132//88 
f 130//90 136//88 133//90 
g Group24 
usemtl Color_M00
v 20.66 5.8605 9.3
v 20.66 5.8605 8.9
v 20.66 6.0605 9.1
vn 1 0 0
f 137//91 138//91 139//91 
v 20.66 5.6605 9.1
f 138//91 137//91 140//91 
v -19.34 5.8605 8.9
v -19.34 5.8605 9.3
v -19.34 6.0605 9.1
vn -1 0 0
f 141//92 142//92 143//92 
v -19.34 5.6605 9.1
f 142//92 141//92 144//92 
vn 0 0 1
vn 0 -1 0
f 137//93 144//94 140//94 
f 144//94 137//93 142//93 
vn 0 1 0
f 143//95 137//93 139//95 
f 137//93 143//95 142//93 
vn 0 0 -1
f 143//95 138//96 141//96 
f 138//96 143//95 139//95 
f 144//94 138//96 140//94 
f 138//96 144//94 141//96 
g Group25 
usemtl Color_M00
v -29.34 -21.6 19.3
v -29.34 -21.6 18.9
v -29.34 -21.8 19.1
vn -1 0 0
f 145//97 146//97 147//97 
v -29.34 -21.4 19.1
f 146//97 145//97 148//97 
v 30.66 -21.6 18.9
v 30.66 -21.6 19.3
v 30.66 -21.8 19.1
vn 1 0 0
f 149//98 150//98 151//98 
v 30.66 -21.4 19.1
f 150//98 149//98 152//98 
vn 0 0 1
vn 0 1 0
f 145//99 152//100 148//100 
f 152//100 145//99 150//99 
vn 0 -1 0
f 151//101 145//99 147//101 
f 145//99 151//101 150//99 
vn 0 0 -1
f 151//101 146//102 149//102 
f 146//102 151//101 147//101 
f 152//100 146//102 148//100 
f 146//102 152//100 149//102 
g Group26 
usemtl Color_M00
v -19.34 6.0605 9.1
v -19.34 5.6605 9.1
v -19.14 5.8605 9.1
vn 0 0 1
f 153//103 154//103 155//103 
v -19.54 5.8605 9.1
f 154//103 153//103 156//103 
v -19.34 5.6605 -10.9
v -19.34 6.0605 -10.9
v -19.14 5.8605 -10.9
vn 0 0 -1
f 157//104 158//104 159//104 
v -19.54 5.8605 -10.9
f 158//104 157//104 160//104 
vn 0 1 0
vn -1 0 0
f 153//105 160//106 156//106 
f 160//106 153//105 158//105 
vn 1 0 0
f 159//107 153//105 155//107 
f 153//105 159//107 158//105 
vn 0 -1 0
f 159//107 154//108 157//108 
f 154//108 159//107 155//107 
f 160//106 154//108 156//106 
f 154//108 160//106 157//108 
usemtl Color_M08
v -29.34 5.8605 -20.9
v -19.34 5.8605 -10.9
v 30.66 5.8605 -20.9
f 161//105 162//105 163//105 
v -29.34 5.8605 19.1
f 162//105 161//105 164//105 
v 20.66 5.8605 -10.9
f 163//105 162//105 165//105 
v -19.34 5.8605 9.1
f 162//105 164//105 166//105 
v 30.66 5.8605 19.1
f 165//105 167//105 163//105 
v 20.66 5.8605 9.1
f 167//105 165//105 168//105 
f 167//105 168//105 166//105 
f 167//105 166//105 164//105 
usemtl [Color_H08]1
v -29.34 -21.6 -20.9
v -29.34 -21.6 19.1
f 164//106 169//106 170//106 
f 169//106 164//106 161//106 
f 163//104 169//104 161//104 
v 30.66 -21.6 -20.9
f 169//104 163//104 171//104 
v 30.66 -21.6 19.1
f 172//103 164//103 170//103 
f 164//103 172//103 167//103 
f 163//107 172//107 171//107 
f 172//107 163//107 167//107 
v 20.66 -21.6 -10.9
v -19.34 -21.6 -10.9
f 173//103 162//103 174//103 
f 162//103 173//103 165//103 
v -19.34 -21.6 9.1
f 168//104 175//104 166//104 
v 20.66 -21.6 9.1
f 175//104 168//104 176//104 
f 162//107 175//107 174//107 
f 175//107 162//107 166//107 
f 168//106 173//106 176//106 
f 173//106 168//106 165//106 
f 171//108 173//108 169//108 
f 173//108 171//108 172//108 
f 173//108 172//108 176//108 
f 176//108 172//108 175//108 
f 169//108 174//108 170//108 
f 174//108 169//108 173//108 
f 170//108 174//108 175//108 
f 170//108 175//108 172//108 
g Group3 
usemtl Color_M00
v 30.66 -21.6 -20.7
v 30.66 -21.6 -21.1
v 30.86 -21.6 -20.9
vn 0 -1 0
f 177//109 178//109 179//109 
v 30.46 -21.6 -20.9
f 178//109 177//109 180//109 
v 30.66 5.8605 -21.1
v 30.66 5.8605 -20.7
v 30.86 5.8605 -20.9
vn 0 1 0
f 181//110 182//110 183//110 
v 30.46 5.8605 -20.9
f 182//110 181//110 184//110 
vn 0 0 1
vn -1 0 0
f 177//111 184//112 180//112 
f 184//112 177//111 182//111 
vn 1 0 0
f 183//113 177//111 179//113 
f 177//111 183//113 182//111 
vn 0 0 -1
f 183//113 178//114 181//114 
f 178//114 183//113 179//113 
f 184//112 178//114 180//112 
f 178//114 184//112 181//114 
g Group4 
usemtl Color_M00
v -29.34 -21.4 -20.9
v -29.34 -21.8 -20.9
v -29.54 -21.6 -20.9
vn 0 0 -1
f 185//115 186//115 187//115 
v -29.14 -21.6 -20.9
f 186//115 185//115 188//115 
v -29.34 -21.8 19.1
v -29.34 -21.4 19.1
v -29.54 -21.6 19.1
vn 0 0 1
f 189//116 190//116 191//116 
v -29.14 -21.6 19.1
f 190//116 189//116 192//116 
vn 0 1 0
vn 1 0 0
f 185//117 192//118 188//118 
f 192//118 185//117 190//117 
vn -1 0 0
f 191//119 185//117 187//119 
f 185//117 191//119 190//117 
vn 0 -1 0
f 191//119 186//120 189//120 
f 186//120 191//119 187//119 
f 192//118 186//120 188//118 
f 186//120 192//118 189//120 
g Group5 
usemtl Color_M00
v -29.34 5.8605 19.3
v -29.34 5.8605 18.9
v -29.54 5.8605 19.1
vn 0 1 0
f 193//121 194//121 195//121 
v -29.14 5.8605 19.1
f 194//121 193//121 196//121 
v -29.34 -21.6 18.9
v -29.34 -21.6 19.3
v -29.54 -21.6 19.1
vn 0 -1 0
f 197//122 198//122 199//122 
v -29.14 -21.6 19.1
f 198//122 197//122 200//122 
vn 0 0 1
vn 1 0 0
f 193//123 200//124 196//124 
f 200//124 193//123 198//123 
vn -1 0 0
f 199//125 193//123 195//125 
f 193//123 199//125 198//123 
vn 0 0 -1
f 199//125 194//126 197//126 
f 194//126 199//125 195//125 
f 200//124 194//126 196//124 
f 194//126 200//124 197//126 
g Group6 
usemtl Color_M00
v 30.66 6.0605 19.1
v 30.66 5.6605 19.1
v 30.86 5.8605 19.1
vn 0 0 1
f 201//127 202//127 203//127 
v 30.46 5.8605 19.1
f 202//127 201//127 204//127 
v 30.66 5.6605 -20.9
v 30.66 6.0605 -20.9
v 30.86 5.8605 -20.9
vn 0 0 -1
f 205//128 206//128 207//128 
v 30.46 5.8605 -20.9
f 206//128 205//128 208//128 
vn 0 1 0
vn -1 0 0
f 201//129 208//130 204//130 
f 208//130 201//129 206//129 
vn 1 0 0
f 207//131 201//129 203//131 
f 201//129 207//131 206//129 
vn 0 -1 0
f 207//131 202//132 205//132 
f 202//132 207//131 203//131 
f 208//130 202//132 204//130 
f 202//132 208//130 205//132 
g Group7 
usemtl Color_M00
v -29.34 6.0605 -20.9
v -29.34 5.6605 -20.9
v -29.54 5.8605 -20.9
vn 0 0 -1
f 209//133 210//133 211//133 
v -29.14 5.8605 -20.9
f 210//133 209//133 212//133 
v -29.34 5.6605 19.1
v -29.34 6.0605 19.1
v -29.54 5.8605 19.1
vn 0 0 1
f 213//134 214//134 215//134 
v -29.14 5.8605 19.1
f 214//134 213//134 216//134 
vn 0 1 0
vn 1 0 0
f 209//135 216//136 212//136 
f 216//136 209//135 214//135 
vn -1 0 0
f 215//137 209//135 211//137 
f 209//135 215//137 214//135 
vn 0 -1 0
f 215//137 210//138 213//138 
f 210//138 215//137 211//137 
f 216//136 210//138 212//136 
f 210//138 216//136 213//138 
g Group8 
usemtl Color_M00
v -29.34 5.8605 -20.7
v -29.34 5.8605 -21.1
v -29.54 5.8605 -20.9
vn 0 1 0
f 217//139 218//139 219//139 
v -29.14 5.8605 -20.9
f 218//139 217//139 220//139 
v -29.34 -21.6 -21.1
v -29.34 -21.6 -20.7
v -29.54 -21.6 -20.9
vn 0 -1 0
f 221//140 222//140 223//140 
v -29.14 -21.6 -20.9
f 222//140 221//140 224//140 
vn 0 0 1
vn 1 0 0
f 217//141 224//142 220//142 
f 224//142 217//141 222//141 
vn -1 0 0
f 223//143 217//141 219//143 
f 217//141 223//143 222//141 
vn 0 0 -1
f 223//143 218//144 221//144 
f 218//144 223//143 219//143 
f 224//142 218//144 220//142 
f 218//144 224//142 221//144 
g Group9 
usemtl Color_M00
v 30.66 5.8605 -20.7
v 30.66 5.8605 -21.1
v 30.66 6.0605 -20.9
vn 1 0 0
f 225//145 226//145 227//145 
v 30.66 5.6605 -20.9
f 226//145 225//145 228//145 
v -29.34 5.8605 -21.1
v -29.34 5.8605 -20.7
v -29.34 6.0605 -20.9
vn -1 0 0
f 229//146 230//146 231//146 
v -29.34 5.6605 -20.9
f 230//146 229//146 232//146 
vn 0 0 1
vn 0 -1 0
f 225//147 232//148 228//148 
f 232//148 225//147 230//147 
vn 0 1 0
f 231//149 225//147 227//149 
f 225//147 231//149 230//147 
vn 0 0 -1
f 231//149 226//150 229//150 
f 226//150 231//149 227//149 
f 232//148 226//150 228//148 
f 226//150 232//148 229//150 
