mtllib p164b1.mtl
s 1
o 
g Group10 
usemtl Color_H08
v 20.66 -21.6 9.25
v 20.66 -21.6 8.95
v 20.66 -21.45 9.1
vn 1 0 0
f 1//1 2//1 3//1 
v 20.66 -21.75 9.1
f 2//1 1//1 4//1 
v -19.34 -21.6 8.95
v -19.34 -21.6 9.25
v -19.34 -21.45 9.1
vn -1 0 0
f 5//2 6//2 7//2 
v -19.34 -21.75 9.1
f 6//2 5//2 8//2 
vn 0 0 1
vn 0 -1 0
f 1//3 8//4 4//4 
f 8//4 1//3 6//3 
vn 0 1 0
f 7//5 1//3 3//5 
f 1//3 7//5 6//3 
vn 0 0 -1
f 7//5 2//6 5//6 
f 2//6 7//5 3//5 
f 8//4 2//6 4//4 
f 2//6 8//4 5//6 
g Group11 
usemtl Color_H08
v -19.34 -21.45 9.1
v -19.34 -21.75 9.1
v -19.19 -21.6 9.1
vn 0 0 1
f 9//7 10//7 11//7 
v -19.49 -21.6 9.1
f 10//7 9//7 12//7 
v -19.34 -21.75 -10.9
v -19.34 -21.45 -10.9
v -19.19 -21.6 -10.9
vn 0 0 -1
f 13//8 14//8 15//8 
v -19.49 -21.6 -10.9
f 14//8 13//8 16//8 
vn 0 1 0
vn -1 0 0
f 9//9 16//10 12//10 
f 16//10 9//9 14//9 
vn 1 0 0
f 15//11 9//9 11//11 
f 9//9 15//11 14//9 
vn 0 -1 0
f 15//11 10//12 13//12 
f 10//12 15//11 11//11 
f 16//10 10//12 12//10 
f 10//12 16//10 13//12 
g Group12 
usemtl Color_H08
v -19.34 -21.6 -10.75
v -19.34 -21.6 -11.05
v -19.34 -21.75 -10.9
vn -1 0 0
f 17//13 18//13 19//13 
v -19.34 -21.45 -10.9
f 18//13 17//13 20//13 
v 20.66 -21.6 -11.05
v 20.66 -21.6 -10.75
v 20.66 -21.75 -10.9
vn 1 0 0
f 21//14 22//14 23//14 
v 20.66 -21.45 -10.9
f 22//14 21//14 24//14 
vn 0 0 1
vn 0 1 0
f 17//15 24//16 20//16 
f 24//16 17//15 22//15 
vn 0 -1 0
f 23//17 17//15 19//17 
f 17//15 23//17 22//15 
vn 0 0 -1
f 23//17 18//18 21//18 
f 18//18 23//17 19//17 
f 24//16 18//18 20//16 
f 18//18 24//16 21//18 
g Group13 
usemtl Color_H08
v 20.66 -21.45 -10.9
v 20.66 -21.75 -10.9
v 20.51 -21.6 -10.9
vn 0 0 -1
f 25//19 26//19 27//19 
v 20.81 -21.6 -10.9
f 26//19 25//19 28//19 
v 20.66 -21.75 9.1
v 20.66 -21.45 9.1
v 20.51 -21.6 9.1
vn 0 0 1
f 29//20 30//20 31//20 
v 20.81 -21.6 9.1
f 30//20 29//20 32//20 
vn 0 1 0
vn 1 0 0
f 25//21 32//22 28//22 
f 32//22 25//21 30//21 
vn -1 0 0
f 31//23 25//21 27//23 
f 25//21 31//23 30//21 
vn 0 -1 0
f 31//23 26//24 29//24 
f 26//24 31//23 27//23 
f 32//22 26//24 28//22 
f 26//24 32//22 29//24 
g Group14 
usemtl Color_H08
v -19.34 -21.6 9.25
v -19.34 -21.6 8.95
v -19.19 -21.6 9.1
vn 0 -1 0
f 33//25 34//25 35//25 
v -19.49 -21.6 9.1
f 34//25 33//25 36//25 
v -19.34 5.8605 8.95
v -19.34 5.8605 9.25
v -19.19 5.8605 9.1
vn 0 1 0
f 37//26 38//26 39//26 
v -19.49 5.8605 9.1
f 38//26 37//26 40//26 
vn 0 0 1
vn -1 0 0
f 33//27 40//28 36//28 
f 40//28 33//27 38//27 
vn 1 0 0
f 39//29 33//27 35//29 
f 33//27 39//29 38//27 
vn 0 0 -1
f 39//29 34//30 37//30 
f 34//30 39//29 35//29 
f 40//28 34//30 36//28 
f 34//30 40//28 37//30 
g Group15 
usemtl Color_H08
v -19.34 -21.6 -10.75
v -19.34 -21.6 -11.05
v -19.19 -21.6 -10.9
vn 0 -1 0
f 41//31 42//31 43//31 
v -19.49 -21.6 -10.9
f 42//31 41//31 44//31 
v -19.34 5.8605 -11.05
v -19.34 5.8605 -10.75
v -19.19 5.8605 -10.9
vn 0 1 0
f 45//32 46//32 47//32 
v -19.49 5.8605 -10.9
f 46//32 45//32 48//32 
vn 0 0 1
vn -1 0 0
f 41//33 48//34 44//34 
f 48//34 41//33 46//33 
vn 1 0 0
f 47//35 41//33 43//35 
f 41//33 47//35 46//33 
vn 0 0 -1
f 47//35 42//36 45//36 
f 42//36 47//35 43//35 
f 48//34 42//36 44//34 
f 42//36 48//34 45//36 
g Group16 
usemtl Color_H08
v 20.66 -21.6 9.25
v 20.66 -21.6 8.95
v 20.81 -21.6 9.1
vn 0 -1 0
f 49//37 50//37 51//37 
v 20.51 -21.6 9.1
f 50//37 49//37 52//37 
v 20.66 5.8605 8.95
v 20.66 5.8605 9.25
v 20.81 5.8605 9.1
vn 0 1 0
f 53//38 54//38 55//38 
v 20.51 5.8605 9.1
f 54//38 53//38 56//38 
vn 0 0 1
vn -1 0 0
f 49//39 56//40 52//40 
f 56//40 49//39 54//39 
vn 1 0 0
f 55//41 49//39 51//41 
f 49//39 55//41 54//39 
vn 0 0 -1
f 55//41 50//42 53//42 
f 50//42 55//41 51//41 
f 56//40 50//42 52//40 
f 50//42 56//40 53//42 
g Group17 
usemtl Color_H08
v 20.66 -21.6 -10.75
v 20.66 -21.6 -11.05
v 20.81 -21.6 -10.9
vn 0 -1 0
f 57//43 58//43 59//43 
v 20.51 -21.6 -10.9
f 58//43 57//43 60//43 
v 20.66 5.8605 -11.05
v 20.66 5.8605 -10.75
v 20.81 5.8605 -10.9
vn 0 1 0
f 61//44 62//44 63//44 
v 20.51 5.8605 -10.9
f 62//44 61//44 64//44 
vn 0 0 1
vn -1 0 0
f 57//45 64//46 60//46 
f 64//46 57//45 62//45 
vn 1 0 0
f 63//47 57//45 59//47 
f 57//45 63//47 62//45 
vn 0 0 -1
f 63//47 58//48 61//48 
f 58//48 63//47 59//47 
f 64//46 58//48 60//46 
f 58//48 64//46 61//48 
g Group18 
usemtl Color_H08
v 30.66 -21.45 -20.9
v 30.66 -21.75 -20.9
v 30.51 -21.6 -20.9
vn 0 0 -1
f 65//49 66//49 67//49 
v 30.81 -21.6 -20.9
f 66//49 65//49 68//49 
v 30.66 -21.75 19.1
v 30.66 -21.45 19.1
v 30.51 -21.6 19.1
vn 0 0 1
f 69//50 70//50 71//50 
v 30.81 -21.6 19.1
f 70//50 69//50 72//50 
vn 0 1 0
vn 1 0 0
f 65//51 72//52 68//52 
f 72//52 65//51 70//51 
vn -1 0 0
f 71//53 65//51 67//53 
f 65//51 71//53 70//51 
vn 0 -1 0
f 71//53 66//54 69//54 
f 66//54 71//53 67//53 
f 72//52 66//54 68//52 
f 66//54 72//52 69//54 
g Group19 
usemtl Color_H08
v 30.66 -21.6 19.25
v 30.66 -21.6 18.95
v 30.81 -21.6 19.1
vn 0 -1 0
f 73//55 74//55 75//55 
v 30.51 -21.6 19.1
f 74//55 73//55 76//55 
v 30.66 5.8605 18.95
v 30.66 5.8605 19.25
v 30.81 5.8605 19.1
vn 0 1 0
f 77//56 78//56 79//56 
v 30.51 5.8605 19.1
f 78//56 77//56 80//56 
vn 0 0 1
vn -1 0 0
f 73//57 80//58 76//58 
f 80//58 73//57 78//57 
vn 1 0 0
f 79//59 73//57 75//59 
f 73//57 79//59 78//57 
vn 0 0 -1
f 79//59 74//60 77//60 
f 74//60 79//59 75//59 
f 80//58 74//60 76//58 
f 74//60 80//58 77//60 
g Group2 
usemtl Color_H08
v 30.66 -21.6 -20.75
v 30.66 -21.6 -21.05
v 30.81 -21.6 -20.9
vn 0 -1 0
f 81//61 82//61 83//61 
v 30.51 -21.6 -20.9
f 82//61 81//61 84//61 
v 30.66 5.8605 -21.05
v 30.66 5.8605 -20.75
v 30.81 5.8605 -20.9
vn 0 1 0
f 85//62 86//62 87//62 
v 30.51 5.8605 -20.9
f 86//62 85//62 88//62 
vn 0 0 1
vn -1 0 0
f 81//63 88//64 84//64 
f 88//64 81//63 86//63 
vn 1 0 0
f 87//65 81//63 83//65 
f 81//63 87//65 86//63 
vn 0 0 -1
f 87//65 82//66 85//66 
f 82//66 87//65 83//65 
f 88//64 82//66 84//64 
f 82//66 88//64 85//66 
g Group20 
usemtl Color_H08
v -19.34 5.8605 -10.75
v -19.34 5.8605 -11.05
v -19.34 5.7105 -10.9
vn -1 0 0
f 89//67 90//67 91//67 
v -19.34 6.0105 -10.9
f 90//67 89//67 92//67 
v 20.66 5.8605 -11.05
v 20.66 5.8605 -10.75
v 20.66 5.7105 -10.9
vn 1 0 0
f 93//68 94//68 95//68 
v 20.66 6.0105 -10.9
f 94//68 93//68 96//68 
vn 0 0 1
vn 0 1 0
f 89//69 96//70 92//70 
f 96//70 89//69 94//69 
vn 0 -1 0
f 95//71 89//69 91//71 
f 89//69 95//71 94//69 
vn 0 0 -1
f 95//71 90//72 93//72 
f 90//72 95//71 91//71 
f 96//70 90//72 92//70 
f 90//72 96//70 93//72 
g Group21 
usemtl Color_H08
v 20.66 6.0105 -10.9
v 20.66 5.7105 -10.9
v 20.51 5.8605 -10.9
vn 0 0 -1
f 97//73 98//73 99//73 
v 20.81 5.8605 -10.9
f 98//73 97//73 100//73 
v 20.66 5.7105 9.1
v 20.66 6.0105 9.1
v 20.51 5.8605 9.1
vn 0 0 1
f 101//74 102//74 103//74 
v 20.81 5.8605 9.1
f 102//74 101//74 104//74 
vn 0 1 0
vn 1 0 0
f 97//75 104//76 100//76 
f 104//76 97//75 102//75 
vn -1 0 0
f 103//77 97//75 99//77 
f 97//75 103//77 102//75 
vn 0 -1 0
f 103//77 98//78 101//78 
f 98//78 103//77 99//77 
f 104//76 98//78 100//76 
f 98//78 104//76 101//78 
g Group22 
usemtl Color_H08
v -29.34 5.8605 19.25
v -29.34 5.8605 18.95
v -29.34 5.7105 19.1
vn -1 0 0
f 105//79 106//79 107//79 
v -29.34 6.0105 19.1
f 106//79 105//79 108//79 
v 30.66 5.8605 18.95
v 30.66 5.8605 19.25
v 30.66 5.7105 19.1
vn 1 0 0
f 109//80 110//80 111//80 
v 30.66 6.0105 19.1
f 110//80 109//80 112//80 
vn 0 0 1
vn 0 1 0
f 105//81 112//82 108//82 
f 112//82 105//81 110//81 
vn 0 -1 0
f 111//83 105//81 107//83 
f 105//81 111//83 110//81 
vn 0 0 -1
f 111//83 106//84 109//84 
f 106//84 111//83 107//83 
f 112//82 106//84 108//82 
f 106//84 112//82 109//84 
g Group23 
usemtl Color_H08
v 20.66 5.8605 9.25
v 20.66 5.8605 8.95
v 20.66 6.0105 9.1
vn 1 0 0
f 113//85 114//85 115//85 
v 20.66 5.7105 9.1
f 114//85 113//85 116//85 
v -19.34 5.8605 8.95
v -19.34 5.8605 9.25
v -19.34 6.0105 9.1
vn -1 0 0
f 117//86 118//86 119//86 
v -19.34 5.7105 9.1
f 118//86 117//86 120//86 
vn 0 0 1
vn 0 -1 0
f 113//87 120//88 116//88 
f 120//88 113//87 118//87 
vn 0 1 0
f 119//89 113//87 115//89 
f 113//87 119//89 118//87 
vn 0 0 -1
f 119//89 114//90 117//90 
f 114//90 119//89 115//89 
f 120//88 114//90 116//88 
f 114//90 120//88 117//90 
g Group24 
usemtl Color_H08
v -29.34 -21.6 19.25
v -29.34 -21.6 18.95
v -29.34 -21.75 19.1
vn -1 0 0
f 121//91 122//91 123//91 
v -29.34 -21.45 19.1
f 122//91 121//91 124//91 
v 30.66 -21.6 18.95
v 30.66 -21.6 19.25
v 30.66 -21.75 19.1
vn 1 0 0
f 125//92 126//92 127//92 
v 30.66 -21.45 19.1
f 126//92 125//92 128//92 
vn 0 0 1
vn 0 1 0
f 121//93 128//94 124//94 
f 128//94 121//93 126//93 
vn 0 -1 0
f 127//95 121//93 123//95 
f 121//93 127//95 126//93 
vn 0 0 -1
f 127//95 122//96 125//96 
f 122//96 127//95 123//95 
f 128//94 122//96 124//94 
f 122//96 128//94 125//96 
g Group25 
usemtl Color_H08
v -19.34 6.0105 9.1
v -19.34 5.7105 9.1
v -19.19 5.8605 9.1
vn 0 0 1
f 129//97 130//97 131//97 
v -19.49 5.8605 9.1
f 130//97 129//97 132//97 
v -19.34 5.7105 -10.9
v -19.34 6.0105 -10.9
v -19.19 5.8605 -10.9
vn 0 0 -1
f 133//98 134//98 135//98 
v -19.49 5.8605 -10.9
f 134//98 133//98 136//98 
vn 0 1 0
vn -1 0 0
f 129//99 136//100 132//100 
f 136//100 129//99 134//99 
vn 1 0 0
f 135//101 129//99 131//101 
f 129//99 135//101 134//99 
vn 0 -1 0
f 135//101 130//102 133//102 
f 130//102 135//101 131//101 
f 136//100 130//102 132//100 
f 130//102 136//100 133//102 
usemtl Color_M08
v -29.34 5.8605 -20.9
v -19.34 5.8605 -10.9
v 30.66 5.8605 -20.9
f 137//99 138//99 139//99 
v -29.34 5.8605 19.1
f 138//99 137//99 140//99 
v 20.66 5.8605 -10.9
f 139//99 138//99 141//99 
v -19.34 5.8605 9.1
f 138//99 140//99 142//99 
v 30.66 5.8605 19.1
f 141//99 143//99 139//99 
v 20.66 5.8605 9.1
f 143//99 141//99 144//99 
f 143//99 144//99 142//99 
f 143//99 142//99 140//99 
usemtl [Color_H08]1
v -29.34 -21.6 -20.9
v -29.34 -21.6 19.1
f 140//100 145//100 146//100 
f 145//100 140//100 137//100 
f 139//98 145//98 137//98 
v 30.66 -21.6 -20.9
f 145//98 139//98 147//98 
v 30.66 -21.6 19.1
f 148//97 140//97 146//97 
f 140//97 148//97 143//97 
f 139//101 148//101 147//101 
f 148//101 139//101 143//101 
v 20.66 -21.6 -10.9
v -19.34 -21.6 -10.9
f 149//97 138//97 150//97 
f 138//97 149//97 141//97 
v -19.34 -21.6 9.1
f 144//98 151//98 142//98 
v 20.66 -21.6 9.1
f 151//98 144//98 152//98 
f 138//101 151//101 150//101 
f 151//101 138//101 142//101 
f 144//100 149//100 152//100 
f 149//100 144//100 141//100 
f 147//102 149//102 145//102 
f 149//102 147//102 148//102 
f 149//102 148//102 152//102 
f 152//102 148//102 151//102 
f 145//102 150//102 146//102 
f 150//102 145//102 149//102 
f 146//102 150//102 151//102 
f 146//102 151//102 148//102 
g Group3 
usemtl Color_H08
v -29.34 -21.45 -20.9
v -29.34 -21.75 -20.9
v -29.49 -21.6 -20.9
vn 0 0 -1
f 153//103 154//103 155//103 
v -29.19 -21.6 -20.9
f 154//103 153//103 156//103 
v -29.34 -21.75 19.1
v -29.34 -21.45 19.1
v -29.49 -21.6 19.1
vn 0 0 1
f 157//104 158//104 159//104 
v -29.19 -21.6 19.1
f 158//104 157//104 160//104 
vn 0 1 0
vn 1 0 0
f 153//105 160//106 156//106 
f 160//106 153//105 158//105 
vn -1 0 0
f 159//107 153//105 155//107 
f 153//105 159//107 158//105 
vn 0 -1 0
f 159//107 154//108 157//108 
f 154//108 159//107 155//107 
f 160//106 154//108 156//106 
f 154//108 160//106 157//108 
g Group4 
usemtl Color_H08
v -29.34 5.8605 19.25
v -29.34 5.8605 18.95
v -29.49 5.8605 19.1
vn 0 1 0
f 161//109 162//109 163//109 
v -29.19 5.8605 19.1
f 162//109 161//109 164//109 
v -29.34 -21.6 18.95
v -29.34 -21.6 19.25
v -29.49 -21.6 19.1
vn 0 -1 0
f 165//110 166//110 167//110 
v -29.19 -21.6 19.1
f 166//110 165//110 168//110 
vn 0 0 1
vn 1 0 0
f 161//111 168//112 164//112 
f 168//112 161//111 166//111 
vn -1 0 0
f 167//113 161//111 163//113 
f 161//111 167//113 166//111 
vn 0 0 -1
f 167//113 162//114 165//114 
f 162//114 167//113 163//113 
f 168//112 162//114 164//112 
f 162//114 168//112 165//114 
g Group5 
usemtl Color_H08
v 30.66 6.0105 19.1
v 30.66 5.7105 19.1
v 30.81 5.8605 19.1
vn 0 0 1
f 169//115 170//115 171//115 
v 30.51 5.8605 19.1
f 170//115 169//115 172//115 
v 30.66 5.7105 -20.9
v 30.66 6.0105 -20.9
v 30.81 5.8605 -20.9
vn 0 0 -1
f 173//116 174//116 175//116 
v 30.51 5.8605 -20.9
f 174//116 173//116 176//116 
vn 0 1 0
vn -1 0 0
f 169//117 176//118 172//118 
f 176//118 169//117 174//117 
vn 1 0 0
f 175//119 169//117 171//119 
f 169//117 175//119 174//117 
vn 0 -1 0
f 175//119 170//120 173//120 
f 170//120 175//119 171//119 
f 176//118 170//120 172//118 
f 170//120 176//118 173//120 
g Group6 
usemtl Color_H08
v -29.34 6.0105 -20.9
v -29.34 5.7105 -20.9
v -29.49 5.8605 -20.9
vn 0 0 -1
f 177//121 178//121 179//121 
v -29.19 5.8605 -20.9
f 178//121 177//121 180//121 
v -29.34 5.7105 19.1
v -29.34 6.0105 19.1
v -29.49 5.8605 19.1
vn 0 0 1
f 181//122 182//122 183//122 
v -29.19 5.8605 19.1
f 182//122 181//122 184//122 
vn 0 1 0
vn 1 0 0
f 177//123 184//124 180//124 
f 184//124 177//123 182//123 
vn -1 0 0
f 183//125 177//123 179//125 
f 177//123 183//125 182//123 
vn 0 -1 0
f 183//125 178//126 181//126 
f 178//126 183//125 179//125 
f 184//124 178//126 180//124 
f 178//126 184//124 181//126 
g Group7 
usemtl Color_H08
v -29.34 5.8605 -20.75
v -29.34 5.8605 -21.05
v -29.49 5.8605 -20.9
vn 0 1 0
f 185//127 186//127 187//127 
v -29.19 5.8605 -20.9
f 186//127 185//127 188//127 
v -29.34 -21.6 -21.05
v -29.34 -21.6 -20.75
v -29.49 -21.6 -20.9
vn 0 -1 0
f 189//128 190//128 191//128 
v -29.19 -21.6 -20.9
f 190//128 189//128 192//128 
vn 0 0 1
vn 1 0 0
f 185//129 192//130 188//130 
f 192//130 185//129 190//129 
vn -1 0 0
f 191//131 185//129 187//131 
f 185//129 191//131 190//129 
vn 0 0 -1
f 191//131 186//132 189//132 
f 186//132 191//131 187//131 
f 192//130 186//132 188//130 
f 186//132 192//130 189//132 
g Group8 
usemtl Color_H08
v 30.66 5.8605 -20.75
v 30.66 5.8605 -21.05
v 30.66 6.0105 -20.9
vn 1 0 0
f 193//133 194//133 195//133 
v 30.66 5.7105 -20.9
f 194//133 193//133 196//133 
v -29.34 5.8605 -21.05
v -29.34 5.8605 -20.75
v -29.34 6.0105 -20.9
vn -1 0 0
f 197//134 198//134 199//134 
v -29.34 5.7105 -20.9
f 198//134 197//134 200//134 
vn 0 0 1
vn 0 -1 0
f 193//135 200//136 196//136 
f 200//136 193//135 198//135 
vn 0 1 0
f 199//137 193//135 195//137 
f 193//135 199//137 198//135 
vn 0 0 -1
f 199//137 194//138 197//138 
f 194//138 199//137 195//137 
f 200//136 194//138 196//136 
f 194//138 200//136 197//138 
g Group9 
usemtl Color_H08
v -29.34 -21.6 -20.75
v -29.34 -21.6 -21.05
v -29.34 -21.75 -20.9
vn -1 0 0
f 201//139 202//139 203//139 
v -29.34 -21.45 -20.9
f 202//139 201//139 204//139 
v 30.66 -21.6 -21.05
v 30.66 -21.6 -20.75
v 30.66 -21.75 -20.9
vn 1 0 0
f 205//140 206//140 207//140 
v 30.66 -21.45 -20.9
f 206//140 205//140 208//140 
vn 0 0 1
vn 0 1 0
f 201//141 208//142 204//142 
f 208//142 201//141 206//141 
vn 0 -1 0
f 207//143 201//141 203//143 
f 201//141 207//143 206//141 
vn 0 0 -1
f 207//143 202//144 205//144 
f 202//144 207//143 203//143 
f 208//142 202//144 204//142 
f 202//144 208//142 205//144 
